<?xml version="1.0" encoding="utf-8"?>
<!-- Generator: Adobe Illustrator 20.1.0, SVG Export Plug-In . SVG Version: 6.00 Build 0)  -->
<svg version="1.1" xmlns="http://www.w3.org/2000/svg" xmlns:xlink="http://www.w3.org/1999/xlink" x="0px" y="0px"
	 viewBox="0 0 355.7 431.5" style="enable-background:new 0 0 355.7 431.5;" xml:space="preserve">
<style type="text/css">
	.st0{fill:none;stroke:#000000;stroke-miterlimit:10;}
	.st1{fill:#58575D;}
	.st2{fill:#4F4E53;}
</style>
<g id="Livello_1">
	<g id="Livello_1_1_">
		<line class="st0" x1="149.8" y1="165.4" x2="149.8" y2="165.4"/>
		<line class="st0" x1="140.6" y1="288.5" x2="140.6" y2="288.5"/>
		<path class="st1" d="M129.4,420.6c-14.4-14.4-14.8-37.2,0-52.1l-0.5-0.5L229,268c28.9-28.9,29.6-75.7,0.7-104.7L128.9,62.5
			l-0.2,0.2c-14.1-14.1-14.4-37.7,0-52.1c14.4-14.4,37.9-14.1,52.1,0l0.5-0.5l153.1,153.1c28.9,28.9,28.2,75.7-0.7,104.7
			L181.3,420.3l0.2,0.2C166.6,435.4,143.8,435,129.4,420.6z"/>
		<path class="st1" d="M11.4,420.6c-14.4-14.4-14.8-37.2,0-52.1l-0.5-0.5L111,268c28.9-28.9,29.6-75.7,0.7-104.7L10.9,62.5l-0.2,0.2
			c-14.1-14.1-14.4-37.7,0-52.1c14.4-14.4,37.9-14.1,52.1,0l0.5-0.5l153.1,153.1c28.9,28.9,28.2,75.7-0.7,104.7L63.3,420.3l0.2,0.2
			C48.6,435.4,25.8,435,11.4,420.6z"/>
	</g>
	<g id="Livello_2">
	</g>
</g>
<g id="Livello_2_1_">
	<path class="st2" d="M333.6,268L181.3,420.3l0.2,0.2c-1.2,1.2-2.4,2.2-3.6,3.2V319.1L229,268c28.9-28.9,29.6-75.7,0.7-104.7
		l-51.8-51.8V8.1c1,0.8,2,1.7,2.9,2.6l0.5-0.5l153.1,153.1C363.3,192.2,362.6,239,333.6,268z"/>
	<path class="st2" d="M215.6,268l-37.8,37.8V124.8l38.5,38.5C245.3,192.2,244.6,239,215.6,268z"/>
</g>
</svg>
