<?xml version="1.0" encoding="utf-8"?>
<!-- Generator: Adobe Illustrator 19.2.1, SVG Export Plug-In . SVG Version: 6.00 Build 0)  -->
<svg version="1.1" id="Livello_1" xmlns="http://www.w3.org/2000/svg" xmlns:xlink="http://www.w3.org/1999/xlink" x="0px" y="0px"
	 viewBox="0 0 348 348" style="enable-background:new 0 0 348 348;" xml:space="preserve">
<style type="text/css">
	.st0{display:none;}
	.st1{display:inline;}
	.st2{fill:none;stroke:#000000;stroke-miterlimit:10;}
	.st3{fill:#58575D;stroke:#DBA112;stroke-width:5;stroke-miterlimit:10;}
	.st4{fill:#4F4E53;}
	.st5{fill:none;}
	.st6{display:none;fill:#58575D;}
	.st7{fill:#DDC043;}
	.st8{fill:#BC9906;}
</style>
<g id="Livello_1_2_" class="st0">
	<g id="Livello_1_1_" class="st1">
		<line class="st2" x1="694.5" y1="270.8" x2="694.5" y2="270.8"/>
		<line class="st2" x1="703.7" y1="147.8" x2="703.7" y2="147.8"/>
		<path class="st3" d="M714.9,15.7c14.4,14.4,14.8,37.2,0,52.1l0.5,0.5L615.3,168.4c-28.9,28.9-29.6,75.7-0.7,104.7l100.8,100.8
			l0.2-0.2c14.1,14.1,14.4,37.7,0,52.1s-37.9,14.1-52.1,0l-0.5,0.5L510,272.9c-28.9-28.9-28.2-75.7,0.7-104.7L663,15.9l-0.2-0.2
			C677.7,0.8,700.5,1.3,714.9,15.7z"/>
		<path class="st3" d="M832.9,15.7c14.4,14.4,14.8,37.2,0,52.1l0.5,0.5L733.3,168.4c-28.9,28.9-29.6,75.7-0.7,104.7l100.8,100.6
			l0.2-0.2c14.1,14.1,14.4,37.7,0,52.1s-37.9,14.1-52.1,0l-0.5,0.5L628,272.9c-28.9-28.9-28.2-75.7,0.7-104.7L781,15.9l-0.2-0.2
			C795.7,0.8,818.5,1.3,832.9,15.7z"/>
	</g>
	<g id="Livello_2" class="st1">
	</g>
</g>
<g id="Livello_1_copia_2" class="st0">
	<g id="Livello_1_4_" class="st1">
		<line class="st2" x1="694.5" y1="270.8" x2="694.5" y2="270.8"/>
		<line class="st2" x1="703.7" y1="147.8" x2="703.7" y2="147.8"/>
		<path class="st4" d="M713,66.8l-46.7,46.9V16.2c15.4-13.4,35.8-9.9,47.4,2.1c14.2,14.6,13.8,33.4-1,48.3L713,66.8z"/>
		<path class="st4" d="M714,423.5c-13.5,13.5-33.3,13-47.7,1.4v-96.3l48.3,46.3l0.2-0.2C728.9,388.9,728.4,409.1,714,423.5z"/>
		<path class="st4" d="M831.4,424.5c-14.4,14.4-35.2,13.5-49.4-0.6l-0.5,0.5L666.3,307.7V134.2L781.9,16.8l-0.2-0.2
			c14.9-14.9,35.2-13.2,49.6,1.2c14.4,14.4,14.5,34.1-0.3,49l0.5,0.5L730.8,167c-28.9,29-28.8,79,0.1,108L832,375.1l0.2-0.2
			C846.4,389,845.8,410.1,831.4,424.5z"/>
	</g>
	<g id="Livello_2_2_" class="st1">
	</g>
</g>
<g id="Livello_1_copia" class="st0">
	<g id="Livello_1_3_" class="st1">
		<line class="st5" x1="668.2" y1="270.8" x2="668.2" y2="270.8"/>
		<line class="st5" x1="677.4" y1="147.8" x2="677.4" y2="147.8"/>
		<path class="st4" d="M486.4,170.1L637.8,20.7l-0.2-0.2c1.2-1.2,2.5-2.8,3.8-3.8l-0.4,95.9l-53.1,55.3
			c-28.9,28.9-30.7,79.5-1.8,108.5l55.3,53.6v96c-1.1-0.9-2.1-1.8-3.1-2.8l-0.5,0.5L485.7,273C456.8,244.1,457.5,199.1,486.4,170.1z
			"/>
		<path class="st4" d="M606,166.2l35-32.6l-0.7,174l-39.3-39C572.1,239.7,577.1,195.2,606,166.2z"/>
	</g>
	<g id="Livello_2_1_" class="st1">
	</g>
</g>
<rect x="426" class="st6" width="240.5" height="447"/>
<g id="Livello_1_6_" class="st0">
	<g id="Livello_1_7_" class="st1">
		<line class="st2" x1="638.3" y1="170.4" x2="638.3" y2="170.4"/>
		<line class="st2" x1="629.1" y1="293.4" x2="629.1" y2="293.4"/>
		<path class="st7" d="M617.9,425.5c-14.4-14.4-14.8-37.2,0-52.1l-0.5-0.5l100.1-100.1c28.9-28.9,29.6-75.7,0.7-104.7L617.4,67.3
			l-0.2,0.2c-14.1-14.1-14.4-37.7,0-52.1s37.9-14.1,52.1,0l0.5-0.5l153,153.4c28.9,28.9,28.2,75.7-0.7,104.7L669.8,425.3l0.2,0.2
			C655.1,440.4,632.3,439.9,617.9,425.5z"/>
		<path class="st7" d="M499.9,425.5c-14.4-14.4-14.8-37.2,0-52.1l-0.5-0.5l100.1-100.1c28.9-28.9,29.6-75.7,0.7-104.7L499.4,67.5
			l-0.2,0.2c-14.1-14.1-14.4-37.7,0-52.1s37.9-14.1,52.1,0l0.5-0.5l153,153.2c28.9,28.9,28.2,75.7-0.7,104.7L551.8,425.3l0.2,0.2
			C537.1,440.4,514.3,439.9,499.9,425.5z"/>
	</g>
	<g id="Livello_2_4_" class="st1">
	</g>
</g>
<g id="Livello_1_8_" class="st0">
	<g id="Livello_1_9_" class="st1">
		<line class="st2" x1="638.5" y1="170.5" x2="638.5" y2="170.5"/>
		<line class="st2" x1="629.3" y1="293.5" x2="629.3" y2="293.5"/>
		<path class="st8" d="M822.3,273.2L670,425.5l0.2,0.2c-1.2,1.2-2.4,2.3-3.7,3.3V324.1l51.2-51.2c28.9-28.9,29.6-75.7,0.7-104.7
			l-51.9-51.9V12.9c1,0.8,2,1.7,3,2.6L670,15l153,153.4C851.9,197.3,851.2,244.2,822.3,273.2z"/>
		<path class="st8" d="M704.3,273.2L666.5,311V130l38.5,38.5C733.9,197.3,733.2,244.2,704.3,273.2z"/>
	</g>
	<g id="Livello_2_5_" class="st1">
	</g>
</g>
<g id="Livello_1_copia_1_" class="st0">
	<g id="Livello_1_5_" class="st1">
		<line class="st5" x1="638.3" y1="170.4" x2="638.3" y2="170.4"/>
		<line class="st5" x1="629.1" y1="293.4" x2="629.1" y2="293.4"/>
	</g>
	<g id="Livello_2_3_" class="st1">
	</g>
</g>
<g id="Livello_1_13_">
	<g id="Livello_1_14_">
		<line class="st2" x1="135.4" y1="192.1" x2="135.4" y2="192.1"/>
		<line class="st2" x1="230.3" y1="199.2" x2="230.3" y2="199.2"/>
		<path class="st7" d="M332.2,207.8c-11.1,11.1-28.7,11.4-40.2,0l-0.4,0.4L214.4,131c-22.3-22.3-58.4-22.8-80.8-0.5l-77.8,77.8
			l0.2,0.2c-10.9,10.9-29.1,11.1-40.2,0s-10.9-29.2,0-40.2l-0.4-0.4l118.3-118c22.3-22.3,58.4-21.8,80.8,0.5l117.6,117.4l0.2-0.2
			C343.7,179.1,343.3,196.7,332.2,207.8z"/>
		<path class="st7" d="M332.2,298.9c-11.1,11.1-28.7,11.4-40.2,0l-0.4,0.4l-77.2-77.2c-22.3-22.3-58.4-22.8-80.8-0.5L56,299.4
			l0.2,0.2c-10.9,10.9-29.1,11.1-40.2,0s-10.9-29.2,0-40.2l-0.4-0.4l118.2-118c22.3-22.3,58.4-21.8,80.8,0.5l117.5,117.3l0.2-0.2
			C343.7,270.2,343.3,287.7,332.2,298.9z"/>
	</g>
	<g id="Livello_2_8_">
	</g>
</g>
<g id="Livello_1_11_">
	<g id="Livello_1_12_">
		<line class="st2" x1="135.5" y1="191.9" x2="135.5" y2="191.9"/>
		<line class="st2" x1="230.4" y1="199" x2="230.4" y2="199"/>
		<path class="st8" d="M214.7,50.2l117.4,117.4l0.2-0.2c0.9,0.9,1.7,1.9,2.5,2.8H254l-39.5-39.5c-22.3-22.3-58.4-22.8-80.8-0.5
			l-40,40H13.9c0.6-0.8,1.3-1.6,2-2.3l-0.4-0.4l118.3-118C156.2,27.3,192.3,27.9,214.7,50.2z"/>
		<path class="st8" d="M214.7,141.2l29.1,29.1H104.2l29.7-29.7C156.2,118.3,192.3,118.9,214.7,141.2z"/>
	</g>
	<g id="Livello_2_7_">
	</g>
</g>
<g id="Livello_1_copia_2_" class="st0">
	<g id="Livello_1_10_" class="st1">
		<line class="st5" x1="152.3" y1="131.7" x2="152.3" y2="131.7"/>
		<line class="st5" x1="145.2" y1="226.6" x2="145.2" y2="226.6"/>
	</g>
	<g id="Livello_2_6_" class="st1">
	</g>
</g>
</svg>
