<?xml version="1.0" encoding="utf-8"?>
<!-- Generator: Adobe Illustrator 20.1.0, SVG Export Plug-In . SVG Version: 6.00 Build 0)  -->
<svg version="1.1" xmlns="http://www.w3.org/2000/svg" xmlns:xlink="http://www.w3.org/1999/xlink" x="0px" y="0px"
	 viewBox="0 0 355.7 431.5" style="enable-background:new 0 0 355.7 431.5;" xml:space="preserve">
<style type="text/css">
	.st0{fill:none;stroke:#000000;stroke-miterlimit:10;}
	.st1{fill:#58575D;}
	.st2{fill:#4F4E53;}
	.st3{display:none;}
	.st4{display:inline;fill:#4F4E53;}
</style>
<g id="Livello_1">
	<g id="Livello_1_1_">
		<line class="st0" x1="205.9" y1="266.1" x2="205.9" y2="266.1"/>
		<line class="st0" x1="215.1" y1="143.1" x2="215.1" y2="143.1"/>
		<path class="st1" d="M226.3,11c14.4,14.4,14.8,37.2,0,52.1l0.5,0.5L126.7,163.6c-28.9,28.9-29.6,75.7-0.7,104.7L226.8,369l0.2-0.2
			c14.1,14.1,14.4,37.7,0,52.1c-14.4,14.4-37.9,14.1-52.1,0l-0.5,0.5L21.3,268.2C-7.6,239.3-6.9,192.5,22,163.6L174.4,11.2l-0.2-0.2
			C189-3.9,211.9-3.4,226.3,11z"/>
		<path class="st1" d="M344.3,11c14.4,14.4,14.8,37.2,0,52.1l0.5,0.5L244.7,163.6c-28.9,28.9-29.6,75.7-0.7,104.7L344.8,369l0.2-0.2
			c14.1,14.1,14.4,37.7,0,52.1c-14.4,14.4-37.9,14.1-52.1,0l-0.5,0.5L139.3,268.2c-28.9-28.9-28.2-75.7,0.7-104.7L292.4,11.2
			l-0.2-0.2C307-3.9,329.9-3.4,344.3,11z"/>
	</g>
	<g id="Livello_2">
	</g>
</g>
<g id="Livello_1_copia">
	<g id="Livello_1_3_">
		<line class="st0" x1="205.9" y1="266.1" x2="205.9" y2="266.1"/>
		<line class="st0" x1="215.1" y1="143.1" x2="215.1" y2="143.1"/>
		<path class="st2" d="M226.8,63.5l-48.9,48.9V7.7c14.8-11.5,35.2-10,48.4,3.2c14.4,14.4,14.8,37.2,0,52.1L226.8,63.5z"/>
		<path class="st2" d="M227,420.8c-13.4,13.4-34.9,14.1-49.1,2.6V320.1l48.9,48.9l0.2-0.2C241.1,382.9,241.4,406.5,227,420.8z"/>
		<path class="st2" d="M345,420.8c-14.4,14.4-38,14.1-52.1,0l-0.5,0.5L177.8,306.7V125.8L292.4,11.2l-0.2-0.2
			c14.8-14.8,37.7-14.4,52.1,0s14.8,37.2,0,52.1l0.5,0.5l-100,100.1c-28.9,28.9-29.6,75.7-0.7,104.7L344.8,369l0.2-0.2
			C359.1,382.9,359.4,406.5,345,420.8z"/>
	</g>
	<g id="Livello_2_2_">
	</g>
</g>
<g id="Livello_2_1_" class="st3">
	<path class="st4" d="M333.6,268L181.3,420.3l0.2,0.2c-1.2,1.2-2.4,2.2-3.6,3.2V319.1L229,268c28.9-28.9,29.6-75.7,0.7-104.7
		l-51.8-51.8V8.1c1,0.8,2,1.7,2.9,2.6l0.5-0.5l153.1,153.1C363.3,192.2,362.6,239,333.6,268z"/>
	<path class="st4" d="M215.6,268l-37.8,37.8V124.8l38.5,38.5C245.3,192.2,244.6,239,215.6,268z"/>
</g>
</svg>
