<?xml version="1.0" encoding="utf-8"?>
<!-- Generator: Adobe Illustrator 19.2.1, SVG Export Plug-In . SVG Version: 6.00 Build 0)  -->
<svg version="1.1" id="Livello_1" xmlns="http://www.w3.org/2000/svg" xmlns:xlink="http://www.w3.org/1999/xlink" x="0px" y="0px"
	 viewBox="0 0 481 441.3" style="enable-background:new 0 0 481 441.3;" xml:space="preserve">
<style type="text/css">
	.st0{display:none;}
	.st1{display:inline;}
	.st2{fill:none;stroke:#000000;stroke-miterlimit:10;}
	.st3{fill:#58575D;stroke:#DBA112;stroke-width:5;stroke-miterlimit:10;}
	.st4{fill:#4F4E53;}
	.st5{fill:none;}
	.st6{display:none;fill:#58575D;}
	.st7{fill:#58575D;}
</style>
<g id="Livello_1_2_" class="st0">
	<g id="Livello_1_1_" class="st1">
		<line class="st2" x1="268.5" y1="270.8" x2="268.5" y2="270.8"/>
		<line class="st2" x1="277.7" y1="147.8" x2="277.7" y2="147.8"/>
		<path class="st3" d="M288.9,15.7c14.4,14.4,14.8,37.2,0,52.1l0.5,0.5L189.3,168.4c-28.9,28.9-29.6,75.7-0.7,104.7l100.8,100.8
			l0.2-0.2c14.1,14.1,14.4,37.7,0,52.1s-37.9,14.1-52.1,0l-0.5,0.5L84,272.9c-28.9-28.9-28.2-75.7,0.7-104.7L237,15.9l-0.2-0.2
			C251.7,0.8,274.5,1.3,288.9,15.7z"/>
		<path class="st3" d="M406.9,15.7c14.4,14.4,14.8,37.2,0,52.1l0.5,0.5L307.3,168.4c-28.9,28.9-29.6,75.7-0.7,104.7l100.8,100.6
			l0.2-0.2c14.1,14.1,14.4,37.7,0,52.1s-37.9,14.1-52.1,0l-0.5,0.5L202,272.9c-28.9-28.9-28.2-75.7,0.7-104.7L355,15.9l-0.2-0.2
			C369.7,0.8,392.5,1.3,406.9,15.7z"/>
	</g>
	<g id="Livello_2" class="st1">
	</g>
</g>
<g id="Livello_1_copia_2" class="st0">
	<g id="Livello_1_4_" class="st1">
		<line class="st2" x1="268.5" y1="270.8" x2="268.5" y2="270.8"/>
		<line class="st2" x1="277.7" y1="147.8" x2="277.7" y2="147.8"/>
		<path class="st4" d="M287,66.8l-46.7,46.9V16.2c15.4-13.4,35.8-9.9,47.4,2.1c14.2,14.6,13.8,33.4-1,48.3L287,66.8z"/>
		<path class="st4" d="M288,423.5c-13.5,13.5-33.3,13-47.7,1.4v-96.3l48.3,46.3l0.2-0.2C302.9,388.9,302.4,409.1,288,423.5z"/>
		<path class="st4" d="M405.4,424.5c-14.4,14.4-35.2,13.5-49.4-0.6l-0.5,0.5L240.3,307.7V134.2L355.9,16.8l-0.2-0.2
			c14.9-14.9,35.2-13.2,49.6,1.2s14.5,34.1-0.3,49l0.5,0.5L304.8,167c-28.9,29-28.8,79,0.1,108L406,375.1l0.2-0.2
			C420.4,389,419.8,410.1,405.4,424.5z"/>
	</g>
	<g id="Livello_2_2_" class="st1">
	</g>
</g>
<g id="Livello_1_copia" class="st0">
	<g id="Livello_1_3_" class="st1">
		<line class="st5" x1="242.2" y1="270.8" x2="242.2" y2="270.8"/>
		<line class="st5" x1="251.4" y1="147.8" x2="251.4" y2="147.8"/>
		<path class="st4" d="M60.4,170.1L211.8,20.7l-0.2-0.2c1.2-1.2,2.5-2.8,3.8-3.8l-0.4,95.9l-53.1,55.3
			c-28.9,28.9-30.7,79.5-1.8,108.5l55.3,53.6v96c-1.1-0.9-2.1-1.8-3.1-2.8l-0.5,0.5L59.7,273C30.8,244.1,31.5,199.1,60.4,170.1z"/>
		<path class="st4" d="M180,166.2l35-32.6l-0.7,174l-39.3-39C146.1,239.7,151.1,195.2,180,166.2z"/>
	</g>
	<g id="Livello_2_1_" class="st1">
	</g>
</g>
<rect class="st6" width="240.5" height="447"/>
<g id="Livello_1_6_">
	<g id="Livello_1_7_">
		<line class="st2" x1="212.3" y1="170.4" x2="212.3" y2="170.4"/>
		<line class="st2" x1="203.1" y1="293.4" x2="203.1" y2="293.4"/>
		<path class="st7" d="M191.9,425.5c-14.4-14.4-14.8-37.2,0-52.1l-0.5-0.5l100.1-100.1c28.9-28.9,29.6-75.7,0.7-104.7L191.4,67.3
			l-0.2,0.2c-14.1-14.1-14.4-37.7,0-52.1s37.9-14.1,52.1,0l0.5-0.5l153,153.4c28.9,28.9,28.2,75.7-0.7,104.7L243.8,425.3l0.2,0.2
			C229.1,440.4,206.3,439.9,191.9,425.5z"/>
		<path class="st7" d="M73.9,425.5c-14.4-14.4-14.8-37.2,0-52.1l-0.5-0.5l100.1-100.1c28.9-28.9,29.6-75.7,0.7-104.7L73.4,67.5
			l-0.2,0.2c-14.1-14.1-14.4-37.7,0-52.1s37.9-14.1,52.1,0l0.5-0.5l153,153.2c28.9,28.9,28.2,75.7-0.7,104.7L125.8,425.3l0.2,0.2
			C111.1,440.4,88.3,439.9,73.9,425.5z"/>
	</g>
	<g id="Livello_2_4_">
	</g>
</g>
<g id="Livello_1_copia_1_">
	<g id="Livello_1_5_">
		<line class="st5" x1="212.3" y1="170.4" x2="212.3" y2="170.4"/>
		<line class="st5" x1="203.1" y1="293.4" x2="203.1" y2="293.4"/>
		<path class="st4" d="M394.1,271.1L242.8,420.5l0.2,0.2c-1.2,1.2-2.5,2.8-3.8,3.8l0.4-95.9l53.1-55.3
			c28.9-28.9,30.7-79.5,1.8-108.5l-55.3-53.6v-96c1.1,0.9,2.1,1.8,3.1,2.8l0.5-0.5l152,150.7C423.7,197.2,423,242.1,394.1,271.1z"/>
		<path class="st4" d="M274.6,275l-35,32.6l0.7-174l39.3,39C308.5,201.5,303.5,246,274.6,275z"/>
	</g>
	<g id="Livello_2_3_">
	</g>
</g>
</svg>
