<?xml version="1.0" encoding="utf-8"?>
<!-- Generator: Adobe Illustrator 16.0.0, SVG Export Plug-In . SVG Version: 6.00 Build 0)  -->
<!DOCTYPE svg PUBLIC "-//W3C//DTD SVG 1.1//EN" "http://www.w3.org/Graphics/SVG/1.1/DTD/svg11.dtd">
<svg version="1.1" xmlns="http://www.w3.org/2000/svg" xmlns:xlink="http://www.w3.org/1999/xlink" x="0px" y="0px"
	 width="431.542px" height="354.889px" viewBox="0 0 431.542 354.889" enable-background="new 0 0 431.542 354.889"
	 xml:space="preserve">
<g id="Livello_1">
	<line fill="none" stroke="#000000" stroke-miterlimit="10" x1="265.37" y1="149.816" x2="265.37" y2="149.816"/>
	<line fill="none" stroke="#000000" stroke-miterlimit="10" x1="142.332" y1="140.624" x2="142.332" y2="140.624"/>
	<path fill="#58575D" d="M10.224,129.429c14.382-14.382,37.236-14.849,52.086,0.001l0.474-0.474l100.056,100.056
		c28.92,28.921,75.73,29.628,104.651,0.707l100.763-100.763l-0.233-0.233c14.143-14.143,37.703-14.383,52.086,0
		c14.382,14.382,14.142,37.943,0,52.085l0.474,0.475L267.491,334.371c-28.921,28.921-75.73,28.214-104.651-0.706L10.458,181.283
		l-0.233,0.233C-4.625,166.667-4.158,143.812,10.224,129.429z"/>
	<path fill="#4F4E53" d="M10.224,129.43c14.383-14.383,37.236-14.85,52.086,0l0.474-0.474l100.055,100.056
		c14.935,14.934,34.472,22.337,54.016,21.843l0.088,104.563c-19.544,0.494-39.17-6.82-54.104-21.755L10.458,181.283l-0.233,0.233
		C-4.625,166.667-4.158,143.812,10.224,129.43z"/>
	<path fill="#58575D" d="M10.224,11.429C24.605-2.953,47.46-3.419,62.31,11.43l0.474-0.474l100.056,100.056
		c28.92,28.92,75.73,29.627,104.651,0.707L368.253,10.957l-0.233-0.233c14.143-14.143,37.703-14.383,52.086,0
		c14.382,14.382,14.142,37.943,0,52.086l0.474,0.473L267.49,216.371c-28.921,28.921-75.73,28.214-104.651-0.706L10.457,63.282
		l-0.233,0.234C-4.626,48.667-4.158,25.812,10.224,11.429z"/>
	<path fill="#4F4E53" d="M10.224,11.43c14.383-14.383,37.236-14.85,52.086,0l0.474-0.474l100.055,100.056
		c14.935,14.934,34.472,22.337,54.016,21.842l0.088,104.564c-19.544,0.494-39.17-6.82-54.104-21.755L10.457,63.282l-0.233,0.234
		C-4.626,48.667-4.158,25.812,10.224,11.43z"/>
</g>
<g id="Livello_2">
</g>
</svg>
