<?xml version="1.0" encoding="UTF-8" standalone="no"?>
<!-- Generator: Adobe Illustrator 16.0.0, SVG Export Plug-In . SVG Version: 6.00 Build 0)  -->

<svg
   xmlns:dc="http://purl.org/dc/elements/1.1/"
   xmlns:cc="http://creativecommons.org/ns#"
   xmlns:rdf="http://www.w3.org/1999/02/22-rdf-syntax-ns#"
   xmlns:svg="http://www.w3.org/2000/svg"
   xmlns="http://www.w3.org/2000/svg"
   xmlns:sodipodi="http://sodipodi.sourceforge.net/DTD/sodipodi-0.dtd"
   xmlns:inkscape="http://www.inkscape.org/namespaces/inkscape"
   version="1.1"
   x="0px"
   y="0px"
   width="431.542px"
   height="354.889px"
   viewBox="0 0 431.542 354.889"
   enable-background="new 0 0 431.542 354.889"
   xml:space="preserve"
   id="svg2"
   inkscape:version="0.48.4 r9939"
   sodipodi:docname="arrowDown.svg"><metadata
     id="metadata22"><rdf:RDF><cc:Work
         rdf:about=""><dc:format>image/svg+xml</dc:format><dc:type
           rdf:resource="http://purl.org/dc/dcmitype/StillImage" /></cc:Work></rdf:RDF></metadata><defs
     id="defs20" /><sodipodi:namedview
     pagecolor="#ffffff"
     bordercolor="#666666"
     borderopacity="1"
     objecttolerance="10"
     gridtolerance="10"
     guidetolerance="10"
     inkscape:pageopacity="0"
     inkscape:pageshadow="2"
     inkscape:window-width="1855"
     inkscape:window-height="1056"
     id="namedview18"
     showgrid="false"
     inkscape:zoom="2.6599866"
     inkscape:cx="174.23206"
     inkscape:cy="145.15792"
     inkscape:window-x="65"
     inkscape:window-y="24"
     inkscape:window-maximized="1"
     inkscape:current-layer="Livello_1" /><g
     id="Livello_1"><line
       fill="none"
       stroke="#000000"
       stroke-miterlimit="10"
       x1="265.37"
       y1="149.816"
       x2="265.37"
       y2="149.816"
       id="line5" /><line
       fill="none"
       stroke="#000000"
       stroke-miterlimit="10"
       x1="142.332"
       y1="140.624"
       x2="142.332"
       y2="140.624"
       id="line7" /><path
       fill="#58575D"
       d="M10.224,129.429c14.382-14.382,37.236-14.849,52.086,0.001l0.474-0.474l100.056,100.056   c28.92,28.921,75.73,29.628,104.651,0.707l100.763-100.763l-0.233-0.233c14.143-14.143,37.703-14.383,52.086,0   c14.382,14.382,14.142,37.943,0,52.085l0.474,0.475L267.491,334.371c-28.921,28.921-75.73,28.214-104.651-0.706L10.458,181.283   l-0.233,0.233C-4.625,166.667-4.158,143.812,10.224,129.429z"
       id="path9"
       style="fill:#4f4e53;fill-opacity:1" /><path
       fill="#4F4E53"
       d="M10.224,129.43c14.383-14.383,37.236-14.85,52.086,0l0.474-0.474l100.055,100.056   c14.935,14.934,34.472,22.337,54.016,21.843l0.088,104.563c-19.544,0.494-39.17-6.82-54.104-21.755L10.458,181.283l-0.233,0.233   C-4.625,166.667-4.158,143.812,10.224,129.43z"
       id="path11"
       style="fill:#58575d;fill-opacity:1" /><path
       fill="#58575D"
       d="M10.224,11.429C24.605-2.953,47.46-3.419,62.31,11.43l0.474-0.474l100.056,100.056   c28.92,28.92,75.73,29.627,104.651,0.707L368.253,10.957l-0.233-0.233c14.143-14.143,37.703-14.383,52.086,0   c14.382,14.382,14.142,37.943,0,52.086l0.474,0.473L267.49,216.371c-28.921,28.921-75.73,28.214-104.651-0.706L10.457,63.282   l-0.233,0.234C-4.626,48.667-4.158,25.812,10.224,11.429z"
       id="path13"
       style="fill:#4f4e53;fill-opacity:1" /><path
       fill="#4F4E53"
       d="M10.224,11.43c14.383-14.383,37.236-14.85,52.086,0l0.474-0.474l100.055,100.056   c14.935,14.934,34.472,22.337,54.016,21.842l0.088,104.564c-19.544,0.494-39.17-6.82-54.104-21.755L10.457,63.282l-0.233,0.234   C-4.626,48.667-4.158,25.812,10.224,11.43z"
       id="path15"
       style="fill:#58575d;fill-opacity:1" /></g><g
     id="Livello_2" /></svg>