<?xml version="1.0" encoding="utf-8"?>
<!-- Generator: Adobe Illustrator 16.0.0, SVG Export Plug-In . SVG Version: 6.00 Build 0)  -->
<!DOCTYPE svg PUBLIC "-//W3C//DTD SVG 1.1//EN" "http://www.w3.org/Graphics/SVG/1.1/DTD/svg11.dtd">
<svg version="1.1" xmlns="http://www.w3.org/2000/svg" xmlns:xlink="http://www.w3.org/1999/xlink" x="0px" y="0px"
	 width="431.542px" height="354.889px" viewBox="0 0 431.542 354.889" enable-background="new 0 0 431.542 354.889"
	 xml:space="preserve">
<g id="Livello_1">
	<line fill="none" stroke="#000000" stroke-miterlimit="10" x1="165.433" y1="205.895" x2="165.433" y2="205.895"/>
	<line fill="none" stroke="#000000" stroke-miterlimit="10" x1="288.47" y1="215.087" x2="288.47" y2="215.087"/>
	<path fill="#58575D" d="M420.579,226.282c-14.382,14.382-37.236,14.849-52.086-0.001l-0.474,0.474L267.963,126.699
		c-28.92-28.92-75.73-29.627-104.651-0.707L62.549,226.754l0.233,0.233c-14.143,14.143-37.704,14.383-52.086,0
		c-14.382-14.382-14.142-37.943,0-52.085l-0.474-0.474L163.312,21.34c28.921-28.921,75.73-28.214,104.651,0.707l152.382,152.382
		l0.233-0.233C435.428,189.044,434.96,211.899,420.579,226.282z"/>
	<path fill="#4F4E53" d="M420.579,226.281c-14.383,14.383-37.236,14.85-52.086,0l-0.474,0.474L267.964,126.699
		c-14.935-14.934-34.472-22.337-54.016-21.843L213.859,0.293c19.544-0.495,39.17,6.82,54.104,21.754l152.382,152.381l0.233-0.233
		C435.428,189.045,434.96,211.899,420.579,226.281z"/>
	<path fill="#58575D" d="M420.579,344.282c-14.382,14.382-37.236,14.849-52.086-0.001l-0.474,0.474L267.963,244.699
		c-28.92-28.92-75.73-29.627-104.651-0.707L62.549,344.754l0.233,0.233c-14.143,14.143-37.704,14.383-52.086,0
		c-14.382-14.382-14.142-37.943,0-52.086l-0.474-0.473L163.312,139.34c28.921-28.921,75.73-28.214,104.651,0.707l152.382,152.382
		l0.233-0.234C435.428,307.044,434.96,329.899,420.579,344.282z"/>
	<path fill="#4F4E53" d="M420.579,344.281c-14.383,14.383-37.236,14.85-52.086,0l-0.474,0.474L267.964,244.699
		c-14.935-14.934-34.472-22.337-54.016-21.842l-0.088-104.564c19.544-0.495,39.17,6.82,54.104,21.754l152.382,152.382l0.233-0.234
		C435.428,307.044,434.96,329.899,420.579,344.281z"/>
</g>
<g id="Livello_2">
</g>
</svg>
