<?xml version="1.0" encoding="iso-8859-1"?>
<!-- Generator: Adobe Illustrator 19.0.0, SVG Export Plug-In . SVG Version: 6.00 Build 0)  -->
<svg version="1.1" id="Capa_1" xmlns="http://www.w3.org/2000/svg" xmlns:xlink="http://www.w3.org/1999/xlink" x="0px" y="0px"
	 viewBox="0 0 460 460" style="enable-background:new 0 0 460 460;" xml:space="preserve">
<g id="XMLID_1163_">
	<polygon id="XMLID_1164_" style="fill:#C0AB91;" points="370,90 370,0 330,0 330,30 230,30 230,90 	"/>
	<polygon id="XMLID_1165_" style="fill:#D9CCBC;" points="230,30 130,30 130,0 90,0 90,90 230,90 	"/>
	<rect id="XMLID_1166_" x="90" y="90" style="fill:#FFF5CC;" width="140" height="100"/>
	<path id="XMLID_1167_" style="fill:#D1E7F8;" d="M230,190H90c-27.5,0-50,22.5-50,50v40h190V190z"/>
	<rect id="XMLID_1168_" x="230" y="90" style="fill:#FFEB99;" width="140" height="100"/>
	<path id="XMLID_1169_" style="fill:#B3D8F4;" d="M370,190H230v90h190v-40C420,212.5,397.5,190,370,190z"/>
	<polygon id="XMLID_1170_" style="fill:#D9CCBC;" points="230,280 40,280 40,460 80,460 80,400 230,400 	"/>
	<polygon id="XMLID_1171_" style="fill:#C0AB91;" points="230,400 390,400 390,460 420,460 420,280 230,280 	"/>
</g>
<g>
</g>
<g>
</g>
<g>
</g>
<g>
</g>
<g>
</g>
<g>
</g>
<g>
</g>
<g>
</g>
<g>
</g>
<g>
</g>
<g>
</g>
<g>
</g>
<g>
</g>
<g>
</g>
<g>
</g>
</svg>
