<?xml version="1.0" encoding="iso-8859-1"?>
<!-- Generator: Adobe Illustrator 19.0.0, SVG Export Plug-In . SVG Version: 6.00 Build 0)  -->
<svg version="1.1" id="Capa_1" xmlns="http://www.w3.org/2000/svg" xmlns:xlink="http://www.w3.org/1999/xlink" x="0px" y="0px"
	 viewBox="0 0 460 460" style="enable-background:new 0 0 460 460;" xml:space="preserve">
<g id="XMLID_1152_">
	<polygon id="XMLID_1153_" style="fill:#C0AB91;" points="410,90 410,0 370,0 370,30 230,30 230,90 	"/>
	<polygon id="XMLID_1154_" style="fill:#D9CCBC;" points="230,90 230,30 90,30 90,0 50,0 50,90 	"/>
	<rect id="XMLID_1155_" x="50" y="90" style="fill:#FFF5CC;" width="90" height="100"/>
	<rect id="XMLID_1156_" x="140" y="90" style="fill:#FFEB99;" width="90" height="100"/>
	<rect id="XMLID_1157_" x="230" y="90" style="fill:#FFF5CC;" width="90" height="100"/>
	<rect id="XMLID_1158_" x="320" y="90" style="fill:#FFEB99;" width="90" height="100"/>
	<path id="XMLID_1159_" style="fill:#78B9EB;" d="M230,190H50c-27.5,0-50,22.5-50,50v40h230V190z"/>
	<path id="XMLID_1160_" style="fill:#3D9AE2;" d="M410,190H230v90h230v-40C460,212.5,437.5,190,410,190z"/>
	<polygon id="XMLID_1161_" style="fill:#D9CCBC;" points="0,280 0,460 40,460 40,400 230,400 230,280 	"/>
	<polygon id="XMLID_1162_" style="fill:#C0AB91;" points="230,400 420,400 420,460 460,460 460,280 230,280 	"/>
</g>
<g>
</g>
<g>
</g>
<g>
</g>
<g>
</g>
<g>
</g>
<g>
</g>
<g>
</g>
<g>
</g>
<g>
</g>
<g>
</g>
<g>
</g>
<g>
</g>
<g>
</g>
<g>
</g>
<g>
</g>
</svg>
