<?xml version="1.0" encoding="iso-8859-1"?>
<!-- Generator: Adobe Illustrator 19.0.0, SVG Export Plug-In . SVG Version: 6.00 Build 0)  -->
<svg version="1.1" id="Layer_1" xmlns="http://www.w3.org/2000/svg" xmlns:xlink="http://www.w3.org/1999/xlink" x="0px" y="0px"
	 viewBox="0 0 512.001 512.001" style="enable-background:new 0 0 512.001 512.001;" xml:space="preserve">
<path style="fill:#3D9AE2;" d="M371.17,34.901h-86.391c-9.637,0-17.45,7.813-17.45,17.45v122.418l-130.837,33.594
	c-7.716,1.98-13.111,8.936-13.111,16.902v269.286c0,9.637,7.813,17.45,17.45,17.45h230.338c9.637,0,17.45-7.813,17.45-17.45
	c0-11.576,0-415.306,0-442.198C388.621,42.714,380.808,34.901,371.17,34.901z"/>
<path style="fill:#1E81CE;" d="M371.17,34.901h-86.391c-9.637,0-17.45,7.813-17.45,17.45v122.418l-11.328,2.909V512h115.17
	c9.637,0,17.45-7.813,17.45-17.45c0-11.575,0-415.306,0-442.198C388.621,42.714,380.808,34.901,371.17,34.901z"/>
<path style="fill:#3E3D42;" d="M371.17,0h-86.391c-9.637,0-17.45,7.813-17.45,17.45s7.813,17.45,17.45,17.45h86.391
	c9.637,0,17.45-7.813,17.45-17.45S380.808,0,371.17,0z"/>
<path style="fill:#FFFFFF;" d="M321.829,305.329H190.171c-9.637,0-17.45,7.813-17.45,17.45v82.673c0,9.637,7.813,17.45,17.45,17.45
	H321.83c9.637,0,17.45-7.813,17.45-17.45V322.78C339.279,313.142,331.467,305.329,321.829,305.329z"/>
<path style="fill:#C6C5CA;" d="M321.829,305.329h-65.828v117.574h65.83c9.637,0,17.45-7.813,17.45-17.45V322.78
	C339.279,313.142,331.467,305.329,321.829,305.329z"/>
<g>
</g>
<g>
</g>
<g>
</g>
<g>
</g>
<g>
</g>
<g>
</g>
<g>
</g>
<g>
</g>
<g>
</g>
<g>
</g>
<g>
</g>
<g>
</g>
<g>
</g>
<g>
</g>
<g>
</g>
</svg>
