<?xml version="1.0" encoding="iso-8859-1"?>
<!-- Generator: Adobe Illustrator 19.0.0, SVG Export Plug-In . SVG Version: 6.00 Build 0)  -->
<svg version="1.1" id="Layer_1" xmlns="http://www.w3.org/2000/svg" xmlns:xlink="http://www.w3.org/1999/xlink" x="0px" y="0px"
	 viewBox="0 0 512 512" style="enable-background:new 0 0 512 512;" xml:space="preserve">
<path style="fill:#CC7400;" d="M452.963,105.795H59.038c-10.135,0-18.35,8.216-18.35,18.35V481.37c0,10.135,8.216,18.35,18.35,18.35
	h393.926c10.135,0,18.35-8.216,18.35-18.35V124.146C471.314,114.011,463.097,105.795,452.963,105.795z"/>
<path style="fill:#AA6100;" d="M452.963,105.795H256.001v393.926h196.963c10.135,0,18.35-8.216,18.35-18.35V124.146
	C471.314,114.011,463.098,105.795,452.963,105.795z"/>
<path style="fill:#E2800A;" d="M493.65,12.279H18.35C8.216,12.279,0,20.496,0,30.63v70.438c0,10.135,8.216,18.35,18.35,18.35H493.65
	c10.135,0,18.35-8.216,18.35-18.35V30.63C512,20.496,503.784,12.279,493.65,12.279z"/>
<path style="fill:#FFB655;" d="M337.967,174.822H174.033c-10.135,0-18.35,8.216-18.35,18.35v97.869
	c0,10.135,8.216,18.35,18.35,18.35h163.932c10.135,0,18.35-8.216,18.35-18.35v-97.869
	C356.317,183.038,348.101,174.822,337.967,174.822z"/>
<path style="fill:#D17007;" d="M493.65,12.279H256.001v107.139H493.65c10.135,0,18.35-8.216,18.35-18.35V30.63
	C512,20.496,503.784,12.279,493.65,12.279z"/>
<path style="fill:#FFA733;" d="M337.967,174.822h-81.966v134.57h81.966c10.135,0,18.35-8.216,18.35-18.35v-97.869
	C356.317,183.038,348.101,174.822,337.967,174.822z"/>
<rect x="40.686" y="119.414" style="fill:#AA6100;" width="430.631" height="24.295"/>
<g>
	<path style="fill:#6A563D;" d="M188.929,216.878h134.208c4.615,0,8.354-3.74,8.354-8.354c0-4.614-3.739-8.354-8.354-8.354H188.929
		c-4.614,0-8.354,3.74-8.354,8.354C180.575,213.138,184.315,216.878,188.929,216.878z"/>
	<path style="fill:#6A563D;" d="M323.137,233.376H188.929c-4.614,0-8.354,3.74-8.354,8.354c0,4.614,3.74,8.354,8.354,8.354h134.208
		c4.615,0,8.354-3.74,8.354-8.354C331.491,237.117,327.75,233.376,323.137,233.376z"/>
	<path style="fill:#6A563D;" d="M323.137,266.582H188.929c-4.614,0-8.354,3.74-8.354,8.354s3.74,8.354,8.354,8.354h134.208
		c4.615,0,8.354-3.74,8.354-8.354S327.75,266.582,323.137,266.582z"/>
</g>
<g>
</g>
<g>
</g>
<g>
</g>
<g>
</g>
<g>
</g>
<g>
</g>
<g>
</g>
<g>
</g>
<g>
</g>
<g>
</g>
<g>
</g>
<g>
</g>
<g>
</g>
<g>
</g>
<g>
</g>
</svg>
