<?xml version="1.0" encoding="iso-8859-1"?>
<!-- Generator: Adobe Illustrator 19.0.0, SVG Export Plug-In . SVG Version: 6.00 Build 0)  -->
<svg version="1.1" id="Layer_1" xmlns="http://www.w3.org/2000/svg" xmlns:xlink="http://www.w3.org/1999/xlink" x="0px" y="0px"
	 viewBox="0 0 512.002 512.002" style="enable-background:new 0 0 512.002 512.002;" xml:space="preserve">
<path style="fill:#FFB655;" d="M350.813,312.966H161.188c-9.805,0-17.754,7.949-17.754,17.754v163.528
	c0,9.805,7.949,17.754,17.754,17.754h105.113c7.816,0,14.713-5.111,16.986-12.59l10.567-72.788l9.774,72.334
	c2.119,7.706,9.126,13.046,17.118,13.046h30.067c9.805,0,17.754-7.949,17.754-17.754V330.719
	C368.565,320.915,360.617,312.966,350.813,312.966z"/>
<path style="fill:#AA6100;" d="M363.62,264.789l-62.971-62.971l4.713-151.671c0.407-13.079-4.583-25.968-13.691-35.363
	C282.563,5.388,269.835,0,256.749,0h-1.499c-13.085,0-25.814,5.388-34.921,14.784c-9.108,9.395-14.098,22.284-13.691,35.363
	l4.715,151.671l-62.971,62.971c-8.251,8.25-10.696,20.546-6.231,31.323c4.465,10.779,14.888,17.744,26.555,17.744h174.589
	c11.666,0,22.089-6.965,26.555-17.744C374.315,285.333,371.869,273.038,363.62,264.789z M256.001,77.239
	c-9.805,0-17.754-7.948-17.754-17.754s7.948-17.754,17.754-17.754c9.805,0,17.754,7.948,17.754,17.754
	S265.805,77.239,256.001,77.239z"/>
<path style="fill:#874A00;" d="M363.62,264.789l-62.971-62.971l4.713-151.671c0.407-13.079-4.583-25.968-13.691-35.363
	C282.563,5.388,269.835,0,256.749,0h-1.02v41.746c0.091-0.001,0.179-0.013,0.27-0.013c9.805,0,17.754,7.948,17.754,17.754
	s-7.948,17.754-17.754,17.754c-0.091,0-0.18-0.012-0.27-0.013v236.631h87.565c11.666,0,22.089-6.965,26.555-17.744
	C374.315,285.333,371.869,273.038,363.62,264.789z"/>
<path style="fill:#FFA733;" d="M350.813,312.966h-95.082V512h10.571c7.816,0,14.713-5.111,16.986-12.59l10.567-72.788l9.774,72.334
	c2.119,7.706,9.126,13.046,17.118,13.046h30.067c9.805,0,17.754-7.949,17.754-17.754V330.719
	C368.565,320.915,360.617,312.966,350.813,312.966z"/>
<path style="fill:#C6C5CA;" d="M367.503,327.985H144.499c-5.683,0-10.291-4.608-10.291-10.291v-14.533
	c0-5.683,4.608-10.291,10.291-10.291h223.004c5.683,0,10.291,4.608,10.291,10.291v14.533
	C377.794,323.378,373.186,327.985,367.503,327.985z"/>
<path style="fill:#AAAAAD;" d="M367.503,327.985H255.724V292.87h111.778c5.683,0,10.291,4.608,10.291,10.291v14.533
	C377.794,323.378,373.186,327.985,367.503,327.985z"/>
<rect x="143.437" y="327.985" style="fill:#FFA733;" width="225.127" height="17.736"/>
<g>
</g>
<g>
</g>
<g>
</g>
<g>
</g>
<g>
</g>
<g>
</g>
<g>
</g>
<g>
</g>
<g>
</g>
<g>
</g>
<g>
</g>
<g>
</g>
<g>
</g>
<g>
</g>
<g>
</g>
</svg>
