<?xml version="1.0" encoding="iso-8859-1"?>
<!-- Generator: Adobe Illustrator 19.0.0, SVG Export Plug-In . SVG Version: 6.00 Build 0)  -->
<svg version="1.1" id="Layer_1" xmlns="http://www.w3.org/2000/svg" xmlns:xlink="http://www.w3.org/1999/xlink" x="0px" y="0px"
	 viewBox="0 0 512.001 512.001" style="enable-background:new 0 0 512.001 512.001;" xml:space="preserve">
<path style="fill:#FFB655;" d="M414.668,203.52c-12.386,0-22.426-10.04-22.426-22.426c0-75.124-61.117-136.241-136.241-136.241
	S119.758,105.97,119.758,181.094c0,12.386-10.04,22.426-22.426,22.426s-22.426-10.04-22.426-22.426
	C74.906,81.238,156.144,0,256.001,0c99.855,0,181.094,81.238,181.094,181.094C437.094,193.48,427.054,203.52,414.668,203.52z"/>
<path style="fill:#FFA733;" d="M256.001,0c-0.616,0-1.228,0.017-1.842,0.024v44.853c0.614-0.008,1.227-0.024,1.842-0.024
	c75.124,0,136.241,61.117,136.241,136.241c0,12.386,10.04,22.426,22.426,22.426c12.386,0,22.426-10.04,22.426-22.426
	C437.094,81.238,355.856,0,256.001,0z"/>
<path style="fill:#D63C13;" d="M422.285,180.94c-3.192-3.614-7.782-5.684-12.605-5.684h-307.36c-4.823,0-9.413,2.07-12.605,5.684
	c-3.194,3.614-4.681,8.424-4.087,13.209l37.655,303.105c1.047,8.423,8.204,14.746,16.692,14.746h232.048
	c8.487,0,15.645-6.323,16.692-14.746l37.656-303.105C426.967,189.364,425.479,184.553,422.285,180.94z"/>
<path style="fill:#B72306;" d="M422.285,180.94c-3.192-3.614-7.782-5.684-12.605-5.684H254.158v336.745h117.866
	c8.487,0,15.645-6.323,16.692-14.746l37.656-303.105C426.967,189.364,425.479,184.553,422.285,180.94z"/>
<path style="fill:#830018;" d="M443.12,208.896H68.881c-9.289,0-16.82-7.531-16.82-16.82s7.531-16.82,16.82-16.82h374.24
	c9.289,0,16.82,7.531,16.82,16.82S452.409,208.896,443.12,208.896z"/>
<path style="fill:#720015;" d="M443.12,175.256H253.871v33.64H443.12c9.289,0,16.82-7.531,16.82-16.82
	S452.409,175.256,443.12,175.256z"/>
<g>
</g>
<g>
</g>
<g>
</g>
<g>
</g>
<g>
</g>
<g>
</g>
<g>
</g>
<g>
</g>
<g>
</g>
<g>
</g>
<g>
</g>
<g>
</g>
<g>
</g>
<g>
</g>
<g>
</g>
</svg>
