<?xml version="1.0" encoding="iso-8859-1"?>
<!-- Generator: Adobe Illustrator 19.0.0, SVG Export Plug-In . SVG Version: 6.00 Build 0)  -->
<svg version="1.1" id="Layer_1" xmlns="http://www.w3.org/2000/svg" xmlns:xlink="http://www.w3.org/1999/xlink" x="0px" y="0px"
	 viewBox="0 0 512 512" style="enable-background:new 0 0 512 512;" xml:space="preserve">
<path style="fill:#898890;" d="M203.009,436.26v22.749c0,29.219,23.771,52.99,52.99,52.99s52.99-23.771,52.99-52.99V436.26H203.009z
	"/>
<path style="fill:#787680;" d="M256,436.26V512c29.219,0,52.99-23.771,52.99-52.99v-22.749H256V436.26z"/>
<path style="fill:#65646B;" d="M282.086,450.825h-52.171c-20.549,0-37.207-16.658-37.207-37.207v-21.355h126.586v21.355
	C319.293,434.167,302.635,450.825,282.086,450.825z"/>
<path style="fill:#555559;" d="M256,392.263v58.562h26.086c20.549,0,37.207-16.658,37.207-37.207v-21.355H256z"/>
<path style="fill:#FFD422;" d="M256,0C169.947,0,99.938,70.008,99.938,156.062c0,39.198,14.593,76.676,41.09,105.527
	c22.036,23.994,34.172,55.135,34.172,87.687v22.637c0,20.887,16.932,37.821,37.821,37.821h85.958
	c20.887,0,37.821-16.932,37.821-37.821v-22.636c0-32.551,12.136-63.693,34.172-87.687c26.498-28.852,41.09-66.33,41.09-105.527
	C412.061,70.008,342.051,0,256,0z"/>
<path style="fill:#EEBF00;" d="M256,0v409.733h42.979c20.887,0,37.82-16.932,37.82-37.821v-22.636
	c0-32.551,12.136-63.693,34.172-87.687c26.498-28.852,41.09-66.33,41.09-105.527C412.061,70.008,342.052,0,256,0z"/>
<g>
</g>
<g>
</g>
<g>
</g>
<g>
</g>
<g>
</g>
<g>
</g>
<g>
</g>
<g>
</g>
<g>
</g>
<g>
</g>
<g>
</g>
<g>
</g>
<g>
</g>
<g>
</g>
<g>
</g>
</svg>
