<?xml version="1.0" encoding="iso-8859-1"?>
<!-- Generator: Adobe Illustrator 19.0.0, SVG Export Plug-In . SVG Version: 6.00 Build 0)  -->
<svg version="1.1" id="Layer_1" xmlns="http://www.w3.org/2000/svg" xmlns:xlink="http://www.w3.org/1999/xlink" x="0px" y="0px"
	 viewBox="0 0 512 512" style="enable-background:new 0 0 512 512;" xml:space="preserve">
<path style="fill:#1B1B1C;" d="M465.545,144.353l-16.672-73.725c-1.718-7.599-8.47-12.994-16.261-12.994h-97.806
	c-7.791,0-14.543,5.395-16.261,12.994l-16.672,73.725c-1.118,4.943,0.073,10.125,3.238,14.085c3.163,3.959,7.956,6.264,13.024,6.264
	h131.149c5.068,0,9.861-2.305,13.024-6.264C465.472,154.478,466.663,149.295,465.545,144.353z"/>
<path style="fill:#3E3D42;" d="M456.626,86.11H55.374C24.792,86.11,0,110.902,0,141.484v257.508
	c0,30.582,24.792,55.374,55.374,55.374h401.252c30.582,0,55.374-24.792,55.374-55.374V141.484
	C512,110.902,487.208,86.11,456.626,86.11z"/>
<path style="fill:#2D2D30;" d="M456.626,86.11H289.343v368.256h167.283c30.582,0,55.374-24.792,55.374-55.374V141.484
	C512,110.902,487.208,86.11,456.626,86.11z"/>
<path style="fill:#515056;" d="M289.343,134.547c-75.479,0-136.884,61.406-136.884,136.884s61.406,136.884,136.884,136.884
	s136.884-61.406,136.884-136.884S364.822,134.547,289.343,134.547z"/>
<circle style="fill:#AA2300;" cx="69.914" cy="154.644" r="24.897"/>
<path style="fill:#3E3D42;" d="M289.343,134.547c-0.407,0-0.811,0.012-1.218,0.016V408.3c0.407,0.003,0.81,0.016,1.218,0.016
	c75.479,0,136.884-61.406,136.884-136.884S364.822,134.547,289.343,134.547z"/>
<path style="fill:#FFFFFF;" d="M289.343,159.63c-61.648,0-111.801,50.153-111.801,111.801s50.153,111.803,111.801,111.803
	s111.803-50.155,111.803-111.803S350.991,159.63,289.343,159.63z M289.343,349.891c-43.263,0-78.458-35.197-78.458-78.46
	s35.196-78.458,78.458-78.458s78.46,35.196,78.46,78.458S332.606,349.891,289.343,349.891z"/>
<path style="fill:#ACABB1;" d="M289.343,159.63v33.343c43.263,0,78.458,35.196,78.458,78.458s-35.197,78.46-78.458,78.46v33.343
	c61.648,0,111.801-50.155,111.801-111.803S350.991,159.631,289.343,159.63z"/>
<g>
</g>
<g>
</g>
<g>
</g>
<g>
</g>
<g>
</g>
<g>
</g>
<g>
</g>
<g>
</g>
<g>
</g>
<g>
</g>
<g>
</g>
<g>
</g>
<g>
</g>
<g>
</g>
<g>
</g>
</svg>
