<?xml version="1.0" encoding="iso-8859-1"?>
<!-- Generator: Adobe Illustrator 19.0.0, SVG Export Plug-In . SVG Version: 6.00 Build 0)  -->
<svg version="1.1" id="Layer_1" xmlns="http://www.w3.org/2000/svg" xmlns:xlink="http://www.w3.org/1999/xlink" x="0px" y="0px"
	 viewBox="0 0 512 512" style="enable-background:new 0 0 512 512;" xml:space="preserve">
<path style="fill:#806749;" d="M415.144,357.002H96.856c-9.207,0-16.67,7.464-16.67,16.67V495.33c0,9.207,7.464,16.67,16.67,16.67
	h318.287c9.207,0,16.67-7.464,16.67-16.67V373.672C431.814,364.466,424.35,357.002,415.144,357.002z"/>
<path style="fill:#6A563D;" d="M415.144,357.002H256.192V512h158.95c9.207,0,16.67-7.464,16.67-16.67V373.672
	C431.814,364.466,424.35,357.002,415.144,357.002z"/>
<path style="fill:#806749;" d="M415.144,178.565H96.856c-9.207,0-16.67,7.464-16.67,16.67v121.656c0,9.207,7.464,16.67,16.67,16.67
	h318.287c9.207,0,16.67-7.464,16.67-16.67V195.235C431.814,186.029,424.35,178.565,415.144,178.565z"/>
<path style="fill:#6A563D;" d="M415.144,178.565H256.192v154.997h158.95c9.207,0,16.67-7.464,16.67-16.67V195.235
	C431.814,186.029,424.35,178.565,415.144,178.565z"/>
<path style="fill:#806749;" d="M415.144,0H96.856c-9.207,0-16.67,7.464-16.67,16.67v121.656c0,9.207,7.464,16.67,16.67,16.67
	h318.287c9.207,0,16.67-7.464,16.67-16.67V16.67C431.814,7.464,424.35,0,415.144,0z"/>
<path style="fill:#6A563D;" d="M415.144,0H256.001v154.997h159.143c9.207,0,16.67-7.464,16.67-16.67V16.67
	C431.814,7.464,424.35,0,415.144,0z"/>
<g>
	<path style="fill:#C0AB91;" d="M304.901,69.719h-97.8c-9.207,0-16.67-7.464-16.67-16.67s7.464-16.67,16.67-16.67h97.8
		c9.207,0,16.67,7.464,16.67,16.67S314.108,69.719,304.901,69.719z"/>
	<path style="fill:#C0AB91;" d="M304.901,248.284h-97.8c-9.207,0-16.67-7.464-16.67-16.67c0-9.207,7.464-16.67,16.67-16.67h97.8
		c9.207,0,16.67,7.464,16.67,16.67C321.571,240.82,314.108,248.284,304.901,248.284z"/>
	<path style="fill:#C0AB91;" d="M304.901,426.722h-97.8c-9.207,0-16.67-7.464-16.67-16.67s7.464-16.67,16.67-16.67h97.8
		c9.207,0,16.67,7.464,16.67,16.67S314.108,426.722,304.901,426.722z"/>
</g>
<g>
	<path style="fill:#B39A7C;" d="M304.901,36.378h-48.9v33.341h48.9c9.207,0,16.67-7.464,16.67-16.67S314.108,36.378,304.901,36.378z
		"/>
	<path style="fill:#B39A7C;" d="M304.901,214.943h-48.9v33.341h48.9c9.207,0,16.67-7.464,16.67-16.67
		C321.571,222.407,314.108,214.943,304.901,214.943z"/>
	<path style="fill:#B39A7C;" d="M304.901,393.381h-48.9v33.341h48.9c9.207,0,16.67-7.464,16.67-16.67
		S314.108,393.381,304.901,393.381z"/>
</g>
<g>
</g>
<g>
</g>
<g>
</g>
<g>
</g>
<g>
</g>
<g>
</g>
<g>
</g>
<g>
</g>
<g>
</g>
<g>
</g>
<g>
</g>
<g>
</g>
<g>
</g>
<g>
</g>
<g>
</g>
</svg>
