<?xml version="1.0" encoding="iso-8859-1"?>
<!-- Generator: Adobe Illustrator 19.0.0, SVG Export Plug-In . SVG Version: 6.00 Build 0)  -->
<svg version="1.1" id="Layer_1" xmlns="http://www.w3.org/2000/svg" xmlns:xlink="http://www.w3.org/1999/xlink" x="0px" y="0px"
	 viewBox="0 0 512 512" style="enable-background:new 0 0 512 512;" xml:space="preserve">
<polygon style="fill:#F8F8F9;" points="512,34.909 0,34.909 0,69.818 34.909,69.818 34.909,477.091 477.091,477.091 477.091,69.818 
	512,69.818 "/>
<polygon style="fill:#EDEDED;" points="256,34.909 256,477.091 477.091,477.091 477.091,69.818 512,69.818 512,34.909 "/>
<g>
	<rect x="34.909" y="162.909" style="fill:#BFA993;" width="104.727" height="314.182"/>
	<rect x="372.364" y="162.909" style="fill:#BFA993;" width="104.727" height="314.182"/>
</g>
<g>
	<rect x="81.455" y="162.909" style="fill:#B29A7E;" width="58.182" height="314.182"/>
	<rect x="430.545" y="162.909" style="fill:#B29A7E;" width="46.545" height="314.182"/>
</g>
<rect x="128" y="162.909" style="fill:#88888F;" width="256" height="314.182"/>
<rect x="256" y="162.909" style="fill:#797781;" width="128" height="314.182"/>
<path style="fill:#E17858;" d="M308.777,303.132l-22.922,6.935l-29.855-59.712l-52.777,52.777
	c-29.147,29.146-29.147,76.404,0.001,105.555c29.148,29.146,76.407,29.146,105.555,0
	C337.923,379.539,337.925,332.28,308.777,303.132z"/>
<path style="fill:#F8E99B;" d="M282.389,366.308l-11.462,3.468L256,339.919l-26.389,26.389
	c-14.573,14.573-14.573,38.203,0.001,52.777c14.575,14.573,38.205,14.573,52.777,0C296.963,404.511,296.963,380.881,282.389,366.308
	z"/>
<g>
</g>
<g>
</g>
<g>
</g>
<g>
</g>
<g>
</g>
<g>
</g>
<g>
</g>
<g>
</g>
<g>
</g>
<g>
</g>
<g>
</g>
<g>
</g>
<g>
</g>
<g>
</g>
<g>
</g>
</svg>
