<?xml version="1.0" encoding="iso-8859-1"?>
<!-- Generator: Adobe Illustrator 19.0.0, SVG Export Plug-In . SVG Version: 6.00 Build 0)  -->
<svg version="1.1" id="Layer_1" xmlns="http://www.w3.org/2000/svg" xmlns:xlink="http://www.w3.org/1999/xlink" x="0px" y="0px"
	 viewBox="0 0 511.992 511.992" style="enable-background:new 0 0 511.992 511.992;" xml:space="preserve">
<circle style="fill:#78B9EB;" cx="255.996" cy="255.996" r="255.996"/>
<circle style="fill:#E0E0E2;" cx="255.996" cy="255.996" r="207.831"/>
<g>
	<path style="fill:#D8D7DA;" d="M255.999,75.657c110.162,0,200.289,85.714,207.366,194.087c0.297-4.545,0.464-9.124,0.464-13.743
		c0-114.782-93.048-207.83-207.83-207.83S48.17,141.218,48.17,256.001c0,4.619,0.167,9.199,0.464,13.743
		C55.711,161.371,145.838,75.657,255.999,75.657z"/>
	<path style="fill:#D8D7DA;" d="M255.999,48.17V463.83c114.782,0,207.83-93.049,207.83-207.829
		C463.83,141.219,370.781,48.17,255.999,48.17z"/>
</g>
<g>
	<path style="fill:#3E3D42;" d="M255.999,48.17c-4.6,0-9.161,0.166-13.686,0.461v54.492c0,7.559,6.127,13.686,13.686,13.686
		c7.559,0,13.686-6.127,13.686-13.686V48.63C265.16,48.335,260.6,48.17,255.999,48.17z"/>
	<path style="fill:#3E3D42;" d="M255.999,393.643c-7.559,0-13.686,6.127-13.686,13.686v55.726c0,0.107,0.014,0.21,0.016,0.315
		c4.521,0.293,9.076,0.458,13.67,0.458c4.595,0,9.15-0.165,13.67-0.458c0.002-0.107,0.016-0.209,0.016-0.315v-55.726
		C269.687,399.77,263.558,393.643,255.999,393.643z"/>
</g>
<path style="fill:#2D2D30;" d="M463.321,241.539h-55.217c-7.559,0-13.686,6.127-13.686,13.686s6.127,13.686,13.686,13.686h55.315
	c0.262-4.272,0.411-8.574,0.411-12.913C463.83,251.137,463.65,246.318,463.321,241.539z"/>
<g>
	<path style="fill:#3E3D42;" d="M103.896,241.539H48.679c-0.329,4.779-0.509,9.599-0.509,14.461c0,4.337,0.149,8.641,0.411,12.913
		h55.314c7.559,0,13.686-6.127,13.686-13.686C117.582,247.667,111.455,241.539,103.896,241.539z"/>
	<path style="fill:#3E3D42;" d="M328.64,307.424c-2.125,0-4.28-0.496-6.297-1.544l-72.652-37.734
		c-3.465-1.8-5.997-4.993-6.957-8.779c-0.96-3.784-0.259-7.799,1.929-11.034l85.712-126.756c4.233-6.263,12.743-7.906,19.005-3.672
		s7.906,12.743,3.672,19.005l-77.105,114.026l59.015,30.651c6.707,3.484,9.321,11.747,5.838,18.455
		C338.361,304.736,333.585,307.424,328.64,307.424z"/>
</g>
<g>
	<path style="fill:#2D2D30;" d="M255.999,48.17v68.638c7.559,0,13.686-6.127,13.686-13.686V48.63
		C265.16,48.335,260.6,48.17,255.999,48.17z"/>
	<path style="fill:#2D2D30;" d="M255.999,393.643v70.187c4.595,0,9.15-0.165,13.67-0.458c0.002-0.107,0.016-0.209,0.016-0.315
		V407.33C269.687,399.77,263.558,393.643,255.999,393.643z"/>
</g>
<path style="fill:#CD2900;" d="M156.524,356.522c-1.502,0-3.001-0.587-4.127-1.753c-2.197-2.278-2.129-5.905,0.149-8.101
	l98.38-94.82c2.279-2.197,5.906-2.13,8.101,0.149c2.197,2.278,2.129,5.905-0.149,8.101l-98.38,94.82
	C159.388,355.989,157.956,356.522,156.524,356.522z"/>
<circle style="fill:#1A6FB0;" cx="255.996" cy="255.996" r="35.548"/>
<g>
</g>
<g>
</g>
<g>
</g>
<g>
</g>
<g>
</g>
<g>
</g>
<g>
</g>
<g>
</g>
<g>
</g>
<g>
</g>
<g>
</g>
<g>
</g>
<g>
</g>
<g>
</g>
<g>
</g>
</svg>
