<?xml version="1.0" encoding="iso-8859-1"?>
<!-- Generator: Adobe Illustrator 19.0.0, SVG Export Plug-In . SVG Version: 6.00 Build 0)  -->
<svg version="1.1" id="Layer_1" xmlns="http://www.w3.org/2000/svg" xmlns:xlink="http://www.w3.org/1999/xlink" x="0px" y="0px"
	 viewBox="0 0 512.001 512.001" style="enable-background:new 0 0 512.001 512.001;" xml:space="preserve">
<pattern  x="-49.999" y="652.001" width="38.174" height="38.174" patternUnits="userSpaceOnUse" id="New_Pattern_Swatch_46" viewBox="0 -38.174 38.174 38.174" style="overflow:visible;">
	<g>
		<polygon style="fill:none;" points="0,0 38.174,0 38.174,-38.174 0,-38.174 		"/>
		<polygon style="fill:none;" points="0,-38.174 38.174,-38.174 38.174,0 0,0 		"/>
		<polygon style="fill:#FFF3E5;" points="38.174,-38.174 0,-38.174 0,0 38.174,0 		"/>
	</g>
</pattern>
<pattern  x="-49.999" y="652.001" width="38.174" height="38.174" patternUnits="userSpaceOnUse" id="New_Pattern_Swatch_48" viewBox="0 -38.174 38.174 38.174" style="overflow:visible;">
	<g>
		<polygon style="fill:none;" points="0,0 38.174,0 38.174,-38.174 0,-38.174 		"/>
		<polygon style="fill:none;" points="0,-38.174 38.174,-38.174 38.174,0 0,0 		"/>
		<polygon style="fill:#FFF9F1;" points="38.174,-38.174 0,-38.174 0,0 38.174,0 		"/>
	</g>
</pattern>
<path style="fill:#806749;" d="M394.592,168.641c9.223,0,16.7-7.477,16.7-16.7c0-4.944-2.15-9.389-5.566-12.446L267.654,4.748
	c-6.488-6.331-16.841-6.331-23.328,0L105.744,139.989c-4.861,4.744-6.364,11.959-3.804,18.249
	c2.561,6.29,8.676,10.404,15.468,10.404h277.184V168.641z"/>
<path style="fill:#6A563D;" d="M394.592,168.641c9.223,0,16.7-7.477,16.7-16.7c0-4.944-2.15-9.389-5.566-12.446L267.654,4.748
	c-3.241-3.162-7.447-4.744-11.654-4.747v168.641H394.592z"/>
<path style="fill:#787680;" d="M241.557,455.451V299.653c0-9.223-7.477-16.7-16.7-16.7c-9.223,0-16.7,7.477-16.7,16.7v155.798
	c-8.449,5.479-14.043,14.986-14.043,25.807c0,16.979,13.764,30.743,30.743,30.743s30.743-13.764,30.743-30.743
	C255.599,470.437,250.006,460.93,241.557,455.451z"/>
<path style="fill:#3E3D42;" d="M299.145,404.558V244.979c0-9.223-7.477-16.7-16.7-16.7c-9.223,0-16.7,7.477-16.7,16.7v159.58
	c-8.449,5.479-14.043,14.986-14.043,25.807c0,16.979,13.764,30.743,30.743,30.743c16.979,0,30.743-13.764,30.743-30.743
	C313.189,419.545,307.594,410.037,299.145,404.558z"/>
<path style="fill:#C0AB91;" d="M256.42,60.414v282.088h96.856c8.408,0,15.225-6.817,15.225-15.225V168.435L256.42,60.414z"/>
<pattern  id="SVGID_1_" xlink:href="#New_Pattern_Swatch_48" patternTransform="matrix(1.1135 0 0 -1.1135 2308.3271 -16174.25)">
</pattern>
<path style="fill:url(#SVGID_1_);" d="M255.884,59.896L143.267,168.434v158.841c0,8.408,6.816,15.225,15.225,15.225h97.929V60.414
	L255.884,59.896z"/>
<path style="fill:#D9CCBC;" d="M255.884,59.896L143.267,168.434v158.841c0,8.408,6.816,15.225,15.225,15.225h97.929V60.414
	L255.884,59.896z"/>
<path style="fill:#B39A7C;" d="M357.195,219.488c0-55.66-45.168-100.967-100.775-101.2v202.4
	C312.027,320.456,357.195,275.149,357.195,219.488z"/>
<pattern  id="SVGID_2_" xlink:href="#New_Pattern_Swatch_46" patternTransform="matrix(1.1135 0 0 -1.1135 2308.3271 -16174.25)">
</pattern>
<path style="fill:url(#SVGID_2_);" d="M255.99,118.283c-55.805,0-101.206,45.401-101.206,101.206s45.401,101.206,101.206,101.206
	c0.144,0,0.287-0.004,0.431-0.006v-202.4C256.276,118.288,256.134,118.283,255.99,118.283z"/>
<path style="fill:#C0AB91;" d="M255.99,118.283c-55.805,0-101.206,45.401-101.206,101.206s45.401,101.206,101.206,101.206
	c0.144,0,0.287-0.004,0.431-0.006v-202.4C256.276,118.288,256.134,118.283,255.99,118.283z"/>
<path style="fill:#FFFFFF;" d="M255.99,137.064c-45.448,0-82.424,36.976-82.424,82.424s36.976,82.424,82.424,82.424
	s82.424-36.976,82.424-82.424S301.439,137.064,255.99,137.064z"/>
<path style="fill:#D8D7DA;" d="M256,137.064v164.849c45.444-0.007,82.413-36.979,82.413-82.424S301.444,137.071,256,137.064z"/>
<rect x="208.155" y="342.504" style="fill:#57565C;" width="33.401" height="17.825"/>
<g>
	<rect x="265.749" y="342.504" style="fill:#2D2D30;" width="33.401" height="17.825"/>
	<path style="fill:#2D2D30;" d="M320.995,227.839H248.07v-71.067c0-4.613,3.739-8.35,8.35-8.35c4.612,0,8.35,3.738,8.35,8.35v54.367
		h56.225c4.612,0,8.35,3.738,8.35,8.35S325.606,227.839,320.995,227.839z"/>
</g>
<path style="fill:#CD2A00;" d="M255.99,198.698c-11.464,0-20.791,9.327-20.791,20.791s9.327,20.791,20.791,20.791
	s20.791-9.327,20.791-20.791S267.453,198.698,255.99,198.698z"/>
<g>
</g>
<g>
</g>
<g>
</g>
<g>
</g>
<g>
</g>
<g>
</g>
<g>
</g>
<g>
</g>
<g>
</g>
<g>
</g>
<g>
</g>
<g>
</g>
<g>
</g>
<g>
</g>
<g>
</g>
</svg>
