<?xml version="1.0" encoding="iso-8859-1"?>
<!-- Generator: Adobe Illustrator 19.0.0, SVG Export Plug-In . SVG Version: 6.00 Build 0)  -->
<svg version="1.1" id="Layer_1" xmlns="http://www.w3.org/2000/svg" xmlns:xlink="http://www.w3.org/1999/xlink" x="0px" y="0px"
	 viewBox="0 0 512 512" style="enable-background:new 0 0 512 512;" xml:space="preserve">
<path style="fill:#3E3D42;" d="M104.012,512H85.468c-4.936,0-8.939-4.002-8.939-8.939v-22.944h36.422v22.944
	C112.951,507.998,108.95,512,104.012,512z"/>
<path style="fill:#2D2D30;" d="M426.53,512h-18.544c-4.936,0-8.939-4.002-8.939-8.939v-22.944h36.422v22.944
	C435.469,507.998,431.467,512,426.53,512z"/>
<path style="fill:#6A563D;" d="M453.337,491.834H58.663c-18.388,0-33.293-14.906-33.293-33.293V33.293
	C25.369,14.906,40.275,0,58.663,0h394.674c18.388,0,33.293,14.906,33.293,33.293V458.54
	C486.63,476.928,471.724,491.834,453.337,491.834z"/>
<path style="fill:#554431;" d="M453.337,0H255.779v491.834h197.558c18.388,0,33.293-14.906,33.293-33.293V33.293
	C486.63,14.906,471.724,0,453.337,0z"/>
<path style="fill:#806749;" d="M226.9,139.563H63.964c-8.24,0-14.921,6.681-14.921,14.921v296.581
	c0,8.24,6.681,14.921,14.921,14.921H226.9c8.24,0,14.921-6.681,14.921-14.921v-296.58
	C241.822,146.244,235.142,139.563,226.9,139.563z"/>
<path style="fill:#5F4D37;" d="M448.035,139.563H287.05c-8.24,0-14.921,6.681-14.921,14.921v296.581
	c0,8.24,6.681,14.921,14.921,14.921h160.986c8.24,0,14.921-6.681,14.921-14.921v-296.58
	C462.957,146.244,456.277,139.563,448.035,139.563z"/>
<path style="fill:#806749;" d="M227.896,25.846H64.959c-8.24,0-14.921,6.681-14.921,14.921v54.452
	c0,8.24,6.681,14.921,14.921,14.921h162.937c8.24,0,14.921-6.681,14.921-14.921V40.768
	C242.818,32.528,236.137,25.846,227.896,25.846z"/>
<path style="fill:#5F4D37;" d="M449.031,25.846H288.045c-8.24,0-14.921,6.681-14.921,14.921v54.452
	c0,8.24,6.681,14.921,14.921,14.921h160.986c8.24,0,14.921-6.681,14.921-14.921V40.768
	C463.953,32.528,457.272,25.846,449.031,25.846z"/>
<g>
	<path style="fill:#FFA733;" d="M191.803,332.006c-8.24,0-14.921-6.681-14.921-14.921v-62.077c0-8.24,6.681-14.921,14.921-14.921
		c8.24,0,14.921,6.681,14.921,14.921v62.077C206.726,325.326,200.045,332.006,191.803,332.006z"/>
	<path style="fill:#FFA733;" d="M320.128,332.006c-8.24,0-14.921-6.681-14.921-14.921v-62.077c0-8.24,6.681-14.921,14.921-14.921
		c8.24,0,14.921,6.681,14.921,14.921v62.077C335.049,325.326,328.369,332.006,320.128,332.006z"/>
</g>
<g>
</g>
<g>
</g>
<g>
</g>
<g>
</g>
<g>
</g>
<g>
</g>
<g>
</g>
<g>
</g>
<g>
</g>
<g>
</g>
<g>
</g>
<g>
</g>
<g>
</g>
<g>
</g>
<g>
</g>
</svg>
