<?xml version="1.0" encoding="iso-8859-1"?>
<!-- Generator: Adobe Illustrator 19.0.0, SVG Export Plug-In . SVG Version: 6.00 Build 0)  -->
<svg version="1.1" id="Layer_1" xmlns="http://www.w3.org/2000/svg" xmlns:xlink="http://www.w3.org/1999/xlink" x="0px" y="0px"
	 viewBox="0 0 512 512" style="enable-background:new 0 0 512 512;" xml:space="preserve">
<path style="fill:#806749;" d="M399.062,0H112.937c-9.289,0-16.82,7.531-16.82,16.82V495.18c0,9.289,7.531,16.82,16.82,16.82
	h286.125c9.289,0,16.82-7.531,16.82-16.82V16.82C415.882,7.531,408.352,0,399.062,0z"/>
<path style="fill:#6A563D;" d="M399.062,0H256v512h143.063c9.289,0,16.82-7.531,16.82-16.82V16.82
	C415.882,7.531,408.352,0,399.062,0z"/>
<path style="fill:#3D9AE2;" d="M346.512,245.122H165.488c-10.703,0-19.38-8.677-19.38-19.38V66.023
	c0-10.703,8.677-19.38,19.38-19.38h181.024c10.703,0,19.38,8.677,19.38,19.38v159.719
	C365.892,236.445,357.215,245.122,346.512,245.122z"/>
<g>
	<path style="fill:#1E81CE;" d="M346.512,46.643H165.488c-10.703,0-19.38,8.677-19.38,19.38v23.569
		c0-10.703,8.677-19.38,19.38-19.38h181.024c10.703,0,19.38,8.677,19.38,19.38V66.023C365.892,55.32,357.215,46.643,346.512,46.643z
		"/>
	<path style="fill:#1E81CE;" d="M346.512,46.643H256v198.479h90.512c10.703,0,19.38-8.677,19.38-19.38V66.023
		C365.892,55.32,357.215,46.643,346.512,46.643z"/>
</g>
<path style="fill:#5F4D37;" d="M300.369,386.588h-87.567c-3.993,0-7.23-3.237-7.23-7.23l0,0c0-3.993,3.237-7.23,7.23-7.23h87.567
	c3.993,0,7.23,3.237,7.23,7.23l0,0C307.599,383.351,304.362,386.588,300.369,386.588z"/>
<path style="fill:#DDB200;" d="M346.761,373.936h-11.706c-6.263,0-11.34-5.078-11.34-11.34V303.7c0-6.263,5.077-11.34,11.34-11.34
	h11.706c6.263,0,11.34,5.077,11.34,11.34v58.896C358.101,368.858,353.024,373.936,346.761,373.936z"/>
<circle style="fill:#FFDA44;" cx="340.767" cy="300.859" r="25.119"/>
<g>
</g>
<g>
</g>
<g>
</g>
<g>
</g>
<g>
</g>
<g>
</g>
<g>
</g>
<g>
</g>
<g>
</g>
<g>
</g>
<g>
</g>
<g>
</g>
<g>
</g>
<g>
</g>
<g>
</g>
</svg>
