<?xml version="1.0" encoding="utf-8"?>
<!-- Generator: Adobe Illustrator 16.0.0, SVG Export Plug-In . SVG Version: 6.00 Build 0)  -->
<!DOCTYPE svg PUBLIC "-//W3C//DTD SVG 1.1//EN" "http://www.w3.org/Graphics/SVG/1.1/DTD/svg11.dtd">
<svg version="1.1" xmlns="http://www.w3.org/2000/svg" xmlns:xlink="http://www.w3.org/1999/xlink" x="0px" y="0px"
	 viewBox="200.504 0 561.186 561.204" enable-background="new 303.504 0 561.186 561.204"
	 xml:space="preserve">
<g id="Layer_1" display="none">
	<path display="inline" fill="#806749" d="M636.474,0H323.525c-10.16,0-18.397,8.237-18.397,18.397v523.207
		c0,10.159,8.237,18.396,18.397,18.396h312.949c10.16,0,18.397-8.237,18.397-18.396V18.397C654.871,8.237,646.635,0,636.474,0z"/>
	<path display="inline" fill="#6A563D" d="M636.474,0H480v560h156.476c10.159,0,18.396-8.237,18.396-18.396V18.397
		C654.871,8.237,646.635,0,636.474,0z"/>
	<path display="inline" fill="#3D9AE2" d="M578.997,268.102H381.002c-11.707,0-21.197-9.49-21.197-21.197V72.213
		c0-11.707,9.49-21.197,21.197-21.197h197.996c11.706,0,21.196,9.491,21.196,21.197v174.692
		C600.194,258.612,590.704,268.102,578.997,268.102z"/>
	<g display="inline">
		<path fill="#1E81CE" d="M578.997,51.016H381.002c-11.707,0-21.197,9.491-21.197,21.197v25.778c0-11.707,9.49-21.197,21.197-21.197
			h197.996c11.706,0,21.196,9.49,21.196,21.197V72.213C600.194,60.506,590.704,51.016,578.997,51.016z"/>
		<path fill="#1E81CE" d="M578.997,51.016H480v217.086h98.997c11.707,0,21.197-9.49,21.197-21.197V72.213
			C600.194,60.506,590.704,51.016,578.997,51.016z"/>
	</g>
	<path display="inline" fill="#5F4D37" d="M528.528,422.831h-95.776c-4.367,0-7.907-3.541-7.907-7.908l0,0
		c0-4.367,3.54-7.908,7.907-7.908h95.776c4.367,0,7.908,3.541,7.908,7.908l0,0C536.437,419.29,532.896,422.831,528.528,422.831z"/>
	<path display="inline" fill="#DDB200" d="M579.27,408.992h-12.803c-6.851,0-12.403-5.554-12.403-12.402v-64.418
		c0-6.851,5.553-12.403,12.403-12.403h12.803c6.851,0,12.403,5.553,12.403,12.403v64.418
		C591.673,403.438,586.12,408.992,579.27,408.992z"/>
	<circle display="inline" fill="#FFDA44" cx="572.714" cy="329.064" r="27.474"/>
</g>
<g id="Livello_2">
	<g id="Livello_2_1_">
		<path fill="#806749" d="M473.9,107.833L331.581,22.66c-6.76-4.046-12.389,0.668-12.389,10.639v513.495
			c0,9.972,5.629,14.928,12.389,11.174L473.9,478.93c3.17-1.761,5.697-8.526,5.697-15.139V123.219
			C479.597,116.605,477.07,109.732,473.9,107.833z"/>
		<path fill="#6A563D" d="M473.9,107.833l-58.266-34.872V511.29l58.267-32.359c3.169-1.762,5.696-8.527,5.696-15.14V123.219
			C479.597,116.605,477.07,109.732,473.9,107.833z"/>
		<path fill="#3D9AE2" d="M454.697,284.612l-88.247-4.065c-6.67-0.308-12.231-9.191-12.231-19.836V101.869
			c0-10.645,5.56-16.53,12.231-13.239l88.248,43.538c4.094,2.02,7.342,10.143,7.342,18.187v120.032
			C462.04,278.431,458.792,284.802,454.697,284.612z"/>
		<g>
			<path fill="#1E81CE" d="M454.697,132.167L366.452,88.63c-6.67-3.29-12.231,2.595-12.231,13.239v23.439
				c0-10.645,5.56-16.826,12.231-13.889l88.248,38.851c4.093,1.802,7.342,9.752,7.342,17.796v-17.712
				C462.04,142.311,458.792,134.187,454.697,132.167z"/>
			<path fill="#1E81CE" d="M454.697,132.167l-39.065-19.272v169.919l39.065,1.799c4.095,0.189,7.343-6.182,7.343-14.225V150.354
				C462.04,142.311,458.792,134.187,454.697,132.167z"/>
		</g>
		<path fill="#5F4D37" d="M435.842,398.41l-42.192,11.509c-2.162,0.59-3.931-1.888-3.931-5.541l0,0c0-3.651,1.77-7.035,3.931-7.556
			l42.192-10.133c1.713-0.411,3.091,1.86,3.091,5.068l0,0C438.933,394.967,437.555,397.943,435.842,398.41z"/>
		<path fill="#DDB200" d="M454.793,383.527l-4.591,1.12c-2.508,0.613-4.567-2.887-4.567-7.825v-46.438
			c0-4.938,2.059-9.066,4.567-9.218l4.591-0.276c2.407-0.146,4.333,3.587,4.333,8.335v44.647
			C459.127,378.619,457.2,382.939,454.793,383.527z"/>
		<path fill="#FFDA44" d="M452.459,308.182c5.356-0.123,9.58,8.231,9.58,18.657s-4.222,19.452-9.58,20.182
			c-5.53,0.753-10.146-7.569-10.146-18.61C442.313,317.365,446.929,308.307,452.459,308.182z"/>
		<g>
			<path fill="#806749" d="M637.163,3.5H322.03c-10.231,0-18.526,8.203-18.526,18.322v521.062c0,7.673,4.775,14.236,11.543,16.962
				v-32.004h0.246c-0.092-0.714-0.154-1.435-0.154-2.173V39.036c0-9.45,7.747-17.112,17.302-17.112h294.31
				c9.557,0,17.304,7.662,17.304,17.112V525.67c0,0.737-0.063,1.459-0.154,2.173h0.246v32.005
				c6.769-2.728,11.543-9.291,11.543-16.963V21.822C655.688,11.703,647.395,3.5,637.163,3.5z"/>
			<path fill="#806749" d="M644.146,561.204v-1.358c-2.157,0.871-4.512,1.358-6.984,1.358H644.146z"/>
			<path fill="#806749" d="M322.03,561.204c-2.473,0-4.827-0.487-6.982-1.358v1.358H322.03z"/>
		</g>
		<path fill="#686868" d="M319.191,83.485c0,1.375-1.127,2.489-2.518,2.489l0,0c-1.391,0-2.518-1.114-2.518-2.489V51.552
			c0-1.375,1.126-2.49,2.518-2.49l0,0c1.39,0,2.518,1.114,2.518,2.49V83.485z"/>
		<path fill="#686868" d="M319.191,515.704c0,1.376-1.127,2.49-2.518,2.49l0,0c-1.391,0-2.518-1.114-2.518-2.49v-31.932
			c0-1.375,1.126-2.489,2.518-2.489l0,0c1.39,0,2.518,1.114,2.518,2.489V515.704z"/>
	</g>
</g>
</svg>
