<?xml version="1.0" encoding="iso-8859-1"?>
<!-- Generator: Adobe Illustrator 19.0.0, SVG Export Plug-In . SVG Version: 6.00 Build 0)  -->
<svg version="1.1" id="Layer_1" xmlns="http://www.w3.org/2000/svg" xmlns:xlink="http://www.w3.org/1999/xlink" x="0px" y="0px"
	 viewBox="0 0 512 512" style="enable-background:new 0 0 512 512;" xml:space="preserve">
<path style="fill:#C6C5CA;" d="M495.637,105.591h-78.215c-9.037,0-16.363,7.326-16.363,16.363s7.326,16.363,16.363,16.363h78.215
	c9.037,0,16.363-7.326,16.363-16.363C512,112.917,504.674,105.591,495.637,105.591z"/>
<g>
	<path style="fill:#3E3D42;" d="M189.815,228.51h-39.408c-9.037,0-16.363,7.326-16.363,16.363c0,9.037,7.326,16.363,16.363,16.363
		h39.408c9.037,0,16.363-7.326,16.363-16.363C206.178,235.836,198.852,228.51,189.815,228.51z"/>
	<path style="fill:#3E3D42;" d="M192.487,159.321c-2.437-3.18-6.215-5.045-10.221-5.045H109.98c-5.82,0-10.917,3.905-12.432,9.525
		L50.81,337.229c-3.842,14.256-0.774,29.765,8.205,41.486c8.98,11.721,23.156,18.719,37.921,18.719
		c21.55,0,40.519-14.533,46.128-35.342l51.633-191.59C195.74,166.633,194.923,162.501,192.487,159.321z"/>
</g>
<g>
	<path style="fill:#2D2D30;" d="M192.487,159.321c-2.437-3.18-6.215-5.045-10.221-5.045h-33.816L84.403,395.717
		c4.057,1.113,8.269,1.715,12.535,1.715c21.55,0,40.519-14.533,46.128-35.342l51.633-191.59
		C195.74,166.633,194.923,162.501,192.487,159.321z"/>
	<path style="fill:#2D2D30;" d="M373.404,61.575h-68.396c-9.037,0-16.363,7.326-16.363,16.363v88.034
		c0,9.037,7.326,16.363,16.363,16.363h68.396c33.294,0,60.381-27.087,60.381-60.381S406.698,61.575,373.404,61.575z"/>
</g>
<g>
	<path style="fill:#57565C;" d="M377.116,61.7v120.51c31.57-1.926,56.667-28.21,56.667-60.255S408.687,63.625,377.116,61.7z"/>
	<path style="fill:#57565C;" d="M295.364,41.936H16.363C7.326,41.936,0,49.263,0,58.3v127.311c0,9.037,7.326,16.363,16.363,16.363
		h279c9.037,0,16.363-7.326,16.363-16.363V58.3C311.727,49.263,304.4,41.936,295.364,41.936z"/>
</g>
<path style="fill:#48474C;" d="M295.364,41.936H161.318v160.038h134.045c9.037,0,16.363-7.326,16.363-16.363V58.3
	C311.727,49.263,304.4,41.936,295.364,41.936z"/>
<path style="fill:#CD2A00;" d="M189.434,328.322H16.363C7.326,328.322,0,335.648,0,344.686V453.7
	c0,9.037,7.326,16.363,16.363,16.363h173.071c9.037,0,16.363-7.326,16.363-16.363V344.686
	C205.797,335.648,198.471,328.322,189.434,328.322z"/>
<path style="fill:#AA2300;" d="M189.434,328.322h-86.535v141.742h86.535c9.037,0,16.363-7.326,16.363-16.363V344.687
	C205.797,335.648,198.471,328.322,189.434,328.322z"/>
<rect y="353.089" style="fill:#891C00;" width="205.796" height="12.274"/>
<g>
	<path style="fill:#2D2D30;" d="M32.529,139.358c-2.126,0-4.253-0.811-5.875-2.433c-3.245-3.246-3.245-8.506,0-11.75l45.21-45.21
		c3.245-3.245,8.506-3.243,11.749,0c3.245,3.246,3.245,8.506,0,11.75l-45.21,45.21C36.782,138.547,34.655,139.358,32.529,139.358z"
		/>
	<path style="fill:#2D2D30;" d="M84.403,139.358c-2.126,0-4.253-0.811-5.875-2.433c-3.245-3.246-3.245-8.506,0-11.75l45.21-45.21
		c3.245-3.244,8.506-3.244,11.749,0c3.245,3.246,3.245,8.506,0,11.75l-45.21,45.21C88.656,138.547,86.529,139.358,84.403,139.358z"
		/>
</g>
<g>
</g>
<g>
</g>
<g>
</g>
<g>
</g>
<g>
</g>
<g>
</g>
<g>
</g>
<g>
</g>
<g>
</g>
<g>
</g>
<g>
</g>
<g>
</g>
<g>
</g>
<g>
</g>
<g>
</g>
</svg>
