<?xml version="1.0" encoding="iso-8859-1"?>
<!-- Generator: Adobe Illustrator 19.0.0, SVG Export Plug-In . SVG Version: 6.00 Build 0)  -->
<svg version="1.1" id="Layer_1" xmlns="http://www.w3.org/2000/svg" xmlns:xlink="http://www.w3.org/1999/xlink" x="0px" y="0px"
	 viewBox="0 0 512 512" style="enable-background:new 0 0 512 512;" xml:space="preserve">
<path style="fill:#AA6100;" d="M310.814,23.581C296.621,8.595,276.642,0,256,0s-40.621,8.595-54.814,23.581
	c-14.193,14.985-21.692,35.401-20.571,56.013l7.895,145.252c0.486,8.954,7.888,15.963,16.854,15.963h101.275
	c8.966,0,16.368-7.009,16.854-15.963l7.895-145.252C332.506,58.984,325.008,38.567,310.814,23.581z M256,105.651
	c-15.537,0-28.132-12.595-28.132-28.132S240.463,49.387,256,49.387c15.537,0,28.132,12.595,28.132,28.132
	S271.537,105.651,256,105.651z"/>
<path style="fill:#894B00;" d="M310.814,23.581C296.621,8.595,276.642,0,256,0v49.387c15.537,0,28.132,12.595,28.132,28.132
	S271.537,105.651,256,105.651v135.158h50.637c8.966,0,16.368-7.009,16.854-15.963l7.895-145.252
	C332.506,58.984,325.008,38.567,310.814,23.581z"/>
<path style="fill:#CC7400;" d="M337.46,207.051H174.54c-53.362,0-96.774,43.413-96.774,96.774v191.297
	c0,9.322,7.557,16.879,16.879,16.879h322.707c9.322,0,16.879-7.557,16.879-16.879V303.824
	C434.233,250.464,390.821,207.051,337.46,207.051z"/>
<path style="fill:#BC6600;" d="M319.424,240.809H192.576c-41.614,0-75.347,33.735-75.347,75.347V512h277.543V316.156
	C394.772,274.543,361.038,240.809,319.424,240.809z"/>
<path style="fill:#AA6100;" d="M337.46,207.051H256V512h161.354c9.322,0,16.879-7.557,16.879-16.879V303.824
	C434.233,250.464,390.821,207.051,337.46,207.051z"/>
<path style="fill:#874D00;" d="M319.424,240.809h-64.977V512h140.324V316.156C394.772,274.543,361.038,240.809,319.424,240.809z"/>
<g>
	<path style="fill:#894B00;" d="M319.424,240.809H192.576c-41.613,0-75.347,33.735-75.347,75.347v19.13
		c0-41.614,33.735-75.347,75.347-75.347h126.849c41.613,0,75.347,33.735,75.347,75.347v-19.13
		C394.772,274.543,361.038,240.809,319.424,240.809z"/>
	<polygon style="fill:#894B00;" points="324.458,207.051 187.542,207.051 186.14,181.257 325.86,181.257 	"/>
</g>
<g>
</g>
<g>
</g>
<g>
</g>
<g>
</g>
<g>
</g>
<g>
</g>
<g>
</g>
<g>
</g>
<g>
</g>
<g>
</g>
<g>
</g>
<g>
</g>
<g>
</g>
<g>
</g>
<g>
</g>
</svg>
