<?xml version="1.0" encoding="utf-8"?>
<!-- Generator: Adobe Illustrator 19.2.1, SVG Export Plug-In . SVG Version: 6.00 Build 0)  -->
<svg version="1.1" xmlns="http://www.w3.org/2000/svg" xmlns:xlink="http://www.w3.org/1999/xlink" x="0px" y="0px"
	 viewBox="0 0 89.7 89.3" style="enable-background:new 0 0 89.7 89.3;" xml:space="preserve">
<style type="text/css">
	.st0{fill:#F0C419;}
	.st1{fill:#E57E25;}
	.st2{fill:#ECF0F1;}
	.st3{fill:#D75A4A;}
	.st4{fill:#D1D4D1;}
	.st5{fill:#BDC3C7;}
	.st6{fill:#BC4E46;}
	.st7{fill:#556080;}
</style>
<g id="Capa_1">
	<path class="st0" d="M34.7,39.1L30,33.7c-0.7,5.9-2.3,10.5-2.3,10.5c0-7.8-2.8-14.7-6.4-20.4l-0.6-0.7l-4.6,5.2
		C10.2,35,7.7,44.2,9.6,52.9c0,0.1,0,0.2,0.1,0.2c0,0-3.6-5-5.2-11.3c-4.4,7-3.8,16.3,1.8,22.7c7.6,8.6,20.9,8.7,28.6,0.2
		C41.4,57.6,41.2,46.4,34.7,39.1z"/>
	<path class="st1" d="M28.2,55.7L26,53.2c-0.3,2.8-1.1,5-1.1,5c0-3.7-1.3-7-3.1-9.7l-0.3-0.3l-2.2,2.5c-2.8,3.2-4,7.6-3.1,11.7
		c0,0,0,0.1,0,0.1c0,0-1.7-2.4-2.5-5.4c-2.1,3.4-1.8,7.8,0.9,10.8c3.6,4.1,10,4.1,13.6,0.1C31.4,64.6,31.3,59.3,28.2,55.7z"/>
	<path class="st2" d="M30.7,54.9c-0.1,0-0.2,0-0.3-0.1c-0.5-0.2-0.8-0.8-0.6-1.3l0.7-1.9c0.2-0.5,0.8-0.8,1.3-0.6
		c0.5,0.2,0.8,0.8,0.6,1.3l-0.7,1.9C31.5,54.7,31.2,54.9,30.7,54.9z M32.8,49.3c-0.1,0-0.2,0-0.3-0.1c-0.5-0.2-0.8-0.8-0.6-1.3
		l0.7-1.9c0.2-0.5,0.8-0.8,1.3-0.6c0.5,0.2,0.8,0.8,0.6,1.3l-0.7,1.9C33.6,49,33.2,49.3,32.8,49.3z M34.8,43.7c-0.1,0-0.2,0-0.3-0.1
		c-0.5-0.2-0.8-0.8-0.6-1.3l0.7-1.9c0.2-0.5,0.8-0.8,1.3-0.6c0.5,0.2,0.8,0.8,0.6,1.3L35.8,43C35.6,43.4,35.3,43.7,34.8,43.7z
		 M36.9,38c-0.1,0-0.2,0-0.3-0.1c-0.5-0.2-0.8-0.8-0.6-1.3l0.7-1.9c0.2-0.5,0.8-0.8,1.3-0.6c0.5,0.2,0.8,0.8,0.6,1.3l-0.7,1.9
		C37.7,37.8,37.3,38,36.9,38z"/>
	<path class="st2" d="M16.6,58.1c-0.2,0-0.5-0.1-0.7-0.3c-0.4-0.4-0.4-1,0-1.4l0.3-0.3c0.4-0.4,1-0.4,1.4,0c0.4,0.4,0.4,1,0,1.4
		l-0.3,0.3C17.1,58,16.8,58.1,16.6,58.1z M19.6,54.9c-0.2,0-0.5-0.1-0.7-0.3c-0.4-0.4-0.4-1,0-1.4l1.4-1.4c0.4-0.4,1-0.4,1.4,0
		c0.4,0.4,0.4,1,0,1.4l-1.4,1.4C20.2,54.8,19.9,54.9,19.6,54.9z M23.8,50.6c-0.2,0-0.5-0.1-0.7-0.3c-0.4-0.4-0.4-1,0-1.4l1.4-1.4
		c0.4-0.4,1-0.4,1.4,0c0.4,0.4,0.4,1,0,1.4l-1.4,1.4C24.3,50.5,24,50.6,23.8,50.6z M27.9,46.3c-0.2,0-0.5-0.1-0.7-0.3
		c-0.4-0.4-0.4-1,0-1.4l1.4-1.4c0.4-0.4,1-0.4,1.4,0c0.4,0.4,0.4,1,0,1.4L28.6,46C28.4,46.2,28.2,46.3,27.9,46.3z M32.1,41.9
		c-0.2,0-0.5-0.1-0.7-0.3c-0.4-0.4-0.4-1,0-1.4l1.4-1.4c0.4-0.4,1-0.4,1.4,0c0.4,0.4,0.4,1,0,1.4l-1.4,1.4
		C32.6,41.8,32.3,41.9,32.1,41.9z M36.2,37.6c-0.2,0-0.5-0.1-0.7-0.3c-0.4-0.4-0.4-1,0-1.4l1.4-1.4c0.4-0.4,1-0.4,1.4,0
		c0.4,0.4,0.4,1,0,1.4l-1.4,1.4C36.7,37.5,36.5,37.6,36.2,37.6z"/>
	<path class="st2" d="M19.6,43.1c-0.4,0-0.8-0.2-0.9-0.6c-0.2-0.5,0.1-1.1,0.6-1.3l1.2-0.5c0.5-0.2,1.1,0.1,1.3,0.6
		s-0.1,1.1-0.6,1.3l-1.2,0.5C19.8,43.1,19.7,43.1,19.6,43.1z M24.5,41.2c-0.4,0-0.8-0.2-0.9-0.6c-0.2-0.5,0.1-1.1,0.6-1.3l1.9-0.7
		c0.5-0.2,1.1,0.1,1.3,0.6c0.2,0.5-0.1,1.1-0.6,1.3l-1.9,0.7C24.8,41.2,24.7,41.2,24.5,41.2z M30.1,39c-0.4,0-0.8-0.2-0.9-0.6
		c-0.2-0.5,0.1-1.1,0.6-1.3l1.9-0.7c0.5-0.2,1.1,0.1,1.3,0.6s-0.1,1.1-0.6,1.3L30.5,39C30.4,39,30.2,39,30.1,39z M35.7,36.9
		c-0.4,0-0.8-0.2-0.9-0.6c-0.2-0.5,0.1-1.1,0.6-1.3l1.9-0.7c0.5-0.2,1.1,0.1,1.3,0.6c0.2,0.5-0.1,1.1-0.6,1.3l-1.9,0.7
		C36,36.8,35.8,36.9,35.7,36.9z"/>
</g>
<g id="Livello_2">
	
		<rect x="52.1" y="27.1" transform="matrix(0.8193 -0.5733 0.5733 0.8193 -14.9712 45.0544)" class="st3" width="23.7" height="38.3"/>
	<polygon class="st2" points="52.9,24 47.6,27.7 36.1,30.2 34,27.2 51.3,21.8 	"/>
	<path class="st4" d="M87.9,37.1c-5.5-9.2-10-11.4-12.3-12.3c-0.8-0.3-1.5,0.1-1.5,1c0,2.5,1,7.1,7.6,15.6c0.4,0.5,1.1,0.6,1.6,0.2
		l4.2-2.9C88.1,38.3,88.2,37.6,87.9,37.1z"/>
	
		<rect x="53.8" y="43.3" transform="matrix(0.8193 -0.5733 0.5733 0.8193 -18.8326 42.4343)" class="st0" width="8.2" height="15.5"/>
	<rect x="47.8" y="25.6" transform="matrix(0.8193 -0.5733 0.5733 0.8193 -6.9599 34.6229)" class="st5" width="7.3" height="5.5"/>
	
		<rect x="62.9" y="23.7" transform="matrix(0.8193 -0.5733 0.5733 0.8193 -12.146 47.2241)" class="st6" width="11.9" height="38.3"/>
	<rect x="50.3" y="29.7" transform="matrix(0.8193 -0.5733 0.5733 0.8193 -7.9613 35.9268)" class="st7" width="5.5" height="1.8"/>
	<path class="st7" d="M56.1,20.7l-15.7,11c-0.4,0.3-0.5,0.9-0.2,1.3c0.3,0.4,0.9,0.5,1.3,0.2l15.7-11c5.4-3.7,12.8-2.4,16.5,2.9
		c0.3,0.4,0.9,0.5,1.3,0.2c0.4-0.3,0.5-0.9,0.2-1.3C70.8,17.8,62.3,16.3,56.1,20.7z"/>
</g>
</svg>
