<?xml version="1.0" encoding="utf-8"?>
<!-- Generator: Adobe Illustrator 19.2.1, SVG Export Plug-In . SVG Version: 6.00 Build 0)  -->
<svg version="1.1" xmlns="http://www.w3.org/2000/svg" xmlns:xlink="http://www.w3.org/1999/xlink" x="0px" y="0px"
	 viewBox="0 0 89.7 89.3" style="enable-background:new 0 0 89.7 89.3;" xml:space="preserve">
<style type="text/css">
	.st0{fill:#D75A4A;}
	.st1{fill:#ECF0F1;}
	.st2{fill:#D1D4D1;}
	.st3{fill:#F0C419;}
	.st4{fill:#BDC3C7;}
	.st5{fill:#BC4E46;}
	.st6{fill:#556080;}
	.st7{opacity:0.7;fill:#F0C419;}
	.st8{opacity:0.7;fill:#E57E25;}
</style>
<g id="Livello_2">
	
		<rect x="24" y="39.2" transform="matrix(1.062477e-003 -1 1 1.062477e-003 -7.9422 94.1245)" class="st0" width="38.3" height="23.7"/>
	<polygon class="st1" points="46.8,26.4 40.4,26.4 29.5,21.9 29.5,18.2 46.8,23.7 	"/>
	<path class="st2" d="M68,57.2c0.8-10.7-1.6-15.1-3-17.1c-0.5-0.7-1.3-0.7-1.8,0c-1.4,2-3.3,6.4-2.7,17.1c0,0.6,0.6,1.1,1.2,1.1
		l5.1,0C67.4,58.4,68,57.9,68,57.2z"/>
	
		<rect x="27.6" y="47.4" transform="matrix(1.062477e-003 -1 1 1.062477e-003 -16.1311 86.8221)" class="st3" width="15.5" height="8.2"/>
	
		<rect x="40.4" y="25.5" transform="matrix(1.062477e-003 -1 1 1.062477e-003 13.9607 72.2913)" class="st4" width="5.5" height="7.3"/>
	
		<rect x="29.9" y="45.1" transform="matrix(1.062477e-003 -1 1 1.062477e-003 -2.029 100.0566)" class="st5" width="38.3" height="11.9"/>
	
		<rect x="42.2" y="29.2" transform="matrix(1.062477e-003 -1 1 1.062477e-003 11.2228 75.0205)" class="st6" width="1.8" height="5.5"/>
	<path class="st6" d="M51.4,25.5l-19.1,0c-0.5,0-0.9,0.4-0.9,0.9c0,0.5,0.4,0.9,0.9,0.9l19.1,0c6.5,0,11.8,5.3,11.8,11.9
		c0,0.5,0.4,0.9,0.9,0.9c0.5,0,0.9-0.4,0.9-0.9C65,31.7,58.9,25.5,51.4,25.5z"/>
</g>
<g id="Capa_1">
	<path class="st7" d="M62.3,34.7l-5.8-6.6c-0.8,7.3-2.9,13-2.9,13c0-9.7-3.5-18.3-7.9-25.3l-0.7-0.8l-5.7,6.5
		c-7.3,8.3-10.4,19.7-8,30.5c0,0.1,0,0.2,0.1,0.3c0,0-4.4-6.2-6.4-13.9c-5.5,8.7-4.7,20.2,2.3,28.2c9.4,10.7,25.9,10.7,35.4,0.2
		C70.6,57.6,70.3,43.8,62.3,34.7z"/>
	<path class="st8" d="M54.2,55.4l-2.8-3.2c-0.4,3.5-1.4,6.2-1.4,6.2c0-4.6-1.7-8.7-3.8-12.1L46,45.9L43.3,49c-3.5,4-5,9.4-3.8,14.5
		c0,0,0,0.1,0,0.1c0,0-2.1-3-3.1-6.6c-2.6,4.2-2.2,9.6,1.1,13.4c4.5,5.1,12.3,5.1,16.8,0.1C58.2,66.3,58.1,59.7,54.2,55.4z"/>
</g>
</svg>
