<?xml version="1.0" encoding="iso-8859-1"?>
<!-- Generator: Adobe Illustrator 19.0.0, SVG Export Plug-In . SVG Version: 6.00 Build 0)  -->
<svg version="1.1" id="Layer_1" xmlns="http://www.w3.org/2000/svg" xmlns:xlink="http://www.w3.org/1999/xlink" x="0px" y="0px"
	 viewBox="0 0 512.001 512.001" style="enable-background:new 0 0 512.001 512.001;" xml:space="preserve">
<path style="fill:#830018;" d="M316.043,0h-46.036c-9.23,0-16.714,7.483-16.714,16.713V132.18c0,9.23,7.483,16.714,16.714,16.714
	h46.036c9.23,0,16.714-7.483,16.714-16.714V16.713C332.756,7.483,325.273,0,316.043,0z"/>
<path style="fill:#720015;" d="M316.043,0h-23.018v148.894h23.018c9.23,0,16.714-7.483,16.714-16.714V16.713
	C332.756,7.483,325.273,0,316.043,0z"/>
<path style="fill:#787680;" d="M468.919,149.792H157.48c-72.296,0-131.112,58.817-131.112,131.112v63.5
	c0,9.23,7.483,16.714,16.713,16.714h84.051c9.23,0,16.713-7.483,16.713-16.714v-63.5c0-7.519,6.116-13.635,13.635-13.635H468.92
	c9.23,0,16.714-7.483,16.714-16.714v-84.05C485.632,157.275,478.149,149.792,468.919,149.792z"/>
<path style="fill:#57565C;" d="M468.919,149.792H293.024v117.477h175.894c9.23,0,16.713-7.483,16.713-16.714v-84.05
	C485.632,157.275,478.149,149.792,468.919,149.792z"/>
<path style="fill:#898890;" d="M384.774,115.467h-183.5c-9.23,0-16.714,7.483-16.714,16.713v154.356
	c0,9.23,7.483,16.714,16.714,16.714h183.501c9.23,0,16.713-7.483,16.713-16.714V132.18
	C401.488,122.95,394.004,115.467,384.774,115.467z"/>
<path style="fill:#D63C13;" d="M379.505,0H206.544c-20.276,0-36.771,16.496-36.771,36.772s16.495,36.772,36.771,36.772h172.961
	c20.276,0,36.772-16.496,36.772-36.772S399.781,0,379.505,0z"/>
<path style="fill:#3D9AE2;" d="M99.378,409.613c-3.134-4.419-8.216-7.044-13.633-7.044c-5.416,0-10.498,2.625-13.633,7.044
	c-8.641,12.183-28.738,42.42-28.738,60.016c0,23.363,19.008,42.371,42.371,42.371s42.371-19.008,42.371-42.371
	C128.116,452.033,108.019,421.796,99.378,409.613z"/>
<path style="fill:#1E81CE;" d="M99.378,409.613c-3.134-4.419-8.216-7.044-13.633-7.044v109.432
	c23.363,0,42.371-19.008,42.371-42.371C128.116,452.033,108.019,421.796,99.378,409.613z"/>
<path style="fill:#787680;" d="M384.774,115.467h-91.75V303.25h91.75c9.23,0,16.714-7.483,16.714-16.714V132.18
	C401.488,122.95,394.004,115.467,384.774,115.467z"/>
<path style="fill:#B72306;" d="M379.505,0h-86.48v73.544h86.48c20.276,0,36.772-16.496,36.772-36.772S399.781,0,379.505,0z"/>
<rect x="26.368" y="300.263" style="fill:#57565C;" width="117.474" height="25.884"/>
<rect x="184.561" y="149.797" style="fill:#787680;" width="216.93" height="29.581"/>
<rect x="293.02" y="149.797" style="fill:#6C6B72;" width="108.459" height="29.581"/>
<rect x="401.491" y="149.797" style="fill:#3E3D42;" width="32.069" height="117.474"/>
<g>
</g>
<g>
</g>
<g>
</g>
<g>
</g>
<g>
</g>
<g>
</g>
<g>
</g>
<g>
</g>
<g>
</g>
<g>
</g>
<g>
</g>
<g>
</g>
<g>
</g>
<g>
</g>
<g>
</g>
</svg>
