<?xml version="1.0" encoding="utf-8"?>
<!-- Generator: Adobe Illustrator 19.2.1, SVG Export Plug-In . SVG Version: 6.00 Build 0)  -->
<svg version="1.1" id="Layer_1" xmlns="http://www.w3.org/2000/svg" xmlns:xlink="http://www.w3.org/1999/xlink" x="0px" y="0px"
	 viewBox="0 0 512 512" style="enable-background:new 0 0 512 512;" xml:space="preserve">
<style type="text/css">
	.st0{fill:#830018;}
	.st1{fill:#720015;}
	.st2{fill:#787680;}
	.st3{fill:#57565C;}
	.st4{fill:#898890;}
	.st5{fill:#D63C13;}
	.st6{fill:#B72306;}
	.st7{fill:#6C6B72;}
	.st8{fill:#3E3D42;}
</style>
<path class="st0" d="M316,0h-46c-9.2,0-16.7,7.5-16.7,16.7v115.5c0,9.2,7.5,16.7,16.7,16.7h46c9.2,0,16.7-7.5,16.7-16.7V16.7
	C332.8,7.5,325.3,0,316,0z"/>
<path class="st1" d="M316,0h-23v148.9h23c9.2,0,16.7-7.5,16.7-16.7V16.7C332.8,7.5,325.3,0,316,0z"/>
<path class="st2" d="M468.9,149.8H157.5c-72.3,0-131.1,58.8-131.1,131.1v63.5c0,9.2,7.5,16.7,16.7,16.7h84.1
	c9.2,0,16.7-7.5,16.7-16.7v-63.5c0-7.5,6.1-13.6,13.6-13.6h311.4c9.2,0,16.7-7.5,16.7-16.7v-84.1
	C485.6,157.3,478.1,149.8,468.9,149.8z"/>
<path class="st3" d="M468.9,149.8H293v117.5h175.9c9.2,0,16.7-7.5,16.7-16.7v-84.1C485.6,157.3,478.1,149.8,468.9,149.8z"/>
<path class="st4" d="M384.8,115.5H201.3c-9.2,0-16.7,7.5-16.7,16.7v154.4c0,9.2,7.5,16.7,16.7,16.7h183.5c9.2,0,16.7-7.5,16.7-16.7
	V132.2C401.5,122.9,394,115.5,384.8,115.5z"/>
<path class="st5" d="M379.5,0h-173c-20.3,0-36.8,16.5-36.8,36.8s16.5,36.8,36.8,36.8h173c20.3,0,36.8-16.5,36.8-36.8
	S399.8,0,379.5,0z"/>
<path class="st2" d="M384.8,115.5H293v187.8h91.8c9.2,0,16.7-7.5,16.7-16.7V132.2C401.5,122.9,394,115.5,384.8,115.5z"/>
<path class="st6" d="M379.5,0H293v73.5h86.5c20.3,0,36.8-16.5,36.8-36.8S399.8,0,379.5,0z"/>
<rect x="26.4" y="300.3" class="st3" width="117.5" height="25.9"/>
<rect x="184.6" y="149.8" class="st2" width="216.9" height="29.6"/>
<rect x="293" y="149.8" class="st7" width="108.5" height="29.6"/>
<rect x="401.5" y="149.8" class="st8" width="32.1" height="117.5"/>
</svg>
