<?xml version="1.0" encoding="iso-8859-1"?>
<!-- Generator: Adobe Illustrator 19.0.0, SVG Export Plug-In . SVG Version: 6.00 Build 0)  -->
<svg version="1.1" id="Layer_1" xmlns="http://www.w3.org/2000/svg" xmlns:xlink="http://www.w3.org/1999/xlink" x="0px" y="0px"
	 viewBox="0 0 512 512" style="enable-background:new 0 0 512 512;" xml:space="preserve">
<path style="fill:#E28723;" d="M495.322,308.342H16.678C7.467,308.342,0,315.809,0,325.02v53.391
	c0,9.211,7.467,16.678,16.678,16.678h478.643c9.211,0,16.678-7.467,16.678-16.678V325.02
	C512,315.809,504.533,308.342,495.322,308.342z"/>
<path style="fill:#C46D16;" d="M495.322,308.342H255.999v86.747h239.322c9.211,0,16.678-7.467,16.678-16.678V325.02
	C512,315.809,504.533,308.342,495.322,308.342z"/>
<path style="fill:#E28723;" d="M495.322,149.579H16.678C7.467,149.579,0,157.047,0,166.257v53.391
	c0,9.211,7.467,16.678,16.678,16.678h478.643c9.211,0,16.678-7.467,16.678-16.678v-53.391
	C512,157.047,504.533,149.579,495.322,149.579z"/>
<path style="fill:#C46D16;" d="M495.322,149.579H255.999v86.747h239.321c9.211,0,16.678-7.467,16.678-16.678v-53.391
	C512,157.047,504.533,149.579,495.322,149.579z"/>
<g>
	<path style="fill:#FFB655;" d="M130.94,101.558L99.252,48.19c-3.004-5.061-8.455-8.163-14.34-8.163
		c-5.885,0-11.336,3.102-14.34,8.163l-31.689,53.368c-1.529,2.576-2.337,5.518-2.337,8.515v345.223
		c0,9.211,7.467,16.678,16.678,16.678h63.374c9.211,0,16.678-7.467,16.678-16.678V110.073
		C133.277,107.076,132.47,104.134,130.94,101.558z"/>
	<path style="fill:#FFB655;" d="M302.027,101.558L270.341,48.19c-3.004-5.061-8.455-8.163-14.34-8.163
		c-5.885,0-11.336,3.102-14.34,8.163l-31.688,53.368c-1.53,2.576-2.338,5.518-2.338,8.515v345.223
		c0,9.211,7.467,16.678,16.678,16.678h63.374c9.211,0,16.678-7.467,16.678-16.678V110.073
		C304.364,107.076,303.557,104.134,302.027,101.558z"/>
	<path style="fill:#FFB655;" d="M473.115,101.558L441.427,48.19c-3.004-5.061-8.455-8.163-14.34-8.163
		c-5.885,0-11.336,3.102-14.34,8.163l-31.687,53.368c-1.53,2.576-2.338,5.518-2.338,8.515v345.223
		c0,9.211,7.467,16.678,16.678,16.678h63.374c9.211,0,16.678-7.467,16.678-16.678V110.073
		C475.452,107.076,474.645,104.134,473.115,101.558z"/>
</g>
<g>
	<path style="fill:#FFA733;" d="M130.94,101.558L99.252,48.19c-3.004-5.061-8.454-8.163-14.34-8.163v431.948H116.6
		c9.211,0,16.678-7.467,16.678-16.678V110.073C133.277,107.076,132.47,104.134,130.94,101.558z"/>
	<path style="fill:#FFA733;" d="M302.027,101.558L270.341,48.19c-3.004-5.061-8.455-8.163-14.34-8.163l0,0v431.948h31.688
		c9.211,0,16.678-7.467,16.678-16.678V110.073C304.364,107.076,303.557,104.134,302.027,101.558z"/>
	<path style="fill:#FFA733;" d="M473.115,101.558L441.427,48.19c-3.004-5.061-8.454-8.163-14.34-8.163v431.948h31.688
		c9.211,0,16.678-7.467,16.678-16.678V110.073C475.452,107.076,474.645,104.134,473.115,101.558z"/>
</g>
<g>
</g>
<g>
</g>
<g>
</g>
<g>
</g>
<g>
</g>
<g>
</g>
<g>
</g>
<g>
</g>
<g>
</g>
<g>
</g>
<g>
</g>
<g>
</g>
<g>
</g>
<g>
</g>
<g>
</g>
</svg>
