<?xml version="1.0" encoding="utf-8"?>
<!-- Generator: Adobe Illustrator 19.2.1, SVG Export Plug-In . SVG Version: 6.00 Build 0)  -->
<svg version="1.1" xmlns="http://www.w3.org/2000/svg" xmlns:xlink="http://www.w3.org/1999/xlink" x="0px" y="0px"
	 viewBox="0 0 58 58" style="enable-background:new 0 0 58 58;" xml:space="preserve">
<style type="text/css">
	.st0{fill:#F0C419;}
	.st1{fill:#E57E25;}
	.st2{fill:#C69E1C;}
	.st3{fill:#AF5E22;}
</style>
<g id="Capa_1">
	<path class="st0" d="M44.5,20.9l-4.7-5.3c-0.7,5.9-2.3,10.5-2.3,10.5c0-7.8-2.8-14.7-6.4-20.4L30.5,5l-4.6,5.2
		c-5.9,6.7-8.4,15.9-6.5,24.6c0,0.1,0,0.2,0.1,0.2c0,0-3.6-5-5.2-11.3c-4.4,7-3.8,16.3,1.8,22.7c7.6,8.6,20.9,8.7,28.6,0.2
		C51.2,39.4,50.9,28.3,44.5,20.9z"/>
	<path class="st1" d="M38,37.6l-2.2-2.5c-0.3,2.8-1.1,5-1.1,5c0-3.7-1.3-7-3.1-9.7L31.3,30l-2.2,2.5c-2.8,3.2-4,7.6-3.1,11.7
		c0,0,0,0.1,0,0.1c0,0-1.7-2.4-2.5-5.4c-2.1,3.4-1.8,7.8,0.9,10.8c3.6,4.1,10,4.1,13.6,0.1C41.2,46.5,41.1,41.1,38,37.6z"/>
</g>
<g id="Livello_2">
	<path class="st2" d="M44.7,46.7c-3.8,4.2-9,6.3-14.2,6.3V5L30.5,5L31,5.6c3.6,5.7,6.4,12.6,6.4,20.5c0,0,1.7-4.6,2.3-10.5l4.7,5.4
		C50.9,28.3,51.2,39.4,44.7,46.7z"/>
	<path class="st3" d="M38.1,49.9c-2,2.3-4.9,3.2-7.7,3V31.1l0.9-1l0.3,0.3c1.7,2.7,3.1,6,3.1,9.7c0,0,0.8-2.2,1.1-5l2.2,2.5
		C41.1,41.1,41.2,46.5,38.1,49.9z"/>
</g>
</svg>
