<?xml version="1.0" encoding="utf-8"?>
<!-- Generator: Adobe Illustrator 19.2.1, SVG Export Plug-In . SVG Version: 6.00 Build 0)  -->
<svg version="1.1" xmlns="http://www.w3.org/2000/svg" xmlns:xlink="http://www.w3.org/1999/xlink" x="0px" y="0px"
	 viewBox="0 0 496.2 496.2" style="enable-background:new 0 0 496.2 496.2;" xml:space="preserve">
<style type="text/css">
	.st0{fill:#D61E1E;}
	.st1{fill:#F4EDED;}
	.st2{fill:#5B5147;}
	.st3{fill:#931212;}
	.st4{fill:#DDDDDD;}
</style>
<g id="Layer_1">
	<path class="st0" d="M248.1,0C111.1,0,0,111.1,0,248.1c0,137,111.1,248.1,248.1,248.1c137,0,248.1-111.1,248.1-248.1
		C496.2,111.1,385.1,0,248.1,0z"/>
	<path class="st1" d="M248.1,39C132.6,39,39,132.6,39,248.1c0,115.5,93.6,209.1,209.1,209.1c115.5,0,209.1-93.6,209.1-209.1
		C457.2,132.6,363.5,39,248.1,39z"/>
	<path class="st2" d="M313.2,194.5c-0.7,24.2-8.1,44.3-28.3,64.4c0,0,25.8-67.8-1.5-113.4c-29.1-48.4-71.2-66.1-71.2-66.1
		s3.1,62.2-12.8,103.4c-18.7,48.6-56.7,80.5-56.7,130.9c0,51.8,47.1,93.7,105.2,93.8c58.2,0,105.2-42,105.2-93.8
		C353.3,272,335.9,230.6,313.2,194.5z"/>
	<path class="st1" d="M227.2,208.4c0,0,1.7,37.7-7,62.7C209.9,300.6,189,320,189,350.5c0,31.4,25.9,56.8,57.8,56.9
		c31.9,0,55.4-25.5,57.8-56.9C310.6,271.9,227.2,208.4,227.2,208.4z"/>
	<path class="st2" d="M231.3,218c0,0,0.7,34-7.6,56.3c-9.8,26.3-29,43.3-29.7,70.8c-0.7,28.3,22.1,51.7,50.8,52.4
		c28.7,0.7,50.4-21.8,53.2-50C305,276.8,231.3,218,231.3,218z"/>
	<path class="st1" d="M234.4,280.3c0,0,1.1,23.9-4.4,39.7c-6.5,18.7-19.7,30.9-19.7,50.3c0,19.9,16.4,36,36.6,36
		c20.2,0,35.1-16.2,36.6-36C287.3,320.5,234.4,280.3,234.4,280.3z"/>
	<path class="st0" d="M85.8,60.4c-9.1,7.9-17.6,16.4-25.5,25.5l349.9,349.9c9.1-7.9,17.6-16.4,25.5-25.5L85.8,60.4z"/>
</g>
<g id="Livello_2">
	<path class="st3" d="M435.8,410.3L435.8,410.3c-1,1.1-2,2.3-3,3.4c-2,2.2-4,4.4-6.1,6.6c-2.1,2.2-4.2,4.3-6.4,6.4
		c-2.2,2.1-4.4,4.1-6.6,6.1c-1.1,1-2.3,2-3.4,3l0,0c-43.5,37.6-100.2,60.4-162.2,60.4c-0.4,0-0.7,0-1.1,0V0c0.4,0,0.7,0,1.1,0
		c137,0,248.1,111.1,248.1,248.1C496.2,310.1,473.4,366.8,435.8,410.3z"/>
	<path class="st4" d="M457.2,248.1c0,51.3-18.4,98.2-49.1,134.6c-7.7,9.2-16.3,17.7-25.4,25.5c-36.4,30.6-83.3,49.1-134.6,49.1
		c-0.4,0-0.7,0-1.1,0V39c0.4,0,0.7,0,1.1,0C363.5,39,457.2,132.6,457.2,248.1z"/>
	<path d="M353.3,313.9c0,4.4-0.3,8.8-1,13c-2,13.1-7.1,25.4-14.7,36.2c-18.5,26.7-51.7,44.5-89.6,44.5c-0.4,0-0.7,0-1.1,0V102.4
		c12,10.3,25.2,24.4,36.5,43.2c27,45.1,2,112,1.5,113.3c20.1-20.1,27.6-40.3,28.3-64.4C335.8,230.6,353.3,272,353.3,313.9z"/>
	<path class="st1" d="M304.6,350.5c-2.4,31.3-25.8,56.8-57.7,56.9V226.2c21,21,52,58.8,57.2,103.5
		C305,336.5,305.2,343.4,304.6,350.5z"/>
	<path d="M298,347.5c-1.5,14.6-8,27.7-17.9,36.8c-8.7,8-20.1,12.9-33,13.2V232.6c17.6,18,44.4,51.2,50.3,90.2
		C298.5,330.7,298.8,339,298,347.5z"/>
	<path d="M283.5,370.3c-0.4,4.9-1.6,9.7-3.5,14c-5.8,12.9-17.9,22-33,22.1V291.5C262.4,306.9,286.1,336.4,283.5,370.3z"/>
	<path class="st3" d="M435.8,410.3c-1,1.1-2,2.3-3,3.4c-2,2.2-4.1,4.4-6.1,6.6c-2.1,2.2-4.2,4.3-6.4,6.4c-2.2,2.1-4.4,4.1-6.6,6.1
		c-1.1,1-2.3,2-3.4,3l-27.7-27.7l-45-45l-33.5-33.5L247,272.4v-50.9l105.3,105.3L435.8,410.3z"/>
</g>
</svg>
