<?xml version="1.0" encoding="iso-8859-1"?>
<!-- Generator: Adobe Illustrator 19.0.0, SVG Export Plug-In . SVG Version: 6.00 Build 0)  -->
<svg version="1.1" id="Capa_1" xmlns="http://www.w3.org/2000/svg" xmlns:xlink="http://www.w3.org/1999/xlink" x="0px" y="0px"
	 viewBox="0 0 59.982 59.982" style="enable-background:new 0 0 59.982 59.982;" xml:space="preserve">
<path style="fill:#5C6887;" d="M33.561,38.334c1.148,4.409,3.667,7.973,3.667,7.973c-0.013-0.055-0.025-0.109-0.037-0.164
	c-1.378-6.202,0.403-12.686,4.594-17.461l3.249-3.701l0.408,0.464c0.364,0.576,0.712,1.174,1.049,1.785V8.982c-15.333,0-22-8-22-8
	s-6.667,8-22,8v19.085c0,9.966,4.328,19.577,12.164,25.735c2.773,2.18,6.044,4.055,9.836,5.18c3.792-1.125,7.062-3,9.836-5.18
	c0.003-0.003,0.006-0.006,0.01-0.008C30.838,49.281,30.579,43.096,33.561,38.334z"/>
<path style="fill:#8697CB;" d="M2.491,8.982v19.085c0,9.966,4.328,19.577,12.164,25.735c2.773,2.18,6.044,4.055,9.836,5.18v-58
	C24.491,0.982,17.824,8.982,2.491,8.982z"/>
<path style="fill:#556080;" d="M24.491,59.982c-0.096,0-0.191-0.014-0.284-0.041c-3.581-1.063-7.003-2.863-10.17-5.353
	C6.181,48.415,1.491,38.5,1.491,28.067V8.982c0-0.553,0.447-1,1-1c14.694,0,21.168-7.563,21.231-7.641
	c0.381-0.455,1.156-0.455,1.537,0c0.063,0.075,6.604,7.641,21.231,7.641c0.553,0,1,0.447,1,1v19.085
	c0,10.433-4.69,20.348-12.546,26.521c-3.167,2.489-6.589,4.29-10.17,5.353C24.682,59.968,24.587,59.982,24.491,59.982z M3.491,9.971
	v18.096c0,9.824,4.404,19.151,11.782,24.949c2.883,2.266,5.982,3.921,9.218,4.921c3.235-1,6.335-2.655,9.218-4.921
	c7.378-5.798,11.782-15.125,11.782-24.949V9.971c-12.242-0.272-18.865-5.497-21-7.546C22.356,4.474,15.733,9.699,3.491,9.971z"/>
<path style="fill:#F0C419;" d="M54.976,36.308l-3.327-3.791c-0.462,4.19-1.66,7.42-1.66,7.42c0-5.532-1.991-10.45-4.547-14.491
	l-0.408-0.464l-3.249,3.701c-4.191,4.775-5.972,11.258-4.594,17.461c0.012,0.055,0.024,0.109,0.037,0.164
	c0,0-2.519-3.565-3.667-7.973c-3.125,4.992-2.7,11.552,1.297,16.105c5.354,6.1,14.822,6.144,20.236,0.131
	C59.733,49.417,59.55,41.52,54.976,36.308z"/>
<path style="fill:#F18D46;" d="M49.108,49.77l-1.355-1.544c-0.188,1.706-0.676,3.022-0.676,3.022c0-2.253-0.811-4.255-1.852-5.901
	l-0.166-0.189l-1.323,1.507c-1.707,1.944-2.432,4.585-1.871,7.11c0.005,0.022,0.01,0.044,0.015,0.067c0,0-1.026-1.452-1.493-3.247
	c-1.273,2.033-1.099,4.704,0.528,6.558c2.18,2.484,6.036,2.502,8.24,0.053C51.045,55.109,50.971,51.893,49.108,49.77z"/>
<g>
</g>
<g>
</g>
<g>
</g>
<g>
</g>
<g>
</g>
<g>
</g>
<g>
</g>
<g>
</g>
<g>
</g>
<g>
</g>
<g>
</g>
<g>
</g>
<g>
</g>
<g>
</g>
<g>
</g>
</svg>
