<?xml version="1.0" encoding="iso-8859-1"?>
<!-- Generator: Adobe Illustrator 19.0.0, SVG Export Plug-In . SVG Version: 6.00 Build 0)  -->
<svg version="1.1" id="Layer_1" xmlns="http://www.w3.org/2000/svg" xmlns:xlink="http://www.w3.org/1999/xlink" x="0px" y="0px"
	 viewBox="0 0 512 512" style="enable-background:new 0 0 512 512;" xml:space="preserve">
<path style="fill:#57565C;" d="M383.252,512H128.748c-14.798,0-26.794-11.996-26.794-26.794V26.794
	C101.954,11.996,113.95,0,128.748,0h254.505c14.798,0,26.794,11.996,26.794,26.794v458.413C410.046,500.004,398.05,512,383.252,512z
	"/>
<g>
	<path style="fill:#B6B5BF;" d="M372.805,194.145h-233.61c-8.815,0-15.96,7.146-15.96,15.96v268.748
		c0,8.815,7.146,15.96,15.96,15.96h233.61c8.815,0,15.96-7.146,15.96-15.96V210.105C388.766,201.291,381.62,194.145,372.805,194.145
		z"/>
	<path style="fill:#B6B5BF;" d="M372.805,19.79h-233.61c-8.815,0-15.96,7.146-15.96,15.96v119.784c0,8.815,7.146,15.96,15.96,15.96
		h233.61c8.815,0,15.96-7.146,15.96-15.96V35.749C388.766,26.935,381.62,19.79,372.805,19.79z"/>
</g>
<g>
	<path style="fill:#E0E0E2;" d="M173.833,133.544c-8.815,0-15.96-7.146-15.96-15.96V69.348c0-8.815,7.146-15.96,15.96-15.96
		c8.815,0,15.96,7.146,15.96,15.96v48.236C189.794,126.398,182.647,133.544,173.833,133.544z"/>
	<path style="fill:#E0E0E2;" d="M173.833,308.35c-8.815,0-15.96-7.146-15.96-15.96v-48.236c0-8.815,7.146-15.96,15.96-15.96
		c8.815,0,15.96,7.146,15.96,15.96v48.236C189.794,301.205,182.647,308.35,173.833,308.35z"/>
</g>
<g>
	<path style="fill:#A4A2AF;" d="M372.805,194.145H256.001v300.668h116.806c8.815,0,15.96-7.146,15.96-15.96V210.105
		C388.766,201.291,381.62,194.145,372.805,194.145z"/>
	<path style="fill:#A4A2AF;" d="M372.805,19.79H256.001v151.705h116.806c8.815,0,15.96-7.146,15.96-15.96V35.749
		C388.766,26.935,381.62,19.79,372.805,19.79z"/>
</g>
<g>
</g>
<g>
</g>
<g>
</g>
<g>
</g>
<g>
</g>
<g>
</g>
<g>
</g>
<g>
</g>
<g>
</g>
<g>
</g>
<g>
</g>
<g>
</g>
<g>
</g>
<g>
</g>
<g>
</g>
</svg>
