<?xml version="1.0" encoding="utf-8"?>
<!-- Generator: Adobe Illustrator 19.2.1, SVG Export Plug-In . SVG Version: 6.00 Build 0)  -->
<svg version="1.1" xmlns="http://www.w3.org/2000/svg" xmlns:xlink="http://www.w3.org/1999/xlink" x="0px" y="0px"
	 viewBox="0 0 496 496" style="enable-background:new 0 0 496 496;" xml:space="preserve">
<style type="text/css">
	.st0{fill:#759A9E;}
	.st1{fill:#66888E;}
	.st2{fill:#5A797A;}
	.st3{fill:#48595B;}
</style>
<g id="Layer_1">
	<path class="st0" d="M424.8,377.2c0,18.4-15.2,33.6-33.6,33.6H104.8c-18.4,0-33.6-15.2-33.6-33.6v-65.6c0-18.4,15.2-33.6,33.6-33.6
		h286.4c18.4,0,33.6,15.2,33.6,33.6L424.8,377.2L424.8,377.2z"/>
	<path class="st1" d="M424.8,383.6c0,18.4-15.2,33.6-33.6,33.6H104.8c-18.4,0-33.6-15.2-33.6-33.6V318c0-18.4,15.2-33.6,33.6-33.6
		h286.4c18.4,0,33.6,15.2,33.6,33.6L424.8,383.6L424.8,383.6z"/>
</g>
<g id="Livello_2">
	<path class="st2" d="M424.8,311.6v65.6c0,18.4-15.2,33.6-33.6,33.6h-140V278h140C409.6,278,424.8,293.2,424.8,311.6z"/>
	<path class="st3" d="M424.8,318v65.6c0,18.4-15.2,33.6-33.6,33.6h-140V284.4h140C409.6,284.4,424.8,299.6,424.8,318z"/>
</g>
</svg>
