<?xml version="1.0" encoding="utf-8"?>
<!-- Generator: Adobe Illustrator 19.2.1, SVG Export Plug-In . SVG Version: 6.00 Build 0)  -->
<svg version="1.1" xmlns="http://www.w3.org/2000/svg" xmlns:xlink="http://www.w3.org/1999/xlink" x="0px" y="0px"
	 viewBox="0 0 496 496" style="enable-background:new 0 0 496 496;" xml:space="preserve">
<style type="text/css">
	.st0{fill:#759A9E;}
	.st1{fill:#66888E;}
	.st2{fill:#FF7F00;}
	.st3{fill:#FF5B00;}
	.st4{fill:#5A797A;}
	.st5{fill:#48595B;}
</style>
<g id="Layer_1">
	<path class="st0" d="M424.8,377.2c0,18.4-15.2,33.6-33.6,33.6H104.8c-18.4,0-33.6-15.2-33.6-33.6v-65.6c0-18.4,15.2-33.6,33.6-33.6
		h286.4c18.4,0,33.6,15.2,33.6,33.6L424.8,377.2L424.8,377.2z"/>
	<path class="st1" d="M424.8,383.6c0,18.4-15.2,33.6-33.6,33.6H104.8c-18.4,0-33.6-15.2-33.6-33.6V318c0-18.4,15.2-33.6,33.6-33.6
		h286.4c18.4,0,33.6,15.2,33.6,33.6L424.8,383.6L424.8,383.6z"/>
	<path class="st2" d="M251.2,25.2C216,40.4,190.4,88.4,190.4,146s25.6,105.6,60.8,120.8V25.2z"/>
	<path class="st3" d="M251.2,86.8c26.4,11.2,45.6,47.2,45.6,90.4s-19.2,78.4-45.6,90.4L251.2,86.8L251.2,86.8z"/>
	<path class="st2" d="M199.2,158c0,50.4,21.6,92.8,52,107.2V50.8C220.8,65.2,199.2,107.6,199.2,158z"/>
</g>
<g id="Livello_2">
	<path class="st4" d="M424.8,311.6v65.6c0,18.4-15.2,33.6-33.6,33.6h-140V278h140C409.6,278,424.8,293.2,424.8,311.6z"/>
	<path class="st5" d="M424.8,318v65.6c0,18.4-15.2,33.6-33.6,33.6h-140V284.4h140C409.6,284.4,424.8,299.6,424.8,318z"/>
	<path class="st3" d="M296.8,177.2c0,43.2-19.2,78.4-45.6,90.4V86.8C277.6,98,296.8,134,296.8,177.2z"/>
</g>
</svg>
