<?xml version="1.0" encoding="iso-8859-1"?>
<!-- Generator: Adobe Illustrator 19.0.0, SVG Export Plug-In . SVG Version: 6.00 Build 0)  -->
<svg version="1.1" id="Layer_1" xmlns="http://www.w3.org/2000/svg" xmlns:xlink="http://www.w3.org/1999/xlink" x="0px" y="0px"
	 viewBox="0 0 512 512" style="enable-background:new 0 0 512 512;" xml:space="preserve">
<pattern  x="-50" y="652" width="38.311" height="38.311" patternUnits="userSpaceOnUse" id="New_Pattern_Swatch_178" viewBox="0 -38.311 38.311 38.311" style="overflow:visible;">
	<g>
		<polygon style="fill:none;" points="0,0 38.311,0 38.311,-38.311 0,-38.311 		"/>
		<polygon style="fill:none;" points="0,-38.311 38.311,-38.311 38.311,0 0,0 		"/>
		<polygon style="fill:#1D1D1F;" points="38.311,-38.311 0,-38.311 0,0 38.311,0 		"/>
	</g>
</pattern>
<pattern  id="SVGID_1_" xlink:href="#New_Pattern_Swatch_178" patternTransform="matrix(1.1174 0 0 -1.1174 -470.9184 -15567.5586)">
</pattern>
<rect x="303.696" y="203.894" style="fill:url(#SVGID_1_);" width="66.89" height="35.778"/>
<path style="fill:#AA2300;" d="M249.968,153.208l31.212-97.186c1.61-5.011,0.727-10.49-2.373-14.742s-8.046-6.768-13.31-6.768
	H121.063c-5.264,0-10.209,2.515-13.31,6.768c-3.101,4.254-3.983,9.731-2.373,14.742l31.212,97.186H249.968z"/>
<path style="fill:#891C00;" d="M249.968,153.208l31.212-97.186c1.61-5.011,0.727-10.49-2.373-14.742s-8.046-6.768-13.31-6.768
	h-72.218v118.695h56.689V153.208z"/>
<path style="fill:#ACABB1;" d="M367.641,182.802v77.971c21.531,0,38.985-17.454,38.985-38.985S389.172,182.802,367.641,182.802z"/>
<g>
	<path style="fill:#464649;" d="M307.489,452.193h-55.758c-9.097,0-16.473-7.376-16.473-16.473s7.376-16.473,16.473-16.473h39.286
		v-197.46c0-9.097,7.376-16.473,16.473-16.473s16.473,7.376,16.473,16.473V435.72C323.962,444.817,316.587,452.193,307.489,452.193z
		"/>
	<path style="fill:#464649;" d="M307.489,392.281h-55.758c-9.097,0-16.473-7.376-16.473-16.473c0-9.097,7.376-16.473,16.473-16.473
		h55.758c9.097,0,16.473,7.376,16.473,16.473C323.962,384.906,316.587,392.281,307.489,392.281z"/>
</g>
<path style="fill:#C6C5CA;" d="M47.771,105.071C21.43,105.071,0,126.501,0,152.841v137.891c0,26.342,21.43,47.771,47.771,47.771
	s47.771-21.43,47.771-47.771V152.841C95.541,126.501,74.112,105.071,47.771,105.071z"/>
<path style="fill:#CD2A00;" d="M307.489,152.601H79.069c-9.097,0-16.473,7.376-16.473,16.473v105.425
	c0,9.097,7.375,16.472,16.472,16.472h244.894V169.074C323.962,159.977,316.587,152.601,307.489,152.601z"/>
<path style="fill:#2D2D30;" d="M424.994,452.193h-71.382c-9.097,0-16.473-7.376-16.473-16.473V169.074
	c0-9.097,7.376-16.473,16.473-16.473c9.097,0,16.473,7.376,16.473,16.473v250.174h54.909c9.097,0,16.473,7.376,16.473,16.473
	S434.092,452.193,424.994,452.193z"/>
<path style="fill:#EC8700;" d="M495.527,393.953h-96.339c-9.097,0-16.473,7.376-16.473,16.473v50.589
	c0,9.097,7.376,16.473,16.473,16.473h96.339c9.097,0,16.473-7.376,16.473-16.473v-50.59
	C512,401.328,504.624,393.953,495.527,393.953z"/>
<path style="fill:#CD7300;" d="M495.527,393.953h-48.17v83.534h48.17c9.097,0,16.473-7.376,16.473-16.473v-50.589
	C512,401.328,504.624,393.953,495.527,393.953z"/>
<path style="fill:#ACABB1;" d="M47.771,105.071v233.432c26.342,0,47.771-21.43,47.771-47.771V152.841
	C95.541,126.501,74.112,105.071,47.771,105.071z"/>
<path style="fill:#AA2300;" d="M307.49,152.601H193.279v138.37h130.683V169.074C323.962,159.977,316.588,152.601,307.49,152.601z"/>
<polygon style="fill:#781900;" points="250.162,152.601 136.396,152.601 129.52,131.095 257.07,131.095 "/>
<g>
</g>
<g>
</g>
<g>
</g>
<g>
</g>
<g>
</g>
<g>
</g>
<g>
</g>
<g>
</g>
<g>
</g>
<g>
</g>
<g>
</g>
<g>
</g>
<g>
</g>
<g>
</g>
<g>
</g>
</svg>
