<?xml version="1.0" encoding="iso-8859-1"?>
<!-- Generator: Adobe Illustrator 19.0.0, SVG Export Plug-In . SVG Version: 6.00 Build 0)  -->
<svg version="1.1" id="Layer_1" xmlns="http://www.w3.org/2000/svg" xmlns:xlink="http://www.w3.org/1999/xlink" x="0px" y="0px"
	 viewBox="0 0 512 512" style="enable-background:new 0 0 512 512;" xml:space="preserve">
<path style="fill:#787680;" d="M233.965,200.744c-3.185-4.157-8.123-6.594-13.36-6.594h-94.491c-7.608,0-14.271,5.104-16.25,12.451
	L48.769,433.302c-5.023,18.636-1.012,38.91,10.726,54.229C71.233,502.853,89.765,512,109.066,512
	c28.17,0,52.966-18.998,60.297-46.198l67.494-250.443C238.218,210.304,237.15,204.901,233.965,200.744z"/>
<path style="fill:#2D2D30;" d="M235.217,336.245h-54.029c-9.295,0-16.83,7.535-16.83,16.83c0,9.295,7.535,16.83,16.83,16.83h54.029
	c9.295,0,16.83-7.535,16.83-16.83C252.047,343.781,244.513,336.245,235.217,336.245z"/>
<path style="fill:#57565C;" d="M233.965,200.744c-3.185-4.157-8.123-6.594-13.36-6.594h-44.202L92.68,509.759
	c5.303,1.455,10.808,2.242,16.384,2.242c28.17,0,52.966-18.998,60.297-46.198l67.494-250.443
	C238.218,210.304,237.15,204.901,233.965,200.744z"/>
<path style="fill:#CD2A00;" d="M495.617,2.275c-5.186-3.011-11.587-3.034-16.795-0.059L358.637,70.849L142.969,38.243
	c-5.793-0.876-11.699-1.319-17.555-1.319c-28.082,0-55.274,10.087-76.566,28.401C22.89,87.655,8.002,120.1,8.002,154.34
	c0,33.36,14.258,65.252,39.117,87.497c21.56,19.293,49.366,29.919,78.294,29.919c4.322,0,8.693-0.242,12.993-0.721l217.557-24.217
	l122.918,69.535c2.573,1.455,5.429,2.181,8.287,2.181c2.93,0,5.861-0.765,8.479-2.291c5.171-3.016,8.351-8.552,8.351-14.539V16.83
	C503.998,10.832,500.805,5.286,495.617,2.275z"/>
<path style="fill:#891C00;" d="M116.799,88.885c-36.091,0-65.454,29.363-65.454,65.454s29.363,65.454,65.454,65.454
	s65.454-29.363,65.454-65.454S152.89,88.885,116.799,88.885z"/>
<path style="fill:#781900;" d="M116.799,107.41c-25.877,0-46.93,21.053-46.93,46.93s21.053,46.93,46.93,46.93
	s46.93-21.053,46.93-46.93S142.675,107.41,116.799,107.41z"/>
<path style="fill:#AA2300;" d="M495.617,2.275c-5.186-3.011-11.587-3.034-16.795-0.059L358.637,70.849l-2.674,175.968
	l122.918,69.535c2.573,1.455,5.429,2.181,8.287,2.181c2.93,0,5.861-0.765,8.479-2.291c5.171-3.016,8.351-8.552,8.351-14.539V16.83
	C503.998,10.832,500.805,5.286,495.617,2.275z"/>
<path style="fill:#720015;" d="M116.799,107.41v93.859c25.877,0,46.93-21.053,46.93-46.93S142.675,107.41,116.799,107.41z"/>
<g>
</g>
<g>
</g>
<g>
</g>
<g>
</g>
<g>
</g>
<g>
</g>
<g>
</g>
<g>
</g>
<g>
</g>
<g>
</g>
<g>
</g>
<g>
</g>
<g>
</g>
<g>
</g>
<g>
</g>
</svg>
