<?xml version="1.0" encoding="iso-8859-1"?>
<!-- Generator: Adobe Illustrator 19.0.0, SVG Export Plug-In . SVG Version: 6.00 Build 0)  -->
<svg version="1.1" id="Layer_1" xmlns="http://www.w3.org/2000/svg" xmlns:xlink="http://www.w3.org/1999/xlink" x="0px" y="0px"
	 viewBox="0 0 512.001 512.001" style="enable-background:new 0 0 512.001 512.001;" xml:space="preserve">
<path style="fill:#FF6243;" d="M192.057,172.834l-21.023-39.186c-4.522-8.431-15.023-11.599-23.451-7.075
	c-8.43,4.522-11.597,15.022-7.074,23.45l21.023,39.186c3.124,5.824,9.101,9.136,15.278,9.136c2.764,0,5.568-0.663,8.174-2.062
	C193.412,191.762,196.579,181.263,192.057,172.834z"/>
<path style="fill:#00CCB3;" d="M494.057,270.896L458.811,153.36c-7.542-25.148-25.392-46.19-48.973-57.726
	c-12.854-6.289-27.213-9.614-41.524-9.614c-11.71,0-23.186,2.145-34.107,6.372l-88.973,34.443
	c-55.306,21.41-104.754,53.384-146.971,95.035c-42.217,41.652-74.856,90.664-97.01,145.676c-2.15,5.338-1.508,11.395,1.713,16.164
	s8.6,7.628,14.354,7.628h366.606c9.566,0,17.321-7.755,17.321-17.321V316.52l81.139-24.042c4.414-1.308,8.125-4.319,10.314-8.368
	C494.891,280.06,495.38,275.305,494.057,270.896z M400.121,221.307L268.286,263.29l-11.067-34.078
	c-2.214-11.503,3.886-23.076,14.712-27.715l81.212-34.807c6.114-2.621,13.109-2.687,19.272-0.182
	c5.997,2.438,10.891,7.204,13.492,13.125L400.121,221.307z"/>
<path style="fill:#C6C5CA;" d="M363.394,216.801c-2.818-9.141-12.508-14.267-21.654-11.451l-46.038,14.189
	c-9.142,2.818-14.268,12.512-11.451,21.654c2.294,7.442,9.147,12.224,16.548,12.224c1.689,0,3.407-0.249,5.107-0.773l46.039-14.189
	C361.085,235.637,366.211,225.943,363.394,216.801z"/>
<path style="fill:#3E3D42;" d="M494.68,334.673H361.311c-9.566,0-17.321,7.755-17.321,17.321c0,9.566,7.755,17.321,17.321,17.321
	H494.68c9.566,0,17.321-7.755,17.321-17.321C512.001,342.428,504.246,334.673,494.68,334.673z"/>
<path style="fill:#C6C5CA;" d="M384.409,391.339H17.321c-9.566,0-17.321,7.755-17.321,17.321s7.755,17.321,17.321,17.321h367.088
	c9.566,0,17.321-7.754,17.321-17.321C401.729,399.093,393.975,391.339,384.409,391.339z"/>
<path style="fill:#ACABB1;" d="M384.409,391.339H200.865v34.641h183.544c9.566,0,17.321-7.755,17.321-17.321
	S393.975,391.339,384.409,391.339z"/>
<path style="fill:#00AA95;" d="M494.057,270.896L458.811,153.36c-7.542-25.148-25.392-46.19-48.973-57.726
	c-12.854-6.289-27.213-9.614-41.524-9.614c-11.71,0-23.186,2.145-34.107,6.372l-88.973,34.443
	c-15.251,5.904-30.039,12.64-44.371,20.133v244.37h183.062c9.566,0,17.321-7.755,17.321-17.321V316.52l81.139-24.042
	c4.414-1.308,8.125-4.319,10.314-8.368C494.891,280.06,495.38,275.305,494.057,270.896z M268.285,263.291l-11.067-34.078
	c-2.214-11.503,3.886-23.076,14.712-27.715l81.212-34.807c6.114-2.621,13.109-2.687,19.272-0.182
	c5.997,2.438,10.891,7.204,13.492,13.125l14.218,41.676L268.285,263.291z"/>
<g>
</g>
<g>
</g>
<g>
</g>
<g>
</g>
<g>
</g>
<g>
</g>
<g>
</g>
<g>
</g>
<g>
</g>
<g>
</g>
<g>
</g>
<g>
</g>
<g>
</g>
<g>
</g>
<g>
</g>
</svg>
