<?xml version="1.0" encoding="iso-8859-1"?>
<!-- Generator: Adobe Illustrator 19.0.0, SVG Export Plug-In . SVG Version: 6.00 Build 0)  -->
<svg version="1.1" id="Layer_1" xmlns="http://www.w3.org/2000/svg" xmlns:xlink="http://www.w3.org/1999/xlink" x="0px" y="0px"
	 viewBox="0 0 512 512" style="enable-background:new 0 0 512 512;" xml:space="preserve">
<pattern  x="-50" y="652" width="38.356" height="38.356" patternUnits="userSpaceOnUse" id="New_Pattern_Swatch_11" viewBox="0 -38.356 38.356 38.356" style="overflow:visible;">
	<g>
		<polygon style="fill:none;" points="0,0 38.356,0 38.356,-38.356 0,-38.356 		"/>
		<polygon style="fill:none;" points="0,-38.356 38.356,-38.356 38.356,0 0,0 		"/>
		<polygon style="fill:#F6F6F9;" points="38.356,-38.356 0,-38.356 0,0 38.356,0 		"/>
	</g>
</pattern>
<path style="fill:#ACABB1;" d="M319.206,271.224v-29.155H192.794v210.869c0,4.723,1.99,9.227,5.482,12.406l46.425,42.281
	c3.202,2.916,7.25,4.374,11.299,4.374c4.049,0,8.097-1.458,11.299-4.374l46.425-42.281c3.491-3.179,5.482-7.683,5.482-12.406
	v-19.156c0-4.45-1.768-8.718-4.914-11.865l-15.437-15.437l15.122-15.124c6.553-6.553,6.553-17.177,0-23.731l-15.122-15.124
	l15.122-15.124c6.553-6.553,6.553-17.177,0-23.731l-15.124-15.124l15.437-15.437C317.438,279.943,319.206,275.674,319.206,271.224z"
	/>
<path style="fill:#898890;" d="M319.206,271.224v-29.155H256V512c4.049,0,8.097-1.458,11.299-4.374l46.425-42.281
	c3.491-3.179,5.482-7.683,5.482-12.406v-19.156c0-4.45-1.768-8.718-4.914-11.865l-15.437-15.437l15.122-15.124
	c6.553-6.553,6.553-17.177,0-23.731l-15.122-15.124l15.122-15.124c6.553-6.553,6.553-17.177,0-23.731l-15.124-15.124l15.437-15.437
	C317.438,279.943,319.206,275.674,319.206,271.224z"/>
<path style="fill:#C6C5CA;" d="M256,0c-72.417,0-131.121,58.705-131.121,131.121S183.584,262.242,256,262.242
	s131.121-58.705,131.121-131.121S328.416,0,256,0z M256,117.543c-22.573,0-40.872-18.298-40.872-40.871S233.426,35.799,256,35.799
	c22.573,0,40.872,18.299,40.872,40.872C296.871,99.244,278.573,117.543,256,117.543z"/>
<path style="fill:#D8D7DA;" d="M256,104.638c-15.446,0-27.967-12.521-27.967-27.967S240.554,48.704,256,48.704
	c0.027,0,0.054,0.002,0.081,0.002v-26.9c-0.027,0-0.054-0.002-0.081-0.002c-30.302,0-54.867,24.565-54.867,54.867
	s24.565,54.867,54.867,54.867c0.027,0,0.054-0.002,0.081-0.002v-26.9C256.054,104.636,256.027,104.638,256,104.638z"/>
<pattern  id="SVGID_1_" xlink:href="#New_Pattern_Swatch_11" patternTransform="matrix(1.1188 0 0 -1.1188 2355.1162 -21406.9473)">
</pattern>
<path style="fill:url(#SVGID_1_);" d="M310.867,76.671c0-30.275-24.522-54.821-54.787-54.865v26.9
	c15.409,0.044,27.887,12.546,27.887,27.965s-12.478,27.921-27.887,27.965v26.9C286.345,131.493,310.867,106.946,310.867,76.671z"/>
<path style="fill:#ACABB1;" d="M310.867,76.671c0-30.275-24.522-54.821-54.787-54.865v26.9
	c15.409,0.044,27.887,12.546,27.887,27.965s-12.478,27.921-27.887,27.965v26.9C286.345,131.493,310.867,106.946,310.867,76.671z"/>
<g>
</g>
<g>
</g>
<g>
</g>
<g>
</g>
<g>
</g>
<g>
</g>
<g>
</g>
<g>
</g>
<g>
</g>
<g>
</g>
<g>
</g>
<g>
</g>
<g>
</g>
<g>
</g>
<g>
</g>
</svg>
