<?xml version="1.0" encoding="iso-8859-1"?>
<!-- Generator: Adobe Illustrator 19.0.0, SVG Export Plug-In . SVG Version: 6.00 Build 0)  -->
<svg version="1.1" id="Layer_1" xmlns="http://www.w3.org/2000/svg" xmlns:xlink="http://www.w3.org/1999/xlink" x="0px" y="0px"
	 viewBox="0 0 511.999 511.999" style="enable-background:new 0 0 511.999 511.999;" xml:space="preserve">
<path style="fill:#787680;" d="M358.145,195.246H225.548c-9.27,0-16.785,7.515-16.785,16.785c0,9.27,7.515,16.785,16.785,16.785
	h132.598c9.27,0,16.785-7.515,16.785-16.785C374.931,202.761,367.417,195.246,358.145,195.246z"/>
<path style="fill:#CD2A00;" d="M499.109,180.958c-8.271-8.018-19.282-12.295-30.836-11.939l-131.847,4.098
	c-9.063,0.282-16.264,7.711-16.264,16.778v44.271c0,9.067,7.201,16.496,16.264,16.778l131.847,4.098
	c0.44,0.013,0.88,0.02,1.317,0.02l0,0c11.081,0,21.565-4.248,29.517-11.959c8.192-7.942,12.892-19.04,12.892-30.45v-1.243
	C512,200,507.301,188.902,499.109,180.958z"/>
<path style="fill:#AA2300;" d="M499.109,180.958c-8.271-8.018-19.282-12.295-30.836-11.939l-52.192,1.623v82.777l52.192,1.623
	c0.44,0.013,0.88,0.02,1.317,0.02l0,0c11.081,0,21.565-4.248,29.517-11.959c8.192-7.942,12.892-19.04,12.892-30.45v-1.243
	C512,200,507.301,188.902,499.109,180.958z"/>
<g>
	<path style="fill:#C6C5CA;" d="M269.644,185.785c0-9.27-7.515-16.785-16.785-16.785H113.406c-42.767,0-80.232,28.886-91.109,70.248
		L3.524,310.641h266.12V185.785z M88.584,256c-13.845,0-25.067-11.223-25.067-25.067s11.223-25.067,25.067-25.067
		s25.067,11.224,25.067,25.067C113.651,244.777,102.429,256,88.584,256z"/>
	<path style="fill:#C6C5CA;" d="M3.492,336.464C6.67,340.587,11.581,343,16.785,343h236.074c9.27,0,16.785-7.515,16.785-16.785
		v-15.573H3.525l-2.973,11.305C-0.771,326.98,0.314,332.343,3.492,336.464z"/>
</g>
<g>
</g>
<g>
</g>
<g>
</g>
<g>
</g>
<g>
</g>
<g>
</g>
<g>
</g>
<g>
</g>
<g>
</g>
<g>
</g>
<g>
</g>
<g>
</g>
<g>
</g>
<g>
</g>
<g>
</g>
</svg>
