<?xml version="1.0" encoding="iso-8859-1"?>
<!-- Generator: Adobe Illustrator 19.0.0, SVG Export Plug-In . SVG Version: 6.00 Build 0)  -->
<svg version="1.1" id="Layer_1" xmlns="http://www.w3.org/2000/svg" xmlns:xlink="http://www.w3.org/1999/xlink" x="0px" y="0px"
	 viewBox="0 0 512.001 512.001" style="enable-background:new 0 0 512.001 512.001;" xml:space="preserve">
<circle style="fill:#1D1D1F;" cx="283.351" cy="422.005" r="24.438"/>
<path style="fill:#2D2D30;" d="M137.167,354.91c-9.037,0-16.364-7.327-16.364-16.364V165.819c0-49.325,40.129-89.455,89.455-89.455
	s89.455,40.129,89.455,89.455v7.633c0,9.037-7.327,16.364-16.364,16.364s-16.364-7.327-16.364-16.364v-7.633
	c0-31.279-25.448-56.727-56.727-56.727s-56.727,25.448-56.727,56.727v172.728C153.531,347.583,146.204,354.91,137.167,354.91z"/>
<path style="fill:#3E3D42;" d="M137.167,0c-9.037,0-16.364,7.327-16.364,16.364v479.274c0,9.037,7.327,16.364,16.364,16.364
	c9.037,0,16.364-7.327,16.364-16.364V16.364C153.531,7.327,146.204,0,137.167,0z"/>
<path style="fill:#FFCD00;" d="M188.414,262.607c0.084,1.524,0.38,3.049,0.902,4.533l49.967,142.184
	c2.302,6.553,8.492,10.938,15.437,10.938h28.628V262.607H188.414z"/>
<path style="fill:#DDB200;" d="M283.349,420.262h28.629c6.946,0,13.135-4.385,15.437-10.938l49.967-142.184
	c0.522-1.484,0.818-3.01,0.902-4.533h-94.935L283.349,420.262L283.349,420.262z"/>
<path style="fill:#898890;" d="M283.349,166.756c-4.34,0-8.502,1.724-11.571,4.793l-78.596,78.596
	c-3.338,3.338-5.018,7.89-4.769,12.463h94.935v-95.852H283.349z"/>
<path style="fill:#787680;" d="M373.515,250.144l-78.596-78.596c-3.068-3.069-7.231-4.793-11.571-4.793v95.852h94.935
	C378.534,258.034,376.853,253.482,373.515,250.144z"/>
<path style="fill:#C6C5CA;" d="M283.349,248.571h-93.867c-7.73,0-13.997,6.267-13.997,13.997l0,0c0,7.73,6.267,13.997,13.997,13.997
	h93.867L283.349,248.571L283.349,248.571z"/>
<path style="fill:#ACABB2;" d="M377.201,248.571h-93.852v27.993h93.852c7.73,0,13.997-6.267,13.997-13.997l0,0
	C391.197,254.837,384.931,248.571,377.201,248.571z"/>
<g>
</g>
<g>
</g>
<g>
</g>
<g>
</g>
<g>
</g>
<g>
</g>
<g>
</g>
<g>
</g>
<g>
</g>
<g>
</g>
<g>
</g>
<g>
</g>
<g>
</g>
<g>
</g>
<g>
</g>
</svg>
