<?xml version="1.0" encoding="iso-8859-1"?>
<!-- Generator: Adobe Illustrator 19.0.0, SVG Export Plug-In . SVG Version: 6.00 Build 0)  -->
<svg version="1.1" id="Layer_1" xmlns="http://www.w3.org/2000/svg" xmlns:xlink="http://www.w3.org/1999/xlink" x="0px" y="0px"
	 viewBox="0 0 512 512" style="enable-background:new 0 0 512 512;" xml:space="preserve">
<path style="fill:#C0AB91;" d="M334.837,227.954c-20.446-32.49-48.444-50.382-78.837-50.382c-30.393,0-58.391,17.893-78.837,50.382
	c-18.921,30.068-29.342,69.705-29.342,111.61s10.421,81.542,29.342,111.61c20.446,32.49,48.444,50.382,78.837,50.382
	c30.393,0,58.391-17.893,78.837-50.382c18.921-30.068,29.342-69.705,29.342-111.61S353.758,258.021,334.837,227.954z"/>
<path style="fill:#B39A7C;" d="M334.837,227.954c-20.446-32.49-48.444-50.382-78.837-50.382l0,0v323.985l0,0
	c30.393,0,58.391-17.893,78.837-50.382c18.921-30.068,29.342-69.705,29.342-111.61S353.758,258.021,334.837,227.954z"/>
<path style="fill:#D9CCBC;" d="M309.784,478.348h-107.57c-9.292,0-16.826,7.533-16.826,16.826c0,9.292,7.533,16.826,16.826,16.826
	h107.57c9.292,0,16.826-7.533,16.826-16.826C326.61,485.882,319.077,478.348,309.784,478.348z"/>
<path style="fill:#57565C;" d="M107.566,199.16c-9.292,0-16.826,7.533-16.826,16.826v122.667c0,9.292,7.533,16.826,16.826,16.826
	s16.826-7.533,16.826-16.826V215.985C124.392,206.693,116.858,199.16,107.566,199.16z"/>
<g>
	<path style="fill:#3D9AE2;" d="M256,0h-60.133c-5.858,0-11.293,3.047-14.351,8.042l-6.178,10.093h80.662V0H256z"/>
	<polygon style="fill:#3D9AE2;" points="256,29.723 168.246,29.723 153.272,54.187 256,54.187 	"/>
	<path style="fill:#3D9AE2;" d="M139.086,77.364l-79.47,129.838c-3.178,5.192-3.303,11.697-0.328,17.01
		c2.976,5.311,8.59,8.6,14.678,8.6h182.032V77.364H139.086z"/>
</g>
<g>
	<path style="fill:#1E81CE;" d="M336.662,18.136l-6.178-10.093C327.427,3.047,321.991,0,316.133,0H256v18.136H336.662z"/>
	<path style="fill:#1E81CE;" d="M452.383,207.202l-79.47-129.838H256v155.448h182.032c6.089,0,11.702-3.289,14.678-8.6
		C455.687,218.9,455.561,212.395,452.383,207.202z"/>
	<polygon style="fill:#1E81CE;" points="256,54.187 358.729,54.187 343.755,29.723 256,29.723 	"/>
</g>
<polygon style="fill:#FFFFFF;" points="256,54.187 153.272,54.187 139.086,77.364 256,77.364 "/>
<polygon style="fill:#D6D6D6;" points="256,77.364 372.914,77.364 358.729,54.187 256,54.187 "/>
<polygon style="fill:#FFFFFF;" points="256,18.136 175.338,18.136 168.246,29.723 256,29.723 "/>
<polygon style="fill:#D6D6D6;" points="256,29.723 343.755,29.723 336.662,18.136 256,18.136 "/>
<g>
</g>
<g>
</g>
<g>
</g>
<g>
</g>
<g>
</g>
<g>
</g>
<g>
</g>
<g>
</g>
<g>
</g>
<g>
</g>
<g>
</g>
<g>
</g>
<g>
</g>
<g>
</g>
<g>
</g>
</svg>
