<?xml version="1.0" encoding="utf-8"?>
<!-- Generator: Adobe Illustrator 19.2.1, SVG Export Plug-In . SVG Version: 6.00 Build 0)  -->
<svg version="1.1" id="Layer_1" xmlns="http://www.w3.org/2000/svg" xmlns:xlink="http://www.w3.org/1999/xlink" x="0px" y="0px"
	 viewBox="0 0 512 512" style="enable-background:new 0 0 512 512;" xml:space="preserve">
<style type="text/css">
	.st0{fill:#FFE991;}
	.st1{fill:#787680;}
	.st2{fill:#57565C;}
	.st3{fill:#3D9AE2;}
	.st4{fill:#1E81CE;}
</style>
<path class="st0" d="M253.6,349c0.1,0,0.1,0,0.2,0C253.7,349,253.7,349,253.6,349L253.6,349z"/>
<path class="st1" d="M256,184.1c-9.2,0-16.7-7.5-16.7-16.7V16.7C239.3,7.5,246.8,0,256,0c9.2,0,16.7,7.5,16.7,16.7v150.6
	C272.7,176.6,265.2,184.1,256,184.1z"/>
<path class="st2" d="M256,0c-0.4,0-0.7,0-1.1,0.1V184c0.4,0,0.7,0.1,1.1,0.1c9.2,0,16.7-7.5,16.7-16.7V16.7C272.7,7.5,265.2,0,256,0
	z"/>
<path class="st3" d="M256,91.1c-106.5,0-193.1,86.6-193.1,193.1c0,9.2,7.5,16.7,16.7,16.7h352.8c9.2,0,16.7-7.5,16.7-16.7
	C449.1,177.7,362.5,91.1,256,91.1z"/>
<path class="st4" d="M256,91.1v209.8h176.4c9.2,0,16.7-7.5,16.7-16.7C449.1,177.7,362.5,91.1,256,91.1z"/>
</svg>
