<?xml version="1.0" encoding="iso-8859-1"?>
<!-- Generator: Adobe Illustrator 19.0.0, SVG Export Plug-In . SVG Version: 6.00 Build 0)  -->
<svg version="1.1" id="Layer_1" xmlns="http://www.w3.org/2000/svg" xmlns:xlink="http://www.w3.org/1999/xlink" x="0px" y="0px"
	 viewBox="0 0 512 512" style="enable-background:new 0 0 512 512;" xml:space="preserve">
<path style="fill:#3E3D42;" d="M84.383,373.919c-9.446,0-17.105,7.658-17.105,17.105v37.837c0,9.446,7.658,17.105,17.105,17.105
	s17.105-7.658,17.105-17.105v-37.837C101.488,381.577,93.83,373.919,84.383,373.919z"/>
<path style="fill:#2D2D30;" d="M427.617,373.919c-9.446,0-17.105,7.658-17.105,17.105v37.837c0,9.446,7.658,17.105,17.105,17.105
	c9.446,0,17.105-7.658,17.105-17.105v-37.837C444.721,381.577,437.063,373.919,427.617,373.919z"/>
<path style="fill:#CD2A00;" d="M447.117,66.035H64.883C29.107,66.035,0,95.142,0,130.918v212.327
	c0,35.776,29.107,64.883,64.883,64.883h382.234c35.776,0,64.883-29.107,64.883-64.883V130.918
	C512,95.142,482.893,66.035,447.117,66.035z"/>
<path style="fill:#AA2300;" d="M447.117,66.035H256v342.093h191.117c35.776,0,64.883-29.107,64.883-64.883V130.918
	C512,95.142,482.893,66.035,447.117,66.035z"/>
<path style="fill:#891C00;" d="M388.58,365.36H66.457c-16.454,0-29.792-13.339-29.792-29.792V138.595
	c0-16.454,13.339-29.792,29.792-29.792H388.58c16.454,0,29.792,13.339,29.792,29.792v196.972
	C418.372,352.021,405.033,365.36,388.58,365.36z"/>
<path style="fill:#57565C;" d="M358.484,340.417H96.553c-16.454,0-29.792-13.339-29.792-29.792V163.539
	c0-16.454,13.339-29.792,29.792-29.792h261.931c16.454,0,29.792,13.339,29.792,29.792v147.085
	C388.276,327.078,374.938,340.417,358.484,340.417z"/>
<g>
	<path style="fill:#37373A;" d="M358.484,133.747H96.553c-16.454,0-29.792,13.339-29.792,29.792v22.479
		c0-16.453,13.339-29.792,29.792-29.792h261.931c16.454,0,29.792,13.339,29.792,29.792V163.54
		C388.276,147.085,374.938,133.747,358.484,133.747z"/>
	<path style="fill:#37373A;" d="M357.947,133.747H256v206.669h101.947c16.749,0,30.329-13.578,30.329-30.329V164.075
		C388.276,147.326,374.698,133.747,357.947,133.747z"/>
	<circle style="fill:#37373A;" cx="464.914" cy="285.11" r="25.545"/>
	<circle style="fill:#37373A;" cx="464.914" cy="189.058" r="25.545"/>
</g>
<path style="fill:#D8D7DA;" d="M330.12,171.953c-9.446,0-17.105,7.658-17.105,17.105v96.046c0,9.446,7.658,17.105,17.105,17.105
	s17.104-7.658,17.104-17.105v-96.046C347.224,179.612,339.567,171.953,330.12,171.953z"/>
<g>
</g>
<g>
</g>
<g>
</g>
<g>
</g>
<g>
</g>
<g>
</g>
<g>
</g>
<g>
</g>
<g>
</g>
<g>
</g>
<g>
</g>
<g>
</g>
<g>
</g>
<g>
</g>
<g>
</g>
</svg>
