<?xml version="1.0" encoding="iso-8859-1"?>
<!-- Generator: Adobe Illustrator 19.0.0, SVG Export Plug-In . SVG Version: 6.00 Build 0)  -->
<svg version="1.1" id="Layer_1" xmlns="http://www.w3.org/2000/svg" xmlns:xlink="http://www.w3.org/1999/xlink" x="0px" y="0px"
	 viewBox="0 0 512 512" style="enable-background:new 0 0 512 512;" xml:space="preserve">
<g>
	
		<rect x="184.549" y="30.365" transform="matrix(-0.7071 -0.7071 0.7071 -0.7071 282.3866 295.576)" style="fill:#EBE4DD;" width="35.719" height="117.878"/>
	
		<rect x="250.647" y="71.44" transform="matrix(-0.7071 -0.7071 0.7071 -0.7071 465.3516 371.3552)" style="fill:#EBE4DD;" width="117.878" height="35.719"/>
</g>
<rect x="41.674" y="119.07" style="fill:#BFA993;" width="428.651" height="392.93"/>
<rect x="256" y="119.07" style="fill:#B29A7E;" width="214.326" height="392.93"/>
<rect x="113.116" y="190.512" style="fill:#D1E5F5;" width="285.767" height="250.047"/>
<polygon style="fill:#B4D8F1;" points="113.116,440.558 398.884,440.558 398.884,190.512 "/>
<circle style="fill:#88888F;" cx="256" cy="35.721" r="35.721"/>
<g>
	
		<rect x="208.378" y="218.402" transform="matrix(-0.7071 -0.7071 0.7071 -0.7071 184.1507 647.795)" style="fill:#FFFFFF;" width="35.719" height="134.714"/>
	
		<rect x="267.913" y="277.936" transform="matrix(-0.7071 -0.7071 0.7071 -0.7071 243.6855 791.525)" style="fill:#FFFFFF;" width="35.719" height="134.714"/>
</g>
<g>
</g>
<g>
</g>
<g>
</g>
<g>
</g>
<g>
</g>
<g>
</g>
<g>
</g>
<g>
</g>
<g>
</g>
<g>
</g>
<g>
</g>
<g>
</g>
<g>
</g>
<g>
</g>
<g>
</g>
</svg>
