<?xml version="1.0" encoding="iso-8859-1"?>
<!-- Generator: Adobe Illustrator 19.0.0, SVG Export Plug-In . SVG Version: 6.00 Build 0)  -->
<svg version="1.1" id="Layer_1" xmlns="http://www.w3.org/2000/svg" xmlns:xlink="http://www.w3.org/1999/xlink" x="0px" y="0px"
	 viewBox="0 0 511.999 511.999" style="enable-background:new 0 0 511.999 511.999;" xml:space="preserve">
<path style="fill:#E0E0E2;" d="M346.448,468.397L294.753,416.7l3.887-125.03c0.138-4.444-1.53-8.754-4.625-11.945
	c-3.095-3.192-7.352-4.995-11.797-4.995h-52.436c-4.446,0-8.702,1.802-11.796,4.995c-3.094,3.193-4.763,7.502-4.625,11.945
	l3.886,125.03l-51.695,51.696c-7.332,7.332-9.505,18.258-5.537,27.834c3.967,9.579,13.23,15.768,23.598,15.768h144.775
	c10.367,0,19.629-6.188,23.597-15.767C355.953,486.654,353.78,475.727,346.448,468.397z"/>
<path style="fill:#C6C5CA;" d="M346.448,468.397L294.753,416.7l3.887-125.03c0.138-4.444-1.53-8.754-4.625-11.945
	c-3.095-3.192-7.352-4.995-11.797-4.995H256v237.268h72.387c10.367,0,19.629-6.188,23.597-15.767
	C355.953,486.654,353.78,475.727,346.448,468.397z"/>
<path style="fill:#3D9AE2;" d="M333.456,16.043C323.962,5.848,310.527,0,296.596,0h-81.192c-13.932,0-27.367,5.848-36.861,16.044
	c-9.493,10.197-14.369,24.014-13.376,37.909l17.031,238.379c0.614,8.598,7.768,15.258,16.388,15.258h114.827
	c8.619,0,15.773-6.661,16.388-15.258l17.032-238.38C347.824,40.057,342.949,26.241,333.456,16.043z"/>
<path style="fill:#1E81CE;" d="M333.456,16.043C323.962,5.848,310.527,0,296.596,0H256v307.591h57.414
	c8.619,0,15.773-6.661,16.388-15.258l17.032-238.38C347.824,40.057,342.949,26.241,333.456,16.043z"/>
<g>
	<circle style="fill:#FFDE55;" cx="256.001" cy="154.314" r="24.535"/>
	<circle style="fill:#FFDE55;" cx="256.001" cy="246.57" r="24.535"/>
</g>
<polygon style="fill:#C6C5CA;" points="296.988,344.756 215.011,344.756 213.856,307.591 298.144,307.591 "/>
<g>
</g>
<g>
</g>
<g>
</g>
<g>
</g>
<g>
</g>
<g>
</g>
<g>
</g>
<g>
</g>
<g>
</g>
<g>
</g>
<g>
</g>
<g>
</g>
<g>
</g>
<g>
</g>
<g>
</g>
</svg>
