<?xml version="1.0" encoding="iso-8859-1"?>
<!-- Generator: Adobe Illustrator 19.0.0, SVG Export Plug-In . SVG Version: 6.00 Build 0)  -->
<svg version="1.1" id="Layer_1" xmlns="http://www.w3.org/2000/svg" xmlns:xlink="http://www.w3.org/1999/xlink" x="0px" y="0px"
	 viewBox="0 0 512 512" style="enable-background:new 0 0 512 512;" xml:space="preserve">
<path style="fill:#787680;" d="M483.69,455.223c-9.246,0-16.742-7.496-16.742-16.742V232.243c0-9.982-8.121-18.104-18.104-18.104
	h-35.471c-9.246,0-16.742-7.496-16.742-16.742c0-9.246,7.496-16.742,16.742-16.742h35.471c28.445,0,51.587,23.142,51.587,51.587
	v206.238C500.432,447.728,492.936,455.223,483.69,455.223z"/>
<path style="fill:#5D5C63;" d="M427.695,224.681h-11.167v-57.346h11.167c10.168,0,18.411,8.243,18.411,18.411v20.523
	C446.107,216.438,437.863,224.681,427.695,224.681z"/>
<path style="fill:#E0E0E2;" d="M169.099,348.779h-33.684V237.53h-33.484v111.249H68.25c-9.246,0-16.742,7.496-16.742,16.742v129.738
	c0,9.246,7.496,16.742,16.742,16.742h100.85c9.246,0,16.742-7.496,16.742-16.742V365.521
	C185.841,356.275,178.345,348.779,169.099,348.779z M84.991,382.262h16.941v96.254H84.991V382.262z M152.358,478.516h-16.942
	v-96.254h16.942V478.516z"/>
<path style="fill:#C6C5CA;" d="M169.099,348.779h-33.684V237.53h-16.742V512h50.424c9.246,0,16.742-7.496,16.742-16.742V365.521
	C185.841,356.275,178.345,348.779,169.099,348.779z M152.358,478.516h-16.942v-96.254h16.942V478.516z"/>
<path style="fill:#CD2A00;" d="M413.374,0H192.776C92.857,0,11.568,81.29,11.568,181.208c0,45.638,37.13,82.769,82.769,82.769
	h319.037c9.246,0,16.742-7.496,16.742-16.742V16.742C430.116,7.496,422.62,0,413.374,0z M339.818,115.391h-91.261
	c-19.244,0-34.845-15.601-34.845-34.845S229.312,45.7,248.557,45.7h91.261c19.244,0,34.845,15.601,34.845,34.845
	C374.663,99.791,359.062,115.391,339.818,115.391z"/>
<path style="fill:#AA2300;" d="M413.374,0H220.842v59.433c6.366-8.344,16.409-13.732,27.715-13.732h91.261
	c19.244,0,34.846,15.601,34.846,34.845s-15.601,34.845-34.846,34.845h-91.261c-11.305,0-21.348-5.388-27.715-13.732v162.316h192.532
	c9.246,0,16.742-7.496,16.742-16.742V16.742C430.116,7.496,422.62,0,413.374,0z"/>
<g>
	<path style="fill:#610012;" d="M374.663,217.372c-9.246,0-16.742-7.496-16.742-16.742v-28.953c0-9.246,7.496-16.742,16.742-16.742
		s16.742,7.496,16.742,16.742v28.953C391.405,209.877,383.909,217.372,374.663,217.372z"/>
	<path style="fill:#610012;" d="M322.71,217.372c-9.246,0-16.742-7.496-16.742-16.742v-28.953c0-9.246,7.496-16.742,16.742-16.742
		c9.246,0,16.742,7.496,16.742,16.742v28.953C339.452,209.877,331.956,217.372,322.71,217.372z"/>
	<path style="fill:#610012;" d="M270.757,217.372c-9.246,0-16.742-7.496-16.742-16.742v-28.953c0-9.246,7.496-16.742,16.742-16.742
		s16.742,7.496,16.742,16.742v28.953C287.499,209.877,280.003,217.372,270.757,217.372z"/>
</g>
<path style="fill:#5D5C63;" d="M129.221,291.169h-21.095c-8.939,0-16.186-7.247-16.186-16.186v-11.006h53.466v11.006
	C145.407,283.922,138.16,291.169,129.221,291.169z"/>
<g>
</g>
<g>
</g>
<g>
</g>
<g>
</g>
<g>
</g>
<g>
</g>
<g>
</g>
<g>
</g>
<g>
</g>
<g>
</g>
<g>
</g>
<g>
</g>
<g>
</g>
<g>
</g>
<g>
</g>
</svg>
