<?xml version="1.0" encoding="iso-8859-1"?>
<!-- Generator: Adobe Illustrator 19.0.0, SVG Export Plug-In . SVG Version: 6.00 Build 0)  -->
<svg version="1.1" id="Layer_1" xmlns="http://www.w3.org/2000/svg" xmlns:xlink="http://www.w3.org/1999/xlink" x="0px" y="0px"
	 viewBox="0 0 512.001 512.001" style="enable-background:new 0 0 512.001 512.001;" xml:space="preserve">
<path style="fill:#ACABB1;" d="M333.204,224.149h-15.047v-33.076h15.047c15.361,0,28.391-11.493,30.311-26.734l5.19-41.226
	c0.8-6.352-1.17-12.748-5.404-17.549s-10.335-7.555-16.736-7.555h-14.143V64.936h14.142c15.89,0,31.032,6.835,41.542,18.753
	s15.4,27.793,13.415,43.559l-5.19,41.226C392.335,200.215,365.195,224.149,333.204,224.149z"/>
<path style="fill:#E0E0E2;" d="M353.145,5.611C350.005,2.044,345.482,0,340.731,0H126.585c-6.077,0-11.664,3.333-14.552,8.68
	c-2.888,5.347-2.609,11.847,0.725,16.929l44.029,67.119l33.657,194.24c1.373,7.925,8.25,13.714,16.295,13.714h99.75
	c8.322,0,15.349-6.184,16.405-14.438l34.242-267.606C357.738,13.923,356.284,9.179,353.145,5.611z"/>
<g>
	<path style="fill:#ACABB1;" d="M207.64,102.501h-49.16l5.731,33.076h43.429c9.133,0,16.538-7.405,16.538-16.538
		S216.773,102.501,207.64,102.501z"/>
	<path style="fill:#ACABB1;" d="M217.566,160.619h-49.016l5.731,33.076h43.284c9.133,0,16.538-7.405,16.538-16.538
		C234.104,168.024,226.699,160.619,217.566,160.619z"/>
	<path style="fill:#ACABB1;" d="M225.508,218.737h-46.886l5.731,33.076h41.155c9.133,0,16.538-7.404,16.538-16.538
		C242.044,226.142,234.641,218.737,225.508,218.737z"/>
</g>
<path style="fill:#C6C5CA;" d="M353.145,5.611C350.005,2.044,345.482,0,340.731,0H255.14v300.68h51.349
	c8.322,0,15.349-6.184,16.405-14.438l34.242-267.606C357.738,13.923,356.284,9.179,353.145,5.611z"/>
<path style="fill:#A5001E;" d="M303.876,327.067h-95.752c-33.618,0-60.968,27.35-60.968,60.968v107.428
	c0,9.133,7.405,16.538,16.538,16.538h184.612c9.133,0,16.538-7.405,16.538-16.538V388.035
	C364.844,354.417,337.494,327.067,303.876,327.067z"/>
<path style="fill:#830018;" d="M303.876,327.067H256v184.934h92.307c9.133,0,16.538-7.405,16.538-16.538V388.035
	C364.844,354.417,337.494,327.067,303.876,327.067z"/>
<circle style="fill:#FFFFFF;" cx="256.003" cy="419.536" r="35.237"/>
<path style="fill:#630116;" d="M256.001,471.307c-28.549,0-51.775-23.226-51.775-51.775s23.226-51.775,51.775-51.775
	s51.775,23.226,51.775,51.775C307.775,448.081,284.549,471.307,256.001,471.307z M256.001,405.665
	c-7.646,0-13.868,6.221-13.868,13.868s6.221,13.868,13.868,13.868c7.646,0,13.868-6.221,13.868-13.868
	S263.647,405.665,256.001,405.665z"/>
<path style="fill:#D63C13;" d="M256.001,455.427c-9.133,0-16.538-7.405-16.538-16.538v-38.71c0-9.133,7.405-16.538,16.538-16.538
	c9.133,0,16.538,7.405,16.538,16.538v38.71C272.538,448.022,265.134,455.427,256.001,455.427z"/>
<path style="fill:#B72306;" d="M256.001,383.64L256.001,383.64v71.786l0,0c9.133,0,16.538-7.405,16.538-16.538v-38.71
	C272.538,391.045,265.134,383.64,256.001,383.64z"/>
<path style="fill:#ACABB1;" d="M333.648,334.23H178.353v-9.87c0-15.039,12.192-27.231,27.23-27.231h100.835
	c15.039,0,27.23,12.192,27.23,27.231V334.23z"/>
<g>
</g>
<g>
</g>
<g>
</g>
<g>
</g>
<g>
</g>
<g>
</g>
<g>
</g>
<g>
</g>
<g>
</g>
<g>
</g>
<g>
</g>
<g>
</g>
<g>
</g>
<g>
</g>
<g>
</g>
</svg>
