<?xml version="1.0" encoding="utf-8"?>
<!-- Generator: Adobe Illustrator 19.2.1, SVG Export Plug-In . SVG Version: 6.00 Build 0)  -->
<svg version="1.1" xmlns="http://www.w3.org/2000/svg" xmlns:xlink="http://www.w3.org/1999/xlink" x="0px" y="0px"
	 viewBox="0 0 380.4 380.4" style="enable-background:new 0 0 380.4 380.4;" xml:space="preserve">
<style type="text/css">
	.st0{fill:#352600;}
	.st1{display:none;}
	.st2{display:inline;}
	.st3{fill:#D1A62F;}
	.st4{fill:#C1A359;}
	.st5{display:inline;fill:#003BCE;}
</style>
<g id="Layer_1">
	<g>
		<path d="M236.2,0c36,0,69.6,10,98.3,27.3c-55.1,33.3-91.9,93.8-91.9,162.9s36.8,129.6,91.9,162.9c-28.7,17.4-62.3,27.3-98.3,27.3
			C131.1,380.4,46,295.3,46,190.2S131.1,0,236.2,0z"/>
		<path class="st0" d="M236.2,0c5.8,0,11.5,0.3,17.2,0.8C156.4,9.5,80.5,91,80.5,190.2c0,99.3,76,180.7,173,189.4
			c-5.7,0.5-11.4,0.8-17.3,0.8C131.1,380.4,46,295.3,46,190.2S131.1,0,236.2,0z"/>
	</g>
</g>
<g id="Livello_2" class="st1">
	<g class="st2">
		<path class="st3" d="M334.5,353.1c-24,14.5-51.6,23.9-81,26.6c-0.7,0.1-1.4,0.1-2.1,0.2c-0.7,0.1-1.4,0.1-2.1,0.2
			c-0.7,0-1.4,0.1-2.1,0.1c-0.6,0-1.3,0.1-1.9,0.1c-0.3,0-0.5,0-0.8,0c-0.5,0-1.1,0-1.6,0.1c-0.7,0-1.4,0-2.2,0.1
			c-0.7,0-1.4,0-2.2,0c-0.4,0-0.7,0-1.1,0c-0.4,0-0.7,0-1.1,0c-3.5,0-7-0.1-10.5-0.3c-1.2-0.1-2.3-0.1-3.5-0.2h0
			c-3.5-0.3-6.9-0.6-10.3-1c-1.7-0.2-3.4-0.5-5.1-0.7c-2.1-0.3-4.2-0.7-6.3-1.1c-0.8-0.2-1.6-0.3-2.3-0.5c-1.2-0.2-2.3-0.5-3.5-0.8
			c-1.2-0.3-2.3-0.5-3.5-0.8c-3.1-0.7-6.1-1.6-9.2-2.5c-0.3-0.1-0.7-0.2-1-0.3c0.3,0.1,0.7,0.2,1,0.3V7.8C199.2,2.7,217.4,0,236.2,0
			c1,0,2.1,0,3.2,0c0.1,0,0.3,0,0.4,0c1,0,1.9,0,2.9,0.1c0.1,0,0.1,0,0.2,0c1,0,2.1,0.1,3.2,0.1c1.9,0.1,3.9,0.2,5.8,0.4
			c0.5,0,1,0.1,1.5,0.1h0c29.5,2.6,57,12,81.1,26.6c-55.1,33.3-91.9,93.8-91.9,162.9S279.4,319.8,334.5,353.1z"/>
		<path class="st4" d="M253.3,0.8c-25.6,2.3-49.7,9.7-71.3,21.1V7.8C199.2,2.7,217.4,0,236.2,0c1,0,2.1,0,3.2,0c0.1,0,0.3,0,0.4,0
			c1,0,1.9,0,2.9,0.1c0.1,0,0.1,0,0.2,0c1,0,2.1,0.1,3.2,0.1c1.9,0.1,3.9,0.2,5.8,0.4C252.3,0.7,252.8,0.7,253.3,0.8z"/>
		<path class="st4" d="M253.5,379.7c-0.7,0.1-1.4,0.1-2.1,0.2c-0.7,0.1-1.4,0.1-2.1,0.2c-0.7,0-1.4,0.1-2.1,0.1
			c-0.6,0-1.3,0.1-1.9,0.1c-0.3,0-0.5,0-0.8,0c-0.5,0-1.1,0-1.6,0.1c-0.7,0-1.4,0-2.2,0.1c-0.7,0-1.4,0-2.2,0c-0.4,0-0.7,0-1.1,0
			h-1.1c-3.5,0-7-0.1-10.5-0.3c-1.2-0.1-2.3-0.1-3.5-0.2h0c-3.5-0.3-6.9-0.6-10.3-1c-1.7-0.2-3.4-0.5-5.1-0.7
			c-2.1-0.3-4.2-0.7-6.3-1.1c-0.8-0.2-1.6-0.3-2.3-0.5c-1.2-0.2-2.3-0.5-3.5-0.8c-1.2-0.3-2.3-0.5-3.5-0.8c-3.1-0.8-6.1-1.6-9.2-2.5
			v-14.1C203.7,370,227.8,377.4,253.5,379.7z"/>
	</g>
	<path class="st5" d="M182,372.6L182,372.6c-0.3-0.1-0.7-0.2-1-0.3C181.3,372.4,181.7,372.5,182,372.6z"/>
</g>
</svg>
