<?xml version="1.0" encoding="utf-8"?>
<!-- Generator: Adobe Illustrator 19.2.1, SVG Export Plug-In . SVG Version: 6.00 Build 0)  -->
<svg version="1.1" id="Layer_1" xmlns="http://www.w3.org/2000/svg" xmlns:xlink="http://www.w3.org/1999/xlink" x="0px" y="0px"
	 viewBox="0 0 496 496" style="enable-background:new 0 0 496 496;" xml:space="preserve">
<style type="text/css">
	.st0{fill:#576063;}
	.st1{fill:#353535;}
	.st2{fill:#F7B208;}
	.st3{fill:#EDA503;}
	.st4{display:none;}
	.st5{display:inline;}
	.st6{fill:#FF7F3F;}
	.st7{fill:#FF9500;}
	.st8{fill:#FEDD3D;}
	.st9{opacity:0.3;fill:#FF9500;enable-background:new    ;}
</style>
<path class="st0" d="M383.6,496L370,400.8l-65.6-22.4V376l-16-6.4v2.4l-7.2-1.6h-0.8c0,0-3.2-3.2-6.4-2.4c-0.8,0-0.8,0-1.6,0h-0.8
	l2.4-5.6l-29.6-12.8l-5.6,4l-1.6-20c0.8-1.6,2.4-2.4,3.2-4c19.2-27.2,20.8-65.6,20.8-87.2c0-15.2,4-20,5.6-24
	c0.8-1.6,1.6-3.2,2.4-4.8c4-12.8-7.2-62.4-49.6-64c-6.4-11.2-36.8-16-68.8-5.6c-34.4,12-29.6,37.6-29.6,37.6
	c-16,12-6.4,33.6-6.4,33.6c-4.8,12,7.2,18.4,9.6,20c0,2.4,0,4,0,7.2c-0.8,21.6,0.8,60,20.8,87.2c0.8,1.6,1.6,2.4,3.2,4l-3.2,18.4
	l-4-2.4l-29.6,12.8l1.6,5.6h-2.4l0,0c0,0-0.8,0-1.6,0c-3.2-0.8-5.6,2.4-5.6,2.4l-1.6,0.8l-5.6,0.8v-2.4l-16,6.4v2.4l-65.6,22.4
	L0.4,496H383.6z"/>
<path class="st1" d="M383.6,496H192V138.5c13.8,0.9,24.2,5.1,27.6,11.1c42.4,1.6,53.6,51.2,49.6,64c-0.8,1.6-1.6,3.2-2.4,4.8
	c-1.6,4-5.6,8.8-5.6,24c0,21.6-1.6,60-20.8,87.2c-0.8,1.6-2.4,2.4-3.2,4l1.6,20l5.6-4l29.6,12.8l-2.4,5.6h0.8c0.8,0,0.8,0,1.6,0
	c3.2-0.8,6.4,2.4,6.4,2.4h0.8l7.2,1.6v-2.4l16,6.4v2.4l65.6,22.4L383.6,496z"/>
<path class="st2" d="M454.8,160.8c-64,0-116-52-116-116c0-16,3.2-31.2,8.8-44.8c-44,16.8-75.2,58.4-75.2,108c0,64,52,116,116,116
	c48,0,88.8-29.6,106.4-71.2C482.8,158.4,469.2,160.8,454.8,160.8z"/>
<path class="st3" d="M339.6,44.8c0-16,3.2-31.2,8.8-44.8c-12,4.8-23.2,11.2-33.6,19.2c-7.2,15.2-11.2,32-11.2,50.4
	c0,64,52,116,116,116c28,0,53.6-10.4,73.6-26.4c0.8-1.6,1.6-4,2.4-5.6c-12.8,4.8-26.4,7.2-40.8,7.2
	C391.6,160.8,339.6,108.8,339.6,44.8z"/>
<path class="st0" d="M192,138.2v0.2c-2-0.2-4.1-0.2-6.2-0.2H192z"/>
<g class="st4">
	<g class="st5">
		<polygon class="st6" points="375,2.5 329.3,70.7 420.7,70.7 		"/>
		<polygon class="st7" points="290.3,37.6 306.2,118.1 370.8,53.5 		"/>
		<polygon class="st6" points="255.2,122.3 323.4,168 323.4,76.6 		"/>
		<polygon class="st7" points="290.3,207 370.8,191.1 306.2,126.5 		"/>
		<polygon class="st6" points="375,242.1 420.7,173.9 329.3,173.9 		"/>
		<polygon class="st7" points="459.7,207 443.8,126.5 379.2,191.1 		"/>
		<polygon class="st6" points="494.8,122.3 426.6,76.6 426.6,168 		"/>
		<polygon class="st7" points="459.7,37.6 379.2,53.5 443.8,118.1 		"/>
	</g>
	<g class="st5">
		<circle class="st8" cx="375" cy="122.3" r="79.9"/>
		<path class="st9" d="M375,42.4c-44.1,0-79.9,35.8-79.9,79.9s35.8,79.9,79.9,79.9V42.4z"/>
	</g>
</g>
</svg>
