<?xml version="1.0" encoding="utf-8"?>
<!-- Generator: Adobe Illustrator 19.2.1, SVG Export Plug-In . SVG Version: 6.00 Build 0)  -->
<svg version="1.1" id="Livello_1" xmlns="http://www.w3.org/2000/svg" xmlns:xlink="http://www.w3.org/1999/xlink" x="0px" y="0px"
	 viewBox="0 0 290 512" style="enable-background:new 0 0 290 512;" xml:space="preserve">
<style type="text/css">
	.st0{fill:#81684A;}
	.st1{fill:#6B573E;}
	.st2{fill:#4899D3;}
	.st3{fill:#2C80C3;}
	.st4{fill:#604E38;}
	.st5{fill:#DCB327;}
	.st6{fill:#FEDA46;}
</style>
<path class="st0" d="M165.4,78.8L28.9,4.3c-6.3-3.5-11.6,1.2-11.6,10.5v478.4c0,9.3,5.3,14.1,11.6,10.8l136.5-71.1
	c3.1-1.6,5.6-8,5.6-14.3V93.3C171,87,168.5,80.5,165.4,78.8z"/>
<path class="st1" d="M165.4,78.8l-56.6-30.9v414.4l56.6-29.5c3.1-1.6,5.6-8,5.6-14.3V93.3C171,87,168.5,80.5,165.4,78.8z"/>
<path class="st2" d="M146.6,247.7l-84.8-3c-6.3-0.2-11.6-8.5-11.6-18.5V77.5c0-10,5.3-15.7,11.6-12.9l84.8,38.1
	c4,1.8,7.2,9.4,7.2,17.1v114.3C153.8,241.7,150.6,247.8,146.6,247.7z"/>
<g>
	<path class="st3" d="M146.6,102.7L61.8,64.6c-6.3-2.8-11.6,2.9-11.6,12.9v22c0-10,5.3-15.9,11.6-13.4l84.8,33.9
		c4,1.6,7.2,9.1,7.2,16.7v-16.9C153.8,112.1,150.6,104.5,146.6,102.7z"/>
	<path class="st3" d="M146.6,102.7l-37.8-17v160.6l37.8,1.3c4,0.1,7.2-6,7.2-13.6V119.8C153.8,112.1,150.6,104.5,146.6,102.7z"/>
</g>
<path class="st4" d="M128.3,355.8l-40.6,10.5c-2.1,0.5-3.8-1.8-3.8-5.3l0,0c0-3.4,1.7-6.6,3.8-7.1l40.6-9.3c1.7-0.4,3,1.8,3,4.8l0,0
	C131.3,352.5,130,355.3,128.3,355.8z"/>
<path class="st5" d="M146.7,341.8l-4.5,1c-2.4,0.6-4.4-2.8-4.4-7.5v-44.1c0-4.7,2-8.6,4.4-8.8l4.5-0.3c2.3-0.1,4.2,3.4,4.2,7.9v42.5
	C151,337.1,149.1,341.2,146.7,341.8z"/>
<path class="st6" d="M144.5,270.1c5.2-0.1,9.3,7.8,9.3,17.7s-4.1,18.5-9.3,19.2c-5.4,0.7-9.9-7.2-9.9-17.7S139.1,270.3,144.5,270.1z
	"/>
</svg>
