<?xml version="1.0" encoding="utf-8"?>
<!-- Generator: Adobe Illustrator 19.2.1, SVG Export Plug-In . SVG Version: 6.00 Build 0)  -->
<svg version="1.1" id="Layer_1" xmlns="http://www.w3.org/2000/svg" xmlns:xlink="http://www.w3.org/1999/xlink" x="0px" y="0px"
	 viewBox="0 0 391 368" style="enable-background:new 0 0 391 368;" xml:space="preserve">
<style type="text/css">
	.st0{fill:#576063;}
	.st1{fill:#353535;}
	.st2{display:none;}
	.st3{display:inline;}
	.st4{fill:#FF7F3F;}
	.st5{fill:#FF9500;}
	.st6{fill:#FEDD3D;}
	.st7{opacity:0.3;fill:#FF9500;enable-background:new    ;}
</style>
<path class="st0" d="M383.6,368L370,272.8l-65.6-22.4V248l-16-6.4v2.4l-7.2-1.6h-0.8c0,0-3.2-3.2-6.4-2.4c-0.8,0-0.8,0-1.6,0h-0.8
	l2.4-5.6l-29.6-12.8l-5.6,4l-1.6-20c0.8-1.6,2.4-2.4,3.2-4c19.2-27.2,20.8-65.6,20.8-87.2c0-15.2,4-20,5.6-24
	c0.8-1.6,1.6-3.2,2.4-4.8c4-12.8-7.2-62.4-49.6-64c-6.4-11.2-36.8-16-68.8-5.6c-34.4,12-29.6,37.6-29.6,37.6
	c-16,12-6.4,33.6-6.4,33.6c-4.8,12,7.2,18.4,9.6,20c0,2.4,0,4,0,7.2c-0.8,21.6,0.8,60,20.8,87.2c0.8,1.6,1.6,2.4,3.2,4l-3.2,18.4
	l-4-2.4l-29.6,12.8l1.6,5.6h-2.4l0,0c0,0-0.8,0-1.6,0c-3.2-0.8-5.6,2.4-5.6,2.4l-1.6,0.8l-5.6,0.8v-2.4l-16,6.4v2.4l-65.6,22.4
	L0.4,368H383.6z"/>
<path class="st1" d="M383.6,368H192V10.5c13.8,0.9,24.2,5.1,27.6,11.1c42.4,1.6,53.6,51.2,49.6,64c-0.8,1.6-1.6,3.2-2.4,4.8
	c-1.6,4-5.6,8.8-5.6,24c0,21.6-1.6,60-20.8,87.2c-0.8,1.6-2.4,2.4-3.2,4l1.6,20l5.6-4l29.6,12.8l-2.4,5.6h0.8c0.8,0,0.8,0,1.6,0
	c3.2-0.8,6.4,2.4,6.4,2.4h0.8l7.2,1.6v-2.4l16,6.4v2.4l65.6,22.4L383.6,368z"/>
<path class="st0" d="M192,10.2v0.2c-2-0.2-4.1-0.2-6.2-0.2H192z"/>
<g class="st2">
	<g class="st3">
		<polygon class="st4" points="375,-125.5 329.3,-57.3 420.7,-57.3 		"/>
		<polygon class="st5" points="290.3,-90.4 306.2,-9.9 370.8,-74.5 		"/>
		<polygon class="st4" points="255.2,-5.7 323.4,40 323.4,-51.4 		"/>
		<polygon class="st5" points="290.3,79 370.8,63.1 306.2,-1.5 		"/>
		<polygon class="st4" points="375,114.1 420.7,45.9 329.3,45.9 		"/>
		<polygon class="st5" points="459.7,79 443.8,-1.5 379.2,63.1 		"/>
		<polygon class="st4" points="494.8,-5.7 426.6,-51.4 426.6,40 		"/>
		<polygon class="st5" points="459.7,-90.4 379.2,-74.5 443.8,-9.9 		"/>
	</g>
	<g class="st3">
		<circle class="st6" cx="375" cy="-5.7" r="79.9"/>
		<path class="st7" d="M375-85.6c-44.1,0-79.9,35.8-79.9,79.9s35.8,79.9,79.9,79.9V-85.6z"/>
	</g>
</g>
</svg>
