<?xml version="1.0" encoding="iso-8859-1"?>
<!-- Generator: Adobe Illustrator 19.0.0, SVG Export Plug-In . SVG Version: 6.00 Build 0)  -->
<svg version="1.1" id="Layer_1" xmlns="http://www.w3.org/2000/svg" xmlns:xlink="http://www.w3.org/1999/xlink" x="0px" y="0px"
	 viewBox="0 0 512.001 512.001" style="enable-background:new 0 0 512.001 512.001;" xml:space="preserve">
<path style="fill:#787680;" d="M144.057,458.619h-36.834c-6.213,0-11.252,5.037-11.252,11.252v30.879
	c0,6.213,5.037,11.252,11.252,11.252h36.834c6.213,0,11.252-5.037,11.252-11.252V469.87
	C155.307,463.656,150.27,458.619,144.057,458.619z"/>
<path style="fill:#37373A;" d="M413.602,458.619h-36.834c-6.213,0-11.252,5.037-11.252,11.252v30.879
	c0,6.213,5.037,11.252,11.252,11.252h36.834c6.213,0,11.252-5.037,11.252-11.252V469.87
	C424.854,463.656,419.815,458.619,413.602,458.619z"/>
<path style="fill:#CD2A00;" d="M445.677,0H66.323c-9.445,0-17.101,7.656-17.101,17.101v444.741c0,9.445,7.656,17.101,17.101,17.101
	h379.356c9.445,0,17.101-7.656,17.101-17.101V17.101C462.779,7.656,455.123,0,445.677,0z"/>
<path style="fill:#AA2300;" d="M445.677,0H256.001v478.944h189.677c9.444,0,17.101-7.656,17.101-17.101V17.101
	C462.779,7.656,455.123,0,445.677,0z"/>
<path style="fill:#57565C;" d="M353.963,389.448H158.037c-10.75,0-19.465-8.715-19.465-19.465v-125.24
	c0-10.75,8.715-19.465,19.465-19.465h195.925c10.75,0,19.465,8.715,19.465,19.465v125.24
	C373.428,380.733,364.713,389.448,353.963,389.448z"/>
<path style="fill:#37373A;" d="M353.963,225.277H158.037c-10.75,0-19.465,8.715-19.465,19.465v21.221
	c0-10.75,8.715-19.465,19.465-19.465h195.925c10.75,0,19.465,8.715,19.465,19.465v-21.221
	C373.428,233.991,364.713,225.277,353.963,225.277z"/>
<path style="fill:#ACABB1;" d="M462.779,159.157V17.101C462.779,7.656,455.123,0,445.677,0H66.323
	c-9.445,0-17.101,7.656-17.101,17.101v142.057L462.779,159.157L462.779,159.157z"/>
<path style="fill:#898890;" d="M462.779,159.157V17.101C462.779,7.656,455.123,0,445.677,0H256.001v159.157H462.779z"/>
<path style="fill:#E0E0E2;" d="M373.428,175.106H138.572c-9.445,0-17.101-7.656-17.101-17.101c0-9.445,7.656-17.101,17.101-17.101
	h234.856c9.445,0,17.101,7.656,17.101,17.101C390.529,167.449,382.873,175.106,373.428,175.106z"/>
<g>
	<circle style="fill:#2D2D30;" cx="325.901" cy="74.787" r="25.539"/>
	<circle style="fill:#2D2D30;" cx="395.785" cy="74.787" r="25.539"/>
</g>
<g>
	<circle style="fill:#898890;" cx="186.109" cy="74.787" r="25.539"/>
	<circle style="fill:#898890;" cx="116.214" cy="74.787" r="25.539"/>
	<circle style="fill:#898890;" cx="256.005" cy="74.787" r="25.539"/>
</g>
<path style="fill:#37373A;" d="M353.559,225.277h-97.559v164.171h97.559c10.974,0,19.87-8.896,19.87-19.87V245.147
	C373.428,234.173,364.532,225.277,353.559,225.277z"/>
<path style="fill:#2D2D30;" d="M256.001,49.248v51.078c14.105,0,25.539-11.434,25.539-25.539S270.105,49.248,256.001,49.248z"/>
<path style="fill:#C6C5CA;" d="M373.428,140.903H256.001v34.203h117.428c9.445,0,17.101-7.656,17.101-17.101
	C390.529,148.56,382.873,140.903,373.428,140.903z"/>
<g>
</g>
<g>
</g>
<g>
</g>
<g>
</g>
<g>
</g>
<g>
</g>
<g>
</g>
<g>
</g>
<g>
</g>
<g>
</g>
<g>
</g>
<g>
</g>
<g>
</g>
<g>
</g>
<g>
</g>
</svg>
