<?xml version="1.0" encoding="iso-8859-1"?>
<!-- Generator: Adobe Illustrator 19.0.0, SVG Export Plug-In . SVG Version: 6.00 Build 0)  -->
<svg version="1.1" id="Layer_1" xmlns="http://www.w3.org/2000/svg" xmlns:xlink="http://www.w3.org/1999/xlink" x="0px" y="0px"
	 viewBox="0 0 512 512" style="enable-background:new 0 0 512 512;" xml:space="preserve">
<path style="fill:#898890;" d="M292.991,411.24c-9.013,0-16.32-7.307-16.32-16.32V287.6L79.096,169.056
	c-20.019-12.01-32.455-33.974-32.455-57.32c0-36.859,29.987-66.846,66.846-66.846h335.552c9.013,0,16.32,7.307,16.32,16.32
	s-7.307,16.32-16.32,16.32H113.487c-18.861,0-34.206,15.345-34.206,34.206c0,11.946,6.364,23.186,16.608,29.332l205.499,123.298
	c4.916,2.948,7.924,8.261,7.924,13.994v116.56C309.311,403.933,302.004,411.24,292.991,411.24z"/>
<path style="fill:#FFEB99;" d="M418.516,0H167.467c-9.013,0-16.32,7.307-16.32,16.32v89.782c0,9.013,7.307,16.32,16.32,16.32
	h251.049c9.013,0,16.32-7.307,16.32-16.32V16.32C434.835,7.307,427.528,0,418.516,0z"/>
<path style="fill:#AA6100;" d="M338.367,465.903l-4.54-146.076c-0.273-8.812-7.496-15.813-16.312-15.813h-49.049
	c-8.816,0-16.038,7.001-16.312,15.813l-4.54,146.075c-0.373,12.023,4.214,23.873,12.586,32.508
	c8.372,8.636,20.072,13.59,32.101,13.59h1.377c12.028,0,23.728-4.952,32.101-13.59C334.153,489.775,338.74,477.925,338.367,465.903z
	"/>
<path style="fill:#FEE579;" d="M418.516,0H292.991v122.421h125.524c9.013,0,16.32-7.307,16.32-16.32V16.32
	C434.835,7.307,427.528,0,418.516,0z"/>
<g>
	<path style="fill:#874A00;" d="M338.367,465.903l-4.54-146.076c-0.273-8.812-7.496-15.813-16.312-15.813H292.99V512h0.689
		c12.028,0,23.728-4.952,32.101-13.59C334.153,489.775,338.74,477.925,338.367,465.903z"/>
	<polygon style="fill:#874A00;" points="334.578,345.221 251.366,345.221 251.642,336.351 334.578,336.351 	"/>
</g>
<g>
</g>
<g>
</g>
<g>
</g>
<g>
</g>
<g>
</g>
<g>
</g>
<g>
</g>
<g>
</g>
<g>
</g>
<g>
</g>
<g>
</g>
<g>
</g>
<g>
</g>
<g>
</g>
<g>
</g>
</svg>
