<?xml version="1.0" encoding="iso-8859-1"?>
<!-- Generator: Adobe Illustrator 19.0.0, SVG Export Plug-In . SVG Version: 6.00 Build 0)  -->
<svg version="1.1" id="Layer_1" xmlns="http://www.w3.org/2000/svg" xmlns:xlink="http://www.w3.org/1999/xlink" x="0px" y="0px"
	 viewBox="0 0 512 512" style="enable-background:new 0 0 512 512;" xml:space="preserve">
<path style="fill:#57565C;" d="M493.485,44.938H186.678c-10.225,0-18.515,8.29-18.515,18.515v385.093
	c0,10.225,8.29,18.515,18.515,18.515h306.807c10.225,0,18.515-8.29,18.515-18.515V63.453C512,53.228,503.71,44.938,493.485,44.938z"
	/>
<path style="fill:#3E3D42;" d="M493.485,44.938H340.082v422.123h153.403c10.225,0,18.515-8.29,18.515-18.515V63.453
	C512,53.228,503.71,44.938,493.485,44.938z"/>
<path style="fill:#787680;" d="M84.202,46.55C37.773,46.55,0,84.323,0,130.753v250.494c0,46.429,37.773,84.202,84.202,84.202
	s84.204-37.773,84.204-84.202V130.753C168.406,84.323,130.632,46.55,84.202,46.55z"/>
<path style="fill:#C2DFF6;" d="M433.891,109.378H246.273c-10.225,0-18.515,8.29-18.515,18.515v80.123
	c0,10.225,8.29,18.515,18.515,18.515h187.619c10.225,0,18.515-8.29,18.515-18.515v-80.123
	C452.406,117.668,444.117,109.378,433.891,109.378z"/>
<path style="fill:#96C8EF;" d="M433.891,109.378H246.273c-10.225,0-18.515,8.29-18.515,18.515v20.041
	c0-10.225,8.29-18.515,18.515-18.515h187.619c10.225,0,18.515,8.29,18.515,18.515v-20.041
	C452.406,117.668,444.117,109.378,433.891,109.378z"/>
<g>
	<path style="fill:#3E3D42;" d="M364.152,322.305c0,4.091-3.315,7.406-7.406,7.406h-33.327c-4.091,0-7.406-3.315-7.406-7.406
		v-33.327c0-4.091,3.315-7.406,7.406-7.406h33.327c4.091,0,7.406,3.315,7.406,7.406V322.305z"/>
	<path style="fill:#3E3D42;" d="M278.56,322.305c0,4.091-3.315,7.406-7.406,7.406h-33.327c-4.091,0-7.406-3.315-7.406-7.406v-33.327
		c0-4.091,3.315-7.406,7.406-7.406h33.327c4.091,0,7.406,3.315,7.406,7.406V322.305z"/>
</g>
<path style="fill:#2A2A2D;" d="M449.743,322.305c0,4.091-3.315,7.406-7.406,7.406H409.01c-4.091,0-7.406-3.315-7.406-7.406v-33.327
	c0-4.091,3.315-7.406,7.406-7.406h33.327c4.091,0,7.406,3.315,7.406,7.406V322.305z"/>
<g>
	<path style="fill:#3E3D42;" d="M364.152,407.474c0,4.091-3.315,7.406-7.406,7.406h-33.327c-4.091,0-7.406-3.315-7.406-7.406
		v-33.327c0-4.091,3.315-7.406,7.406-7.406h33.327c4.091,0,7.406,3.315,7.406,7.406V407.474z"/>
	<path style="fill:#3E3D42;" d="M278.56,407.474c0,4.091-3.315,7.406-7.406,7.406h-33.327c-4.091,0-7.406-3.315-7.406-7.406v-33.327
		c0-4.091,3.315-7.406,7.406-7.406h33.327c4.091,0,7.406,3.315,7.406,7.406V407.474z"/>
</g>
<path style="fill:#2A2A2D;" d="M449.743,407.474c0,4.091-3.315,7.406-7.406,7.406H409.01c-4.091,0-7.406-3.315-7.406-7.406v-33.327
	c0-4.091,3.315-7.406,7.406-7.406h33.327c4.091,0,7.406,3.315,7.406,7.406V407.474z"/>
<path style="fill:#96C8EF;" d="M433.891,109.378h-93.809v117.153h93.809c10.225,0,18.515-8.29,18.515-18.515v-80.123
	C452.406,117.668,444.117,109.378,433.891,109.378z"/>
<g>
	<path style="fill:#2A2A2D;" d="M356.746,366.741h-16.663v48.139h16.663c4.091,0,7.406-3.315,7.406-7.406v-33.327
		C364.152,370.058,360.835,366.741,356.746,366.741z"/>
	<path style="fill:#2A2A2D;" d="M356.746,281.572h-16.663v48.139h16.663c4.091,0,7.406-3.315,7.406-7.406v-33.327
		C364.152,284.889,360.835,281.572,356.746,281.572z"/>
</g>
<path style="fill:#696970;" d="M84.202,46.55v418.9c46.429,0,84.202-37.773,84.202-84.203V130.753
	C168.406,84.323,130.632,46.55,84.202,46.55z"/>
<g>
</g>
<g>
</g>
<g>
</g>
<g>
</g>
<g>
</g>
<g>
</g>
<g>
</g>
<g>
</g>
<g>
</g>
<g>
</g>
<g>
</g>
<g>
</g>
<g>
</g>
<g>
</g>
<g>
</g>
</svg>
