<?xml version="1.0" encoding="iso-8859-1"?>
<!-- Generator: Adobe Illustrator 19.0.0, SVG Export Plug-In . SVG Version: 6.00 Build 0)  -->
<svg version="1.1" id="Layer_1" xmlns="http://www.w3.org/2000/svg" xmlns:xlink="http://www.w3.org/1999/xlink" x="0px" y="0px"
	 viewBox="0 0 512 512" style="enable-background:new 0 0 512 512;" xml:space="preserve">
<path style="fill:#787680;" d="M213.972,190.353h-63.71V31.855C150.262,14.262,164.524,0,182.117,0s31.855,14.262,31.855,31.855
	V190.353z"/>
<path style="fill:#57565C;" d="M361.735,190.353h-63.71V31.855C298.025,14.262,312.286,0,329.88,0
	c17.593,0,31.855,14.262,31.855,31.855V190.353z"/>
<path style="fill:#C6C5CA;" d="M400.233,141.847h-288.47c-9.53,0-17.256,7.726-17.256,17.256v83.729
	c0,29.891,12.414,58.86,34.06,79.476c19.715,18.776,32.932,43.924,37.217,70.811l16.628,104.339
	c1.336,8.376,8.559,14.54,17.041,14.54h113.088c8.482,0,15.705-6.164,17.041-14.54l16.628-104.339
	c4.285-26.887,17.502-52.036,37.217-70.811c21.646-20.617,34.06-49.585,34.06-79.476v-83.728
	C417.489,149.573,409.763,141.847,400.233,141.847z"/>
<path style="fill:#ACABB1;" d="M400.233,141.847H255.998V512h56.544c8.482,0,15.705-6.164,17.041-14.54l16.628-104.339
	c4.285-26.887,17.502-52.036,37.217-70.811c21.646-20.617,34.06-49.585,34.06-79.476v-83.728
	C417.489,149.573,409.763,141.847,400.233,141.847z"/>
<rect x="94.505" y="178.533" style="fill:#57565C;" width="322.979" height="26.747"/>
<rect x="256" y="178.533" style="fill:#454449;" width="161.495" height="26.747"/>
<g>
</g>
<g>
</g>
<g>
</g>
<g>
</g>
<g>
</g>
<g>
</g>
<g>
</g>
<g>
</g>
<g>
</g>
<g>
</g>
<g>
</g>
<g>
</g>
<g>
</g>
<g>
</g>
<g>
</g>
</svg>
