<?xml version="1.0" encoding="iso-8859-1"?>
<!-- Generator: Adobe Illustrator 19.0.0, SVG Export Plug-In . SVG Version: 6.00 Build 0)  -->
<svg version="1.1" id="Layer_1" xmlns="http://www.w3.org/2000/svg" xmlns:xlink="http://www.w3.org/1999/xlink" x="0px" y="0px"
	 viewBox="0 0 512 512" style="enable-background:new 0 0 512 512;" xml:space="preserve">
<path style="fill:#57565C;" d="M493.886,229.58H18.114C8.11,229.58,0,237.69,0,247.694c0,10.004,8.11,18.114,18.114,18.114h475.772
	c10.004,0,18.114-8.11,18.114-18.114C512,237.69,503.89,229.58,493.886,229.58z"/>
<path style="fill:#3E3D42;" d="M493.886,229.58H256.242v36.228h237.643c10.004,0,18.114-8.11,18.114-18.114
	C512,237.69,503.89,229.58,493.886,229.58z"/>
<path style="fill:#ACABB1;" d="M446.078,166.599c-10.652-39.719-46.812-67.46-87.935-67.46H153.857
	c-41.123,0-77.282,27.741-87.935,67.46c-1.458,5.44-0.305,11.249,3.124,15.718c3.428,4.469,8.74,7.088,14.372,7.088h345.163
	c5.632,0,10.944-2.621,14.372-7.088C446.383,177.848,447.537,172.039,446.078,166.599z"/>
<g>
	<path style="fill:#787680;" d="M296.254,63.441h-80.508c-10.004,0-18.114,8.11-18.114,18.114s8.11,18.114,18.114,18.114h80.508
		c10.004,0,18.114-8.11,18.114-18.114S306.258,63.441,296.254,63.441z"/>
	<path style="fill:#787680;" d="M428.582,189.011H83.418c-10.004,0-18.114,8.11-18.114,18.114V368.31
		c0,44.249,35.998,80.249,80.249,80.249h220.895c44.249,0,80.249-36,80.249-80.249V207.127
		C446.696,197.123,438.586,189.011,428.582,189.011z"/>
</g>
<path style="fill:#57565C;" d="M428.582,189.011h-172.34v259.548h110.205c44.249,0,80.249-36,80.249-80.249V207.127
	C446.696,197.123,438.586,189.011,428.582,189.011z"/>
<path style="fill:#898890;" d="M446.078,166.599c-10.652-39.719-46.812-67.46-87.935-67.46H256v90.266h172.582
	c5.632,0,10.944-2.621,14.372-7.088C446.383,177.848,447.537,172.039,446.078,166.599z"/>
<path style="fill:#57565C;" d="M296.254,63.441H256V99.67h40.254c10.004,0,18.114-8.11,18.114-18.114S306.258,63.441,296.254,63.441
	z"/>
<g>
</g>
<g>
</g>
<g>
</g>
<g>
</g>
<g>
</g>
<g>
</g>
<g>
</g>
<g>
</g>
<g>
</g>
<g>
</g>
<g>
</g>
<g>
</g>
<g>
</g>
<g>
</g>
<g>
</g>
</svg>
