<?xml version="1.0" encoding="iso-8859-1"?>
<!-- Generator: Adobe Illustrator 19.0.0, SVG Export Plug-In . SVG Version: 6.00 Build 0)  -->
<svg version="1.1" id="Layer_1" xmlns="http://www.w3.org/2000/svg" xmlns:xlink="http://www.w3.org/1999/xlink" x="0px" y="0px"
	 viewBox="0 0 512 512" style="enable-background:new 0 0 512 512;" xml:space="preserve">
<path style="fill:#E5E5E5;" d="M383.242,0H128.757c-8.892,0-16.101,7.209-16.101,16.101v479.798c0,8.892,7.209,16.101,16.101,16.101
	h254.484c8.892,0,16.101-7.209,16.101-16.101V16.101C399.342,7.209,392.134,0,383.242,0z"/>
<path style="fill:#CCCCCC;" d="M383.242,0H255.999v512h127.242c8.892,0,16.101-7.209,16.101-16.101V16.101
	C399.342,7.209,392.134,0,383.242,0z"/>
<path style="fill:#5AAAE7;" d="M399.973,116.302H112.026c-46.754,0-84.792,38.038-84.792,84.792v134.644
	c0,9.111,7.387,16.498,16.498,16.498h424.537c9.111,0,16.498-7.387,16.498-16.498V201.094
	C484.766,154.339,446.728,116.302,399.973,116.302z"/>
<path style="fill:#3D9AE2;" d="M399.973,116.302H255.999v235.935h212.268c9.111,0,16.498-7.387,16.498-16.498V201.094
	C484.766,154.339,446.728,116.302,399.973,116.302z"/>
<circle style="fill:#6CC82A;" cx="400.749" cy="284.129" r="24.633"/>
<circle style="fill:#AA2300;" cx="308.112" cy="284.129" r="24.633"/>
<path style="fill:#3E3D42;" d="M344.555,449.644H167.444c-9.111,0-16.498-7.387-16.498-16.498s7.387-16.498,16.498-16.498h177.111
	c9.111,0,16.498,7.387,16.498,16.498S353.666,449.644,344.555,449.644z"/>
<rect x="112.66" y="352.233" style="fill:#CCCCCC;" width="286.69" height="16.477"/>
<g>
</g>
<g>
</g>
<g>
</g>
<g>
</g>
<g>
</g>
<g>
</g>
<g>
</g>
<g>
</g>
<g>
</g>
<g>
</g>
<g>
</g>
<g>
</g>
<g>
</g>
<g>
</g>
<g>
</g>
</svg>
