<?xml version="1.0" encoding="utf-8"?>
<!-- Generator: Adobe Illustrator 19.2.1, SVG Export Plug-In . SVG Version: 6.00 Build 0)  -->
<svg version="1.1" xmlns="http://www.w3.org/2000/svg" xmlns:xlink="http://www.w3.org/1999/xlink" x="0px" y="0px"
	 viewBox="0 0 102.4 102.4" style="enable-background:new 0 0 102.4 102.4;" xml:space="preserve">
<style type="text/css">
	.st0{fill:#666665;}
	.st1{fill:#30302E;}
	.st2{fill:#43C487;}
	.st3{fill:#8E8E8D;}
	.st4{fill:#F26038;}
	.st5{fill:#F9E382;}
	.st6{fill:#3AC9EF;}
	.st7{fill:#515150;}
	.st8{fill:#2E7F56;}
	.st9{fill:#6B6B6B;}
	.st10{fill:#A3412B;}
	.st11{fill:#BCAC66;}
</style>
<g id="Capa_1">
	<g>
		<g>
			<path class="st0" d="M67.6,91.4c0,5.5-4.5,10.1-10.1,10.1H44.9c-5.5,0-10.1-4.5-10.1-10.1V11.1C34.9,5.5,39.4,1,44.9,1h12.6
				C63,1,67.6,5.5,67.6,11.1L67.6,91.4L67.6,91.4z"/>
			<g>
				<path class="st1" d="M57.5,102.4H44.9c-6.1,0-11.1-5-11.1-11.1V11.1C33.9,5,38.8,0,44.9,0h12.6c6.1,0,11.1,5,11.1,11.1v80.3
					C68.6,97.5,63.6,102.4,57.5,102.4z M44.9,2c-5,0-9,4.1-9,9v80.3c0,5,4.1,9,9,9h12.6c5,0,9-4.1,9-9V11.1c0-5-4.1-9-9-9L44.9,2
					L44.9,2z"/>
			</g>
		</g>
		<g>
			<circle class="st2" cx="59.7" cy="11.3" r="2.6"/>
			<g>
				<g>
					<g>
						<rect x="40.2" y="43.6" class="st3" width="6" height="3.3"/>
						<rect x="48.2" y="43.6" class="st3" width="6" height="3.3"/>
						<rect x="56.2" y="43.6" class="st3" width="6" height="3.3"/>
					</g>
					<g>
						<rect x="40.2" y="49.7" class="st3" width="6" height="3.3"/>
						<rect x="48.2" y="49.7" class="st3" width="6" height="3.3"/>
						<rect x="56.2" y="49.7" class="st3" width="6" height="3.3"/>
					</g>
					<g>
						<rect x="40.2" y="55.7" class="st3" width="6" height="3.3"/>
						<rect x="48.2" y="55.7" class="st3" width="6" height="3.3"/>
						<rect x="56.2" y="55.7" class="st3" width="6" height="3.3"/>
					</g>
					<g>
						<rect x="40.2" y="61.7" class="st3" width="6" height="3.3"/>
						<rect x="48.2" y="61.7" class="st3" width="6" height="3.3"/>
						<rect x="56.2" y="61.7" class="st3" width="6" height="3.3"/>
					</g>
				</g>
				<g>
					<g>
						<g>
							<g>
								<path class="st3" d="M47.1,22.1l-2.3-3c0,0,5.9-4.1,12.7,0l-1.9,3C55.7,22.1,51.7,20.5,47.1,22.1z"/>
								<g>
									<path class="st4" d="M57.4,19.5c-6.3-4-12.3,0-12.4,0l-0.4-0.6c0.1,0,6.4-4.3,13.1,0L57.4,19.5z"/>
								</g>
							</g>
							<g>
								<path class="st3" d="M55.3,33.8l2.3,3c0,0-5.9,4.1-12.7,0l1.9-3C46.8,33.8,50.8,35.5,55.3,33.8z"/>
								<g>
									<path class="st5" d="M45,36.5c6.3,4,12.3,0,12.4,0l0.4,0.6c-0.1,0-6.4,4.3-13.1,0L45,36.5z"/>
								</g>
							</g>
						</g>
						<g>
							<g>
								<path class="st3" d="M57.1,23.9l3-2.3c0,0,4.1,5.9,0,12.7l-3-1.9C57.1,32.5,58.7,28.5,57.1,23.9z"/>
								<g>
									<path class="st2" d="M59.7,34.2c4-6.3,0-12.3,0-12.4l0.6-0.4c0,0.1,4.3,6.4,0,13.1L59.7,34.2z"/>
								</g>
							</g>
							<g>
								<path class="st3" d="M45.4,32.1l-3,2.3c0,0-4.1-5.9,0-12.7l3,1.9C45.4,23.5,43.8,27.5,45.4,32.1z"/>
								<g>
									<path class="st6" d="M42.7,21.8c-4,6.3,0,12.3,0,12.4l-0.6,0.4c0-0.1-4.3-6.4,0-13.1L42.7,21.8z"/>
								</g>
							</g>
						</g>
					</g>
					<circle class="st3" cx="51.2" cy="28" r="3.9"/>
				</g>
				<g>
					<circle class="st4" cx="42.2" cy="69.3" r="1.4"/>
					<circle class="st6" cx="48.2" cy="69.3" r="1.4"/>
					<circle class="st5" cx="54.2" cy="69.3" r="1.4"/>
					<circle class="st2" cx="60.3" cy="69.3" r="1.4"/>
				</g>
				<g>
					<circle class="st3" cx="42.2" cy="74.3" r="1.4"/>
					<circle class="st3" cx="48.2" cy="74.3" r="1.4"/>
					<circle class="st3" cx="54.2" cy="74.3" r="1.4"/>
					<circle class="st3" cx="60.3" cy="74.3" r="1.4"/>
				</g>
				<g>
					<circle class="st3" cx="42.2" cy="79.3" r="1.4"/>
					<circle class="st3" cx="48.2" cy="79.3" r="1.4"/>
					<circle class="st3" cx="54.2" cy="79.3" r="1.4"/>
					<circle class="st3" cx="60.3" cy="79.3" r="1.4"/>
				</g>
				<g>
					<circle class="st3" cx="42.2" cy="84.3" r="1.4"/>
					<circle class="st3" cx="48.2" cy="84.3" r="1.4"/>
					<circle class="st3" cx="54.2" cy="84.3" r="1.4"/>
					<circle class="st3" cx="60.3" cy="84.3" r="1.4"/>
				</g>
			</g>
			<circle class="st4" cx="42.6" cy="11.3" r="2.6"/>
		</g>
	</g>
</g>
<g id="Capa_1_copia">
	<g>
		<g>
			<path class="st7" d="M67.6,11.1v80.3c0,5.5-4.5,10-10.1,10h-6.3V1h6.3C63,1,67.6,5.5,67.6,11.1z"/>
			<g>
				<path d="M57.5,0h-6.3v2h6.3c5,0,9,4.1,9,9v80.3c0,5-4.1,9-9,9h-6.3v2h6.3c6.1,0,11.1-5,11.1-11.1V11.1C68.6,5,63.6,0,57.5,0z"/>
			</g>
		</g>
		<g>
			<circle class="st8" cx="59.7" cy="11.3" r="2.6"/>
			<g>
				<g>
					<g>
						<rect x="51.2" y="43.6" class="st9" width="3" height="3.3"/>
						<rect x="56.2" y="43.6" class="st9" width="6" height="3.3"/>
					</g>
					<g>
						<rect x="51.2" y="49.7" class="st9" width="3" height="3.3"/>
						<rect x="56.2" y="49.7" class="st9" width="6" height="3.3"/>
					</g>
					<g>
						<rect x="51.2" y="55.7" class="st9" width="3" height="3.3"/>
						<rect x="56.2" y="55.7" class="st9" width="6" height="3.3"/>
					</g>
					<g>
						<rect x="51.2" y="61.7" class="st9" width="3" height="3.3"/>
						<rect x="56.2" y="61.7" class="st9" width="6" height="3.3"/>
					</g>
				</g>
				<g>
					<g>
						<g>
							<g>
								<path class="st9" d="M57.6,19.2l-0.2,0.3l-1.7,2.7c0,0-1.8-0.8-4.5-0.7v-4.1C53.1,17.4,55.3,17.8,57.6,19.2z"/>
								<g>
									<path class="st10" d="M57.8,18.9l-0.2,0.3l-0.2,0.3c-2.2-1.4-4.3-1.8-6.2-1.8V17C53.2,17,55.5,17.4,57.8,18.9z"/>
								</g>
							</g>
							<g>
								<path class="st9" d="M57.6,36.8C57.6,36.8,57.6,36.8,57.6,36.8c-0.2,0.2-2.8,1.8-6.4,1.8v-4.1c1.2,0,2.6-0.2,4.1-0.7l2,2.7
									L57.6,36.8L57.6,36.8z"/>
								<g>
									<path class="st11" d="M57.8,37.1c0,0-2.8,1.9-6.6,1.9v-0.7c3.4,0,6-1.7,6.2-1.8c0,0,0,0,0,0l0.1,0.2l0.1,0.1L57.8,37.1z"/>
								</g>
							</g>
						</g>
						<g>
							<g>
								<path class="st9" d="M57.1,23.9l3-2.3c0,0,4.1,5.9,0,12.7l-3-1.9C57.1,32.5,58.7,28.5,57.1,23.9z"/>
								<g>
									<path class="st8" d="M59.7,34.2c4-6.3,0-12.3,0-12.4l0.6-0.4c0,0.1,4.3,6.4,0,13.1L59.7,34.2z"/>
								</g>
							</g>
						</g>
					</g>
					<path class="st9" d="M55.1,28c0,2.1-1.7,3.8-3.9,3.8v-7.7C53.3,24.1,55.1,25.9,55.1,28z"/>
				</g>
				<g>
					<circle class="st11" cx="54.2" cy="69.3" r="1.4"/>
					<circle class="st8" cx="60.3" cy="69.3" r="1.4"/>
				</g>
				<g>
					<circle class="st9" cx="54.2" cy="74.3" r="1.4"/>
					<circle class="st9" cx="60.3" cy="74.3" r="1.4"/>
				</g>
				<g>
					<circle class="st9" cx="54.2" cy="79.3" r="1.4"/>
					<circle class="st9" cx="60.3" cy="79.3" r="1.4"/>
				</g>
				<g>
					<circle class="st9" cx="54.2" cy="84.3" r="1.4"/>
					<circle class="st9" cx="60.3" cy="84.3" r="1.4"/>
				</g>
			</g>
		</g>
	</g>
</g>
</svg>
