<?xml version="1.0" encoding="iso-8859-1"?>
<!-- Generator: Adobe Illustrator 19.0.0, SVG Export Plug-In . SVG Version: 6.00 Build 0)  -->
<svg version="1.1" id="Capa_1" xmlns="http://www.w3.org/2000/svg" xmlns:xlink="http://www.w3.org/1999/xlink" x="0px" y="0px"
	 viewBox="0 0 340 340" style="enable-background:new 0 0 340 340;" xml:space="preserve">
<g id="XMLID_2027_">
	<path id="XMLID_2028_" style="fill:#565659;" d="M190,91.428V80c0-11.046-8.954-20-20-20s-20,8.954-20,20v11.428
		C156.533,90.494,163.208,90,170,90C176.791,90,183.467,90.494,190,91.428z"/>
	<path id="XMLID_2029_" style="fill:#CDCDD0;" d="M170,250h140v-20c0-70.529-52.155-128.865-120-138.572
		C183.467,90.494,176.791,90,170,90V250z"/>
	<path id="XMLID_2030_" style="fill:#DEDDE0;" d="M170,90c-6.792,0-13.467,0.494-20,1.428C82.156,101.135,30,159.471,30,230v20h140
		V90z"/>
	<polygon id="XMLID_2031_" style="fill:#818085;" points="30,250 0,250 0,280 170,280 170,250 	"/>
	<polygon id="XMLID_2032_" style="fill:#565659;" points="310,250 170,250 170,280 340,280 340,250 	"/>
</g>
<g>
</g>
<g>
</g>
<g>
</g>
<g>
</g>
<g>
</g>
<g>
</g>
<g>
</g>
<g>
</g>
<g>
</g>
<g>
</g>
<g>
</g>
<g>
</g>
<g>
</g>
<g>
</g>
<g>
</g>
</svg>
