<?xml version="1.0" encoding="iso-8859-1"?>
<!-- Generator: Adobe Illustrator 19.0.0, SVG Export Plug-In . SVG Version: 6.00 Build 0)  -->
<svg version="1.1" id="Layer_1" xmlns="http://www.w3.org/2000/svg" xmlns:xlink="http://www.w3.org/1999/xlink" x="0px" y="0px"
	 viewBox="0 0 512 512" style="enable-background:new 0 0 512 512;" xml:space="preserve">
<path style="fill:#787680;" d="M245.461,165.647H16.491c-8.991,0-16.28,7.289-16.28,16.28v92.301
	c0,39.769,32.355,72.124,72.124,72.124h117.284c39.769,0,72.124-32.355,72.124-72.124v-92.301
	C261.742,172.937,254.453,165.647,245.461,165.647z"/>
<path style="fill:#3E3D42;" d="M344.324,204.719H215.716c-8.991,0-16.28,7.289-16.28,16.28c0,8.991,7.289,16.28,16.28,16.28h128.608
	c8.991,0,16.28-7.289,16.28-16.28C360.605,212.008,353.315,204.719,344.324,204.719z"/>
<path style="fill:#AA2300;" d="M499.497,190.862c-8.022-7.777-18.711-11.908-29.907-11.58l-127.88,3.974
	c-8.791,0.274-15.774,7.479-15.774,16.273v42.938c0,8.794,6.985,15.999,15.774,16.273l127.88,3.974
	c0.426,0.012,0.853,0.019,1.278,0.019l0,0c10.748,0,20.915-4.12,28.629-11.599c7.947-7.702,12.504-18.467,12.504-29.534v-1.207
	C512,209.331,507.443,198.566,499.497,190.862z"/>
<path style="fill:#FF7956;" d="M499.497,190.862c-8.022-7.777-18.711-11.908-29.907-11.58l-50.622,1.574v80.286l50.622,1.574
	c0.426,0.012,0.853,0.019,1.278,0.019l0,0c10.748,0,20.915-4.12,28.629-11.599c7.947-7.702,12.504-18.467,12.504-29.534v-1.207
	C512,209.331,507.443,198.566,499.497,190.862z"/>
<g>
	<path style="fill:#57565C;" d="M245.461,165.647H130.924v180.706h58.695c39.769,0,72.124-32.355,72.124-72.124v-92.301
		C261.742,172.937,254.453,165.647,245.461,165.647z"/>
	<rect y="190.516" style="fill:#57565C;" width="261.743" height="30.481"/>
</g>
<rect x="130.921" y="190.516" style="fill:#3E3D42;" width="130.821" height="30.481"/>
<g>
</g>
<g>
</g>
<g>
</g>
<g>
</g>
<g>
</g>
<g>
</g>
<g>
</g>
<g>
</g>
<g>
</g>
<g>
</g>
<g>
</g>
<g>
</g>
<g>
</g>
<g>
</g>
<g>
</g>
</svg>
