<?xml version="1.0" encoding="iso-8859-1"?>
<!-- Generator: Adobe Illustrator 19.0.0, SVG Export Plug-In . SVG Version: 6.00 Build 0)  -->
<svg version="1.1" id="Layer_1" xmlns="http://www.w3.org/2000/svg" xmlns:xlink="http://www.w3.org/1999/xlink" x="0px" y="0px"
	 viewBox="0 0 512 512" style="enable-background:new 0 0 512 512;" xml:space="preserve">
<g>
	<path style="fill:#3E3D42;" d="M142.005,443.488c-9.468,0-17.143,7.675-17.143,17.143v34.226c0,9.468,7.675,17.143,17.143,17.143
		s17.143-7.675,17.143-17.143v-34.226C159.147,451.163,151.472,443.488,142.005,443.488z"/>
	<path style="fill:#3E3D42;" d="M369.996,443.488c-9.468,0-17.143,7.675-17.143,17.143v34.226c0,9.468,7.675,17.143,17.143,17.143
		s17.143-7.675,17.143-17.143v-34.226C387.139,451.163,379.464,443.488,369.996,443.488z"/>
</g>
<path style="fill:#CD2A00;" d="M409.821,135.846H102.18c-9.468,0-17.143,7.675-17.143,17.143V460.63
	c0,9.468,7.675,17.143,17.143,17.143h307.641c9.468,0,17.143-7.675,17.143-17.143V152.989
	C426.964,143.521,419.288,135.846,409.821,135.846z"/>
<path style="fill:#AA2300;" d="M409.821,135.846H256v341.927h153.82c9.468,0,17.143-7.675,17.143-17.143V152.989
	C426.964,143.521,419.288,135.846,409.821,135.846z"/>
<path style="fill:#FFFFFF;" d="M256,190.256c-64.268,0-116.555,52.286-116.555,116.553c0,64.269,52.287,116.555,116.555,116.555
	s116.553-52.286,116.553-116.555C372.553,242.541,320.268,190.256,256,190.256z"/>
<path style="fill:#ACABB1;" d="M256,190.256c-64.268,0-116.555,52.286-116.555,116.553c0,64.269,52.287,116.555,116.555,116.555
	s116.553-52.286,116.553-116.555C372.553,242.541,320.268,190.256,256,190.256z"/>
<path style="fill:#898890;" d="M256,190.256L256,190.256l-0.001,233.108H256c64.268,0,116.553-52.286,116.553-116.555
	C372.553,242.541,320.268,190.256,256,190.256z"/>
<path style="fill:#E0E0E2;" d="M256,210.623c-53.037,0-96.186,43.148-96.186,96.186s43.148,96.186,96.186,96.186
	s96.186-43.148,96.186-96.186S309.037,210.623,256,210.623z"/>
<path style="fill:#D8D7DA;" d="M256,210.623L256,210.623v192.371l0,0c53.037,0,96.186-43.148,96.186-96.186
	S309.037,210.623,256,210.623z"/>
<path style="fill:#C6C5CA;" d="M454.729,6.708C451.485,2.479,446.457,0,441.127,0H70.872c-5.33,0-10.358,2.479-13.601,6.709
	c-3.245,4.229-4.337,9.726-2.956,14.875c11.158,41.608,49.038,70.668,92.117,70.668h219.137c43.081,0,80.96-29.061,92.117-70.669
	C459.066,16.434,457.973,10.938,454.729,6.708z"/>
<path style="fill:#A5001E;" d="M273.143,283.399v-42.257c0-9.468-7.675-17.143-17.143-17.143c-9.468,0-17.143,7.675-17.143,17.143
	v42.257c-7.199,5.28-11.876,13.797-11.876,23.41c0,16.026,12.992,29.02,29.018,29.02s29.018-12.992,29.018-29.02
	C285.018,297.196,280.342,288.681,273.143,283.399z"/>
<path style="fill:#ACABB1;" d="M454.729,6.708C451.485,2.479,446.457,0,441.127,0H256v92.252h109.569
	c43.081,0,80.96-29.061,92.117-70.669C459.066,16.434,457.973,10.938,454.729,6.708z"/>
<path style="fill:#830018;" d="M273.143,283.399v-42.257c0-9.468-7.675-17.143-17.143-17.143l0,0v111.829l0,0
	c16.026,0,29.018-12.992,29.018-29.02C285.018,297.196,280.342,288.681,273.143,283.399z"/>
<rect x="221.015" y="92.252" style="fill:#3E3D42;" width="34.981" height="43.593"/>
<rect x="256" y="92.252" style="fill:#2D2D30;" width="34.981" height="43.593"/>
<circle style="fill:#3E3D42;" cx="256.067" cy="306.808" r="30.8"/>
<g>
</g>
<g>
</g>
<g>
</g>
<g>
</g>
<g>
</g>
<g>
</g>
<g>
</g>
<g>
</g>
<g>
</g>
<g>
</g>
<g>
</g>
<g>
</g>
<g>
</g>
<g>
</g>
<g>
</g>
</svg>
