<?xml version="1.0" encoding="iso-8859-1"?>
<!-- Generator: Adobe Illustrator 19.0.0, SVG Export Plug-In . SVG Version: 6.00 Build 0)  -->
<svg version="1.1" id="Layer_1" xmlns="http://www.w3.org/2000/svg" xmlns:xlink="http://www.w3.org/1999/xlink" x="0px" y="0px"
	 viewBox="0 0 512 512" style="enable-background:new 0 0 512 512;" xml:space="preserve">
<path style="fill:#787680;" d="M509.782,247.724L390.059,40.356c-2.957-5.121-8.421-8.276-14.334-8.276H136.275
	c-5.913,0-11.378,3.155-14.334,8.276L2.218,247.724c-2.957,5.121-2.957,11.431,0,16.552l119.723,207.368
	c2.957,5.121,8.421,8.276,14.334,8.276h239.449c5.913,0,11.378-3.155,14.334-8.276l119.724-207.368
	C512.739,259.155,512.739,252.845,509.782,247.724z M256,370.76c-63.279,0-114.76-51.481-114.76-114.76S192.721,141.24,256,141.24
	S370.76,192.721,370.76,256S319.279,370.76,256,370.76z"/>
<path style="fill:#57565C;" d="M509.782,247.724L390.059,40.356c-2.957-5.121-8.421-8.276-14.334-8.276H256v109.16
	c63.279,0,114.76,51.481,114.76,114.76S319.279,370.76,256,370.76v109.16h119.725c5.913,0,11.378-3.155,14.334-8.276
	l119.724-207.368C512.739,259.155,512.739,252.845,509.782,247.724z"/>
<path style="fill:#787680;" d="M256,97.829v50.912c59.237,0,107.259,48.022,107.259,107.259S315.237,363.258,256,363.258v50.912
	c87.356,0,158.171-70.816,158.171-158.171C414.171,168.644,343.356,97.829,256,97.829z"/>
<path style="fill:#57565C;" d="M148.741,256c0-59.237,48.022-107.259,107.259-107.259V97.829
	c-87.356,0-158.171,70.816-158.171,158.171S168.644,414.171,256,414.171V363.26C196.763,363.259,148.741,315.237,148.741,256z"/>
<g>
</g>
<g>
</g>
<g>
</g>
<g>
</g>
<g>
</g>
<g>
</g>
<g>
</g>
<g>
</g>
<g>
</g>
<g>
</g>
<g>
</g>
<g>
</g>
<g>
</g>
<g>
</g>
<g>
</g>
</svg>
