<?xml version="1.0" encoding="iso-8859-1"?>
<!-- Generator: Adobe Illustrator 19.0.0, SVG Export Plug-In . SVG Version: 6.00 Build 0)  -->
<svg version="1.1" id="Layer_1" xmlns="http://www.w3.org/2000/svg" xmlns:xlink="http://www.w3.org/1999/xlink" x="0px" y="0px"
	 viewBox="0 0 512 512" style="enable-background:new 0 0 512 512;" xml:space="preserve">
<path style="fill:#E0E0E2;" d="M338.202,122.747c-9.728,0-17.615-7.887-17.615-17.615V22.707c0-9.728,7.887-17.615,17.615-17.615
	s17.615,7.887,17.615,17.615v82.425C355.816,114.86,347.93,122.747,338.202,122.747z"/>
<path style="fill:#C6C5CA;" d="M395.743,122.747c-9.728,0-17.615-7.887-17.615-17.615V52.065c0-9.728,7.887-17.615,17.615-17.615
	s17.615,7.887,17.615,17.615v53.067C413.358,114.86,405.471,122.747,395.743,122.747z"/>
<path style="fill:#E0E0E2;" d="M62.909,244.863c-9.728,0-17.615,7.887-17.615,17.615v73.305c0,9.728,7.887,17.615,17.615,17.615
	s17.615-7.887,17.615-17.615v-73.305C80.524,252.749,72.637,244.863,62.909,244.863z"/>
<path style="fill:#7CCC92;" d="M429.381,87.517H75.551C33.892,87.517,0,121.409,0,163.068v100.599
	c0,25.101,20.421,45.522,45.522,45.522h35.276c25.101,0,45.522-20.421,45.522-45.522v-32.996h96.68
	c36.691,0,66.541,29.85,66.541,66.541s-29.85,66.542-66.541,66.542H17.615C7.887,363.754,0,371.641,0,381.369v76.328
	c0,27.135,22.076,49.211,49.21,49.211H429.38c27.135,0,49.211-22.076,49.211-49.211V136.728
	C478.592,109.593,456.516,87.517,429.381,87.517z"/>
<path style="fill:#64C37D;" d="M429.381,87.517H239.295v145.179c28.838,7.288,50.245,33.446,50.245,64.516
	s-21.408,57.229-50.245,64.516v145.179H429.38c27.135,0,49.211-22.076,49.211-49.211V136.728
	C478.592,109.593,456.516,87.517,429.381,87.517z"/>
<g>
	<path style="fill:#3FA45A;" d="M420.404,193.898c-9.728,0-17.615-7.887-17.615-17.615v-34.653c0-9.728,7.887-17.615,17.615-17.615
		s17.615,7.887,17.615,17.615v34.653C438.018,186.012,430.132,193.898,420.404,193.898z"/>
	<path style="fill:#3FA45A;" d="M365.742,193.898c-9.728,0-17.615-7.887-17.615-17.615v-34.653c0-9.728,7.887-17.615,17.615-17.615
		s17.615,7.887,17.615,17.615v34.653C383.356,186.012,375.47,193.898,365.742,193.898z"/>
	<path style="fill:#3FA45A;" d="M311.08,193.898c-9.728,0-17.615-7.887-17.615-17.615v-34.653c0-9.728,7.887-17.615,17.615-17.615
		s17.615,7.887,17.615,17.615v34.653C328.695,186.012,320.808,193.898,311.08,193.898z"/>
	<circle style="fill:#3FA45A;" cx="380.277" cy="425.629" r="26.306"/>
</g>
<path style="fill:#95D6A6;" d="M494.385,266.963c-9.728,0-17.615-7.887-17.615-17.615v-90.391c0-9.728,7.887-17.615,17.615-17.615
	c9.728,0,17.615,7.887,17.615,17.615v90.391C512,259.077,504.113,266.963,494.385,266.963z"/>
<path style="fill:#3FA45A;" d="M139.743,88.467H93.945c-9.728,0-17.615-7.887-17.615-17.615s7.887-17.615,17.615-17.615h45.798
	c9.728,0,17.615,7.887,17.615,17.615S149.471,88.467,139.743,88.467z"/>
<g>
</g>
<g>
</g>
<g>
</g>
<g>
</g>
<g>
</g>
<g>
</g>
<g>
</g>
<g>
</g>
<g>
</g>
<g>
</g>
<g>
</g>
<g>
</g>
<g>
</g>
<g>
</g>
<g>
</g>
</svg>
