<?xml version="1.0" encoding="iso-8859-1"?>
<!-- Generator: Adobe Illustrator 19.0.0, SVG Export Plug-In . SVG Version: 6.00 Build 0)  -->
<svg version="1.1" id="Layer_1" xmlns="http://www.w3.org/2000/svg" xmlns:xlink="http://www.w3.org/1999/xlink" x="0px" y="0px"
	 viewBox="0 0 512 512" style="enable-background:new 0 0 512 512;" xml:space="preserve">
<path style="fill:#D8D8DA;" d="M497.618,304.899l-34.517,11.506V178.337c0-79.302-64.518-143.82-143.82-143.82
	C284.388,34.517,256,62.905,256,97.798v5.753h-34.517v-5.753C221.483,43.872,265.355,0,319.281,0
	c98.335,0,178.337,80.002,178.337,178.337V304.899z"/>
<g>
	<rect x="117.933" y="442.966" style="fill:#DDDBDB;" width="34.517" height="69.034"/>
	<rect x="359.551" y="442.966" style="fill:#DDDBDB;" width="34.517" height="69.034"/>
</g>
<g>
	<path style="fill:#F8F8F9;" d="M14.382,304.899c0,88.961,72.117,161.079,161.079,161.079h161.079
		c88.961,0,161.079-72.118,161.079-161.079H14.382z"/>
	<path style="fill:#F8F8F9;" d="M284.764,189.843c12.709,0,23.011-10.302,23.011-23.011c0-38.126-30.908-69.034-69.034-69.034
		s-69.034,30.908-69.034,69.034c0,12.709,10.302,23.011,23.011,23.011H284.764z"/>
</g>
<g>
	<rect x="290.517" y="224.36" style="fill:#D1E5F5;" width="34.517" height="46.022"/>
	<rect x="290.517" y="224.36" style="fill:#D1E5F5;" width="34.517" height="46.022"/>
	<rect x="221.483" y="224.36" style="fill:#D1E5F5;" width="34.517" height="46.022"/>
	<rect x="152.449" y="224.36" style="fill:#D1E5F5;" width="34.517" height="46.022"/>
</g>
<g>
	<path style="fill:#EDEDED;" d="M238.742,97.798v92.045h46.022c12.709,0,23.011-10.302,23.011-23.011
		C307.775,128.705,276.868,97.798,238.742,97.798z"/>
	<path style="fill:#EDEDED;" d="M256,304.899v161.079h80.539c88.961,0,161.079-72.118,161.079-161.079H256z"/>
</g>
<g>
</g>
<g>
</g>
<g>
</g>
<g>
</g>
<g>
</g>
<g>
</g>
<g>
</g>
<g>
</g>
<g>
</g>
<g>
</g>
<g>
</g>
<g>
</g>
<g>
</g>
<g>
</g>
<g>
</g>
</svg>
