<?xml version="1.0" encoding="iso-8859-1"?>
<!-- Generator: Adobe Illustrator 19.0.0, SVG Export Plug-In . SVG Version: 6.00 Build 0)  -->
<svg version="1.1" id="Layer_1" xmlns="http://www.w3.org/2000/svg" xmlns:xlink="http://www.w3.org/1999/xlink" x="0px" y="0px"
	 viewBox="0 0 512 512" style="enable-background:new 0 0 512 512;" xml:space="preserve">
<path style="fill:#F8F8F9;" d="M491.402,217.747c0,19.501-15.81,35.31-35.31,35.31H55.908c-19.501,0-35.31-15.81-35.31-35.31l0,0
	c0-19.501,15.81-35.31,35.31-35.31h400.184C475.593,182.437,491.402,198.246,491.402,217.747L491.402,217.747z"/>
<polygon style="fill:#EDEDED;" points="420.782,441.379 91.218,441.379 55.908,253.057 456.092,253.057 "/>
<g>
	<path style="fill:#D8D8DA;" d="M220.69,441.379v35.31c0,19.501,15.81,35.31,35.31,35.31l0,0c19.501,0,35.31-15.81,35.31-35.31
		v-35.31"/>
	<path style="fill:#D8D8DA;" d="M273.655,182.437h-35.31V52.966C238.345,23.76,262.104,0,291.31,0s52.966,23.76,52.966,52.966
		h-35.31c0-9.735-7.92-17.655-17.655-17.655c-9.735,0-17.655,7.92-17.655,17.655V182.437z"/>
</g>
<path style="fill:#EDEDED;" d="M456.092,182.437H256v70.621h200.092c19.501,0,35.31-15.81,35.31-35.31
	S475.593,182.437,456.092,182.437z"/>
<polygon style="fill:#DDDBDB;" points="256,441.379 420.782,441.379 456.092,253.057 256,253.057 "/>
<g>
</g>
<g>
</g>
<g>
</g>
<g>
</g>
<g>
</g>
<g>
</g>
<g>
</g>
<g>
</g>
<g>
</g>
<g>
</g>
<g>
</g>
<g>
</g>
<g>
</g>
<g>
</g>
<g>
</g>
</svg>
