<?xml version="1.0" encoding="iso-8859-1"?>
<!-- Generator: Adobe Illustrator 19.0.0, SVG Export Plug-In . SVG Version: 6.00 Build 0)  -->
<svg version="1.1" id="Layer_1" xmlns="http://www.w3.org/2000/svg" xmlns:xlink="http://www.w3.org/1999/xlink" x="0px" y="0px"
	 viewBox="0 0 503.2 503.2" style="enable-background:new 0 0 503.2 503.2;" xml:space="preserve">
<circle style="fill:#45AEDD;" cx="251.6" cy="251.2" r="224"/>
<path style="fill:#4698DB;" d="M93.2,92.8c87.2-87.2,229.6-87.2,316.8,0s87.2,229.6,0,316.8"/>
<path style="fill:#C7F4FF;" d="M465.2,360l-40-23.2l21.6-5.6c6.4-1.6,10.4-8,8-14.4c-1.6-6.4-8-10.4-14.4-8l-44,12H394l-22.4-12
	V193.6l22.4-12c0,0,0.8,0,1.6,0l44.8,12c0.8,0,2.4,0.8,3.2,0.8c5.6,0,10.4-3.2,11.2-8.8c1.6-6.4-1.6-12.8-8-14.4l-21.6-5.6l40-23.2
	c5.6-3.2,8-10.4,4-16c-3.2-5.6-10.4-8-16-4l-40,23.2l5.6-21.6c1.6-6.4-2.4-12.8-8-14.4c-6.4-1.6-12.8,2.4-14.4,8l-12,44l0,0
	l-22.4,12l-102.4-58.4v-24h2.4l33.6-32c4.8-4.8,4.8-12,0.8-16.8c-4.8-4.8-13.6-4.8-18.4,0l-17.6,16V12c0-6.4-1.6-12-8-12
	c-6.4,0-8,5.6-8,12v46.4l-17.6-16c-4.8-4.8-12.8-4.8-17.6,0c-5.6,4-6.4,12-1.6,16.8l37.6,36l-1.6-3.2v24l-102.4,57.6l-21.6-12h-0.8
	l-11.2-44.8c-1.6-6.4-8-9.6-14.4-8c-6.4,1.6-10.4,8-8,14.4l5.6,21.6l-40-23.2c-5.6-3.2-12.8-1.6-16,4c-3.2,5.6-1.6,12.8,4,16
	l40,23.2l-22.4,6.4c-6.4,1.6-10.4,8-8,14.4c1.6,5.6,6.4,8.8,11.2,8.8c0.8,0,2.4,0,3.2-0.8l44-12h2.4l22.4,12v115.2l-22.4,12
	c0,0-0.8,0-1.6,0l-44.8-12c-6.4-1.6-12.8,2.4-14.4,8c-1.6,6.4,1.6,12.8,8,14.4l21.6,5.6L38,360c-5.6,3.2-8,10.4-4,16
	c2.4,4,6.4,5.6,10.4,5.6c1.6,0,4-0.8,5.6-1.6l40-23.2l-5.6,22.4c-1.6,6.4,2.4,12.8,8,14.4c0.8,0,2.4,0.8,3.2,0.8
	c5.6,0,9.6-3.2,11.2-8.8l12-44l0,0l22.4-12l102.4,57.6v24c0,0,0-2.4,0-1.6L208.4,444c-4.8,4.8-4.8,12-0.8,16.8
	c2.4,2.4,4.8,3.2,8,3.2s8-0.8,10.4-3.2l17.6-16v46.4c0,6.4,1.6,12,8,12c6.4,0,8-5.6,8-12v-46.4l17.6,16c2.4,2.4,6.4,3.2,9.6,3.2
	s6.4-0.8,8.8-3.2c4.8-4.8,4.8-12,0-16.8L262,411.2h-2.4v-24L362,329.6l21.6,12h0.8l12,44c1.6,5.6,6.4,8.8,11.2,8.8
	c0.8,0,2.4,0,3.2-0.8c6.4-1.6,10.4-8,8-14.4l-5.6-21.6l40,23.2c1.6,0.8,4,1.6,5.6,1.6c4,0,8-2.4,10.4-5.6
	C472.4,370.4,470.8,363.2,465.2,360z M355.6,295.2l-76.8-44l76.8-44V295.2z M336.4,186.4l-76.8,44v-88L336.4,186.4z M243.6,142.4v88
	l-76.8-44L243.6,142.4z M147.6,207.2l76.8,44l-76.8,44V207.2z M166.8,316l76.8-44v88L166.8,316z M259.6,360v-88l76.8,44L259.6,360z"
	/>
<path style="fill:#61CCF2;" d="M465.2,360l-40-23.2l21.6-5.6c6.4-1.6,10.4-8,8-14.4c-1.6-6.4-8-10.4-14.4-8l-44,12H394l-22.4-12
	V193.6l22.4-12c0,0,0.8,0,1.6,0l44.8,12c0.8,0,2.4,0.8,3.2,0.8c5.6,0,10.4-3.2,11.2-8.8c1.6-6.4-1.6-12.8-8-14.4l-21.6-5.6l40-23.2
	c5.6-3.2,8-10.4,4-16c-3.2-5.6-10.4-8-16-4l-40,23.2l5.6-21.6c1.6-6.4-2.4-12.8-8-14.4c-6.4-1.6-12.8,2.4-14.4,8l-12,44l0,0
	l-22.4,12l-102.4-58.4v-24l-0.8,2.4l36.8-34.4c4.8-4.8,4.8-12,0.8-16.8c-4.8-4.8-13.6-4.8-18.4,0l-17.6,16V12c0-6.4-3.2-12-9.6-12
	h1.6v502.4h-1.6c6.4,0,9.6-5.6,9.6-12V444l17.6,16c2.4,2.4,6.4,3.2,9.6,3.2s6.4-0.8,8.8-3.2c4.8-4.8,4.8-12,0-16.8l-36.8-34.4v2.4
	v-24L362,329.6l21.6,12h0.8l12,44c1.6,5.6,6.4,8.8,11.2,8.8c0.8,0,2.4,0,3.2-0.8c6.4-1.6,10.4-8,8-14.4l-5.6-21.6l40,23.2
	c1.6,0.8,4,1.6,5.6,1.6c4,0,8-2.4,10.4-5.6C472.4,370.4,470.8,363.2,465.2,360z M259.6,142.4l76.8,44l-76.8,44V142.4z M259.6,360
	v-88l76.8,44L259.6,360z M355.6,295.2l-76.8-44l76.8-44V295.2z"/>
<g>
</g>
<g>
</g>
<g>
</g>
<g>
</g>
<g>
</g>
<g>
</g>
<g>
</g>
<g>
</g>
<g>
</g>
<g>
</g>
<g>
</g>
<g>
</g>
<g>
</g>
<g>
</g>
<g>
</g>
</svg>
