<?xml version="1.0" encoding="iso-8859-1"?>
<!-- Generator: Adobe Illustrator 19.0.0, SVG Export Plug-In . SVG Version: 6.00 Build 0)  -->
<svg version="1.1" id="Layer_1" xmlns="http://www.w3.org/2000/svg" xmlns:xlink="http://www.w3.org/1999/xlink" x="0px" y="0px"
	 viewBox="0 0 512.001 512.001" style="enable-background:new 0 0 512.001 512.001;" xml:space="preserve">
<path style="fill:#FFCF91;" d="M389.255,193.742c0-49.498-40.269-89.766-89.766-89.766h-71.274
	c-49.497,0-89.766,40.268-89.766,89.766v300.124c0,10.016,8.119,18.136,18.136,18.136H371.12c10.016,0,18.136-8.119,18.136-18.136
	V193.742H389.255z"/>
<path style="fill:#96C8EF;" d="M389.255,193.742c0-49.498-40.269-89.766-89.766-89.766h-71.274
	c-49.497,0-89.766,40.268-89.766,89.766v300.124c0,10.016,8.119,18.136,18.136,18.136H371.12c10.016,0,18.136-8.119,18.136-18.136
	V193.742H389.255z"/>
<path style="fill:#D8D7DA;" d="M294.427,36.27c10.016,0,18.135-8.12,18.135-18.136S304.443,0,294.427,0H156.584
	c-6.416,0-12.356,3.392-15.618,8.916l-15.701,26.598c-5.091,8.625-2.227,19.745,6.398,24.836c8.623,5.091,19.744,2.228,24.836-6.398
	l10.438-17.682C166.937,36.27,294.427,36.27,294.427,36.27z"/>
<path style="fill:#898890;" d="M306.771,67.705h-85.84c-10.016,0-18.135,8.12-18.135,18.136s8.119,18.136,18.135,18.136h85.84
	c10.016,0,18.136-8.12,18.136-18.136S316.787,67.705,306.771,67.705z"/>
<path style="fill:#78B9EB;" d="M389.255,193.742c0-49.498-40.269-89.766-89.766-89.766H263.85V512h107.269
	c10.016,0,18.136-8.119,18.136-18.136L389.255,193.742L389.255,193.742z"/>
<path style="fill:#5AAAE7;" d="M174.487,318.956c-4.696,0-8.503,3.806-8.503,8.503v147.879c0,4.695,3.806,8.503,8.503,8.503h178.165
	c5.008,0,9.067-4.059,9.067-9.067V327.459c0-4.695-3.806-8.503-8.503-8.503H174.487z"/>
<path style="fill:#C6C5CA;" d="M294.427,36.27c10.016,0,18.135-8.12,18.135-18.136S304.443,0,294.427,0h-30.576v36.27H294.427z"/>
<path style="fill:#787680;" d="M306.771,67.705l-42.921,0.102v36.169h42.921c10.016,0,18.136-8.12,18.136-18.136
	S316.787,67.705,306.771,67.705z"/>
<rect x="243.652" y="36.27" style="fill:#3E3D42;" width="20.623" height="31.536"/>
<rect x="263.854" y="36.27" style="fill:#2D2D30;" width="21.044" height="31.536"/>
<path style="fill:#3D9AE2;" d="M263.852,318.956V483.84h89.364c4.695,0,8.503-3.806,8.503-8.503V327.459
	c0-4.695-3.806-8.503-8.503-8.503H263.852z"/>
<g>
</g>
<g>
</g>
<g>
</g>
<g>
</g>
<g>
</g>
<g>
</g>
<g>
</g>
<g>
</g>
<g>
</g>
<g>
</g>
<g>
</g>
<g>
</g>
<g>
</g>
<g>
</g>
<g>
</g>
</svg>
