<?xml version="1.0" encoding="iso-8859-1"?>
<!-- Generator: Adobe Illustrator 19.0.0, SVG Export Plug-In . SVG Version: 6.00 Build 0)  -->
<svg version="1.1" id="Layer_1" xmlns="http://www.w3.org/2000/svg" xmlns:xlink="http://www.w3.org/1999/xlink" x="0px" y="0px"
	 viewBox="0 0 512 512" style="enable-background:new 0 0 512 512;" xml:space="preserve">
<path style="fill:#EBE8F7;" d="M437.639,0H74.361C33.358,0,0,33.358,0,74.361V437.64C0,478.642,33.358,512,74.361,512H437.64
	c41.002,0,74.36-33.358,74.36-74.36V74.361C512,33.358,478.642,0,437.639,0z"/>
<path style="fill:#D9D9E3;" d="M437.639,0H256v512h181.639C478.642,512,512,478.642,512,437.64V74.361
	C512,33.358,478.642,0,437.639,0z"/>
<path style="fill:#CECBD5;" d="M365.449,143.262c-3.109-3.018-7.271-4.706-11.605-4.706h-195.69c-4.333,0-8.495,1.689-11.605,4.706
	C115.788,173.129,98.846,213.167,98.846,256c0,42.834,16.942,82.872,47.704,112.738c3.109,3.018,7.271,4.706,11.605,4.706h195.691
	c4.333,0,8.495-1.689,11.605-4.706c30.762-29.866,47.704-69.904,47.704-112.738C413.154,213.167,396.212,173.129,365.449,143.262z"
	/>
<g>
	<path style="fill:#ACABB1;" d="M146.551,167.818c3.109-3.018,7.271-4.706,11.605-4.706h195.689c4.333,0,8.495,1.689,11.605,4.706
		c27.802,26.994,44.313,62.296,47.233,100.46c0.311-4.063,0.471-8.156,0.471-12.278c0-42.833-16.942-82.871-47.705-112.738
		c-3.109-3.018-7.271-4.706-11.605-4.706h-195.69c-4.333,0-8.495,1.689-11.605,4.706C115.788,173.129,98.846,213.167,98.846,256
		c0,4.12,0.16,8.215,0.471,12.278C102.238,230.113,118.747,194.811,146.551,167.818z"/>
	<path style="fill:#ACABB1;" d="M365.449,143.262c-3.109-3.018-7.271-4.706-11.605-4.706h-97.416v234.887h97.416
		c4.333,0,8.495-1.689,11.605-4.706c30.763-29.866,47.705-69.904,47.705-112.738C413.154,213.167,396.212,173.129,365.449,143.262z"
		/>
</g>
<path style="fill:#57565C;" d="M196.581,177.447c-9.2,0-16.659,7.459-16.659,16.659v58.863c0,9.2,7.459,16.659,16.659,16.659
	c9.2,0,16.659-7.459,16.659-16.659v-58.863C213.241,184.906,205.782,177.447,196.581,177.447z"/>
<path style="fill:#3E3D42;" d="M315.419,177.447c-9.2,0-16.659,7.459-16.659,16.659v58.863c0,9.2,7.459,16.659,16.659,16.659
	c9.2,0,16.659-7.459,16.659-16.659v-58.863C332.078,184.906,324.619,177.447,315.419,177.447z"/>
<path style="fill:#57565C;" d="M277.102,301.838h-42.204c-9.2,0-16.659,7.459-16.659,16.659c0,9.2,7.459,16.659,16.659,16.659
	h42.204c9.2,0,16.659-7.459,16.659-16.659C293.761,309.297,286.302,301.838,277.102,301.838z"/>
<path style="fill:#3E3D42;" d="M277.102,301.838h-20.963v33.319h20.963c9.2,0,16.659-7.459,16.659-16.659
	C293.761,309.297,286.302,301.838,277.102,301.838z"/>
<g>
</g>
<g>
</g>
<g>
</g>
<g>
</g>
<g>
</g>
<g>
</g>
<g>
</g>
<g>
</g>
<g>
</g>
<g>
</g>
<g>
</g>
<g>
</g>
<g>
</g>
<g>
</g>
<g>
</g>
</svg>
