<?xml version="1.0" encoding="utf-8"?>
<!-- Generator: Adobe Illustrator 20.1.0, SVG Export Plug-In . SVG Version: 6.00 Build 0)  -->
<svg version="1.1" xmlns="http://www.w3.org/2000/svg" xmlns:xlink="http://www.w3.org/1999/xlink" x="0px" y="0px"
	 viewBox="0 0 512 512" style="enable-background:new 0 0 512 512;" xml:space="preserve">
<style type="text/css">
	.st0{fill:#EBE8F7;}
	.st1{fill:#D9D9E3;}
	.st2{fill:#FDFCFF;}
	.st3{fill:#CECCD6;}
	.st4{fill:#B3B1BA;}
	.st5{fill:#57565C;}
	.st6{fill:#3E3D42;}
	.st7{fill:#211D1D;}
	.st8{fill:#050505;}
	.st9{fill:none;stroke:#0C0B0B;stroke-width:31;stroke-miterlimit:10;}
</style>
<g id="Layer_1">
	<path class="st0" d="M437.6,0H74.4C33.4,0,0,33.4,0,74.4v363.3c0,41,33.4,74.4,74.4,74.4h363.3c41,0,74.4-33.4,74.4-74.4V74.4
		C512,33.4,478.6,0,437.6,0z"/>
	<path class="st1" d="M437.6,0H256v512h181.6c41,0,74.4-33.4,74.4-74.4V74.4C512,33.4,478.6,0,437.6,0z"/>
	<path class="st2" d="M256,98.8c-86.7,0-157.2,70.5-157.2,157.2S169.3,413.2,256,413.2S413.2,342.7,413.2,256S342.7,98.8,256,98.8z"
		/>
	<path class="st3" d="M256,98.8c-86.7,0-157.2,70.5-157.2,157.2S169.3,413.2,256,413.2S413.2,342.7,413.2,256S342.7,98.8,256,98.8z"
		/>
	<g>
		<path class="st4" d="M256,126.6c82,0,149.5,63.1,156.5,143.3c0.4-4.6,0.6-9.2,0.6-13.9c0-86.7-70.5-157.2-157.2-157.2
			S98.8,169.3,98.8,256c0,4.7,0.2,9.3,0.6,13.9C106.5,189.7,174,126.6,256,126.6z"/>
		<path class="st4" d="M256,98.8v314.3c86.7,0,157.2-70.5,157.2-157.2S342.7,98.8,256,98.8z"/>
	</g>
	<circle class="st5" cx="203.8" cy="256" r="27.8"/>
	<circle class="st6" cx="308.2" cy="256" r="27.8"/>
</g>
<g id="Livello_2">
	<path class="st7" d="M353.9,302H158.1c-25.4,0-46-20.6-46-46v0c0-25.4,20.6-46,46-46h195.7c25.4,0,46,20.6,46,46v0
		C399.8,281.4,379.3,302,353.9,302z"/>
	<path class="st8" d="M349.6,290.6H162.4c-19.1,0-34.6-15.5-34.6-34.6v0c0-19.1,15.5-34.6,34.6-34.6h187.2
		c19.1,0,34.6,15.5,34.6,34.6v0C384.2,275.1,368.7,290.6,349.6,290.6z"/>
	<path class="st9" d="M373.2,474.4c-13.6,0-23.3-3.5-28.8-10.3c-9.3-11.6-3-29.1-3-29.3c16.5-45.2,17.4-83.6,2.5-114.3
		c-25.2-51.9-87.4-63.9-88.1-64l0.2-1c0.6,0.1,63.4,12.2,88.8,64.5c15,31,14.2,69.7-2.4,115.1c-0.1,0.2-6.1,17.1,2.8,28.3
		c6.9,8.6,20.8,11.7,41.2,9l0.1,1C381.8,474.1,377.3,474.4,373.2,474.4z"/>
</g>
</svg>
