<?xml version="1.0" encoding="iso-8859-1"?>
<!-- Generator: Adobe Illustrator 19.0.0, SVG Export Plug-In . SVG Version: 6.00 Build 0)  -->
<svg version="1.1" id="Layer_1" xmlns="http://www.w3.org/2000/svg" xmlns:xlink="http://www.w3.org/1999/xlink" x="0px" y="0px"
	 viewBox="0 0 512 512" style="enable-background:new 0 0 512 512;" xml:space="preserve">
<path style="fill:#EBE8F7;" d="M437.639,0H74.36C33.358,0,0,33.358,0,74.361V437.64C0,478.642,33.358,512,74.36,512h363.279
	C478.642,512,512,478.642,512,437.639V74.361C512,33.358,478.642,0,437.639,0z"/>
<path style="fill:#D9D9E3;" d="M437.639,0H256v512h181.639C478.642,512,512,478.642,512,437.639V74.361
	C512,33.358,478.642,0,437.639,0z"/>
<path style="fill:#FDFCFF;" d="M256,98.846c-86.655,0-157.154,70.499-157.154,157.154S169.345,413.154,256,413.154
	S413.154,342.655,413.154,256S342.655,98.846,256,98.846z"/>
<path style="fill:#CECCD6;" d="M256,98.846c-86.655,0-157.154,70.499-157.154,157.154S169.345,413.154,256,413.154
	S413.154,342.655,413.154,256S342.655,98.846,256,98.846z"/>
<g>
	<path style="fill:#B3B1BA;" d="M256,126.612c81.977,0,149.482,63.095,156.533,143.271c0.403-4.576,0.621-9.204,0.621-13.883
		c0-86.655-70.499-157.154-157.154-157.154S98.846,169.345,98.846,256c0,4.679,0.218,9.307,0.62,13.883
		C106.518,189.707,174.023,126.612,256,126.612z"/>
	<path style="fill:#B3B1BA;" d="M256,98.846v314.308c86.655,0,157.154-70.499,157.154-157.154S342.655,98.846,256,98.846z"/>
</g>
<circle style="fill:#57565C;" cx="203.8" cy="256" r="27.766"/>
<circle style="fill:#3E3D42;" cx="308.2" cy="256" r="27.766"/>
<g>
</g>
<g>
</g>
<g>
</g>
<g>
</g>
<g>
</g>
<g>
</g>
<g>
</g>
<g>
</g>
<g>
</g>
<g>
</g>
<g>
</g>
<g>
</g>
<g>
</g>
<g>
</g>
<g>
</g>
</svg>
