<?xml version="1.0" encoding="utf-8"?>
<!-- Generator: Adobe Illustrator 19.2.1, SVG Export Plug-In . SVG Version: 6.00 Build 0)  -->
<svg version="1.1" xmlns="http://www.w3.org/2000/svg" xmlns:xlink="http://www.w3.org/1999/xlink" x="0px" y="0px"
	 viewBox="0 0 58 58" style="enable-background:new 0 0 58 58;" xml:space="preserve">
<style type="text/css">
	.st0{fill:#D79B19;}
	.st1{fill:#B37417;}
	.st2{fill:#E5AC20;}
	.st3{fill:#F6C020;}
	.st4{fill:#774836;}
	.st5{fill:#FFC83E;}
	.st6{fill:#F5BE26;}
	.st7{fill:#A06210;}
	.st8{fill:#CE9115;}
	.st9{fill:#60382C;}
</style>
<g id="Capa_1">
	<path class="st0" d="M3,25.5c0.4,0,0.8,0.2,0.9,0.7l2,7.8C6,34.2,6,34.3,6,34.5l0,0l4-5l-2-7L3,25.5z"/>
	<polygon class="st1" points="52,34.5 6,34.5 10,29.5 48,29.5 	"/>
	<path class="st2" d="M48,29.5l2-7v-7.8c0-2.3-1.9-4.3-4.3-4.3H33.3c-2.3,0-4.3,1.9-4.3,4.3v14.8H48z"/>
	<path class="st3" d="M29,29.5V14.8c0-2.3-1.9-4.3-4.3-4.3H12.3c-2.3,0-4.3,1.9-4.3,4.3v7.8l2,7H29z"/>
	<path class="st0" d="M55,25.5c-0.4,0-0.8,0.2-0.9,0.7l-2,7.8c0,0.2-0.1,0.3-0.1,0.5l0,0l-4-5l2-7L55,25.5z"/>
	<polygon class="st4" points="7,47.5 6,47.5 6,43.5 11,43.5 	"/>
	<polygon class="st4" points="51,47.5 52,47.5 52,43.5 47,43.5 	"/>
	<path class="st5" d="M5.9,34l-2-7.8c-0.2-1-1.6-1-1.9,0l-2,7.8C0,34.3,0,34.7,0.1,35l2,7.8c0.1,0.5,0.6,0.7,1,0.7H6v-9l0,0
		C6,34.3,6,34.2,5.9,34z"/>
	<path class="st5" d="M57.9,34l-2-7.8c-0.2-1-1.6-1-1.9,0l-2,7.8c0,0.2-0.1,0.3-0.1,0.5l0,0v9h2.9c0.4,0,0.9-0.2,1-0.7l2-7.8
		C58,34.7,58,34.3,57.9,34z"/>
	<polygon class="st6" points="52,34.5 6,34.5 6,34.5 6,43.5 52,43.5 	"/>
</g>
<g id="Livello_2">
	<polygon class="st7" points="52,34.5 29,34.5 29,29.5 48,29.5 	"/>
	<path class="st2" d="M50,14.8v7.8l-2,7H29V14.8c0,0,0-0.1,0-0.1c0-2.3,1.9-4.1,4.2-4.1h12.5C48.1,10.5,50,12.4,50,14.8z"/>
	<path class="st3" d="M29,14.6v14.9h0v-15C29,14.6,29,14.6,29,14.6z"/>
	<path class="st8" d="M55,25.5c-0.4,0-0.8,0.2-0.9,0.7l-2,7.8c0,0.2-0.1,0.3-0.1,0.5l0,0l-4-5l2-7L55,25.5z"/>
	<polygon class="st9" points="51,47.5 52,47.5 52,43.5 47,43.5 	"/>
	<path class="st2" d="M57.9,34l-2-7.8c-0.2-1-1.6-1-1.9,0l-2,7.8c0,0.2-0.1,0.3-0.1,0.5l0,0v9h2.9c0.4,0,0.9-0.2,1-0.7l2-7.8
		C58,34.7,58,34.3,57.9,34z"/>
	<rect x="29" y="34.5" class="st2" width="23" height="9"/>
</g>
</svg>
