<?xml version="1.0" encoding="iso-8859-1"?>
<!-- Generator: Adobe Illustrator 19.0.0, SVG Export Plug-In . SVG Version: 6.00 Build 0)  -->
<svg xmlns="http://www.w3.org/2000/svg" xmlns:xlink="http://www.w3.org/1999/xlink" version="1.1" id="Layer_1" x="0px" y="0px" viewBox="0 0 446.938 446.938" style="enable-background:new 0 0 446.938 446.938;" xml:space="preserve" width="512" height="512">
<g>
	<g>
		<polygon style="fill:#FF7F3F;" points="223.469,0 138.265,127.124 308.672,127.124   "/>
		<polygon style="fill:#FF9500;" points="65.453,65.453 95.095,215.591 215.592,95.095   "/>
		<polygon style="fill:#FF7F3F;" points="0,223.469 127.125,308.672 127.126,138.265   "/>
		<polygon style="fill:#FF9500;" points="65.453,381.485 215.592,351.843 95.096,231.344   "/>
		<polygon style="fill:#FF7F3F;" points="223.469,446.938 308.673,319.813 138.265,319.811   "/>
		<polygon style="fill:#FF9500;" points="381.485,381.485 351.843,231.345 231.345,351.842   "/>
		<polygon style="fill:#FF7F3F;" points="446.938,223.468 319.814,138.265 319.812,308.672   "/>
		<polygon style="fill:#FF9500;" points="381.485,65.452 231.346,95.094 351.843,215.592   "/>
	</g>
	<g>
		<circle style="fill:#FEDD3D;" cx="223.469" cy="223.468" r="149.007"/>
		<path style="opacity:0.3;fill:#FF9500;" d="M223.469,74.461c-82.294,0-149.007,66.713-149.007,149.007    c0,82.294,66.713,149.007,149.007,149.007V74.461z"/>
	</g>
	<g>
		<circle style="fill:#FF7F3F;" cx="142.54" cy="193.651" r="11.255"/>
		<circle style="fill:#FF7F3F;" cx="304.398" cy="193.651" r="11.255"/>
		<path style="fill:#FF7F3F;" d="M180.428,195.824c0,23.77,19.271,43.041,43.041,43.041s43.041-19.27,43.041-43.041H180.428z"/>
	</g>
</g>















</svg>
