<?xml version="1.0" encoding="utf-8"?>
<!-- Generator: Adobe Illustrator 19.2.1, SVG Export Plug-In . SVG Version: 6.00 Build 0)  -->
<svg version="1.1" id="Capa_1" xmlns="http://www.w3.org/2000/svg" xmlns:xlink="http://www.w3.org/1999/xlink" x="0px" y="0px"
	 viewBox="0 0 170.4 170.4" style="enable-background:new 0 0 170.4 170.4;" xml:space="preserve">
<style type="text/css">
	.st0{fill:#381800;}
	.st1{fill:#FDD633;}
</style>
<g>
	<polygon points="85.6,17.8 100.5,17.8 85.6,0.4 85.2,0 84.9,0.4 69.9,17.8 84.9,17.8 	"/>
	<polygon class="st0" points="51.7,26.7 64.6,19.2 43,11.6 42.5,11.5 42.4,12 38.1,34.5 51.1,27.1 	"/>
	<polygon points="19.8,64.5 27.3,51.6 27.7,50.9 35.1,38 12.6,42.2 12,42.3 12.2,42.9 	"/>
	<polygon class="st0" points="18.1,85.1 18.1,84.3 18.1,69.4 0.7,84.3 0.3,84.7 0.7,85.1 18.1,100 	"/>
	<polygon points="26.5,118.1 19,105.1 11.4,126.8 11.3,127.3 11.8,127.4 34.3,131.6 26.9,118.7 	"/>
	<polygon class="st0" points="50.7,143.1 37.7,135.6 42,158.1 42.1,158.7 42.6,158.5 64.2,150.9 51.3,143.4 	"/>
	<polygon points="84.1,152.6 69.1,152.6 84.1,170 84.4,170.4 84.8,170 99.7,152.6 84.8,152.6 	"/>
	<polygon class="st0" points="117.8,144.2 104.9,151.7 126.5,159.3 127,159.5 127.1,158.9 131.3,136.4 118.4,143.8 	"/>
	<polygon points="150.6,106.5 143.1,119.4 142.8,120.1 135.3,133 157.8,128.8 158.4,128.6 158.2,128.1 	"/>
	<polygon class="st0" points="169.7,85.9 152.4,71 152.4,85.9 152.4,86.6 152.4,101.6 169.7,86.6 170.2,86.3 	"/>
	<polygon points="143.9,52.9 151.4,65.9 159,44.2 159.2,43.7 158.6,43.6 136.1,39.4 143.6,52.3 	"/>
	<polygon class="st0" points="119.8,27.9 132.7,35.4 128.5,12.9 128.4,12.3 127.8,12.5 106.2,20.1 119.2,27.6 	"/>
	<path class="st1" d="M22.3,82.3c0-0.4,0.1-0.7,0.1-1.1C22.4,81.5,22.3,81.9,22.3,82.3z"/>
	<path class="st1" d="M32.9,50.4c0.5-0.7,1-1.4,1.4-2C33.9,49,33.4,49.7,32.9,50.4z"/>
	<path class="st1" d="M29.4,114.7c-0.3-0.6-0.7-1.3-1-1.9C28.7,113.4,29,114,29.4,114.7z"/>
	<path class="st1" d="M31.3,52.9c0.4-0.7,0.8-1.4,1.3-2C32.1,51.6,31.7,52.2,31.3,52.9z"/>
	<path class="st1" d="M24.2,69.8c0.1-0.6,0.3-1.1,0.5-1.7C24.5,68.7,24.3,69.2,24.2,69.8z"/>
	<path class="st1" d="M29.8,55.6c0.4-0.7,0.7-1.3,1.1-2C30.5,54.2,30.1,54.9,29.8,55.6z"/>
	<path class="st1" d="M26.7,108.9c-0.2-0.6-0.5-1.2-0.7-1.8C26.2,107.7,26.5,108.3,26.7,108.9z"/>
	<path class="st1" d="M34.6,47.9c0.5-0.7,1.1-1.4,1.6-2.1C35.7,46.5,35.2,47.2,34.6,47.9z"/>
	<path class="st1" d="M36.5,45.6c0.6-0.7,1.2-1.4,1.8-2.1C37.7,44.2,37.1,44.9,36.5,45.6z"/>
	<path class="st1" d="M28,111.8c-0.3-0.6-0.6-1.2-0.8-1.9C27.4,110.6,27.7,111.2,28,111.8z"/>
	<path class="st1" d="M36.3,125.1c-0.5-0.7-1.1-1.4-1.6-2.1C35.2,123.8,35.7,124.4,36.3,125.1z"/>
	<path class="st1" d="M27.1,61c0.3-0.6,0.6-1.2,0.8-1.9C27.7,59.8,27.4,60.4,27.1,61z"/>
	<path class="st1" d="M26,63.9c0.2-0.6,0.5-1.2,0.7-1.8C26.5,62.7,26.2,63.3,26,63.9z"/>
	<path class="st1" d="M25,66.8c0.2-0.6,0.4-1.2,0.6-1.8C25.4,65.6,25.2,66.2,25,66.8z"/>
	<path class="st1" d="M32.6,120.1c-0.4-0.7-0.9-1.3-1.3-2C31.7,118.7,32.1,119.4,32.6,120.1z"/>
	<path class="st1" d="M30.9,117.4c-0.4-0.7-0.8-1.3-1.1-2C30.1,116.1,30.5,116.7,30.9,117.4z"/>
	<path class="st1" d="M28.4,58.3c0.3-0.7,0.7-1.3,1-1.9C29,57,28.7,57.6,28.4,58.3z"/>
	<path class="st1" d="M24.7,102.9c-0.2-0.6-0.3-1.1-0.5-1.7C24.3,101.8,24.5,102.3,24.7,102.9z"/>
	<path class="st1" d="M40.4,129.8c-0.7-0.7-1.3-1.4-1.9-2.1C39.1,128.4,39.7,129.1,40.4,129.8z"/>
	<path class="st1" d="M22.5,79.1c0-0.5,0.1-0.9,0.2-1.4C22.7,78.1,22.6,78.6,22.5,79.1z"/>
	<path class="st1" d="M42.6,131.9c-0.7-0.7-1.4-1.3-2.1-2C41.2,130.6,41.9,131.2,42.6,131.9z"/>
	<path class="st1" d="M38.3,127.5c-0.6-0.7-1.2-1.4-1.8-2.1C37.1,126.1,37.7,126.8,38.3,127.5z"/>
	<path class="st1" d="M23.2,96.6c-0.1-0.5-0.2-1-0.3-1.5C23,95.6,23.1,96.1,23.2,96.6z"/>
	<path class="st1" d="M22.4,89.8c0-0.4-0.1-0.7-0.1-1.1C22.3,89.1,22.4,89.4,22.4,89.8z"/>
	<path class="st1" d="M23.5,72.8c0.1-0.5,0.2-1.1,0.4-1.6C23.7,71.8,23.6,72.3,23.5,72.8z"/>
	<path d="M85.2,22.5c-16.4,0-31.3,6.3-42.5,16.5c11.1-10.2,25.8-16.4,42-16.5v126c-16.2-0.1-30.9-6.4-42-16.5
		c11.2,10.3,26.1,16.5,42.5,16.5c34.8,0,63-28.2,63-63S120,22.5,85.2,22.5z"/>
	<path class="st1" d="M22.7,93.3c-0.1-0.5-0.1-0.9-0.2-1.4C22.6,92.4,22.7,92.8,22.7,93.3z"/>
	<path class="st1" d="M25.6,105.9c-0.2-0.6-0.4-1.2-0.6-1.8C25.2,104.8,25.4,105.3,25.6,105.9z"/>
	<path class="st1" d="M22.9,75.9c0.1-0.5,0.2-1,0.3-1.5C23.1,74.9,23,75.4,22.9,75.9z"/>
	<path class="st1" d="M38.5,43.3c0.6-0.7,1.3-1.4,1.9-2.1C39.7,41.9,39.1,42.6,38.5,43.3z"/>
	<path class="st1" d="M34.3,122.6c-0.5-0.7-1-1.4-1.4-2C33.4,121.3,33.9,122,34.3,122.6z"/>
	<path class="st1" d="M23.9,99.8c-0.1-0.5-0.3-1.1-0.4-1.6C23.6,98.7,23.7,99.2,23.9,99.8z"/>
	<path class="st1" d="M40.5,41.1c0.7-0.7,1.4-1.4,2.1-2C41.9,39.7,41.2,40.4,40.5,41.1z"/>
	<path class="st0" d="M84.7,22.5c-16.2,0.1-30.9,6.4-42,16.5c0,0,0,0-0.1,0c-0.7,0.7-1.4,1.3-2.1,2c0,0-0.1,0.1-0.1,0.1
		c-0.7,0.7-1.3,1.4-1.9,2.1c-0.1,0.1-0.1,0.1-0.2,0.2c-0.6,0.7-1.2,1.4-1.8,2.1c-0.1,0.1-0.2,0.2-0.2,0.3c-0.5,0.7-1.1,1.4-1.6,2.1
		c-0.1,0.1-0.2,0.3-0.3,0.4c-0.5,0.7-1,1.4-1.4,2c-0.1,0.2-0.2,0.4-0.3,0.5c-0.4,0.7-0.9,1.3-1.3,2c-0.1,0.2-0.2,0.4-0.4,0.6
		c-0.4,0.7-0.8,1.3-1.1,2c-0.1,0.3-0.3,0.5-0.4,0.8c-0.3,0.6-0.7,1.3-1,1.9c-0.1,0.3-0.3,0.6-0.4,0.9c-0.3,0.6-0.6,1.2-0.8,1.9
		c-0.1,0.3-0.3,0.7-0.4,1.1c-0.2,0.6-0.5,1.2-0.7,1.8c-0.1,0.4-0.3,0.8-0.4,1.2c-0.2,0.6-0.4,1.2-0.6,1.8c-0.1,0.4-0.2,0.9-0.4,1.3
		c-0.2,0.6-0.3,1.1-0.5,1.7c-0.1,0.5-0.2,0.9-0.3,1.4c-0.1,0.5-0.3,1.1-0.4,1.6c-0.1,0.5-0.2,1-0.3,1.6c-0.1,0.5-0.2,1-0.3,1.5
		c-0.1,0.6-0.2,1.2-0.2,1.8c-0.1,0.5-0.1,0.9-0.2,1.4c-0.1,0.7-0.1,1.4-0.2,2.1c0,0.4-0.1,0.7-0.1,1.1c-0.1,1.1-0.1,2.1-0.1,3.2
		s0,2.2,0.1,3.2c0,0.4,0.1,0.7,0.1,1.1c0,0.7,0.1,1.4,0.2,2.1c0,0.5,0.1,0.9,0.2,1.4c0.1,0.6,0.1,1.2,0.2,1.8c0.1,0.5,0.2,1,0.3,1.5
		c0.1,0.5,0.2,1.1,0.3,1.6c0.1,0.5,0.2,1.1,0.4,1.6c0.1,0.5,0.2,1,0.3,1.4c0.1,0.6,0.3,1.1,0.5,1.7c0.1,0.4,0.2,0.9,0.4,1.3
		c0.2,0.6,0.4,1.2,0.6,1.8c0.1,0.4,0.3,0.8,0.4,1.2c0.2,0.6,0.5,1.2,0.7,1.8c0.1,0.3,0.3,0.7,0.4,1.1c0.3,0.6,0.6,1.2,0.8,1.9
		c0.1,0.3,0.3,0.6,0.4,0.9c0.3,0.7,0.7,1.3,1,1.9c0.1,0.3,0.3,0.5,0.4,0.8c0.4,0.7,0.7,1.3,1.1,2c0.1,0.2,0.2,0.4,0.4,0.6
		c0.4,0.7,0.9,1.4,1.3,2c0.1,0.2,0.2,0.3,0.3,0.5c0.5,0.7,1,1.4,1.4,2c0.1,0.1,0.2,0.3,0.3,0.4c0.5,0.7,1.1,1.4,1.6,2.1
		c0.1,0.1,0.2,0.2,0.2,0.3c0.6,0.7,1.2,1.4,1.8,2.1c0.1,0.1,0.1,0.1,0.2,0.2c0.6,0.7,1.3,1.4,1.9,2.1c0,0,0.1,0.1,0.1,0.1
		c0.7,0.7,1.4,1.4,2.1,2c0,0,0,0,0.1,0c11.1,10.2,25.8,16.4,42,16.5L84.7,22.5L84.7,22.5z"/>
</g>
</svg>
