<?xml version="1.0" encoding="iso-8859-1"?>
<!-- Generator: Adobe Illustrator 18.0.0, SVG Export Plug-In . SVG Version: 6.00 Build 0)  -->
<!DOCTYPE svg PUBLIC "-//W3C//DTD SVG 1.1//EN" "http://www.w3.org/Graphics/SVG/1.1/DTD/svg11.dtd">
<svg version="1.1" id="Capa_1" xmlns="http://www.w3.org/2000/svg" xmlns:xlink="http://www.w3.org/1999/xlink" x="0px" y="0px"
	 viewBox="0 0 170.439 170.439" style="enable-background:new 0 0 170.439 170.439;" xml:space="preserve">
<g>
	<polygon style="fill:#FFC80A;" points="85.584,17.818 100.516,17.818 85.584,0.425 85.22,0 84.855,0.425 69.924,17.818 
		84.855,17.818 	"/>
	<polygon style="fill:#F7A663;" points="51.7,26.702 64.63,19.236 43.002,11.639 42.475,11.454 42.372,12.004 38.137,34.532 
		51.068,27.067 	"/>
	<polygon style="fill:#FFC80A;" points="19.828,64.489 27.294,51.558 27.658,50.927 35.124,37.996 12.596,42.23 12.045,42.334 
		12.231,42.862 	"/>
	<polygon style="fill:#F7A663;" points="18.088,85.067 18.088,84.338 18.088,69.407 0.695,84.338 0.271,84.703 0.695,85.067 
		18.088,99.998 	"/>
	<polygon style="fill:#FFC80A;" points="26.506,118.058 19.041,105.127 11.442,126.754 11.257,127.283 11.808,127.386 
		34.336,131.621 26.871,118.689 	"/>
	<polygon style="fill:#F7A663;" points="50.657,143.051 37.725,135.586 41.959,158.114 42.063,158.665 42.591,158.479 
		64.218,150.881 51.287,143.415 	"/>
	<polygon style="fill:#FFC80A;" points="84.067,152.621 69.136,152.621 84.066,170.015 84.432,170.439 84.796,170.015 
		99.727,152.621 84.796,152.621 	"/>
	<polygon style="fill:#F7A663;" points="117.787,144.203 104.856,151.669 126.482,159.267 127.013,159.452 127.115,158.902 
		131.349,136.374 118.418,143.839 	"/>
	<polygon style="fill:#FFC80A;" points="150.611,106.492 143.145,119.421 142.78,120.053 135.315,132.984 157.843,128.751 
		158.393,128.646 158.208,128.118 	"/>
	<polygon style="fill:#F7A663;" points="169.744,85.913 152.35,70.983 152.35,85.913 152.35,86.643 152.35,101.573 169.743,86.643 
		170.168,86.278 	"/>
	<polygon style="fill:#FFC80A;" points="143.932,52.923 151.398,65.853 158.996,44.227 159.182,43.697 158.632,43.594 
		136.103,39.361 143.568,52.291 	"/>
	<polygon style="fill:#F7A663;" points="119.782,27.93 132.714,35.395 128.479,12.867 128.375,12.315 127.848,12.501 
		106.221,20.099 119.151,27.564 	"/>
	<path style="fill:#FDD633;" d="M22.302,82.256c0.019-0.363,0.058-0.721,0.082-1.083C22.36,81.535,22.321,81.893,22.302,82.256z"/>
	<path style="fill:#FDD633;" d="M32.903,50.388c0.466-0.693,0.953-1.371,1.445-2.044C33.855,49.017,33.369,49.694,32.903,50.388z"/>
	<path style="fill:#FDD633;" d="M29.382,114.656c-0.336-0.642-0.673-1.284-0.987-1.939
		C28.708,113.372,29.046,114.014,29.382,114.656z"/>
	<path style="fill:#FDD633;" d="M31.279,52.933c0.413-0.683,0.848-1.352,1.286-2.018C32.126,51.581,31.692,52.249,31.279,52.933z"/>
	<path style="fill:#FDD633;" d="M24.194,69.789c0.147-0.572,0.318-1.133,0.481-1.699C24.512,68.656,24.341,69.218,24.194,69.789z"/>
	<path style="fill:#FDD633;" d="M29.774,55.56c0.363-0.671,0.748-1.327,1.134-1.983C30.522,54.232,30.137,54.889,29.774,55.56z"/>
	<path style="fill:#FDD633;" d="M26.727,108.886c-0.239-0.597-0.484-1.191-0.705-1.797
		C26.243,107.694,26.488,108.289,26.727,108.886z"/>
	<path style="fill:#FDD633;" d="M34.643,47.929c0.521-0.701,1.063-1.386,1.612-2.063C35.705,46.543,35.164,47.228,34.643,47.929z"/>
	<path style="fill:#FDD633;" d="M36.495,45.56c0.579-0.705,1.176-1.394,1.784-2.072C37.67,44.167,37.073,44.855,36.495,45.56z"/>
	<path style="fill:#FDD633;" d="M27.982,111.807c-0.285-0.62-0.574-1.237-0.84-1.868C27.408,110.569,27.697,111.187,27.982,111.807z
		"/>
	<path style="fill:#FDD633;" d="M36.254,125.116c-0.549-0.678-1.09-1.363-1.612-2.063C35.164,123.753,35.705,124.438,36.254,125.116
		z"/>
	<path style="fill:#FDD633;" d="M27.142,61.042c0.266-0.63,0.554-1.248,0.84-1.867C27.697,59.794,27.408,60.412,27.142,61.042z"/>
	<path style="fill:#FDD633;" d="M26.022,63.893c0.221-0.606,0.466-1.201,0.705-1.798C26.488,62.693,26.243,63.287,26.022,63.893z"/>
	<path style="fill:#FDD633;" d="M25.038,66.811c0.183-0.59,0.391-1.17,0.59-1.752C25.428,65.641,25.221,66.22,25.038,66.811z"/>
	<path style="fill:#FDD633;" d="M32.571,120.075c-0.441-0.669-0.877-1.34-1.292-2.026C31.694,118.735,32.13,119.407,32.571,120.075z
		"/>
	<path style="fill:#FDD633;" d="M30.908,117.405c-0.386-0.656-0.771-1.313-1.134-1.983
		C30.137,116.092,30.522,116.749,30.908,117.405z"/>
	<path style="fill:#FDD633;" d="M28.395,58.264c0.314-0.655,0.651-1.296,0.987-1.938C29.046,56.967,28.708,57.609,28.395,58.264z"/>
	<path style="fill:#FDD633;" d="M24.673,102.885c-0.162-0.563-0.333-1.123-0.479-1.693C24.34,101.762,24.511,102.322,24.673,102.885
		z"/>
	<path style="fill:#FDD633;" d="M40.401,129.753c-0.663-0.672-1.314-1.355-1.947-2.056
		C39.087,128.398,39.738,129.081,40.401,129.753z"/>
	<path style="fill:#FDD633;" d="M22.545,79.065c0.047-0.465,0.118-0.922,0.175-1.384C22.663,78.144,22.592,78.601,22.545,79.065z"/>
	<path style="fill:#FDD633;" d="M42.633,131.907c-0.72-0.66-1.425-1.337-2.114-2.03C41.208,130.57,41.914,131.246,42.633,131.907z"
		/>
	<path style="fill:#FDD633;" d="M38.279,127.494c-0.608-0.679-1.206-1.368-1.784-2.073
		C37.073,126.126,37.671,126.815,38.279,127.494z"/>
	<path style="fill:#FDD633;" d="M23.213,96.58c-0.09-0.507-0.192-1.009-0.27-1.52C23.021,95.571,23.124,96.073,23.213,96.58z"/>
	<path style="fill:#FDD633;" d="M22.384,89.808c-0.024-0.361-0.063-0.719-0.082-1.083C22.321,89.088,22.36,89.446,22.384,89.808z"/>
	<path style="fill:#FDD633;" d="M23.495,72.828c0.111-0.543,0.246-1.077,0.371-1.614C23.741,71.751,23.605,72.285,23.495,72.828z"/>
	<path style="fill:#FDD633;" d="M85.22,22.491c-16.397,0-31.327,6.268-42.535,16.534c11.095-10.158,25.839-16.396,42.039-16.521
		v125.973c-16.2-0.126-30.944-6.363-42.039-16.521c11.208,10.266,26.138,16.534,42.535,16.534c34.793,0,62.999-28.205,62.999-62.999
		S120.013,22.491,85.22,22.491z"/>
	<path style="fill:#FDD633;" d="M22.719,93.294c-0.057-0.459-0.127-0.915-0.174-1.378C22.592,92.379,22.662,92.835,22.719,93.294z"
		/>
	<path style="fill:#FDD633;" d="M25.628,105.923c-0.2-0.583-0.407-1.162-0.59-1.752C25.221,104.761,25.428,105.341,25.628,105.923z"
		/>
	<path style="fill:#FDD633;" d="M22.943,75.921c0.078-0.511,0.18-1.014,0.271-1.521C23.124,74.908,23.021,75.411,22.943,75.921z"/>
	<path style="fill:#FDD633;" d="M38.454,43.284c0.633-0.701,1.284-1.385,1.947-2.056C39.738,41.899,39.087,42.583,38.454,43.284z"/>
	<path style="fill:#FDD633;" d="M34.35,122.64c-0.494-0.674-0.981-1.353-1.448-2.047C33.369,121.287,33.856,121.966,34.35,122.64z"
		/>
	<path style="fill:#FDD633;" d="M23.865,99.767c-0.125-0.538-0.26-1.071-0.371-1.614C23.605,98.696,23.741,99.229,23.865,99.767z"/>
	<path style="fill:#FDD633;" d="M40.52,41.104c0.689-0.693,1.394-1.369,2.114-2.03C41.914,39.735,41.208,40.411,40.52,41.104z"/>
	<path style="fill:#F4CA19;" d="M84.724,22.504c-16.2,0.125-30.944,6.364-42.039,16.521c-0.018,0.016-0.034,0.033-0.051,0.049
		c-0.72,0.661-1.425,1.337-2.114,2.03c-0.04,0.041-0.078,0.083-0.118,0.124c-0.663,0.671-1.314,1.355-1.947,2.056
		c-0.06,0.066-0.116,0.137-0.176,0.204c-0.608,0.679-1.205,1.367-1.784,2.072c-0.082,0.1-0.159,0.205-0.24,0.306
		c-0.549,0.678-1.09,1.363-1.612,2.063c-0.101,0.136-0.194,0.277-0.294,0.414c-0.493,0.673-0.979,1.352-1.445,2.044
		c-0.117,0.173-0.223,0.353-0.338,0.527c-0.438,0.666-0.873,1.335-1.286,2.018c-0.128,0.211-0.245,0.431-0.371,0.644
		c-0.386,0.656-0.771,1.313-1.134,1.983c-0.136,0.252-0.259,0.512-0.392,0.766c-0.336,0.642-0.673,1.284-0.987,1.938
		c-0.144,0.3-0.273,0.609-0.412,0.912c-0.286,0.619-0.574,1.237-0.84,1.867c-0.146,0.347-0.275,0.703-0.415,1.053
		c-0.239,0.597-0.484,1.191-0.705,1.798c-0.14,0.384-0.261,0.777-0.394,1.165c-0.2,0.583-0.407,1.162-0.59,1.752
		c-0.131,0.422-0.241,0.854-0.363,1.28c-0.162,0.565-0.333,1.127-0.481,1.699c-0.121,0.471-0.219,0.95-0.329,1.424
		c-0.125,0.538-0.26,1.071-0.371,1.614c-0.107,0.52-0.188,1.048-0.281,1.573c-0.09,0.507-0.192,1.01-0.271,1.521
		c-0.089,0.582-0.151,1.173-0.224,1.76c-0.057,0.462-0.128,0.919-0.175,1.384c-0.071,0.698-0.113,1.404-0.161,2.108
		c-0.024,0.361-0.063,0.719-0.082,1.083c-0.054,1.071-0.081,2.149-0.081,3.234s0.028,2.163,0.081,3.234
		c0.019,0.363,0.058,0.721,0.082,1.083c0.048,0.705,0.09,1.411,0.161,2.108c0.047,0.463,0.117,0.919,0.174,1.378
		c0.073,0.589,0.135,1.182,0.224,1.766c0.078,0.511,0.18,1.013,0.27,1.52c0.094,0.524,0.175,1.053,0.281,1.573
		c0.111,0.543,0.246,1.076,0.371,1.614c0.11,0.475,0.208,0.954,0.329,1.425c0.146,0.57,0.317,1.13,0.479,1.693
		c0.123,0.428,0.233,0.861,0.365,1.286c0.183,0.59,0.391,1.17,0.59,1.752c0.133,0.388,0.254,0.781,0.394,1.165
		c0.221,0.606,0.466,1.2,0.705,1.797c0.141,0.35,0.269,0.706,0.415,1.053c0.266,0.63,0.555,1.248,0.84,1.868
		c0.14,0.303,0.268,0.611,0.412,0.911c0.314,0.655,0.651,1.297,0.987,1.939c0.133,0.254,0.256,0.514,0.392,0.766
		c0.363,0.67,0.748,1.327,1.134,1.983c0.125,0.213,0.242,0.433,0.371,0.644c0.415,0.686,0.851,1.358,1.292,2.026
		c0.112,0.171,0.217,0.348,0.332,0.518c0.467,0.694,0.954,1.374,1.448,2.047c0.099,0.136,0.192,0.277,0.292,0.412
		c0.521,0.701,1.063,1.386,1.612,2.063c0.082,0.101,0.158,0.206,0.24,0.306c0.579,0.705,1.176,1.394,1.784,2.073
		c0.059,0.067,0.116,0.137,0.176,0.203c0.633,0.701,1.284,1.384,1.947,2.056c0.04,0.04,0.078,0.083,0.118,0.124
		c0.689,0.693,1.394,1.37,2.114,2.03c0.017,0.016,0.034,0.033,0.051,0.049c11.095,10.158,25.839,16.396,42.039,16.521V22.504z"/>
</g>
<g>
</g>
<g>
</g>
<g>
</g>
<g>
</g>
<g>
</g>
<g>
</g>
<g>
</g>
<g>
</g>
<g>
</g>
<g>
</g>
<g>
</g>
<g>
</g>
<g>
</g>
<g>
</g>
<g>
</g>
</svg>
