<?xml version="1.0" encoding="utf-8"?>
<!-- Generator: Adobe Illustrator 19.2.1, SVG Export Plug-In . SVG Version: 6.00 Build 0)  -->
<svg version="1.1" id="Livello_1" xmlns="http://www.w3.org/2000/svg" xmlns:xlink="http://www.w3.org/1999/xlink" x="0px" y="0px"
	 viewBox="0 0 457.4 457.5" style="enable-background:new 0 0 457.4 457.5;" xml:space="preserve">
<style type="text/css">
	.st0{fill:#58575D;}
	.st1{display:none;fill:#58575D;}
	.st2{fill:#787781;}
	.st3{display:none;fill:#787781;}
	.st4{fill:#49484C;}
	.st5{display:none;fill:#3F3E43;}
	.st6{display:none;fill:#49484C;}
	.st7{opacity:0.56;fill:#49484C;enable-background:new    ;}
	.st8{display:none;opacity:0.56;fill:#49484C;enable-background:new    ;}
	.st9{fill:#8C846F;}
	.st10{fill:#A09A8E;}
</style>
<path class="st0" d="M409.8,59H12.2c-4.1,0-7.4-3.3-7.4-7.4V12.4C4.8,8.3,8.1,5,12.2,5h397.6c4.1,0,7.4,3.3,7.4,7.4v39.1
	C417.3,55.6,413.9,59,409.8,59z"/>
<path class="st0" d="M409.8,121.2H12.2c-4.1,0-7.4-3.3-7.4-7.4V74.6c0-4.1,3.3-7.4,7.4-7.4h397.6c4.1,0,7.4,3.3,7.4,7.4v39.1
	C417.3,117.9,413.9,121.2,409.8,121.2z"/>
<path class="st1" d="M409.8,267.4H12.2c-4.1,0-7.4-3.3-7.4-7.4v-39.1c0-4.1,3.3-7.4,7.4-7.4h397.6c4.1,0,7.4,3.3,7.4,7.4V260
	C417.3,264.1,413.9,267.4,409.8,267.4z"/>
<path class="st1" d="M409.8,329.2H12.2c-4.1,0-7.4-3.3-7.4-7.4v-39.1c0-4.1,3.3-7.4,7.4-7.4h397.6c4.1,0,7.4,3.3,7.4,7.4v39.1
	C417.3,325.9,413.9,329.2,409.8,329.2z"/>
<path class="st2" d="M20.1,59v8.2H402V59H20.1z M41.7,64.7c-2,0-3.7-0.7-3.7-1.6s1.7-1.6,3.7-1.6s3.7,0.7,3.7,1.6
	S43.7,64.7,41.7,64.7z M59.6,64.7c-2,0-3.7-0.7-3.7-1.6s1.7-1.6,3.7-1.6s3.7,0.7,3.7,1.6S61.6,64.7,59.6,64.7z M77.5,64.7
	c-2,0-3.7-0.7-3.7-1.6s1.7-1.6,3.7-1.6s3.7,0.7,3.7,1.6S79.5,64.7,77.5,64.7z M95.4,64.7c-2,0-3.7-0.7-3.7-1.6s1.7-1.6,3.7-1.6
	s3.7,0.7,3.7,1.6S97.4,64.7,95.4,64.7z M113.2,64.7c-2,0-3.7-0.7-3.7-1.6s1.7-1.6,3.7-1.6s3.7,0.7,3.7,1.6S115.3,64.7,113.2,64.7z
	 M131.1,64.7c-2,0-3.7-0.7-3.7-1.6s1.7-1.6,3.7-1.6s3.7,0.7,3.7,1.6S133.2,64.7,131.1,64.7z M149,64.7c-2,0-3.7-0.7-3.7-1.6
	s1.7-1.6,3.7-1.6s3.7,0.7,3.7,1.6S151.1,64.7,149,64.7z M166.9,64.7c-2,0-3.7-0.7-3.7-1.6s1.7-1.6,3.7-1.6s3.7,0.7,3.7,1.6
	S168.9,64.7,166.9,64.7z M184.8,64.7c-2,0-3.7-0.7-3.7-1.6s1.7-1.6,3.7-1.6s3.7,0.7,3.7,1.6S186.8,64.7,184.8,64.7z M202.7,64.7
	c-2,0-3.7-0.7-3.7-1.6s1.7-1.6,3.7-1.6s3.7,0.7,3.7,1.6S204.7,64.7,202.7,64.7z M220.6,64.7c-2,0-3.7-0.7-3.7-1.6s1.7-1.6,3.7-1.6
	s3.7,0.7,3.7,1.6S222.6,64.7,220.6,64.7z M238.4,64.7c-2,0-3.7-0.7-3.7-1.6s1.7-1.6,3.7-1.6s3.7,0.7,3.7,1.6S240.5,64.7,238.4,64.7z
	 M256.3,64.7c-2,0-3.7-0.7-3.7-1.6s1.7-1.6,3.7-1.6s3.7,0.7,3.7,1.6S258.4,64.7,256.3,64.7z M274.2,64.7c-2,0-3.7-0.7-3.7-1.6
	s1.7-1.6,3.7-1.6s3.7,0.7,3.7,1.6S276.3,64.7,274.2,64.7z M292.1,64.7c-2,0-3.7-0.7-3.7-1.6s1.7-1.6,3.7-1.6s3.7,0.7,3.7,1.6
	S294.1,64.7,292.1,64.7z M310,64.7c-2,0-3.7-0.7-3.7-1.6s1.7-1.6,3.7-1.6s3.7,0.7,3.7,1.6S312,64.7,310,64.7z M327.9,64.7
	c-2,0-3.7-0.7-3.7-1.6s1.7-1.6,3.7-1.6s3.7,0.7,3.7,1.6S329.9,64.7,327.9,64.7z M345.8,64.7c-2,0-3.7-0.7-3.7-1.6s1.7-1.6,3.7-1.6
	s3.7,0.7,3.7,1.6S347.8,64.7,345.8,64.7z M363.6,64.7c-2,0-3.7-0.7-3.7-1.6s1.7-1.6,3.7-1.6s3.7,0.7,3.7,1.6S365.7,64.7,363.6,64.7z
	 M381.5,64.7c-2,0-3.7-0.7-3.7-1.6s1.7-1.6,3.7-1.6s3.7,0.7,3.7,1.6S383.6,64.7,381.5,64.7z"/>
<rect x="22.4" y="205" class="st3" width="438.9" height="8.2"/>
<rect x="22.4" y="267.6" class="st3" width="438.9" height="8.2"/>
<path class="st4" d="M417.3,12.4V32H4.8V12.4C4.8,8.3,7.7,5,11.3,5h399.5C414.4,5,417.3,8.3,417.3,12.4z"/>
<path class="st5" d="M478.9,116v27h-7.5c4.1,0,7.4-3.3,7.4-7.4L478.9,116L478.9,116z"/>
<path class="st3" d="M20.1,205.2v8.2H402v-8.2H20.1z M41.7,211c-2,0-3.7-0.7-3.7-1.6s1.7-1.6,3.7-1.6s3.7,0.7,3.7,1.6
	S43.7,211,41.7,211z M59.6,211c-2,0-3.7-0.7-3.7-1.6s1.7-1.6,3.7-1.6s3.7,0.7,3.7,1.6S61.6,211,59.6,211z M77.5,211
	c-2,0-3.7-0.7-3.7-1.6s1.7-1.6,3.7-1.6s3.7,0.7,3.7,1.6S79.5,211,77.5,211z M95.4,211c-2,0-3.7-0.7-3.7-1.6s1.7-1.6,3.7-1.6
	s3.7,0.7,3.7,1.6S97.4,211,95.4,211z M113.2,211c-2,0-3.7-0.7-3.7-1.6s1.7-1.6,3.7-1.6s3.7,0.7,3.7,1.6S115.3,211,113.2,211z
	 M131.1,211c-2,0-3.7-0.7-3.7-1.6s1.7-1.6,3.7-1.6s3.7,0.7,3.7,1.6S133.2,211,131.1,211z M149,211c-2,0-3.7-0.7-3.7-1.6
	s1.7-1.6,3.7-1.6s3.7,0.7,3.7,1.6S151.1,211,149,211z M166.9,211c-2,0-3.7-0.7-3.7-1.6s1.7-1.6,3.7-1.6s3.7,0.7,3.7,1.6
	S168.9,211,166.9,211z M184.8,211c-2,0-3.7-0.7-3.7-1.6s1.7-1.6,3.7-1.6s3.7,0.7,3.7,1.6S186.8,211,184.8,211z M202.7,211
	c-2,0-3.7-0.7-3.7-1.6s1.7-1.6,3.7-1.6s3.7,0.7,3.7,1.6S204.7,211,202.7,211z M220.6,211c-2,0-3.7-0.7-3.7-1.6s1.7-1.6,3.7-1.6
	s3.7,0.7,3.7,1.6S222.6,211,220.6,211z M238.4,211c-2,0-3.7-0.7-3.7-1.6s1.7-1.6,3.7-1.6s3.7,0.7,3.7,1.6S240.5,211,238.4,211z
	 M256.3,211c-2,0-3.7-0.7-3.7-1.6s1.7-1.6,3.7-1.6s3.7,0.7,3.7,1.6S258.4,211,256.3,211z M274.2,211c-2,0-3.7-0.7-3.7-1.6
	s1.7-1.6,3.7-1.6s3.7,0.7,3.7,1.6S276.3,211,274.2,211z M292.1,211c-2,0-3.7-0.7-3.7-1.6s1.7-1.6,3.7-1.6s3.7,0.7,3.7,1.6
	S294.1,211,292.1,211z M310,211c-2,0-3.7-0.7-3.7-1.6s1.7-1.6,3.7-1.6s3.7,0.7,3.7,1.6S312,211,310,211z M327.9,211
	c-2,0-3.7-0.7-3.7-1.6s1.7-1.6,3.7-1.6s3.7,0.7,3.7,1.6S329.9,211,327.9,211z M345.8,211c-2,0-3.7-0.7-3.7-1.6s1.7-1.6,3.7-1.6
	s3.7,0.7,3.7,1.6S347.8,211,345.8,211z M363.6,211c-2,0-3.7-0.7-3.7-1.6s1.7-1.6,3.7-1.6s3.7,0.7,3.7,1.6S365.7,211,363.6,211z
	 M381.5,211c-2,0-3.7-0.7-3.7-1.6s1.7-1.6,3.7-1.6s3.7,0.7,3.7,1.6S383.6,211,381.5,211z"/>
<path class="st3" d="M20.1,267.4v8.2H402v-8.2H20.1z M41.7,273.2c-2,0-3.7-0.7-3.7-1.6c0-0.9,1.7-1.6,3.7-1.6s3.7,0.7,3.7,1.6
	C45.4,272.5,43.7,273.2,41.7,273.2z M59.6,273.2c-2,0-3.7-0.7-3.7-1.6c0-0.9,1.7-1.6,3.7-1.6s3.7,0.7,3.7,1.6
	C63.3,272.5,61.6,273.2,59.6,273.2z M77.5,273.2c-2,0-3.7-0.7-3.7-1.6c0-0.9,1.7-1.6,3.7-1.6s3.7,0.7,3.7,1.6
	C81.2,272.5,79.5,273.2,77.5,273.2z M95.4,273.2c-2,0-3.7-0.7-3.7-1.6c0-0.9,1.7-1.6,3.7-1.6s3.7,0.7,3.7,1.6
	C99.1,272.5,97.4,273.2,95.4,273.2z M113.2,273.2c-2,0-3.7-0.7-3.7-1.6c0-0.9,1.7-1.6,3.7-1.6s3.7,0.7,3.7,1.6
	C116.9,272.5,115.3,273.2,113.2,273.2z M131.1,273.2c-2,0-3.7-0.7-3.7-1.6c0-0.9,1.7-1.6,3.7-1.6s3.7,0.7,3.7,1.6
	C134.8,272.5,133.2,273.2,131.1,273.2z M149,273.2c-2,0-3.7-0.7-3.7-1.6c0-0.9,1.7-1.6,3.7-1.6s3.7,0.7,3.7,1.6
	C152.7,272.5,151.1,273.2,149,273.2z M166.9,273.2c-2,0-3.7-0.7-3.7-1.6c0-0.9,1.7-1.6,3.7-1.6s3.7,0.7,3.7,1.6
	C170.6,272.5,168.9,273.2,166.9,273.2z M184.8,273.2c-2,0-3.7-0.7-3.7-1.6c0-0.9,1.7-1.6,3.7-1.6s3.7,0.7,3.7,1.6
	C188.5,272.5,186.8,273.2,184.8,273.2z M202.7,273.2c-2,0-3.7-0.7-3.7-1.6c0-0.9,1.7-1.6,3.7-1.6s3.7,0.7,3.7,1.6
	C206.4,272.5,204.7,273.2,202.7,273.2z M220.6,273.2c-2,0-3.7-0.7-3.7-1.6c0-0.9,1.7-1.6,3.7-1.6s3.7,0.7,3.7,1.6
	C224.3,272.5,222.6,273.2,220.6,273.2z M238.4,273.2c-2,0-3.7-0.7-3.7-1.6c0-0.9,1.7-1.6,3.7-1.6s3.7,0.7,3.7,1.6
	C242.1,272.5,240.5,273.2,238.4,273.2z M256.3,273.2c-2,0-3.7-0.7-3.7-1.6c0-0.9,1.7-1.6,3.7-1.6s3.7,0.7,3.7,1.6
	C260,272.5,258.4,273.2,256.3,273.2z M274.2,273.2c-2,0-3.7-0.7-3.7-1.6c0-0.9,1.7-1.6,3.7-1.6s3.7,0.7,3.7,1.6
	C277.9,272.5,276.3,273.2,274.2,273.2z M292.1,273.2c-2,0-3.7-0.7-3.7-1.6c0-0.9,1.7-1.6,3.7-1.6s3.7,0.7,3.7,1.6
	C295.8,272.5,294.1,273.2,292.1,273.2z M310,273.2c-2,0-3.7-0.7-3.7-1.6c0-0.9,1.7-1.6,3.7-1.6s3.7,0.7,3.7,1.6
	C313.7,272.5,312,273.2,310,273.2z M327.9,273.2c-2,0-3.7-0.7-3.7-1.6c0-0.9,1.7-1.6,3.7-1.6s3.7,0.7,3.7,1.6
	C331.6,272.5,329.9,273.2,327.9,273.2z M345.8,273.2c-2,0-3.7-0.7-3.7-1.6c0-0.9,1.7-1.6,3.7-1.6s3.7,0.7,3.7,1.6
	C349.5,272.5,347.8,273.2,345.8,273.2z M363.6,273.2c-2,0-3.7-0.7-3.7-1.6c0-0.9,1.7-1.6,3.7-1.6s3.7,0.7,3.7,1.6
	C367.3,272.5,365.7,273.2,363.6,273.2z M381.5,273.2c-2,0-3.7-0.7-3.7-1.6c0-0.9,1.7-1.6,3.7-1.6s3.7,0.7,3.7,1.6
	C385.2,272.5,383.6,273.2,381.5,273.2z"/>
<path class="st4" d="M417.3,74.6v19.6H4.8V74.6c0-4.1,2.9-7.4,6.5-7.4h399.5C414.4,67.2,417.3,70.5,417.3,74.6z"/>
<path class="st6" d="M417.3,220.8v19.6H4.8v-19.6c0-4.1,2.9-7.4,6.5-7.4h399.5C414.4,213.4,417.3,216.7,417.3,220.8z"/>
<path class="st6" d="M417.3,283.1v19.6H4.8v-19.6c0-4.1,2.9-7.4,6.5-7.4h399.5C414.4,275.7,417.3,279,417.3,283.1z"/>
<path class="st0" d="M478.9,198.6v0.4c0-4.1-3.3-7.4-7.4-7.4h-10.2v-0.4h10.2C475.6,191.2,478.9,194.5,478.9,198.6z"/>
<path class="st7" d="M410.8,59c3.6,0,6.4-3.3,6.4-7.4V12.4c0-4.1-2.9-7.4-6.4-7.4H211v116.2h199.8c3.6,0,6.4-3.3,6.4-7.4V74.6
	c0-4.1-2.9-7.4-6.4-7.4H402V59H410.8z M220.6,64.7c-2,0-3.7-0.7-3.7-1.6s1.7-1.6,3.7-1.6s3.7,0.7,3.7,1.6
	C224.2,64,222.6,64.7,220.6,64.7z M238.4,64.7c-2,0-3.7-0.7-3.7-1.6s1.7-1.6,3.7-1.6s3.7,0.7,3.7,1.6
	C242.1,64,240.5,64.7,238.4,64.7z M256.3,64.7c-2,0-3.7-0.7-3.7-1.6s1.7-1.6,3.7-1.6s3.7,0.7,3.7,1.6S258.4,64.7,256.3,64.7z
	 M274.2,64.7c-2,0-3.7-0.7-3.7-1.6s1.7-1.6,3.7-1.6s3.7,0.7,3.7,1.6C277.9,64,276.3,64.7,274.2,64.7z M292.1,64.7
	c-2,0-3.7-0.7-3.7-1.6s1.7-1.6,3.7-1.6s3.7,0.7,3.7,1.6C295.8,64,294.1,64.7,292.1,64.7z M310,64.7c-2,0-3.7-0.7-3.7-1.6
	s1.7-1.6,3.7-1.6s3.7,0.7,3.7,1.6S312,64.7,310,64.7z M327.9,64.7c-2,0-3.7-0.7-3.7-1.6s1.7-1.6,3.7-1.6s3.7,0.7,3.7,1.6
	S329.9,64.7,327.9,64.7z M345.8,64.7c-2,0-3.7-0.7-3.7-1.6s1.6-1.6,3.7-1.6c2,0,3.7,0.7,3.7,1.6S347.8,64.7,345.8,64.7z M363.7,64.7
	c-2,0-3.7-0.7-3.7-1.6s1.7-1.6,3.7-1.6s3.7,0.7,3.7,1.6C367.3,64,365.7,64.7,363.7,64.7z M381.5,64.7c-2,0-3.7-0.7-3.7-1.6
	s1.7-1.6,3.7-1.6s3.7,0.7,3.7,1.6S383.6,64.7,381.5,64.7z"/>
<path class="st8" d="M410.8,213.4H402v-8.2H211v124h199.8c3.6,0,6.4-3.3,6.4-7.4v-38.7c0-4.1-2.9-7.4-6.4-7.4H402v-8.2h8.9
	c3.6,0,6.4-3.3,6.4-7.4v-39.2C417.3,216.8,414.4,213.4,410.8,213.4z M220.6,273.2c-2,0-3.7-0.7-3.7-1.7c0-0.9,1.7-1.6,3.7-1.6
	s3.7,0.7,3.7,1.6C224.2,272.4,222.6,273.2,220.6,273.2z M220.6,211c-2,0-3.7-0.7-3.7-1.6c0-0.9,1.7-1.7,3.7-1.7s3.7,0.7,3.7,1.7
	C224.2,210.2,222.6,211,220.6,211z M238.4,273.2c-2,0-3.7-0.7-3.7-1.7c0-0.9,1.7-1.6,3.7-1.6s3.7,0.7,3.7,1.6
	C242.1,272.4,240.5,273.2,238.4,273.2z M238.4,211c-2,0-3.7-0.7-3.7-1.6c0-0.9,1.7-1.7,3.7-1.7s3.7,0.7,3.7,1.7
	C242.1,210.2,240.5,211,238.4,211z M256.3,273.2c-2,0-3.7-0.7-3.7-1.7c0-0.9,1.7-1.6,3.7-1.6s3.7,0.7,3.7,1.6
	C260,272.4,258.4,273.2,256.3,273.2z M256.3,211c-2,0-3.7-0.7-3.7-1.6c0-0.9,1.7-1.7,3.7-1.7s3.7,0.7,3.7,1.7
	C260,210.2,258.4,211,256.3,211z M274.2,273.2c-2,0-3.7-0.7-3.7-1.7c0-0.9,1.7-1.6,3.7-1.6s3.7,0.7,3.7,1.6
	C277.9,272.4,276.3,273.2,274.2,273.2z M274.2,211c-2,0-3.7-0.7-3.7-1.6c0-0.9,1.7-1.7,3.7-1.7s3.7,0.7,3.7,1.7
	C277.9,210.2,276.3,211,274.2,211z M292.1,273.2c-2,0-3.7-0.7-3.7-1.7c0-0.9,1.7-1.6,3.7-1.6s3.7,0.7,3.7,1.6
	C295.8,272.4,294.1,273.2,292.1,273.2z M292.1,211c-2,0-3.7-0.7-3.7-1.6c0-0.9,1.7-1.7,3.7-1.7s3.7,0.7,3.7,1.7
	C295.8,210.2,294.1,211,292.1,211z M310,273.2c-2,0-3.7-0.7-3.7-1.7c0-0.9,1.7-1.6,3.7-1.6s3.7,0.7,3.7,1.6
	C313.7,272.4,312,273.2,310,273.2z M310,211c-2,0-3.7-0.7-3.7-1.6c0-0.9,1.7-1.7,3.7-1.7s3.7,0.7,3.7,1.7
	C313.7,210.2,312,211,310,211z M327.9,273.2c-2,0-3.7-0.7-3.7-1.7c0-0.9,1.7-1.6,3.7-1.6s3.7,0.7,3.7,1.6
	C331.6,272.4,329.9,273.2,327.9,273.2z M327.9,211c-2,0-3.7-0.7-3.7-1.6c0-0.9,1.7-1.7,3.7-1.7s3.7,0.7,3.7,1.7
	C331.6,210.2,329.9,211,327.9,211z M345.8,273.2c-2,0-3.7-0.7-3.7-1.7c0-0.9,1.6-1.6,3.7-1.6c2,0,3.7,0.7,3.7,1.6
	C349.5,272.4,347.8,273.2,345.8,273.2z M345.8,211c-2,0-3.7-0.7-3.7-1.6c0-0.9,1.6-1.7,3.7-1.7c2,0,3.7,0.7,3.7,1.7
	C349.5,210.2,347.8,211,345.8,211z M363.7,273.2c-2,0-3.7-0.7-3.7-1.7c0-0.9,1.7-1.6,3.7-1.6s3.7,0.7,3.7,1.6
	C367.3,272.4,365.7,273.2,363.7,273.2z M363.7,211c-2,0-3.7-0.7-3.7-1.6c0-0.9,1.7-1.7,3.7-1.7s3.7,0.7,3.7,1.7
	C367.3,210.2,365.7,211,363.7,211z M381.5,273.2c-2,0-3.7-0.7-3.7-1.7c0-0.9,1.7-1.6,3.7-1.6s3.7,0.7,3.7,1.6
	C385.2,272.4,383.6,273.2,381.5,273.2z M381.5,211c-2,0-3.7-0.7-3.7-1.6c0-0.9,1.7-1.7,3.7-1.7s3.7,0.7,3.7,1.7
	C385.2,210.2,383.6,211,381.5,211z"/>
<path class="st1" d="M409.8,391.4H12.2c-4.1,0-7.4-3.3-7.4-7.4v-39.1c0-4.1,3.3-7.4,7.4-7.4h397.6c4.1,0,7.4,3.3,7.4,7.4V384
	C417.3,388.1,413.9,391.4,409.8,391.4z"/>
<path class="st1" d="M409.8,453.2H12.2c-4.1,0-7.4-3.3-7.4-7.4v-39.1c0-4.1,3.3-7.4,7.4-7.4h397.6c4.1,0,7.4,3.3,7.4,7.4v39.1
	C417.3,449.9,413.9,453.2,409.8,453.2z"/>
<path class="st3" d="M20.1,329.2v8.2H402v-8.2H20.1z M41.7,335c-2,0-3.7-0.7-3.7-1.6s1.7-1.6,3.7-1.6s3.7,0.7,3.7,1.6
	S43.7,335,41.7,335z M59.6,335c-2,0-3.7-0.7-3.7-1.6s1.7-1.6,3.7-1.6s3.7,0.7,3.7,1.6S61.6,335,59.6,335z M77.5,335
	c-2,0-3.7-0.7-3.7-1.6s1.7-1.6,3.7-1.6s3.7,0.7,3.7,1.6S79.5,335,77.5,335z M95.4,335c-2,0-3.7-0.7-3.7-1.6s1.7-1.6,3.7-1.6
	s3.7,0.7,3.7,1.6S97.4,335,95.4,335z M113.2,335c-2,0-3.7-0.7-3.7-1.6s1.7-1.6,3.7-1.6s3.7,0.7,3.7,1.6S115.3,335,113.2,335z
	 M131.1,335c-2,0-3.7-0.7-3.7-1.6s1.7-1.6,3.7-1.6s3.7,0.7,3.7,1.6S133.2,335,131.1,335z M149,335c-2,0-3.7-0.7-3.7-1.6
	s1.7-1.6,3.7-1.6s3.7,0.7,3.7,1.6S151,335,149,335z M166.9,335c-2,0-3.7-0.7-3.7-1.6s1.7-1.6,3.7-1.6s3.7,0.7,3.7,1.6
	S168.9,335,166.9,335z M184.8,335c-2,0-3.7-0.7-3.7-1.6s1.7-1.6,3.7-1.6s3.7,0.7,3.7,1.6S186.8,335,184.8,335z M202.7,335
	c-2,0-3.7-0.7-3.7-1.6s1.7-1.6,3.7-1.6s3.7,0.7,3.7,1.6S204.7,335,202.7,335z M220.6,335c-2,0-3.7-0.7-3.7-1.6s1.7-1.6,3.7-1.6
	s3.7,0.7,3.7,1.6S222.6,335,220.6,335z M238.4,335c-2,0-3.7-0.7-3.7-1.6s1.7-1.6,3.7-1.6s3.7,0.7,3.7,1.6S240.5,335,238.4,335z
	 M256.3,335c-2,0-3.7-0.7-3.7-1.6s1.7-1.6,3.7-1.6s3.7,0.7,3.7,1.6S258.4,335,256.3,335z M274.2,335c-2,0-3.7-0.7-3.7-1.6
	s1.7-1.6,3.7-1.6s3.7,0.7,3.7,1.6S276.3,335,274.2,335z M292.1,335c-2,0-3.7-0.7-3.7-1.6s1.7-1.6,3.7-1.6s3.7,0.7,3.7,1.6
	S294.1,335,292.1,335z M310,335c-2,0-3.7-0.7-3.7-1.6s1.7-1.6,3.7-1.6s3.7,0.7,3.7,1.6S312,335,310,335z M327.9,335
	c-2,0-3.7-0.7-3.7-1.6s1.7-1.6,3.7-1.6s3.7,0.7,3.7,1.6S329.9,335,327.9,335z M345.8,335c-2,0-3.7-0.7-3.7-1.6s1.7-1.6,3.7-1.6
	s3.7,0.7,3.7,1.6S347.8,335,345.8,335z M363.6,335c-2,0-3.7-0.7-3.7-1.6s1.7-1.6,3.7-1.6s3.7,0.7,3.7,1.6S365.7,335,363.6,335z
	 M381.5,335c-2,0-3.7-0.7-3.7-1.6s1.7-1.6,3.7-1.6s3.7,0.7,3.7,1.6S383.6,335,381.5,335z"/>
<path class="st3" d="M20.1,391.4v8.2H402v-8.2H20.1z M41.7,397.2c-2,0-3.7-0.7-3.7-1.6s1.7-1.6,3.7-1.6s3.7,0.7,3.7,1.6
	S43.7,397.2,41.7,397.2z M59.6,397.2c-2,0-3.7-0.7-3.7-1.6s1.7-1.6,3.7-1.6s3.7,0.7,3.7,1.6S61.6,397.2,59.6,397.2z M77.5,397.2
	c-2,0-3.7-0.7-3.7-1.6s1.7-1.6,3.7-1.6s3.7,0.7,3.7,1.6S79.5,397.2,77.5,397.2z M95.4,397.2c-2,0-3.7-0.7-3.7-1.6s1.7-1.6,3.7-1.6
	s3.7,0.7,3.7,1.6S97.4,397.2,95.4,397.2z M113.2,397.2c-2,0-3.7-0.7-3.7-1.6s1.7-1.6,3.7-1.6s3.7,0.7,3.7,1.6
	S115.3,397.2,113.2,397.2z M131.1,397.2c-2,0-3.7-0.7-3.7-1.6s1.7-1.6,3.7-1.6s3.7,0.7,3.7,1.6S133.2,397.2,131.1,397.2z M149,397.2
	c-2,0-3.7-0.7-3.7-1.6s1.7-1.6,3.7-1.6s3.7,0.7,3.7,1.6S151,397.2,149,397.2z M166.9,397.2c-2,0-3.7-0.7-3.7-1.6s1.7-1.6,3.7-1.6
	s3.7,0.7,3.7,1.6S168.9,397.2,166.9,397.2z M184.8,397.2c-2,0-3.7-0.7-3.7-1.6s1.7-1.6,3.7-1.6s3.7,0.7,3.7,1.6
	S186.8,397.2,184.8,397.2z M202.7,397.2c-2,0-3.7-0.7-3.7-1.6s1.7-1.6,3.7-1.6s3.7,0.7,3.7,1.6S204.7,397.2,202.7,397.2z
	 M220.6,397.2c-2,0-3.7-0.7-3.7-1.6s1.7-1.6,3.7-1.6s3.7,0.7,3.7,1.6S222.6,397.2,220.6,397.2z M238.4,397.2c-2,0-3.7-0.7-3.7-1.6
	s1.7-1.6,3.7-1.6s3.7,0.7,3.7,1.6S240.5,397.2,238.4,397.2z M256.3,397.2c-2,0-3.7-0.7-3.7-1.6s1.7-1.6,3.7-1.6s3.7,0.7,3.7,1.6
	S258.4,397.2,256.3,397.2z M274.2,397.2c-2,0-3.7-0.7-3.7-1.6s1.7-1.6,3.7-1.6s3.7,0.7,3.7,1.6S276.3,397.2,274.2,397.2z
	 M292.1,397.2c-2,0-3.7-0.7-3.7-1.6s1.7-1.6,3.7-1.6s3.7,0.7,3.7,1.6S294.1,397.2,292.1,397.2z M310,397.2c-2,0-3.7-0.7-3.7-1.6
	s1.7-1.6,3.7-1.6s3.7,0.7,3.7,1.6S312,397.2,310,397.2z M327.9,397.2c-2,0-3.7-0.7-3.7-1.6s1.7-1.6,3.7-1.6s3.7,0.7,3.7,1.6
	S329.9,397.2,327.9,397.2z M345.8,397.2c-2,0-3.7-0.7-3.7-1.6s1.7-1.6,3.7-1.6s3.7,0.7,3.7,1.6S347.8,397.2,345.8,397.2z
	 M363.6,397.2c-2,0-3.7-0.7-3.7-1.6s1.7-1.6,3.7-1.6s3.7,0.7,3.7,1.6S365.7,397.2,363.6,397.2z M381.5,397.2c-2,0-3.7-0.7-3.7-1.6
	s1.7-1.6,3.7-1.6s3.7,0.7,3.7,1.6S383.6,397.2,381.5,397.2z"/>
<path class="st6" d="M417.3,344.8v19.6H4.8v-19.6c0-4.1,2.9-7.4,6.5-7.4h399.5C414.4,337.4,417.3,340.8,417.3,344.8z"/>
<path class="st6" d="M417.3,407.1v19.6H4.8v-19.6c0-4.1,2.9-7.4,6.5-7.4h399.5C414.4,399.7,417.3,403,417.3,407.1z"/>
<path class="st8" d="M410.8,337.4H402v-8.2H211v124h199.8c3.6,0,6.4-3.3,6.4-7.4v-38.7c0-4.1-2.9-7.4-6.4-7.4H402v-8.2h8.9
	c3.6,0,6.4-3.3,6.4-7.4v-39.2C417.3,340.8,414.4,337.4,410.8,337.4z M220.6,397.2c-2,0-3.7-0.7-3.7-1.7c0-0.9,1.7-1.6,3.7-1.6
	s3.7,0.7,3.7,1.6C224.2,396.4,222.6,397.2,220.6,397.2z M220.6,335c-2,0-3.7-0.7-3.7-1.6s1.7-1.7,3.7-1.7s3.7,0.7,3.7,1.7
	C224.2,334.2,222.6,335,220.6,335z M238.4,397.2c-2,0-3.7-0.7-3.7-1.7c0-0.9,1.7-1.6,3.7-1.6s3.7,0.7,3.7,1.6
	C242.1,396.4,240.5,397.2,238.4,397.2z M238.4,335c-2,0-3.7-0.7-3.7-1.6s1.7-1.7,3.7-1.7s3.7,0.7,3.7,1.7
	C242.1,334.2,240.5,335,238.4,335z M256.3,397.2c-2,0-3.7-0.7-3.7-1.7c0-0.9,1.7-1.6,3.7-1.6s3.7,0.7,3.7,1.6
	S258.4,397.2,256.3,397.2z M256.3,335c-2,0-3.7-0.7-3.7-1.6s1.7-1.7,3.7-1.7s3.7,0.7,3.7,1.7C260,334.2,258.4,335,256.3,335z
	 M274.2,397.2c-2,0-3.7-0.7-3.7-1.7c0-0.9,1.7-1.6,3.7-1.6s3.7,0.7,3.7,1.6C277.9,396.4,276.3,397.2,274.2,397.2z M274.2,335
	c-2,0-3.7-0.7-3.7-1.6s1.7-1.7,3.7-1.7s3.7,0.7,3.7,1.7C277.9,334.2,276.3,335,274.2,335z M292.1,397.2c-2,0-3.7-0.7-3.7-1.7
	c0-0.9,1.7-1.6,3.7-1.6s3.7,0.7,3.7,1.6C295.8,396.4,294.1,397.2,292.1,397.2z M292.1,335c-2,0-3.7-0.7-3.7-1.6s1.7-1.7,3.7-1.7
	s3.7,0.7,3.7,1.7C295.8,334.2,294.1,335,292.1,335z M310,397.2c-2,0-3.7-0.7-3.7-1.7c0-0.9,1.7-1.6,3.7-1.6s3.7,0.7,3.7,1.6
	S312,397.2,310,397.2z M310,335c-2,0-3.7-0.7-3.7-1.6s1.7-1.7,3.7-1.7s3.7,0.7,3.7,1.7C313.7,334.2,312,335,310,335z M327.9,397.2
	c-2,0-3.7-0.7-3.7-1.7c0-0.9,1.7-1.6,3.7-1.6s3.7,0.7,3.7,1.6S329.9,397.2,327.9,397.2z M327.9,335c-2,0-3.7-0.7-3.7-1.6
	s1.7-1.7,3.7-1.7s3.7,0.7,3.7,1.7C331.6,334.2,329.9,335,327.9,335z M345.8,397.2c-2,0-3.7-0.7-3.7-1.7c0-0.9,1.6-1.6,3.7-1.6
	c2,0,3.7,0.7,3.7,1.6C349.4,396.4,347.8,397.2,345.8,397.2z M345.8,335c-2,0-3.7-0.7-3.7-1.6s1.6-1.7,3.7-1.7c2,0,3.7,0.7,3.7,1.7
	C349.4,334.2,347.8,335,345.8,335z M363.6,397.2c-2,0-3.7-0.7-3.7-1.7c0-0.9,1.7-1.6,3.7-1.6s3.7,0.7,3.7,1.6
	C367.3,396.4,365.7,397.2,363.6,397.2z M363.6,335c-2,0-3.7-0.7-3.7-1.6s1.7-1.7,3.7-1.7s3.7,0.7,3.7,1.7
	C367.3,334.2,365.7,335,363.6,335z M381.5,397.2c-2,0-3.7-0.7-3.7-1.7c0-0.9,1.7-1.6,3.7-1.6s3.7,0.7,3.7,1.6
	S383.6,397.2,381.5,397.2z M381.5,335c-2,0-3.7-0.7-3.7-1.6s1.7-1.7,3.7-1.7s3.7,0.7,3.7,1.7C385.2,334.2,383.6,335,381.5,335z"/>
<path class="st0" d="M440.1,5L440.1,5c7,0,12.8,5.7,12.8,12.7v28.5c0,7-5.7,12.7-12.8,12.7l0,0c-7,0-12.8-5.7-12.8-12.7V17.7
	C427.4,10.7,433.1,5,440.1,5z"/>
<path class="st0" d="M430.6,447.2h19.2c1.7,0,3.2,1.4,3.2,3.2v2.2c0,1.7-1.4,3.2-3.2,3.2h-19.2c-1.7,0-3.2-1.4-3.2-3.2v-2.2
	C427.4,448.6,428.8,447.2,430.6,447.2z"/>
<rect x="435.9" y="32.8" class="st9" width="10" height="418.5"/>
<rect x="435.4" y="32.8" class="st10" width="5.5" height="418.5"/>
</svg>
