<?xml version="1.0" encoding="utf-8"?>
<!-- Generator: Adobe Illustrator 19.2.1, SVG Export Plug-In . SVG Version: 6.00 Build 0)  -->
<svg version="1.1" id="Livello_1" xmlns="http://www.w3.org/2000/svg" xmlns:xlink="http://www.w3.org/1999/xlink" x="0px" y="0px"
	 viewBox="0 0 457.4 376.5" style="enable-background:new 0 0 457.4 376.5;" xml:space="preserve">
<style type="text/css">
	.st0{fill:#58575D;}
	.st1{display:none;fill:#58575D;}
	.st2{fill:#787781;}
	.st3{display:none;fill:#787781;}
	.st4{fill:#49484C;}
	.st5{display:none;fill:#3F3E43;}
	.st6{display:none;fill:#49484C;}
	.st7{opacity:0.56;fill:#49484C;}
	.st8{display:none;opacity:0.56;fill:#49484C;}
	.st9{fill:#8C846F;}
	.st10{fill:#A09A8E;}
</style>
<path class="st0" d="M409.8,62H12.2c-4.1,0-7.4-3.3-7.4-7.4V15.4c0-4.1,3.3-7.4,7.4-7.4h397.6c4.1,0,7.4,3.3,7.4,7.4v39.1
	C417.3,58.6,413.9,62,409.8,62z"/>
<path class="st0" d="M409.8,124.2H12.2c-4.1,0-7.4-3.3-7.4-7.4V77.6c0-4.1,3.3-7.4,7.4-7.4h397.6c4.1,0,7.4,3.3,7.4,7.4v39.1
	C417.3,120.9,413.9,124.2,409.8,124.2z"/>
<path class="st1" d="M409.8,186.4H12.2c-4.1,0-7.4-3.3-7.4-7.4v-39.1c0-4.1,3.3-7.4,7.4-7.4h397.6c4.1,0,7.4,3.3,7.4,7.4V179
	C417.3,183.1,413.9,186.4,409.8,186.4z"/>
<path class="st1" d="M409.8,248.2H12.2c-4.1,0-7.4-3.3-7.4-7.4v-39.1c0-4.1,3.3-7.4,7.4-7.4h397.6c4.1,0,7.4,3.3,7.4,7.4v39.1
	C417.3,244.9,413.9,248.2,409.8,248.2z"/>
<path class="st2" d="M20.1,62v8.2H402V62H20.1z M41.7,67.7c-2,0-3.7-0.7-3.7-1.6s1.7-1.6,3.7-1.6c2,0,3.7,0.7,3.7,1.6
	S43.7,67.7,41.7,67.7z M59.6,67.7c-2,0-3.7-0.7-3.7-1.6s1.7-1.6,3.7-1.6c2,0,3.7,0.7,3.7,1.6S61.6,67.7,59.6,67.7z M77.5,67.7
	c-2,0-3.7-0.7-3.7-1.6s1.7-1.6,3.7-1.6c2,0,3.7,0.7,3.7,1.6S79.5,67.7,77.5,67.7z M95.4,67.7c-2,0-3.7-0.7-3.7-1.6s1.7-1.6,3.7-1.6
	c2,0,3.7,0.7,3.7,1.6S97.4,67.7,95.4,67.7z M113.2,67.7c-2,0-3.7-0.7-3.7-1.6s1.7-1.6,3.7-1.6c2,0,3.7,0.7,3.7,1.6
	S115.3,67.7,113.2,67.7z M131.1,67.7c-2,0-3.7-0.7-3.7-1.6s1.7-1.6,3.7-1.6c2,0,3.7,0.7,3.7,1.6S133.2,67.7,131.1,67.7z M149,67.7
	c-2,0-3.7-0.7-3.7-1.6s1.7-1.6,3.7-1.6s3.7,0.7,3.7,1.6S151.1,67.7,149,67.7z M166.9,67.7c-2,0-3.7-0.7-3.7-1.6s1.7-1.6,3.7-1.6
	s3.7,0.7,3.7,1.6S168.9,67.7,166.9,67.7z M184.8,67.7c-2,0-3.7-0.7-3.7-1.6s1.7-1.6,3.7-1.6s3.7,0.7,3.7,1.6S186.8,67.7,184.8,67.7z
	 M202.7,67.7c-2,0-3.7-0.7-3.7-1.6s1.7-1.6,3.7-1.6s3.7,0.7,3.7,1.6S204.7,67.7,202.7,67.7z M220.6,67.7c-2,0-3.7-0.7-3.7-1.6
	s1.7-1.6,3.7-1.6s3.7,0.7,3.7,1.6S222.6,67.7,220.6,67.7z M238.4,67.7c-2,0-3.7-0.7-3.7-1.6s1.7-1.6,3.7-1.6s3.7,0.7,3.7,1.6
	S240.5,67.7,238.4,67.7z M256.3,67.7c-2,0-3.7-0.7-3.7-1.6s1.7-1.6,3.7-1.6c2,0,3.7,0.7,3.7,1.6S258.4,67.7,256.3,67.7z M274.2,67.7
	c-2,0-3.7-0.7-3.7-1.6s1.7-1.6,3.7-1.6c2,0,3.7,0.7,3.7,1.6S276.3,67.7,274.2,67.7z M292.1,67.7c-2,0-3.7-0.7-3.7-1.6
	s1.7-1.6,3.7-1.6c2,0,3.7,0.7,3.7,1.6S294.1,67.7,292.1,67.7z M310,67.7c-2,0-3.7-0.7-3.7-1.6s1.7-1.6,3.7-1.6c2,0,3.7,0.7,3.7,1.6
	S312,67.7,310,67.7z M327.9,67.7c-2,0-3.7-0.7-3.7-1.6s1.7-1.6,3.7-1.6c2,0,3.7,0.7,3.7,1.6S329.9,67.7,327.9,67.7z M345.8,67.7
	c-2,0-3.7-0.7-3.7-1.6s1.7-1.6,3.7-1.6c2,0,3.7,0.7,3.7,1.6S347.8,67.7,345.8,67.7z M363.6,67.7c-2,0-3.7-0.7-3.7-1.6
	s1.7-1.6,3.7-1.6s3.7,0.7,3.7,1.6S365.7,67.7,363.6,67.7z M381.5,67.7c-2,0-3.7-0.7-3.7-1.6s1.7-1.6,3.7-1.6c2,0,3.7,0.7,3.7,1.6
	S383.6,67.7,381.5,67.7z"/>
<rect x="22.4" y="124" class="st3" width="438.9" height="8.2"/>
<rect x="22.4" y="186.6" class="st3" width="438.9" height="8.2"/>
<path class="st4" d="M417.3,15.4V35H4.8V15.4c0-4.1,2.9-7.4,6.5-7.4h399.5C414.4,8,417.3,11.3,417.3,15.4z"/>
<path class="st5" d="M478.9,35v27h-7.5c4.1,0,7.4-3.3,7.4-7.4L478.9,35L478.9,35z"/>
<path class="st3" d="M20.1,124.2v8.2H402v-8.2H20.1z M41.7,130c-2,0-3.7-0.7-3.7-1.6s1.7-1.6,3.7-1.6c2,0,3.7,0.7,3.7,1.6
	S43.7,130,41.7,130z M59.6,130c-2,0-3.7-0.7-3.7-1.6s1.7-1.6,3.7-1.6c2,0,3.7,0.7,3.7,1.6S61.6,130,59.6,130z M77.5,130
	c-2,0-3.7-0.7-3.7-1.6s1.7-1.6,3.7-1.6c2,0,3.7,0.7,3.7,1.6S79.5,130,77.5,130z M95.4,130c-2,0-3.7-0.7-3.7-1.6s1.7-1.6,3.7-1.6
	c2,0,3.7,0.7,3.7,1.6S97.4,130,95.4,130z M113.2,130c-2,0-3.7-0.7-3.7-1.6s1.7-1.6,3.7-1.6c2,0,3.7,0.7,3.7,1.6S115.3,130,113.2,130
	z M131.1,130c-2,0-3.7-0.7-3.7-1.6s1.7-1.6,3.7-1.6c2,0,3.7,0.7,3.7,1.6S133.2,130,131.1,130z M149,130c-2,0-3.7-0.7-3.7-1.6
	s1.7-1.6,3.7-1.6s3.7,0.7,3.7,1.6S151.1,130,149,130z M166.9,130c-2,0-3.7-0.7-3.7-1.6s1.7-1.6,3.7-1.6s3.7,0.7,3.7,1.6
	S168.9,130,166.9,130z M184.8,130c-2,0-3.7-0.7-3.7-1.6s1.7-1.6,3.7-1.6s3.7,0.7,3.7,1.6S186.8,130,184.8,130z M202.7,130
	c-2,0-3.7-0.7-3.7-1.6s1.7-1.6,3.7-1.6s3.7,0.7,3.7,1.6S204.7,130,202.7,130z M220.6,130c-2,0-3.7-0.7-3.7-1.6s1.7-1.6,3.7-1.6
	s3.7,0.7,3.7,1.6S222.6,130,220.6,130z M238.4,130c-2,0-3.7-0.7-3.7-1.6s1.7-1.6,3.7-1.6s3.7,0.7,3.7,1.6S240.5,130,238.4,130z
	 M256.3,130c-2,0-3.7-0.7-3.7-1.6s1.7-1.6,3.7-1.6c2,0,3.7,0.7,3.7,1.6S258.4,130,256.3,130z M274.2,130c-2,0-3.7-0.7-3.7-1.6
	s1.7-1.6,3.7-1.6c2,0,3.7,0.7,3.7,1.6S276.3,130,274.2,130z M292.1,130c-2,0-3.7-0.7-3.7-1.6s1.7-1.6,3.7-1.6c2,0,3.7,0.7,3.7,1.6
	S294.1,130,292.1,130z M310,130c-2,0-3.7-0.7-3.7-1.6s1.7-1.6,3.7-1.6c2,0,3.7,0.7,3.7,1.6S312,130,310,130z M327.9,130
	c-2,0-3.7-0.7-3.7-1.6s1.7-1.6,3.7-1.6c2,0,3.7,0.7,3.7,1.6S329.9,130,327.9,130z M345.8,130c-2,0-3.7-0.7-3.7-1.6s1.7-1.6,3.7-1.6
	c2,0,3.7,0.7,3.7,1.6S347.8,130,345.8,130z M363.6,130c-2,0-3.7-0.7-3.7-1.6s1.7-1.6,3.7-1.6s3.7,0.7,3.7,1.6S365.7,130,363.6,130z
	 M381.5,130c-2,0-3.7-0.7-3.7-1.6s1.7-1.6,3.7-1.6c2,0,3.7,0.7,3.7,1.6S383.6,130,381.5,130z"/>
<path class="st3" d="M20.1,186.4v8.2H402v-8.2H20.1z M41.7,192.2c-2,0-3.7-0.7-3.7-1.6s1.7-1.6,3.7-1.6c2,0,3.7,0.7,3.7,1.6
	S43.7,192.2,41.7,192.2z M59.6,192.2c-2,0-3.7-0.7-3.7-1.6s1.7-1.6,3.7-1.6c2,0,3.7,0.7,3.7,1.6S61.6,192.2,59.6,192.2z M77.5,192.2
	c-2,0-3.7-0.7-3.7-1.6s1.7-1.6,3.7-1.6c2,0,3.7,0.7,3.7,1.6S79.5,192.2,77.5,192.2z M95.4,192.2c-2,0-3.7-0.7-3.7-1.6
	s1.7-1.6,3.7-1.6c2,0,3.7,0.7,3.7,1.6S97.4,192.2,95.4,192.2z M113.2,192.2c-2,0-3.7-0.7-3.7-1.6s1.7-1.6,3.7-1.6
	c2,0,3.7,0.7,3.7,1.6S115.3,192.2,113.2,192.2z M131.1,192.2c-2,0-3.7-0.7-3.7-1.6s1.7-1.6,3.7-1.6c2,0,3.7,0.7,3.7,1.6
	S133.2,192.2,131.1,192.2z M149,192.2c-2,0-3.7-0.7-3.7-1.6s1.7-1.6,3.7-1.6s3.7,0.7,3.7,1.6S151.1,192.2,149,192.2z M166.9,192.2
	c-2,0-3.7-0.7-3.7-1.6s1.7-1.6,3.7-1.6s3.7,0.7,3.7,1.6S168.9,192.2,166.9,192.2z M184.8,192.2c-2,0-3.7-0.7-3.7-1.6
	s1.7-1.6,3.7-1.6s3.7,0.7,3.7,1.6S186.8,192.2,184.8,192.2z M202.7,192.2c-2,0-3.7-0.7-3.7-1.6s1.7-1.6,3.7-1.6s3.7,0.7,3.7,1.6
	S204.7,192.2,202.7,192.2z M220.6,192.2c-2,0-3.7-0.7-3.7-1.6s1.7-1.6,3.7-1.6s3.7,0.7,3.7,1.6S222.6,192.2,220.6,192.2z
	 M238.4,192.2c-2,0-3.7-0.7-3.7-1.6s1.7-1.6,3.7-1.6s3.7,0.7,3.7,1.6S240.5,192.2,238.4,192.2z M256.3,192.2c-2,0-3.7-0.7-3.7-1.6
	s1.7-1.6,3.7-1.6c2,0,3.7,0.7,3.7,1.6S258.4,192.2,256.3,192.2z M274.2,192.2c-2,0-3.7-0.7-3.7-1.6s1.7-1.6,3.7-1.6
	c2,0,3.7,0.7,3.7,1.6S276.3,192.2,274.2,192.2z M292.1,192.2c-2,0-3.7-0.7-3.7-1.6s1.7-1.6,3.7-1.6c2,0,3.7,0.7,3.7,1.6
	S294.1,192.2,292.1,192.2z M310,192.2c-2,0-3.7-0.7-3.7-1.6s1.7-1.6,3.7-1.6c2,0,3.7,0.7,3.7,1.6S312,192.2,310,192.2z M327.9,192.2
	c-2,0-3.7-0.7-3.7-1.6s1.7-1.6,3.7-1.6c2,0,3.7,0.7,3.7,1.6S329.9,192.2,327.9,192.2z M345.8,192.2c-2,0-3.7-0.7-3.7-1.6
	s1.7-1.6,3.7-1.6c2,0,3.7,0.7,3.7,1.6S347.8,192.2,345.8,192.2z M363.6,192.2c-2,0-3.7-0.7-3.7-1.6s1.7-1.6,3.7-1.6s3.7,0.7,3.7,1.6
	S365.7,192.2,363.6,192.2z M381.5,192.2c-2,0-3.7-0.7-3.7-1.6s1.7-1.6,3.7-1.6c2,0,3.7,0.7,3.7,1.6S383.6,192.2,381.5,192.2z"/>
<path class="st4" d="M417.3,77.6v19.6H4.8V77.6c0-4.1,2.9-7.4,6.5-7.4h399.5C414.4,70.2,417.3,73.5,417.3,77.6z"/>
<path class="st6" d="M417.3,139.8v19.6H4.8v-19.6c0-4.1,2.9-7.4,6.5-7.4h399.5C414.4,132.4,417.3,135.7,417.3,139.8z"/>
<path class="st6" d="M417.3,202.1v19.6H4.8v-19.6c0-4.1,2.9-7.4,6.5-7.4h399.5C414.4,194.7,417.3,198,417.3,202.1z"/>
<path class="st0" d="M478.9,201.6v0.4c0-4.1-3.3-7.4-7.4-7.4h-10.2v-0.4h10.2C475.6,194.2,478.9,197.5,478.9,201.6z"/>
<path class="st7" d="M410.8,62c3.6,0,6.4-3.3,6.4-7.4V15.4c0-4.1-2.9-7.4-6.4-7.4H211v116.2h199.8c3.6,0,6.4-3.3,6.4-7.4V77.6
	c0-4.1-2.9-7.4-6.4-7.4H402V62H410.8z M220.6,67.7c-2,0-3.7-0.7-3.7-1.6c0-0.9,1.7-1.6,3.7-1.6c2,0,3.7,0.7,3.7,1.6
	C224.2,67,222.6,67.7,220.6,67.7z M238.4,67.7c-2,0-3.7-0.7-3.7-1.6c0-0.9,1.7-1.6,3.7-1.6c2,0,3.7,0.7,3.7,1.6
	C242.1,67,240.5,67.7,238.4,67.7z M256.3,67.7c-2,0-3.7-0.7-3.7-1.6c0-0.9,1.7-1.6,3.7-1.6c2,0,3.7,0.7,3.7,1.6
	C260,67,258.4,67.7,256.3,67.7z M274.2,67.7c-2,0-3.7-0.7-3.7-1.6c0-0.9,1.7-1.6,3.7-1.6c2,0,3.7,0.7,3.7,1.6
	C277.9,67,276.3,67.7,274.2,67.7z M292.1,67.7c-2,0-3.7-0.7-3.7-1.6c0-0.9,1.7-1.6,3.7-1.6c2,0,3.7,0.7,3.7,1.6
	C295.8,67,294.1,67.7,292.1,67.7z M310,67.7c-2,0-3.7-0.7-3.7-1.6c0-0.9,1.7-1.6,3.7-1.6c2,0,3.7,0.7,3.7,1.6
	C313.7,67,312,67.7,310,67.7z M327.9,67.7c-2,0-3.7-0.7-3.7-1.6c0-0.9,1.7-1.6,3.7-1.6c2,0,3.7,0.7,3.7,1.6
	C331.6,67,329.9,67.7,327.9,67.7z M345.8,67.7c-2,0-3.7-0.7-3.7-1.6c0-0.9,1.6-1.6,3.7-1.6c2,0,3.7,0.7,3.7,1.6
	C349.5,67,347.8,67.7,345.8,67.7z M363.7,67.7c-2,0-3.7-0.7-3.7-1.6c0-0.9,1.7-1.6,3.7-1.6c2,0,3.7,0.7,3.7,1.6
	C367.3,67,365.7,67.7,363.7,67.7z M381.5,67.7c-2,0-3.7-0.7-3.7-1.6c0-0.9,1.7-1.6,3.7-1.6c2,0,3.7,0.7,3.7,1.6
	C385.2,67,383.6,67.7,381.5,67.7z"/>
<path class="st8" d="M410.8,132.4H402v-8.2H211v124h199.8c3.6,0,6.4-3.3,6.4-7.4v-38.7c0-4.1-2.9-7.4-6.4-7.4H402v-8.2h8.9
	c3.6,0,6.4-3.3,6.4-7.4v-39.2C417.3,135.8,414.4,132.4,410.8,132.4z M220.6,192.2c-2,0-3.7-0.7-3.7-1.7c0-0.9,1.7-1.6,3.7-1.6
	c2,0,3.7,0.7,3.7,1.6C224.2,191.4,222.6,192.2,220.6,192.2z M220.6,130c-2,0-3.7-0.7-3.7-1.6c0-0.9,1.7-1.7,3.7-1.7
	c2,0,3.7,0.7,3.7,1.7C224.2,129.2,222.6,130,220.6,130z M238.4,192.2c-2,0-3.7-0.7-3.7-1.7c0-0.9,1.7-1.6,3.7-1.6
	c2,0,3.7,0.7,3.7,1.6C242.1,191.4,240.5,192.2,238.4,192.2z M238.4,130c-2,0-3.7-0.7-3.7-1.6c0-0.9,1.7-1.7,3.7-1.7
	c2,0,3.7,0.7,3.7,1.7C242.1,129.2,240.5,130,238.4,130z M256.3,192.2c-2,0-3.7-0.7-3.7-1.7c0-0.9,1.7-1.6,3.7-1.6
	c2,0,3.7,0.7,3.7,1.6C260,191.4,258.4,192.2,256.3,192.2z M256.3,130c-2,0-3.7-0.7-3.7-1.6c0-0.9,1.7-1.7,3.7-1.7
	c2,0,3.7,0.7,3.7,1.7C260,129.2,258.4,130,256.3,130z M274.2,192.2c-2,0-3.7-0.7-3.7-1.7c0-0.9,1.7-1.6,3.7-1.6c2,0,3.7,0.7,3.7,1.6
	C277.9,191.4,276.3,192.2,274.2,192.2z M274.2,130c-2,0-3.7-0.7-3.7-1.6c0-0.9,1.7-1.7,3.7-1.7c2,0,3.7,0.7,3.7,1.7
	C277.9,129.2,276.3,130,274.2,130z M292.1,192.2c-2,0-3.7-0.7-3.7-1.7c0-0.9,1.7-1.6,3.7-1.6c2,0,3.7,0.7,3.7,1.6
	C295.8,191.4,294.1,192.2,292.1,192.2z M292.1,130c-2,0-3.7-0.7-3.7-1.6c0-0.9,1.7-1.7,3.7-1.7c2,0,3.7,0.7,3.7,1.7
	C295.8,129.2,294.1,130,292.1,130z M310,192.2c-2,0-3.7-0.7-3.7-1.7c0-0.9,1.7-1.6,3.7-1.6c2,0,3.7,0.7,3.7,1.6
	C313.7,191.4,312,192.2,310,192.2z M310,130c-2,0-3.7-0.7-3.7-1.6c0-0.9,1.7-1.7,3.7-1.7c2,0,3.7,0.7,3.7,1.7
	C313.7,129.2,312,130,310,130z M327.9,192.2c-2,0-3.7-0.7-3.7-1.7c0-0.9,1.7-1.6,3.7-1.6c2,0,3.7,0.7,3.7,1.6
	C331.6,191.4,329.9,192.2,327.9,192.2z M327.9,130c-2,0-3.7-0.7-3.7-1.6c0-0.9,1.7-1.7,3.7-1.7c2,0,3.7,0.7,3.7,1.7
	C331.6,129.2,329.9,130,327.9,130z M345.8,192.2c-2,0-3.7-0.7-3.7-1.7c0-0.9,1.6-1.6,3.7-1.6c2,0,3.7,0.7,3.7,1.6
	C349.5,191.4,347.8,192.2,345.8,192.2z M345.8,130c-2,0-3.7-0.7-3.7-1.6c0-0.9,1.6-1.7,3.7-1.7c2,0,3.7,0.7,3.7,1.7
	C349.5,129.2,347.8,130,345.8,130z M363.7,192.2c-2,0-3.7-0.7-3.7-1.7c0-0.9,1.7-1.6,3.7-1.6c2,0,3.7,0.7,3.7,1.6
	C367.3,191.4,365.7,192.2,363.7,192.2z M363.7,130c-2,0-3.7-0.7-3.7-1.6c0-0.9,1.7-1.7,3.7-1.7c2,0,3.7,0.7,3.7,1.7
	C367.3,129.2,365.7,130,363.7,130z M381.5,192.2c-2,0-3.7-0.7-3.7-1.7c0-0.9,1.7-1.6,3.7-1.6c2,0,3.7,0.7,3.7,1.6
	C385.2,191.4,383.6,192.2,381.5,192.2z M381.5,130c-2,0-3.7-0.7-3.7-1.6c0-0.9,1.7-1.7,3.7-1.7c2,0,3.7,0.7,3.7,1.7
	C385.2,129.2,383.6,130,381.5,130z"/>
<path class="st1" d="M409.8,310.4H12.2c-4.1,0-7.4-3.3-7.4-7.4v-39.1c0-4.1,3.3-7.4,7.4-7.4h397.6c4.1,0,7.4,3.3,7.4,7.4V303
	C417.3,307.1,413.9,310.4,409.8,310.4z"/>
<path class="st1" d="M409.8,372.2H12.2c-4.1,0-7.4-3.3-7.4-7.4v-39.1c0-4.1,3.3-7.4,7.4-7.4h397.6c4.1,0,7.4,3.3,7.4,7.4v39.1
	C417.3,368.9,413.9,372.2,409.8,372.2z"/>
<path class="st3" d="M20.1,248.2v8.2H402v-8.2H20.1z M41.7,254c-2,0-3.7-0.7-3.7-1.6s1.7-1.6,3.7-1.6c2,0,3.7,0.7,3.7,1.6
	S43.7,254,41.7,254z M59.6,254c-2,0-3.7-0.7-3.7-1.6s1.7-1.6,3.7-1.6c2,0,3.7,0.7,3.7,1.6S61.6,254,59.6,254z M77.5,254
	c-2,0-3.7-0.7-3.7-1.6s1.7-1.6,3.7-1.6s3.7,0.7,3.7,1.6S79.5,254,77.5,254z M95.4,254c-2,0-3.7-0.7-3.7-1.6s1.7-1.6,3.7-1.6
	c2,0,3.7,0.7,3.7,1.6S97.4,254,95.4,254z M113.2,254c-2,0-3.7-0.7-3.7-1.6s1.7-1.6,3.7-1.6c2,0,3.7,0.7,3.7,1.6S115.3,254,113.2,254
	z M131.1,254c-2,0-3.7-0.7-3.7-1.6s1.7-1.6,3.7-1.6c2,0,3.7,0.7,3.7,1.6S133.2,254,131.1,254z M149,254c-2,0-3.7-0.7-3.7-1.6
	s1.7-1.6,3.7-1.6s3.7,0.7,3.7,1.6S151,254,149,254z M166.9,254c-2,0-3.7-0.7-3.7-1.6s1.7-1.6,3.7-1.6s3.7,0.7,3.7,1.6
	S168.9,254,166.9,254z M184.8,254c-2,0-3.7-0.7-3.7-1.6s1.7-1.6,3.7-1.6s3.7,0.7,3.7,1.6S186.8,254,184.8,254z M202.7,254
	c-2,0-3.7-0.7-3.7-1.6s1.7-1.6,3.7-1.6s3.7,0.7,3.7,1.6S204.7,254,202.7,254z M220.6,254c-2,0-3.7-0.7-3.7-1.6s1.7-1.6,3.7-1.6
	s3.7,0.7,3.7,1.6S222.6,254,220.6,254z M238.4,254c-2,0-3.7-0.7-3.7-1.6s1.7-1.6,3.7-1.6s3.7,0.7,3.7,1.6S240.5,254,238.4,254z
	 M256.3,254c-2,0-3.7-0.7-3.7-1.6s1.7-1.6,3.7-1.6c2,0,3.7,0.7,3.7,1.6S258.4,254,256.3,254z M274.2,254c-2,0-3.7-0.7-3.7-1.6
	s1.7-1.6,3.7-1.6c2,0,3.7,0.7,3.7,1.6S276.3,254,274.2,254z M292.1,254c-2,0-3.7-0.7-3.7-1.6s1.7-1.6,3.7-1.6c2,0,3.7,0.7,3.7,1.6
	S294.1,254,292.1,254z M310,254c-2,0-3.7-0.7-3.7-1.6s1.7-1.6,3.7-1.6c2,0,3.7,0.7,3.7,1.6S312,254,310,254z M327.9,254
	c-2,0-3.7-0.7-3.7-1.6s1.7-1.6,3.7-1.6c2,0,3.7,0.7,3.7,1.6S329.9,254,327.9,254z M345.8,254c-2,0-3.7-0.7-3.7-1.6s1.7-1.6,3.7-1.6
	s3.7,0.7,3.7,1.6S347.8,254,345.8,254z M363.6,254c-2,0-3.7-0.7-3.7-1.6s1.7-1.6,3.7-1.6c2,0,3.7,0.7,3.7,1.6S365.7,254,363.6,254z
	 M381.5,254c-2,0-3.7-0.7-3.7-1.6s1.7-1.6,3.7-1.6c2,0,3.7,0.7,3.7,1.6S383.6,254,381.5,254z"/>
<path class="st3" d="M20.1,310.4v8.2H402v-8.2H20.1z M41.7,316.2c-2,0-3.7-0.7-3.7-1.6s1.7-1.6,3.7-1.6c2,0,3.7,0.7,3.7,1.6
	S43.7,316.2,41.7,316.2z M59.6,316.2c-2,0-3.7-0.7-3.7-1.6s1.7-1.6,3.7-1.6c2,0,3.7,0.7,3.7,1.6S61.6,316.2,59.6,316.2z M77.5,316.2
	c-2,0-3.7-0.7-3.7-1.6s1.7-1.6,3.7-1.6c2,0,3.7,0.7,3.7,1.6S79.5,316.2,77.5,316.2z M95.4,316.2c-2,0-3.7-0.7-3.7-1.6
	s1.7-1.6,3.7-1.6c2,0,3.7,0.7,3.7,1.6S97.4,316.2,95.4,316.2z M113.2,316.2c-2,0-3.7-0.7-3.7-1.6s1.7-1.6,3.7-1.6
	c2,0,3.7,0.7,3.7,1.6S115.3,316.2,113.2,316.2z M131.1,316.2c-2,0-3.7-0.7-3.7-1.6s1.7-1.6,3.7-1.6c2,0,3.7,0.7,3.7,1.6
	S133.2,316.2,131.1,316.2z M149,316.2c-2,0-3.7-0.7-3.7-1.6s1.7-1.6,3.7-1.6s3.7,0.7,3.7,1.6S151,316.2,149,316.2z M166.9,316.2
	c-2,0-3.7-0.7-3.7-1.6s1.7-1.6,3.7-1.6s3.7,0.7,3.7,1.6S168.9,316.2,166.9,316.2z M184.8,316.2c-2,0-3.7-0.7-3.7-1.6
	s1.7-1.6,3.7-1.6s3.7,0.7,3.7,1.6S186.8,316.2,184.8,316.2z M202.7,316.2c-2,0-3.7-0.7-3.7-1.6s1.7-1.6,3.7-1.6s3.7,0.7,3.7,1.6
	S204.7,316.2,202.7,316.2z M220.6,316.2c-2,0-3.7-0.7-3.7-1.6s1.7-1.6,3.7-1.6s3.7,0.7,3.7,1.6S222.6,316.2,220.6,316.2z
	 M238.4,316.2c-2,0-3.7-0.7-3.7-1.6s1.7-1.6,3.7-1.6s3.7,0.7,3.7,1.6S240.5,316.2,238.4,316.2z M256.3,316.2c-2,0-3.7-0.7-3.7-1.6
	s1.7-1.6,3.7-1.6c2,0,3.7,0.7,3.7,1.6S258.4,316.2,256.3,316.2z M274.2,316.2c-2,0-3.7-0.7-3.7-1.6s1.7-1.6,3.7-1.6
	c2,0,3.7,0.7,3.7,1.6S276.3,316.2,274.2,316.2z M292.1,316.2c-2,0-3.7-0.7-3.7-1.6s1.7-1.6,3.7-1.6c2,0,3.7,0.7,3.7,1.6
	S294.1,316.2,292.1,316.2z M310,316.2c-2,0-3.7-0.7-3.7-1.6s1.7-1.6,3.7-1.6c2,0,3.7,0.7,3.7,1.6S312,316.2,310,316.2z M327.9,316.2
	c-2,0-3.7-0.7-3.7-1.6s1.7-1.6,3.7-1.6c2,0,3.7,0.7,3.7,1.6S329.9,316.2,327.9,316.2z M345.8,316.2c-2,0-3.7-0.7-3.7-1.6
	s1.7-1.6,3.7-1.6s3.7,0.7,3.7,1.6S347.8,316.2,345.8,316.2z M363.6,316.2c-2,0-3.7-0.7-3.7-1.6s1.7-1.6,3.7-1.6c2,0,3.7,0.7,3.7,1.6
	S365.7,316.2,363.6,316.2z M381.5,316.2c-2,0-3.7-0.7-3.7-1.6s1.7-1.6,3.7-1.6c2,0,3.7,0.7,3.7,1.6S383.6,316.2,381.5,316.2z"/>
<path class="st6" d="M417.3,263.8v19.6H4.8v-19.6c0-4.1,2.9-7.4,6.5-7.4h399.5C414.4,256.4,417.3,259.8,417.3,263.8z"/>
<path class="st6" d="M417.3,326.1v19.6H4.8v-19.6c0-4.1,2.9-7.4,6.5-7.4h399.5C414.4,318.7,417.3,322,417.3,326.1z"/>
<path class="st8" d="M410.8,256.4H402v-8.2H211v124h199.8c3.6,0,6.4-3.3,6.4-7.4v-38.7c0-4.1-2.9-7.4-6.4-7.4H402v-8.2h8.9
	c3.6,0,6.4-3.3,6.4-7.4v-39.2C417.3,259.8,414.4,256.4,410.8,256.4z M220.6,316.2c-2,0-3.7-0.7-3.7-1.7c0-0.9,1.7-1.6,3.7-1.6
	c2,0,3.7,0.7,3.7,1.6C224.2,315.4,222.6,316.2,220.6,316.2z M220.6,254c-2,0-3.7-0.7-3.7-1.6c0-0.9,1.7-1.7,3.7-1.7
	c2,0,3.7,0.7,3.7,1.7C224.2,253.2,222.6,254,220.6,254z M238.4,316.2c-2,0-3.7-0.7-3.7-1.7c0-0.9,1.7-1.6,3.7-1.6
	c2,0,3.7,0.7,3.7,1.6C242.1,315.4,240.5,316.2,238.4,316.2z M238.4,254c-2,0-3.7-0.7-3.7-1.6c0-0.9,1.7-1.7,3.7-1.7
	c2,0,3.7,0.7,3.7,1.7C242.1,253.2,240.5,254,238.4,254z M256.3,316.2c-2,0-3.7-0.7-3.7-1.7c0-0.9,1.7-1.6,3.7-1.6
	c2,0,3.7,0.7,3.7,1.6C260,315.4,258.4,316.2,256.3,316.2z M256.3,254c-2,0-3.7-0.7-3.7-1.6c0-0.9,1.7-1.7,3.7-1.7
	c2,0,3.7,0.7,3.7,1.7C260,253.2,258.4,254,256.3,254z M274.2,316.2c-2,0-3.7-0.7-3.7-1.7c0-0.9,1.7-1.6,3.7-1.6c2,0,3.7,0.7,3.7,1.6
	C277.9,315.4,276.3,316.2,274.2,316.2z M274.2,254c-2,0-3.7-0.7-3.7-1.6c0-0.9,1.7-1.7,3.7-1.7c2,0,3.7,0.7,3.7,1.7
	C277.9,253.2,276.3,254,274.2,254z M292.1,316.2c-2,0-3.7-0.7-3.7-1.7c0-0.9,1.7-1.6,3.7-1.6c2,0,3.7,0.7,3.7,1.6
	C295.8,315.4,294.1,316.2,292.1,316.2z M292.1,254c-2,0-3.7-0.7-3.7-1.6c0-0.9,1.7-1.7,3.7-1.7c2,0,3.7,0.7,3.7,1.7
	C295.8,253.2,294.1,254,292.1,254z M310,316.2c-2,0-3.7-0.7-3.7-1.7c0-0.9,1.7-1.6,3.7-1.6c2,0,3.7,0.7,3.7,1.6
	C313.7,315.4,312,316.2,310,316.2z M310,254c-2,0-3.7-0.7-3.7-1.6c0-0.9,1.7-1.7,3.7-1.7c2,0,3.7,0.7,3.7,1.7
	C313.7,253.2,312,254,310,254z M327.9,316.2c-2,0-3.7-0.7-3.7-1.7c0-0.9,1.7-1.6,3.7-1.6c2,0,3.7,0.7,3.7,1.6
	C331.6,315.4,329.9,316.2,327.9,316.2z M327.9,254c-2,0-3.7-0.7-3.7-1.6c0-0.9,1.7-1.7,3.7-1.7c2,0,3.7,0.7,3.7,1.7
	C331.6,253.2,329.9,254,327.9,254z M345.8,316.2c-2,0-3.7-0.7-3.7-1.7c0-0.9,1.6-1.6,3.7-1.6c2,0,3.7,0.7,3.7,1.6
	C349.4,315.4,347.8,316.2,345.8,316.2z M345.8,254c-2,0-3.7-0.7-3.7-1.6c0-0.9,1.6-1.7,3.7-1.7c2,0,3.7,0.7,3.7,1.7
	C349.4,253.2,347.8,254,345.8,254z M363.6,316.2c-2,0-3.7-0.7-3.7-1.7c0-0.9,1.7-1.6,3.7-1.6c2,0,3.7,0.7,3.7,1.6
	C367.3,315.4,365.7,316.2,363.6,316.2z M363.6,254c-2,0-3.7-0.7-3.7-1.6c0-0.9,1.7-1.7,3.7-1.7c2,0,3.7,0.7,3.7,1.7
	C367.3,253.2,365.7,254,363.6,254z M381.5,316.2c-2,0-3.7-0.7-3.7-1.7c0-0.9,1.7-1.6,3.7-1.6c2,0,3.7,0.7,3.7,1.6
	C385.2,315.4,383.6,316.2,381.5,316.2z M381.5,254c-2,0-3.7-0.7-3.7-1.6c0-0.9,1.7-1.7,3.7-1.7c2,0,3.7,0.7,3.7,1.7
	C385.2,253.2,383.6,254,381.5,254z"/>
<rect x="427.4" y="8" class="st0" width="25.5" height="54"/>
<rect x="427.4" y="363.3" class="st0" width="25.5" height="8.5"/>
<rect x="435.9" y="35.8" class="st9" width="10" height="331.6"/>
<rect x="435.4" y="35.8" class="st10" width="5.5" height="331.6"/>
</svg>
