<?xml version="1.0" encoding="utf-8"?>
<!-- Generator: Adobe Illustrator 19.2.1, SVG Export Plug-In . SVG Version: 6.00 Build 0)  -->
<svg version="1.1" xmlns="http://www.w3.org/2000/svg" xmlns:xlink="http://www.w3.org/1999/xlink" x="0px" y="0px"
	 viewBox="0 0 1080 800" style="enable-background:new 0 0 1080 800;" xml:space="preserve">
<style type="text/css">
	.st0{display:none;}
	.st1{display:inline;fill:#405EAB;}
	.st2{display:inline;fill:#A09F9F;}
	.st3{display:inline;}
	.st4{display:inline;fill:#FFFFFF;}
	.st5{fill:#F4AA34;}
	.st6{fill:#F2D130;}
	.st7{fill:#A09F9F;}
	.st8{fill:#FFFFFF;}
	.st9{fill:#E53333;}
	.st10{display:none;fill:#E53333;}
	.st11{fill:#666766;}
	.st12{fill:#CCCCCC;}
	.st13{fill:#993333;}
</style>
<g id="Livello_2" class="st0">
	<path class="st1" d="M182.9,280.5c1.6-0.3,3.3-0.5,5-0.5s3.4,0.2,5,0.5v-18.8l17.3-17.3l-7-7l-10.2,10.2v-11h-10v11l-10.2-10.2
		l-7,7l17.3,17.3L182.9,280.5L182.9,280.5L182.9,280.5z"/>
	<path class="st1" d="M200.7,283.9c1.4,0.9,2.7,1.9,3.9,3.1s2.3,2.5,3.1,3.9l13.3-13.3h24.5l0-10l-14.5,0l7.8-7.8l-7-7l-7.8,7.8
		v-14.5l-10,0v24.5L200.7,283.9L200.7,283.9L200.7,283.9z"/>
	<path class="st1" d="M211,298.6c0.3,1.6,0.5,3.3,0.5,5c0,1.7-0.2,3.4-0.5,5h18.8l17.3,17.3l7-7l-10.2-10.2h11v-10h-11l10.2-10.2
		l-7-7l-17.3,17.3L211,298.6L211,298.6L211,298.6z"/>
	<path class="st1" d="M121.6,318.8l7,7l17.3-17.3h18.8c-0.3-1.6-0.5-3.3-0.5-5c0-1.7,0.2-3.4,0.5-5h-18.8l-17.3-17.3l-7,7l10.2,10.2
		h-11v10h11L121.6,318.8z"/>
	<path class="st1" d="M130.1,277.8l24.5-0.1l13.3,13.2c1.8-2.8,4.2-5.2,7-7.1l-13.3-13.2l-0.1-24.5l-10,0l0.1,14.5l-7.8-7.8l-7,7.1
		l7.8,7.8l-14.5,0.1L130.1,277.8z"/>
	<path class="st1" d="M154.6,329.6l-24.5-0.1l0,10l14.5,0.1l-7.8,7.8l7,7.1l7.8-7.8l-0.1,14.5l10,0l0.1-24.5l13.3-13.2
		c-2.8-1.8-5.2-4.3-7-7.1L154.6,329.6z"/>
	<circle class="st1" cx="187.8" cy="303.6" r="18.1"/>
	<path class="st1" d="M182.9,345.5l-17.4,17.2l7,7.1l10.3-10.2l-0.1,11l10,0l0.1-11l10.2,10.3l7.1-7l-17.2-17.4l0.1-18.8
		c-3.3,0.7-6.7,0.7-10-0.1L182.9,345.5z"/>
	<path class="st1" d="M214,336.7l-0.1,24.5l10,0l0.1-14.5l7.8,7.8l7.1-7l-7.8-7.8l14.5,0.1l0-10l-24.5-0.1l-13.2-13.3
		c-1.8,2.8-4.3,5.2-7.1,7L214,336.7z"/>
</g>
<g id="Livello_1" class="st0">
	<path class="st2" d="M283.2,560.1c0,26.3-21.3,47.7-47.7,47.7s-47.7-21.3-47.7-47.7c0-18,9.9-33.6,24.6-41.7V260.3
		c0-12.7,10.3-23.1,23.1-23.1c6.4,0,12.1,2.6,16.3,6.8c4.2,4.2,6.8,9.9,6.8,16.3v258.1C273.2,526.5,283.2,542.2,283.2,560.1z"/>
	<rect x="215.7" y="439.4" class="st3" width="11.8" height="4.6"/>
	<rect x="215.7" y="413.9" class="st3" width="11.8" height="4.6"/>
	<rect x="215.7" y="464.9" class="st3" width="11.8" height="4.6"/>
	<rect x="215.7" y="490.4" class="st3" width="11.8" height="4.6"/>
	<rect x="215.7" y="337.4" class="st3" width="11.8" height="4.6"/>
	<rect x="215.7" y="362.9" class="st3" width="11.8" height="4.6"/>
	<rect x="215.7" y="388.4" class="st3" width="11.8" height="4.6"/>
	<rect x="215.7" y="260.9" class="st3" width="11.8" height="4.6"/>
	<rect x="215.7" y="286.4" class="st3" width="11.8" height="4.6"/>
	<rect x="215.7" y="311.9" class="st3" width="11.8" height="4.6"/>
	<path class="st4" d="M242.2,548.8h-13.3V258.6c0-2.5,2.7-4.6,6.1-4.6h1.1c3.4,0,6.1,2.1,6.1,4.6v252.3
		C242.2,510.9,242.2,510.9,242.2,548.8z"/>
	<circle class="st4" cx="235.5" cy="558.8" r="32.6"/>
	<circle class="st1" cx="235.5" cy="558.8" r="28.3"/>
	<rect x="235.5" y="303.6" class="st1" width="6" height="263"/>
</g>
<g id="Livello_1_copia" class="st0">
	<g class="st3">
		<path class="st5" d="M251.3,322.2l-13.5-18.6l13.5-18.6c0.4-0.7,0.5-1.4,0.3-2.2c-0.2-0.8-0.7-1.3-1.5-1.5l-21.9-7.2v-22.9
			c0-0.8-0.3-1.5-1-2c-0.8-0.5-1.5-0.6-2.2-0.3l-21.9,7l-13.5-18.6c-0.5-0.6-1.1-0.9-2-0.9c-0.9,0-1.5,0.3-1.9,0.9L172.4,256
			l-21.9-7c-0.7-0.3-1.4-0.2-2.2,0.3c-0.7,0.5-1,1.2-1,2v22.9l-21.9,7.2c-0.8,0.3-1.3,0.8-1.5,1.5c-0.3,0.8-0.2,1.5,0.3,2.2
			l13.5,18.6l-13.5,18.6c-0.5,0.6-0.5,1.3-0.3,2.2c0.2,0.7,0.7,1.2,1.5,1.5l21.9,7.2v22.9c0,0.8,0.3,1.5,1,2
			c0.8,0.5,1.5,0.6,2.2,0.3l21.9-7l13.5,18.6c0.5,0.7,1.1,1,1.9,1s1.5-0.3,2-1l13.5-18.6l21.9,7c0.7,0.3,1.4,0.2,2.2-0.3
			c0.7-0.5,1-1.2,1-2V333l21.9-7.2c0.8-0.3,1.3-0.8,1.5-1.5C251.9,323.5,251.8,322.8,251.3,322.2z M227.6,320.3
			c-2.3,5.3-5.3,9.9-9.2,13.8s-8.5,6.9-13.8,9.2c-5.3,2.3-10.9,3.4-16.7,3.4c-5.8,0-11.4-1.1-16.7-3.4c-5.3-2.3-9.9-5.3-13.8-9.2
			s-6.9-8.5-9.2-13.8c-2.3-5.3-3.4-10.9-3.4-16.7c0-5.8,1.1-11.4,3.4-16.7c2.3-5.3,5.3-9.9,9.2-13.8s8.5-6.9,13.8-9.2
			c5.3-2.3,10.9-3.4,16.7-3.4c5.8,0,11.4,1.1,16.7,3.4c5.3,2.3,9.9,5.3,13.8,9.2s6.9,8.5,9.2,13.8c2.3,5.3,3.4,10.9,3.4,16.7
			C231,309.4,229.8,315,227.6,320.3z"/>
		<path class="st6" d="M231,303.6c0,5.9-1.1,11.4-3.4,16.7s-5.3,9.9-9.2,13.8s-8.5,6.9-13.8,9.2c-5.3,2.3-10.9,3.4-16.7,3.4
			c-5.8,0-11.4-1.1-16.7-3.4c-5.3-2.3-9.9-5.3-13.8-9.2s-6.9-8.5-9.2-13.8c-2.3-5.3-3.4-10.9-3.4-16.7c0-5.8,1.1-11.4,3.4-16.7
			c2.3-5.3,5.3-9.9,9.2-13.8s8.5-6.9,13.8-9.2c5.3-2.3,10.9-3.4,16.7-3.4c5.8,0,11.4,1.1,16.7,3.4c5.3,2.3,9.9,5.3,13.8,9.2
			s6.9,8.5,9.2,13.8C229.8,292.2,231,297.7,231,303.6z"/>
	</g>
	<rect x="215.7" y="413.9" class="st3" width="11.8" height="4.6"/>
	<rect x="215.7" y="337.4" class="st3" width="11.8" height="4.6"/>
	<rect x="215.7" y="362.9" class="st3" width="11.8" height="4.6"/>
	<rect x="215.7" y="388.4" class="st3" width="11.8" height="4.6"/>
	<rect x="215.7" y="260.9" class="st3" width="11.8" height="4.6"/>
	<rect x="215.7" y="286.4" class="st3" width="11.8" height="4.6"/>
	<rect x="215.7" y="311.9" class="st3" width="11.8" height="4.6"/>
</g>
<g id="Livello_1_copia_2">
	<g>
		<path class="st5" d="M251.3,322.2l-13.5-18.6l13.5-18.6c0.4-0.7,0.5-1.4,0.3-2.2c-0.2-0.8-0.7-1.3-1.5-1.5l-21.9-7.2v-22.9
			c0-0.8-0.3-1.5-1-2c-0.8-0.5-1.5-0.6-2.2-0.3l-21.9,7l-13.5-18.6c-0.5-0.6-1.1-0.9-2-0.9c-0.9,0-1.5,0.3-1.9,0.9L172.4,256
			l-21.9-7c-0.7-0.3-1.4-0.2-2.2,0.3c-0.7,0.5-1,1.2-1,2v22.9l-21.9,7.2c-0.8,0.3-1.3,0.8-1.5,1.5c-0.3,0.8-0.2,1.5,0.3,2.2
			l13.5,18.6l-13.5,18.6c-0.5,0.6-0.5,1.3-0.3,2.2c0.2,0.7,0.7,1.2,1.5,1.5l21.9,7.2v22.9c0,0.8,0.3,1.5,1,2
			c0.8,0.5,1.5,0.6,2.2,0.3l21.9-7l13.5,18.6c0.5,0.7,1.1,1,1.9,1s1.5-0.3,2-1l13.5-18.6l21.9,7c0.7,0.3,1.4,0.2,2.2-0.3
			c0.7-0.5,1-1.2,1-2V333l21.9-7.2c0.8-0.3,1.3-0.8,1.5-1.5C251.9,323.5,251.8,322.8,251.3,322.2z M227.6,320.3
			c-2.3,5.3-5.3,9.9-9.2,13.8s-8.5,6.9-13.8,9.2c-5.3,2.3-10.9,3.4-16.7,3.4c-5.8,0-11.4-1.1-16.7-3.4c-5.3-2.3-9.9-5.3-13.8-9.2
			s-6.9-8.5-9.2-13.8c-2.3-5.3-3.4-10.9-3.4-16.7c0-5.8,1.1-11.4,3.4-16.7c2.3-5.3,5.3-9.9,9.2-13.8s8.5-6.9,13.8-9.2
			c5.3-2.3,10.9-3.4,16.7-3.4c5.8,0,11.4,1.1,16.7,3.4c5.3,2.3,9.9,5.3,13.8,9.2s6.9,8.5,9.2,13.8c2.3,5.3,3.4,10.9,3.4,16.7
			C231,309.4,229.8,315,227.6,320.3z"/>
		<path class="st6" d="M231,303.6c0,5.9-1.1,11.4-3.4,16.7s-5.3,9.9-9.2,13.8s-8.5,6.9-13.8,9.2c-5.3,2.3-10.9,3.4-16.7,3.4
			c-5.8,0-11.4-1.1-16.7-3.4c-5.3-2.3-9.9-5.3-13.8-9.2s-6.9-8.5-9.2-13.8c-2.3-5.3-3.4-10.9-3.4-16.7c0-5.8,1.1-11.4,3.4-16.7
			c2.3-5.3,5.3-9.9,9.2-13.8s8.5-6.9,13.8-9.2c5.3-2.3,10.9-3.4,16.7-3.4c5.8,0,11.4,1.1,16.7,3.4c5.3,2.3,9.9,5.3,13.8,9.2
			s6.9,8.5,9.2,13.8C229.8,292.2,231,297.7,231,303.6z"/>
	</g>
	<path class="st7" d="M283.2,560.1c0,26.3-21.3,47.7-47.7,47.7s-47.7-21.3-47.7-47.7c0-18,9.9-33.6,24.6-41.7V260.3
		c0-12.7,10.3-23.1,23.1-23.1c6.4,0,12.1,2.6,16.3,6.8c4.2,4.2,6.8,9.9,6.8,16.3v258.1C273.2,526.5,283.2,542.2,283.2,560.1z"/>
	<rect x="215.7" y="439.4" width="11.8" height="4.6"/>
	<rect x="215.7" y="413.9" width="11.8" height="4.6"/>
	<rect x="215.7" y="464.9" width="11.8" height="4.6"/>
	<rect x="215.7" y="490.4" width="11.8" height="4.6"/>
	<rect x="215.7" y="337.4" width="11.8" height="4.6"/>
	<rect x="215.7" y="362.9" width="11.8" height="4.6"/>
	<rect x="215.7" y="388.4" width="11.8" height="4.6"/>
	<rect x="215.7" y="260.9" width="11.8" height="4.6"/>
	<rect x="215.7" y="286.4" width="11.8" height="4.6"/>
	<rect x="215.7" y="311.9" width="11.8" height="4.6"/>
	<path class="st8" d="M242.2,548.8h-13.3V258.6c0-2.5,2.7-4.6,6.1-4.6h1.1c3.4,0,6.1,2.1,6.1,4.6v252.3
		C242.2,510.9,242.2,510.9,242.2,548.8z"/>
	<circle class="st8" cx="235.5" cy="558.8" r="32.6"/>
	<circle class="st9" cx="235.5" cy="558.8" r="28.3"/>
	<polygon class="st9" points="235.5,550.2 231,549.8 231,286.8 235.5,287.2 	"/>
	<rect x="235.5" y="233" class="st10" width="54" height="390.5"/>
</g>
<g id="Livello_5">
	<path class="st11" d="M283.2,560.1c0,26.3-21.3,47.7-47.7,47.7V237.2c6.4,0,12.1,2.6,16.3,6.8c4.2,4.2,6.8,9.9,6.8,16.3v258.1
		C273.2,526.5,283.2,542.2,283.2,560.1z"/>
	<path class="st12" d="M242.2,258.6v252.3c0,0,0,0,0,16v22h-6.7V254h0.6C239.4,254,242.2,256.1,242.2,258.6z"/>
	<path class="st12" d="M268.1,558.8c0,18-14.6,32.6-32.6,32.6v-65.2c2.3,0,4.5,0.2,6.7,0.7C257,529.9,268.1,543,268.1,558.8z"/>
	<path class="st13" d="M263.8,558.8c0,15.6-12.7,28.3-28.3,28.3v-56.5c2.3,0,4.5,0.3,6.7,0.8C254.5,534.3,263.8,545.5,263.8,558.8z"
		/>
	<polygon class="st13" points="235.5,550.2 240,549.8 240,286.8 235.5,287.2 	"/>
</g>
</svg>
