<?xml version="1.0" encoding="iso-8859-1"?>
<!-- Generator: Adobe Illustrator 19.0.0, SVG Export Plug-In . SVG Version: 6.00 Build 0)  -->
<svg version="1.1" id="Layer_1" xmlns="http://www.w3.org/2000/svg" xmlns:xlink="http://www.w3.org/1999/xlink" x="0px" y="0px"
	 viewBox="0 0 512 512" style="enable-background:new 0 0 512 512;" xml:space="preserve">
<path style="fill:#FFB655;" d="M438.245,83.318c-14.962-20.202-38.402-39.855-66-55.339C340.551,10.198,306.892,0,279.899,0
	c-33.678,0-47.475,15.628-52.703,24.945c-5.205,9.28-10.791,27.926,4.235,54.642l-64.487,114.939
	c-2.558,4.558-3.199,9.946-1.785,14.979c1.415,5.032,4.771,9.295,9.33,11.854l135.789,76.182c3.05,1.711,6.359,2.524,9.625,2.524
	c6.897,0,13.592-3.626,17.206-10.069l64.491-114.948c30.886-1.142,43.818-15.911,48.836-24.856
	C456.446,139.477,462.855,116.543,438.245,83.318z"/>
<path style="fill:#FFA733;" d="M438.245,83.318c-14.962-20.202-38.402-39.855-66-55.339c-31.411-17.623-64.741-27.781-91.61-27.962
	v280.892l29.642,16.631c3.05,1.711,6.359,2.524,9.625,2.524c6.897,0,13.592-3.626,17.206-10.069l64.491-114.948
	c30.886-1.142,43.818-15.911,48.836-24.856C456.446,139.477,462.855,116.543,438.245,83.318z"/>
<g>
	<path style="fill:#787680;" d="M414.653,210.203H141.671v-12.909c0-12.687,10.284-22.972,22.972-22.972h227.039
		c12.687,0,22.972,10.284,22.972,22.972L414.653,210.203L414.653,210.203z"/>
	<path style="fill:#787680;" d="M126.909,512c-10.885,0-19.708-8.823-19.708-19.708v-41.22c0-10.885,8.823-19.708,19.708-19.708
		s19.708,8.823,19.708,19.708v41.22C146.618,503.177,137.794,512,126.909,512z"/>
</g>
<g>
	<path style="fill:#57565C;" d="M434.362,512c-10.885,0-19.708-8.823-19.708-19.708v-41.22c0-10.885,8.823-19.708,19.708-19.708
		c10.885,0,19.708,8.823,19.708,19.708v41.22C454.07,503.177,445.247,512,434.362,512z"/>
	<path style="fill:#57565C;" d="M89.463,359.875H40.192c-10.885,0-19.708-8.823-19.708-19.708c0-10.885,8.823-19.708,19.708-19.708
		h49.271c10.885,0,19.708,8.823,19.708,19.708C109.171,351.052,100.348,359.875,89.463,359.875z"/>
</g>
<path style="fill:#D63C13;" d="M407.5,192.352H153.771c-46.326,0-84.017,37.69-84.017,84.017v191.903
	c0,10.884,8.825,19.708,19.708,19.708h382.345c10.885,0,19.708-8.824,19.708-19.708V276.369
	C491.517,230.042,453.827,192.352,407.5,192.352z"/>
<path style="fill:#B72306;" d="M407.5,192.352H280.636V487.98h191.173c10.885,0,19.708-8.825,19.708-19.708V276.369
	C491.517,230.042,453.827,192.352,407.5,192.352z"/>
<g>
</g>
<g>
</g>
<g>
</g>
<g>
</g>
<g>
</g>
<g>
</g>
<g>
</g>
<g>
</g>
<g>
</g>
<g>
</g>
<g>
</g>
<g>
</g>
<g>
</g>
<g>
</g>
<g>
</g>
</svg>
