<?xml version="1.0" encoding="iso-8859-1"?>
<!-- Generator: Adobe Illustrator 19.0.0, SVG Export Plug-In . SVG Version: 6.00 Build 0)  -->
<svg version="1.1" id="Layer_1" xmlns="http://www.w3.org/2000/svg" xmlns:xlink="http://www.w3.org/1999/xlink" x="0px" y="0px"
	 viewBox="0 0 512 512" style="enable-background:new 0 0 512 512;" xml:space="preserve">
<path style="fill:#5F4D37;" d="M397.56,38.302h-86.868v-12.83c0-11.106,9.003-20.107,20.107-20.107h46.652
	c11.106,0,20.107,9.003,20.107,20.107v12.83H397.56z"/>
<path style="fill:#B6B5BF;" d="M171.439,78.815V32.746c0-6.342-3.605-12.132-9.297-14.93c-5.691-2.798-12.478-2.118-17.5,1.755
	L44.347,96.908c-4.085,3.15-6.477,8.017-6.477,13.175v210.685c0,9.188,7.449,16.637,16.637,16.637h100.296
	c9.188,0,16.637-7.449,16.637-16.637v-66.363c0-4.412-1.754-8.643-4.874-11.763l-17.726-17.727l17.388-17.387
	c3.12-3.12,4.874-7.351,4.874-11.765c0-4.412-1.754-8.643-4.874-11.763l-17.388-17.388l17.388-17.388
	c3.12-3.12,4.874-7.351,4.874-11.763c0-4.413-1.754-8.643-4.874-11.763l-17.389-17.391l17.726-17.727
	C169.685,87.46,171.439,83.228,171.439,78.815z"/>
<path style="fill:#A4A2AF;" d="M171.439,78.815V32.746c0-6.342-3.605-12.132-9.297-14.93c-5.691-2.798-12.478-2.118-17.5,1.755
	l-39.989,30.834v286.999H154.8c9.188,0,16.637-7.449,16.637-16.637v-66.363c0-4.412-1.754-8.643-4.874-11.763l-17.726-17.727
	l17.388-17.387c3.12-3.12,4.874-7.351,4.874-11.765c0-4.412-1.754-8.643-4.874-11.763l-17.388-17.388l17.388-17.388
	c3.12-3.12,4.874-7.351,4.874-11.763c0-4.413-1.754-8.643-4.874-11.763l-17.387-17.39l17.726-17.727
	C169.685,87.46,171.439,83.228,171.439,78.815z"/>
<path style="fill:#6A563D;" d="M384.369,83.529h-60.485c-9.188,0-16.637,7.449-16.637,16.637v353.867
	c0,25.849,21.03,46.88,46.88,46.88c25.849,0,46.88-21.03,46.88-46.88V100.166C401.006,90.977,393.557,83.529,384.369,83.529z"/>
<path style="fill:#5F4D37;" d="M384.369,83.529h-30.243v417.383c25.849,0,46.88-21.03,46.88-46.88V100.166
	C401.006,90.977,393.557,83.529,384.369,83.529z"/>
<path style="fill:#DBA15A;" d="M207.696,449.563l-36.86-133.231c-1.994-7.209-8.555-12.2-16.035-12.2H54.506
	c-7.48,0-14.041,4.991-16.035,12.2L1.613,449.562c-3.73,13.478-0.901,28.17,7.569,39.3c8.468,11.129,21.873,17.773,35.857,17.773
	H164.27c13.985,0,27.39-6.645,35.858-17.773C208.597,477.732,211.425,463.04,207.696,449.563z M148.76,457.698H60.549
	c-9.188,0-16.637-7.449-16.637-16.637s7.449-16.637,16.637-16.637h88.212c9.188,0,16.637,7.449,16.637,16.637
	S157.948,457.698,148.76,457.698z"/>
<path style="fill:#898890;" d="M509.818,125.283l-54.152-95.048c-2.959-5.194-8.478-8.402-14.455-8.402H223.559
	c-9.188,0-16.637,7.449-16.637,16.637v95.048c0,9.188,7.449,16.637,16.637,16.637h271.804c5.927,0,11.406-3.153,14.384-8.277
	S512.752,130.432,509.818,125.283z"/>
<path style="fill:#787680;" d="M509.818,125.283l-54.152-95.048c-2.959-5.194-8.478-8.402-14.455-8.402h-87.085v128.322h141.237
	c5.927,0,11.406-3.153,14.384-8.277S512.752,130.432,509.818,125.283z"/>
<path style="fill:#BC8346;" d="M207.696,449.563l-36.86-133.231c-1.994-7.209-8.555-12.2-16.035-12.2h-50.147v120.293h44.106
	c9.188,0,16.637,7.449,16.637,16.637s-7.449,16.637-16.637,16.637h-44.106v48.937h59.616c13.985,0,27.39-6.645,35.858-17.773
	C208.597,477.732,211.425,463.04,207.696,449.563z"/>
<rect x="307.241" y="150.154" style="fill:#5F4D37;" width="93.755" height="26.603"/>
<g>
</g>
<g>
</g>
<g>
</g>
<g>
</g>
<g>
</g>
<g>
</g>
<g>
</g>
<g>
</g>
<g>
</g>
<g>
</g>
<g>
</g>
<g>
</g>
<g>
</g>
<g>
</g>
<g>
</g>
</svg>
