<?xml version="1.0" encoding="iso-8859-1"?>
<!-- Generator: Adobe Illustrator 19.0.0, SVG Export Plug-In . SVG Version: 6.00 Build 0)  -->
<svg version="1.1" id="Layer_1" xmlns="http://www.w3.org/2000/svg" xmlns:xlink="http://www.w3.org/1999/xlink" x="0px" y="0px"
	 viewBox="0 0 512 512" style="enable-background:new 0 0 512 512;" xml:space="preserve">
<path style="fill:#C6C5CA;" d="M487.35,254.63L272.677,152.881V122.82c26.414-7.317,45.861-31.572,45.861-60.282
	C318.538,28.054,290.484,0,256,0s-62.539,28.054-62.539,62.539c0,9.21,7.467,16.678,16.678,16.678
	c9.21,0,16.678-7.467,16.678-16.678c0-16.093,13.091-29.184,29.184-29.184s29.184,13.091,29.184,29.184S272.092,91.722,256,91.722
	c-9.21,0-16.678,7.467-16.678,16.678v44.481L24.65,254.63c-15.158,7.184-23.173,23.631-19.492,39.995
	c3.682,16.366,17.97,27.796,34.744,27.796h432.195c16.774,0,31.063-11.43,34.744-27.796
	C510.522,278.261,502.507,261.814,487.35,254.63z M474.299,287.305c-0.233,1.037-1.138,1.761-2.201,1.761H39.902
	c-1.063,0-1.969-0.724-2.201-1.761c-0.232-1.037,0.275-2.079,1.235-2.534L256,181.889l217.064,102.882
	C474.025,285.226,474.532,286.269,474.299,287.305z"/>
<path style="fill:#ACABB1;" d="M487.35,254.63L272.677,152.881V122.82c26.414-7.317,45.861-31.572,45.861-60.282
	C318.538,28.054,290.484,0,256,0v33.355c16.093,0,29.184,13.091,29.184,29.184S272.092,91.722,256,91.722v90.167l217.064,102.882
	c0.96,0.455,1.466,1.498,1.234,2.534c-0.233,1.037-1.138,1.761-2.201,1.761H256v33.355h216.097c16.774,0,31.063-11.43,34.744-27.796
	C510.522,278.261,502.507,261.814,487.35,254.63z"/>
<path style="fill:#3D9AE2;" d="M391.082,255.831H120.918c-9.21,0-16.678,7.467-16.678,16.678v222.814
	c0,9.21,7.467,16.678,16.678,16.678h270.164c9.21,0,16.678-7.467,16.678-16.678V272.509
	C407.759,263.298,400.292,255.831,391.082,255.831z"/>
<path style="fill:#1E81CE;" d="M391.082,255.831H256V512h135.082c9.21,0,16.678-7.467,16.678-16.678V272.509
	C407.759,263.298,400.292,255.831,391.082,255.831z"/>
<rect x="104.235" y="433.884" style="fill:#B3D8F4;" width="152" height="31.05"/>
<rect x="255.878" y="433.884" style="fill:#78B9EB;" width="152" height="31.05"/>
<g>
</g>
<g>
</g>
<g>
</g>
<g>
</g>
<g>
</g>
<g>
</g>
<g>
</g>
<g>
</g>
<g>
</g>
<g>
</g>
<g>
</g>
<g>
</g>
<g>
</g>
<g>
</g>
<g>
</g>
</svg>
