<?xml version="1.0" encoding="iso-8859-1"?>
<!-- Generator: Adobe Illustrator 19.0.0, SVG Export Plug-In . SVG Version: 6.00 Build 0)  -->
<svg version="1.1" id="Layer_1" xmlns="http://www.w3.org/2000/svg" xmlns:xlink="http://www.w3.org/1999/xlink" x="0px" y="0px"
	 viewBox="0 0 512 512" style="enable-background:new 0 0 512 512;" xml:space="preserve">
<path style="fill:#787680;" d="M301.152,512c-33.984,0-61.632-27.648-61.632-61.633V16.481C239.519,7.379,246.898,0,256,0
	s16.481,7.379,16.481,16.481v433.886c0,15.81,12.862,28.672,28.671,28.672c15.81,0,28.672-12.862,28.672-28.672v-31.757
	c0-9.102,7.379-16.481,16.481-16.481c9.102,0,16.481,7.379,16.481,16.481v31.757C362.784,484.352,335.136,512,301.152,512z"/>
<path style="fill:#626168;" d="M346.303,402.129c-9.102,0-16.481,7.379-16.481,16.481v31.757c0,15.81-12.862,28.672-28.672,28.672
	c-15.808,0-28.67-12.862-28.67-28.672V16.481C272.481,7.379,265.102,0,256,0v492.258C267.263,504.39,283.332,512,301.152,512
	c33.985,0,61.633-27.648,61.633-61.633v-31.757C362.784,409.508,355.406,402.129,346.303,402.129z"/>
<path style="fill:#3D9AE2;" d="M256,43.642c-107.62,0-195.175,87.554-195.175,195.175c0,9.102,7.379,16.481,16.481,16.481h357.389
	c9.102,0,16.481-7.379,16.481-16.481C451.175,131.196,363.62,43.642,256,43.642z"/>
<path style="fill:#1E81CE;" d="M256,43.642v211.656h178.695c9.102,0,16.481-7.379,16.481-16.481
	C451.175,131.196,363.62,43.642,256,43.642z"/>
<g>
</g>
<g>
</g>
<g>
</g>
<g>
</g>
<g>
</g>
<g>
</g>
<g>
</g>
<g>
</g>
<g>
</g>
<g>
</g>
<g>
</g>
<g>
</g>
<g>
</g>
<g>
</g>
<g>
</g>
</svg>
