<?xml version="1.0" encoding="utf-8"?>
<!-- Generator: Adobe Illustrator 19.2.1, SVG Export Plug-In . SVG Version: 6.00 Build 0)  -->
<svg version="1.1" id="Livello_1" xmlns="http://www.w3.org/2000/svg" xmlns:xlink="http://www.w3.org/1999/xlink" x="0px" y="0px"
	 viewBox="0 0 404.8 404.8" style="enable-background:new 0 0 404.8 404.8;" xml:space="preserve">
<style type="text/css">
	.st0{fill:#FFC33B;}
	.st1{fill:#EEB638;}
	.st2{fill:#BB8813;}
	.st3{fill:#939598;}
	.st4{fill:#6D6E71;}
	.st5{fill:#9FA0A3;}
	.st6{fill:#CC9425;}
	.st7{fill:#825C11;}
	.st8{fill:#7F7F7F;}
	.st9{fill:#8E6003;}
</style>
<g id="Layer_1">
	<path class="st0" d="M263,357.8H122.5c-20.3,0-37-16.6-37-37V165.5H300v155.3C300,341.2,283.4,357.8,263,357.8L263,357.8z"/>
	<path class="st1" d="M381.4,343l-51.8-33.3h-18.5c-10.4,0-18.5-8.1-18.5-18.5v-51.8h37l51.8-29.6V343L381.4,343z"/>
	<g>
		<path class="st2" d="M263,365.2H115.1c-20.3,0-37-16.6-37-37v-99.8c0-4.1,3.3-7.4,7.4-7.4c4.1,0,7.4,3.3,7.4,7.4v99.8
			c0,12.2,10,22.2,22.2,22.2H263c12.2,0,22.2-10,22.2-22.2v-14.8c0-4.1,3.3-7.4,7.4-7.4s7.4,3.3,7.4,7.4v14.8
			C300,348.6,283.4,365.2,263,365.2z"/>
		<path class="st2" d="M292.6,276.4c-4.1,0-7.4-3.3-7.4-7.4V221c0-4.1,3.3-7.4,7.4-7.4s7.4,3.3,7.4,7.4v48.1
			C300,273.1,296.7,276.4,292.6,276.4z"/>
	</g>
	<circle class="st3" cx="96.6" cy="150.7" r="74"/>
	<path class="st4" d="M96.6,232.1c-44.7,0-81.3-36.6-81.3-81.4s36.6-81.3,81.3-81.3S178,106,178,150.7S141.4,232.1,96.6,232.1z
		 M96.6,84.2c-36.6,0-66.6,30-66.6,66.6s30,66.6,66.6,66.6s66.6-30,66.6-66.6S133.3,84.2,96.6,84.2z"/>
	<circle class="st3" cx="259.3" cy="135.9" r="88.7"/>
	<path class="st4" d="M259.3,232.1c-52.9,0-96.1-43.3-96.1-96.1s43.3-96.1,96.1-96.1s96.1,43.3,96.1,96.1S312.2,232.1,259.3,232.1z
		 M259.3,54.6c-44.7,0-81.4,36.6-81.4,81.3s36.6,81.4,81.4,81.4s81.4-36.6,81.4-81.4S304.1,54.6,259.3,54.6z"/>
	<path class="st2" d="M374,350.8c-3,0-5.9-0.7-8.5-2.6l-34.4-24.4c-2.6-1.8-5.5-2.6-8.5-2.6h-30c-4.1,0-7.4-3.3-7.4-7.4
		c0-4.1,3.3-7.4,7.4-7.4h30c6.3,0,12.2,1.8,17,5.5l34.4,24.4V217.3l-34.4,24.4c-5.2,3.7-11.1,5.5-17.4,5.5h-29.6
		c-4.1,0-7.4-3.3-7.4-7.4c0-4.1,3.3-7.4,7.4-7.4h30c3,0,6.3-1.1,8.9-2.6l34.4-24.4c4.4-3.3,10.7-3.7,15.5-1.1
		c4.8,2.6,8.1,7.8,8.1,13.3v119.1c0,5.5-3,10.4-7.8,12.9C379.2,350,376.6,350.8,374,350.8z"/>
	<g>
		<path class="st5" d="M129.9,93c-31.8-18.5-72.5-7.4-90.6,24.4c-18.5,31.8-7.4,72.5,24.4,90.6C33,150.7,63.4,109.7,129.9,93
			L129.9,93z"/>
		<path class="st5" d="M300,65.7c-39.2-22.6-88.7-9.2-110.9,29.6c-22.6,39.2-9.2,88.7,29.6,110.9C181.7,135.9,218.7,85.6,300,65.7
			L300,65.7z"/>
	</g>
</g>
<g id="Livello_2">
	<path class="st0" d="M184.6,167.9c-0.4-0.7-0.6-1.6-1-2.4l0,0C183.9,166.3,184.3,167.1,184.6,167.9z"/>
	<path class="st6" d="M300,165.5v155.7c-0.2,20.2-16.7,36.6-37,36.6h-60.6V165.5H300z"/>
	<path class="st7" d="M381.4,343l-51.8-33.3h-18.5c-10.4,0-18.5-8.1-18.5-18.5v-51.8h37l51.8-29.6V343L381.4,343z"/>
	<g>
		<path class="st2" d="M300,313.4v14.8c0,20.3-16.6,37-37,37h-60.6v-14.8H263c12.2,0,22.2-10,22.2-22.2v-14.8c0-4.1,3.3-7.4,7.4-7.4
			c0.8,0,1.6,0.1,2.3,0.4C297.9,307.3,300,310.2,300,313.4z"/>
		<path class="st2" d="M292.6,276.4c-4.1,0-7.4-3.3-7.4-7.4V221c0-4.1,3.3-7.4,7.4-7.4s7.4,3.3,7.4,7.4v48.1
			C300,273.1,296.7,276.4,292.6,276.4z"/>
	</g>
	<path class="st3" d="M80.4,86.2c0.2,0,0.3-0.1,0.5-0.1C80.7,86.1,80.6,86.2,80.4,86.2z"/>
	<path class="st3" d="M75.7,87.6c0.9-0.3,1.8-0.6,2.7-0.8C77.4,87,76.5,87.3,75.7,87.6z"/>
	<path class="st3" d="M184.6,167.9c-0.4-0.7-0.6-1.6-1-2.4l0,0C183.9,166.3,184.3,167.1,184.6,167.9z"/>
	<path class="st8" d="M348.1,135.9c0,34.4-19.5,64.2-48.1,78.9c-0.6,0.4-1.4,0.7-2,1c-4.1,1.9-8.3,3.6-12.8,5
		c-8.2,2.5-16.9,3.9-25.9,3.9c-21.7,0-41.5-7.8-56.9-20.7V78c-2,1.9-4,4.1-5.7,6.3c1.8-2.2,3.8-4.3,5.7-6.4v-10
		c15.4-12.9,35.2-20.7,56.9-20.7C308.3,47.2,348.1,86.9,348.1,135.9z"/>
	<path class="st4" d="M259.3,39.8c-21.3,0-41,7-56.9,18.8v19.3c-2,2-4,4.2-5.7,6.4c1.8-2.2,3.7-4.3,5.7-6.3c6.1-6,13.2-11.1,21-15
		c0.6-0.3,1-0.6,1.6-0.7c0.6-0.3,1.1-0.5,1.7-0.7c1.4-0.6,2.9-1.2,4.3-1.8c8.8-3.3,18.4-5.2,28.4-5.2c44.7,0,81.4,36.6,81.4,81.3
		c0,30-16.4,56.2-40.7,70.3c-12,6.9-25.9,11-40.7,11c-18.8,0-36.1-6.5-49.9-17.2c-0.6-0.5-1.2-0.9-1.8-1.4c-1.8-1.5-3.6-3.1-5.3-4.7
		v19.4c16,11.8,35.7,18.9,56.9,18.9c9,0,17.7-1.2,25.9-3.6c5.1-1.5,10.1-3.3,14.8-5.5c32.7-15.3,55.5-48.7,55.5-87.1
		C355.5,83.1,312.2,39.8,259.3,39.8z"/>
	<path class="st9" d="M374,350.8c-3,0-5.9-0.7-8.5-2.6l-34.4-24.4c-2.6-1.8-5.5-2.6-8.5-2.6h-30c-4.1,0-7.4-3.3-7.4-7.4
		c0-4.1,3.3-7.4,7.4-7.4h30c6.3,0,12.2,1.8,17,5.5l34.4,24.4V217.3l-34.4,24.4c-5.2,3.7-11.1,5.5-17.4,5.5h-29.6
		c-4.1,0-7.4-3.3-7.4-7.4c0-4.1,3.3-7.4,7.4-7.4h30c3,0,6.3-1.1,8.9-2.6l34.4-24.4c4.4-3.3,10.7-3.7,15.5-1.1
		c4.8,2.6,8.1,7.8,8.1,13.3v119.1c0,5.5-3,10.4-7.8,12.9C379.2,350,376.6,350.8,374,350.8z"/>
	<g>
		<path class="st5" d="M80.4,86.2c0.2,0,0.3-0.1,0.5-0.1C80.7,86.1,80.6,86.2,80.4,86.2z"/>
		<path class="st5" d="M75.7,87.6c0.9-0.3,1.8-0.6,2.7-0.8C77.4,87,76.5,87.3,75.7,87.6z"/>
		<path class="st5" d="M205,165.5c1.6,12.7,6.1,26.3,13.7,40.7c-3.2-1.8-6.3-3.9-9.2-6.1c-0.6-0.5-1.2-0.9-1.8-1.4
			c-1.8-1.5-3.6-3.1-5.3-4.7V78c-2,1.9-4,4.1-5.7,6.3c1.8-2.2,3.8-4.3,5.7-6.4c6.2-6.2,13.3-11.2,21-14.9c0.6-0.3,1-0.6,1.6-0.7
			c0.6-0.3,1.1-0.5,1.7-0.7c1.4-0.6,2.9-1.2,4.3-1.8c21.8-8,47.1-6.7,69.1,5.9C235.4,81.6,198.8,116.5,205,165.5z"/>
	</g>
	<path class="st3" d="M80.4,86.2c0.2,0,0.3-0.1,0.5-0.1C80.7,86.1,80.6,86.2,80.4,86.2z"/>
	<path class="st3" d="M75.7,87.6c0.9-0.3,1.8-0.6,2.7-0.8C77.4,87,76.5,87.3,75.7,87.6z"/>
	<path class="st3" d="M184.6,167.9c-0.4-0.7-0.6-1.6-1-2.4l0,0C183.9,166.3,184.3,167.1,184.6,167.9z"/>
	<path class="st3" d="M202.4,77.9L202.4,77.9c-2,2-4,4.2-5.7,6.4C198.4,82,200.4,79.9,202.4,77.9z"/>
</g>
</svg>
