<?xml version="1.0" encoding="utf-8"?>
<!-- Generator: Adobe Illustrator 19.2.1, SVG Export Plug-In . SVG Version: 6.00 Build 0)  -->
<svg version="1.1" xmlns="http://www.w3.org/2000/svg" xmlns:xlink="http://www.w3.org/1999/xlink" x="0px" y="0px"
	 viewBox="0 0 404.8 404.8" style="enable-background:new 0 0 404.8 404.8;" xml:space="preserve">
<style type="text/css">
	.st0{fill:#FFC33B;}
	.st1{fill:#EEB638;}
	.st2{fill:#BB8813;}
	.st3{fill:#939598;}
	.st4{fill:#6D6E71;}
	.st5{fill:#9FA0A3;}
	.st6{fill:#CC9425;}
	.st7{fill:#825C11;}
	.st8{fill:#7F7F7F;}
	.st9{fill:#8E6003;}
</style>
<g id="Layer_1">
	<path class="st0" d="M268,370.4H116c-22,0-40-18-40-40v-168h232v168C308,352.4,290,370.4,268,370.4L268,370.4z"/>
	<path class="st1" d="M396,354.4l-56-36h-20c-11.2,0-20-8.8-20-20v-56h40l56-32V354.4L396,354.4z"/>
	<g>
		<path class="st2" d="M268,378.4H108c-22,0-40-18-40-40v-108c0-4.4,3.6-8,8-8s8,3.6,8,8v108c0,13.2,10.8,24,24,24h160
			c13.2,0,24-10.8,24-24v-16c0-4.4,3.6-8,8-8s8,3.6,8,8v16C308,360.4,290,378.4,268,378.4z"/>
		<path class="st2" d="M300,282.4c-4.4,0-8-3.6-8-8v-52c0-4.4,3.6-8,8-8s8,3.6,8,8v52C308,278.8,304.4,282.4,300,282.4z"/>
	</g>
	<circle class="st3" cx="88" cy="146.4" r="80"/>
	<path class="st4" d="M88,234.4c-48.4,0-88-39.6-88-88s39.6-88,88-88s88,39.6,88,88S136.4,234.4,88,234.4z M88,74.4
		c-39.6,0-72,32.4-72,72s32.4,72,72,72s72-32.4,72-72S127.6,74.4,88,74.4z"/>
	<circle class="st3" cx="264" cy="130.4" r="96"/>
	<path class="st4" d="M264,234.4c-57.2,0-104-46.8-104-104s46.8-104,104-104s104,46.8,104,104S321.2,234.4,264,234.4z M264,42.4
		c-48.4,0-88,39.6-88,88s39.6,88,88,88s88-39.6,88-88S312.4,42.4,264,42.4z"/>
	<path class="st2" d="M388,362.8c-3.2,0-6.4-0.8-9.2-2.8l-37.2-26.4c-2.8-2-6-2.8-9.2-2.8H300c-4.4,0-8-3.6-8-8s3.6-8,8-8h32.4
		c6.8,0,13.2,2,18.4,6l37.2,26.4V218.4l-37.2,26.4c-5.6,4-12,6-18.8,6h-32c-4.4,0-8-3.6-8-8s3.6-8,8-8h32.4c3.2,0,6.8-1.2,9.6-2.8
		l37.2-26.4c4.8-3.6,11.6-4,16.8-1.2c5.2,2.8,8.8,8.4,8.8,14.4v128.8c0,6-3.2,11.2-8.4,14C393.6,362,390.8,362.8,388,362.8z"/>
	<g>
		<path class="st5" d="M124,84c-34.4-20-78.4-8-98,26.4c-20,34.4-8,78.4,26.4,98C19.2,146.4,52,102,124,84L124,84z"/>
		<path class="st5" d="M308,54.4c-42.4-24.4-96-10-120,32c-24.4,42.4-10,96,32,120C180,130.4,220,76,308,54.4L308,54.4z"/>
	</g>
</g>
<g id="Livello_2">
	<path class="st0" d="M183.1,165c-0.4-0.8-0.7-1.7-1.1-2.6h0C182.4,163.3,182.8,164.1,183.1,165z"/>
	<path class="st6" d="M308,162.4v168.4c-0.2,21.8-18.1,39.6-40,39.6h-65.6v-208H308z"/>
	<path class="st7" d="M396,354.4l-56-36h-20c-11.2,0-20-8.8-20-20v-56h40l56-32V354.4L396,354.4z"/>
	<g>
		<path class="st2" d="M308,322.4v16c0,22-18,40-40,40h-65.6v-16H268c13.2,0,24-10.8,24-24v-16c0-4.4,3.6-8,8-8
			c0.9,0,1.7,0.1,2.5,0.4C305.7,315.8,308,318.9,308,322.4z"/>
		<path class="st2" d="M300,282.4c-4.4,0-8-3.6-8-8v-52c0-4.4,3.6-8,8-8s8,3.6,8,8v52C308,278.8,304.4,282.4,300,282.4z"/>
	</g>
	<path class="st3" d="M70.4,76.6c0.2,0,0.3-0.1,0.5-0.1C70.7,76.5,70.6,76.6,70.4,76.6z"/>
	<path class="st3" d="M65.3,78.1c1-0.3,1.9-0.6,2.9-0.9C67.2,77.5,66.2,77.8,65.3,78.1z"/>
	<path class="st3" d="M183.1,165c-0.4-0.8-0.7-1.7-1.1-2.6h0C182.4,163.3,182.8,164.1,183.1,165z"/>
	<path class="st8" d="M360,130.4c0,37.2-21.1,69.4-52,85.3c-0.7,0.4-1.5,0.8-2.2,1.1c-4.4,2.1-9,3.9-13.8,5.4
		c-8.9,2.7-18.3,4.2-28,4.2c-23.5,0-44.9-8.4-61.6-22.4V67.7c-2.2,2.1-4.3,4.4-6.2,6.8c2-2.4,4.1-4.7,6.2-6.9V56.8
		c16.7-14,38.1-22.4,61.6-22.4C317,34.4,360,77.4,360,130.4z"/>
	<path class="st4" d="M264,26.4c-23,0-44.3,7.6-61.6,20.3v20.9c-2.2,2.2-4.3,4.5-6.2,6.9c2-2.4,4-4.7,6.2-6.8
		c6.6-6.5,14.3-12,22.7-16.2c0.6-0.3,1.1-0.6,1.7-0.8c0.6-0.3,1.2-0.5,1.8-0.8c1.5-0.7,3.1-1.3,4.7-1.9c9.5-3.6,19.9-5.6,30.7-5.6
		c48.4,0,88,39.6,88,88c0,32.4-17.7,60.8-44,76.1c-13,7.5-28,11.9-44,11.9c-20.3,0-39-7-54-18.6c-0.6-0.5-1.3-1-1.9-1.5
		c-2-1.6-3.9-3.3-5.7-5.1v21c17.3,12.8,38.6,20.4,61.6,20.4c9.7,0,19.1-1.3,28-3.9c5.5-1.6,10.9-3.6,16-6c35.4-16.6,60-52.7,60-94.2
		C368,73.2,321.2,26.4,264,26.4z"/>
	<path class="st9" d="M388,362.8c-3.2,0-6.4-0.8-9.2-2.8l-37.2-26.4c-2.8-2-6-2.8-9.2-2.8H300c-4.4,0-8-3.6-8-8s3.6-8,8-8h32.4
		c6.8,0,13.2,2,18.4,6l37.2,26.4V218.4l-37.2,26.4c-5.6,4-12,6-18.8,6h-32c-4.4,0-8-3.6-8-8s3.6-8,8-8h32.4c3.2,0,6.8-1.2,9.6-2.8
		l37.2-26.4c4.8-3.6,11.6-4,16.8-1.2c5.2,2.8,8.8,8.4,8.8,14.4v128.8c0,6-3.2,11.2-8.4,14C393.6,362,390.8,362.8,388,362.8z"/>
	<g>
		<path class="st5" d="M70.4,76.6c0.2,0,0.3-0.1,0.5-0.1C70.7,76.5,70.6,76.6,70.4,76.6z"/>
		<path class="st5" d="M65.3,78.1c1-0.3,1.9-0.6,2.9-0.9C67.2,77.5,66.2,77.8,65.3,78.1z"/>
		<path class="st5" d="M205.2,162.4c1.7,13.7,6.6,28.4,14.8,44c-3.5-2-6.8-4.2-10-6.6c-0.6-0.5-1.3-1-1.9-1.5
			c-2-1.6-3.9-3.3-5.7-5.1V67.7c-2.2,2.1-4.3,4.4-6.2,6.8c2-2.4,4.1-4.7,6.2-6.9c6.7-6.7,14.4-12.1,22.7-16.1
			c0.6-0.3,1.1-0.6,1.7-0.8c0.6-0.3,1.2-0.5,1.8-0.8c1.5-0.7,3.1-1.3,4.7-1.9c23.6-8.7,50.9-7.2,74.7,6.4
			C238.1,71.6,198.5,109.4,205.2,162.4z"/>
	</g>
	<path class="st3" d="M70.4,76.6c0.2,0,0.3-0.1,0.5-0.1C70.7,76.5,70.6,76.6,70.4,76.6z"/>
	<path class="st3" d="M65.3,78.1c1-0.3,1.9-0.6,2.9-0.9C67.2,77.5,66.2,77.8,65.3,78.1z"/>
	<path class="st3" d="M183.1,165c-0.4-0.8-0.7-1.7-1.1-2.6h0C182.4,163.3,182.8,164.1,183.1,165z"/>
	<path class="st3" d="M202.4,67.6L202.4,67.6c-2.2,2.2-4.3,4.5-6.2,6.9C198.1,72.1,200.2,69.8,202.4,67.6z"/>
</g>
</svg>
