<?xml version="1.0" encoding="iso-8859-1"?>
<!-- Generator: Adobe Illustrator 19.0.0, SVG Export Plug-In . SVG Version: 6.00 Build 0)  -->
<svg version="1.1" id="Layer_1" xmlns="http://www.w3.org/2000/svg" xmlns:xlink="http://www.w3.org/1999/xlink" x="0px" y="0px"
	 viewBox="0 0 512 512" style="enable-background:new 0 0 512 512;" xml:space="preserve">
<pattern  x="-50.001" y="652" width="38.337" height="38.337" patternUnits="userSpaceOnUse" id="New_Pattern_Swatch_45" viewBox="0 -38.336 38.337 38.337" style="overflow:visible;">
	<g>
		<polygon style="fill:none;" points="0,0 38.337,0 38.337,-38.336 0,-38.336 		"/>
		<polygon style="fill:none;" points="0,-38.336 38.337,-38.336 38.337,0 0,0 		"/>
		<polygon style="fill:#A0A0A4;" points="38.337,-38.336 0,-38.336 0,0 38.337,0 		"/>
	</g>
</pattern>
<path style="fill:#57565C;" d="M21.171,139.985v354.868c0,9.469,7.677,17.146,17.146,17.146H256V139.985H21.171z"/>
<path style="fill:#D8D7DA;" d="M256,0H38.317c-9.469,0-17.146,7.677-17.146,17.146v88.547H256V0z"/>
<pattern  id="SVGID_1_" xlink:href="#New_Pattern_Swatch_45" patternTransform="matrix(1.1182 0 0 -1.1182 1690.0681 -18151.8711)">
</pattern>
<path style="fill:url(#SVGID_1_);" d="M473.682,0H256v105.693h234.828V17.146C490.828,7.677,483.151,0,473.682,0z"/>
<path style="fill:#C6C5CA;" d="M473.682,0H256v105.693h234.828V17.146C490.828,7.677,483.151,0,473.682,0z"/>
<pattern  id="SVGID_2_" xlink:href="#New_Pattern_Swatch_45" patternTransform="matrix(1.1182 0 0 -1.1182 1690.0681 -18151.8711)">
</pattern>
<path style="fill:url(#SVGID_2_);" d="M256,512h217.683c9.469,0,17.146-7.677,17.146-17.146V139.985H256V512z"/>
<path style="fill:#3E3D42;" d="M256,512h217.683c9.469,0,17.146-7.677,17.146-17.146V139.985H256V512z"/>
<rect x="21.171" y="105.695" style="fill:#787680;" width="234.826" height="34.292"/>
<rect x="256.002" y="105.695" style="fill:#57565C;" width="234.826" height="34.292"/>
<path style="fill:#3E3D42;" d="M256,188.227c-70.904,0-128.588,57.683-128.588,128.588S185.096,445.405,256,445.405
	s128.588-57.686,128.588-128.59S326.904,188.227,256,188.227z"/>
<path style="fill:#E0E0E2;" d="M256,171.456c-70.904,0-128.588,57.683-128.588,128.588S185.096,428.634,256,428.634
	s128.588-57.686,128.588-128.59S326.904,171.456,256,171.456z"/>
<path style="fill:#D8D7DA;" d="M256,171.456v257.177c70.904,0,128.588-57.686,128.588-128.59S326.904,171.456,256,171.456z"/>
<path style="fill:#C6C5CA;" d="M256,197.786c-56.385,0-102.258,45.872-102.258,102.257S199.615,402.301,256,402.301
	s102.258-45.873,102.258-102.258S312.384,197.786,256,197.786z"/>
<path style="fill:#ACABB1;" d="M256,197.786v204.515c56.385,0,102.258-45.873,102.258-102.258S312.384,197.786,256,197.786z"/>
<path style="fill:#3D9AE2;" d="M326.442,282.898H185.557c-9.469,0-17.146,7.677-17.146,17.146c0,48.297,39.292,87.59,87.588,87.59
	s87.588-39.292,87.588-87.59C343.588,290.575,335.911,282.898,326.442,282.898z"/>
<g>
	<circle style="fill:#787680;" cx="432.15" cy="53.665" r="25.606"/>
	<circle style="fill:#787680;" cx="335.869" cy="53.665" r="25.606"/>
</g>
<path style="fill:#1E81CE;" d="M326.442,282.898H256v104.736c48.297,0,87.588-39.292,87.588-87.59
	C343.588,290.575,335.911,282.898,326.442,282.898z"/>
<g>
</g>
<g>
</g>
<g>
</g>
<g>
</g>
<g>
</g>
<g>
</g>
<g>
</g>
<g>
</g>
<g>
</g>
<g>
</g>
<g>
</g>
<g>
</g>
<g>
</g>
<g>
</g>
<g>
</g>
</svg>
