<?xml version="1.0" encoding="iso-8859-1"?>
<!-- Generator: Adobe Illustrator 19.0.0, SVG Export Plug-In . SVG Version: 6.00 Build 0)  -->
<svg version="1.1" id="Layer_1" xmlns="http://www.w3.org/2000/svg" xmlns:xlink="http://www.w3.org/1999/xlink" x="0px" y="0px"
	 viewBox="0 0 512 512" style="enable-background:new 0 0 512 512;" xml:space="preserve">
<path style="fill:#ACABB1;" d="M430.793,382.056h-74.221c-5.039,0-9.837-2.147-13.194-5.903s-4.954-8.765-4.391-13.771
	l23.485-208.714c1.007-8.951,8.578-15.717,17.585-15.717h50.883c44.697,0,81.061,36.364,81.061,81.061v81.837
	C512,345.627,475.57,382.056,430.793,382.056z M376.37,346.665h54.422c25.264,0,45.816-20.553,45.816-45.816v-81.837
	c0-25.182-20.487-45.669-45.669-45.669h-35.066L376.37,346.665z"/>
<path style="fill:#E0E0E2;" d="M344.296,491.15H132.241c-8.785,0-16.24-6.445-17.509-15.137L66.363,144.992L2.9,48.25
	c-3.566-5.437-3.865-12.392-0.775-18.113c3.09-5.722,9.069-9.288,15.571-9.288h375.535c5.037,0,9.837,2.147,13.194,5.903
	s4.955,8.765,4.391,13.771l-48.935,434.911C360.875,484.384,353.305,491.15,344.296,491.15z"/>
<path style="fill:#C6C5CA;" d="M406.425,26.752c-3.356-3.756-8.157-5.903-13.194-5.903h-159.46v470.303h110.526
	c9.007,0,16.577-6.766,17.585-15.717l48.935-434.911C411.38,35.516,409.783,30.508,406.425,26.752z"/>
<path style="fill:#3D9AE2;" d="M75.571,208.012l39.161,268.001c1.271,8.692,8.725,15.137,17.509,15.137h212.055
	c9.007,0,16.577-6.766,17.585-15.717l30.09-267.422H75.571V208.012z"/>
<polygon style="fill:#52AFEF;" points="380.061,313.858 391.971,208.012 75.571,208.012 91.038,313.858 "/>
<path style="fill:#1E81CE;" d="M233.772,208.012V491.15h110.526c9.007,0,16.577-6.766,17.585-15.717l30.09-267.422H233.772V208.012z
	"/>
<polygon style="fill:#3AA1CE;" points="233.772,208.012 233.772,313.858 380.061,313.858 391.971,208.012 "/>
<g>
</g>
<g>
</g>
<g>
</g>
<g>
</g>
<g>
</g>
<g>
</g>
<g>
</g>
<g>
</g>
<g>
</g>
<g>
</g>
<g>
</g>
<g>
</g>
<g>
</g>
<g>
</g>
<g>
</g>
</svg>
