<?xml version="1.0" encoding="iso-8859-1"?>
<!-- Generator: Adobe Illustrator 19.0.0, SVG Export Plug-In . SVG Version: 6.00 Build 0)  -->
<svg version="1.1" id="Layer_1" xmlns="http://www.w3.org/2000/svg" xmlns:xlink="http://www.w3.org/1999/xlink" x="0px" y="0px"
	 viewBox="0 0 512 512" style="enable-background:new 0 0 512 512;" xml:space="preserve">
<path style="fill:#F8F8F9;" d="M426.667,280.381v-256C426.667,10.915,415.751,0,402.286,0H109.714
	C96.249,0,85.333,10.915,85.333,24.381v256H426.667z"/>
<path style="fill:#DDDBDB;" d="M463.238,341.333c0,60.593-49.12,109.714-109.714,109.714c-20.198,0-36.571,16.373-36.571,36.571V512
	H195.048v-24.381c0-20.197-16.373-36.571-36.571-36.571c-60.594,0-109.714-49.122-109.714-109.714v-12.19h414.476V341.333"/>
<path style="fill:#EDEDED;" d="M426.667,280.381v-256C426.667,10.915,415.751,0,402.286,0H253.134v280.381H426.667z"/>
<path style="fill:#D1CFCF;" d="M253.134,512h63.818v-24.381c0-20.198,16.373-36.571,36.571-36.571
	c60.594,0,109.714-49.122,109.714-109.714v-12.19H253.134V512z"/>
<path style="fill:#EDEDED;" d="M60.952,268.19c-20.197,0-36.571,16.374-36.571,36.571s16.374,36.571,36.571,36.571h390.095
	c20.197,0,36.571-16.374,36.571-36.571s-16.374-36.571-36.571-36.571H60.952z"/>
<path style="fill:#DDDBDB;" d="M487.619,304.762c0-20.197-16.374-36.571-36.571-36.571h-24.381H253.134v73.143h197.914
	C471.245,341.333,487.619,324.959,487.619,304.762z"/>
<g>
</g>
<g>
</g>
<g>
</g>
<g>
</g>
<g>
</g>
<g>
</g>
<g>
</g>
<g>
</g>
<g>
</g>
<g>
</g>
<g>
</g>
<g>
</g>
<g>
</g>
<g>
</g>
<g>
</g>
</svg>
