<?xml version="1.0" encoding="utf-8"?>
<!-- Generator: Adobe Illustrator 20.1.0, SVG Export Plug-In . SVG Version: 6.00 Build 0)  -->
<svg version="1.1" xmlns="http://www.w3.org/2000/svg" xmlns:xlink="http://www.w3.org/1999/xlink" x="0px" y="0px"
	 viewBox="0 0 58 58" style="enable-background:new 0 0 58 58;" xml:space="preserve">
<style type="text/css">
	.st0{display:none;}
	.st1{display:inline;fill:#6B4842;}
	.st2{display:inline;fill:#CED8F2;}
	.st3{display:inline;fill:#847059;}
	.st4{display:inline;opacity:0.64;fill:#2D2D2D;}
	.st5{display:none;fill:#6B4842;}
	.st6{fill:#847059;}
	.st7{fill:#543A36;}
	.st8{fill:#6B4842;}
	.st9{fill:#CED8F2;}
	.st10{opacity:0.64;fill:#2D2D2D;}
</style>
<g id="Capa_1" class="st0">
	<path class="st1" d="M31,4h-4H2v23v4v23h25h4h25V31v-4V4H31z"/>
	<rect x="6" y="8" class="st2" width="21" height="42"/>
	<rect x="31" y="31" class="st2" width="21" height="19"/>
	<rect x="31" y="8" class="st2" width="21" height="42"/>
	<rect class="st3" width="58" height="4"/>
	<rect y="54" class="st3" width="58" height="4"/>
	<polygon class="st4" points="56.3,4 56.3,54 58,54 58,58 29,58 29,0 58,0 58,4 	"/>
</g>
<g id="Capa_1_copia">
	<path class="st5" d="M31,4h-4H2v23v4v23h25h4h25V31v-4V4H31z"/>
	<rect class="st6" width="58" height="4"/>
	<rect y="54" class="st6" width="58" height="4"/>
	<rect x="41.5" y="0.8" class="st7" width="2" height="56.5"/>
	<rect x="14.5" y="0.8" class="st7" width="2" height="56.5"/>
	<rect x="2" y="4" class="st8" width="2" height="50"/>
	<rect x="3" y="4" class="st7" width="1" height="50"/>
	<rect x="54" y="4" class="st8" width="2" height="50"/>
	<polygon class="st8" points="14.5,0.8 4,4 4,54 14.5,57.3 	"/>
	<rect x="54" y="4" class="st7" width="1" height="50"/>
	<polygon class="st9" points="5.3,6.2 12.2,4 11.9,54 5.3,51.9 	"/>
	<polygon class="st8" points="43.5,57.3 54,54 54,4 43.5,0.8 	"/>
	<polygon class="st9" points="52.7,51.8 45.8,54 46.1,4 52.7,6.1 	"/>
	<g id="Livello_2_copia">
		<polygon class="st10" points="56.3,4 56.3,54 58,54 58,58 29,58 29,54.1 41.4,54.1 41.4,4 29,4 29,0 58,0 58,4 		"/>
	</g>
</g>
</svg>
