<?xml version="1.0" encoding="iso-8859-1"?>
<!-- Generator: Adobe Illustrator 19.0.0, SVG Export Plug-In . SVG Version: 6.00 Build 0)  -->
<svg version="1.1" id="Layer_1" xmlns="http://www.w3.org/2000/svg" xmlns:xlink="http://www.w3.org/1999/xlink" x="0px" y="0px"
	 viewBox="0 0 512 512" style="enable-background:new 0 0 512 512;" xml:space="preserve">
<polygon style="fill:#95D5A7;" points="491.402,0 20.598,0 20.598,35.31 67.678,35.31 67.678,453.149 444.322,453.149 
	444.322,35.31 491.402,35.31 "/>
<polygon style="fill:#80CB93;" points="256,0 256,453.149 444.322,453.149 444.322,35.31 491.402,35.31 491.402,0 "/>
<rect x="32.368" y="441.379" style="fill:#EFC27B;" width="447.264" height="70.621"/>
<rect x="256" y="441.379" style="fill:#ECB45C;" width="223.632" height="70.621"/>
<g>
	<rect x="138.299" y="88.276" style="fill:#D1E5F5;" width="82.391" height="105.931"/>
	<rect x="291.31" y="88.276" style="fill:#D1E5F5;" width="82.391" height="105.931"/>
	<rect x="138.299" y="264.828" style="fill:#D1E5F5;" width="82.391" height="105.931"/>
	<rect x="291.31" y="264.828" style="fill:#D1E5F5;" width="82.391" height="105.931"/>
</g>
<g>
	<polygon style="fill:#B4D8F1;" points="220.69,194.207 138.299,194.207 220.69,88.276 	"/>
	<polygon style="fill:#B4D8F1;" points="373.701,194.207 291.31,194.207 373.701,88.276 	"/>
	<polygon style="fill:#B4D8F1;" points="220.69,370.759 138.299,370.759 220.69,264.828 	"/>
	<polygon style="fill:#B4D8F1;" points="373.701,370.759 291.31,370.759 373.701,264.828 	"/>
</g>
<g>
</g>
<g>
</g>
<g>
</g>
<g>
</g>
<g>
</g>
<g>
</g>
<g>
</g>
<g>
</g>
<g>
</g>
<g>
</g>
<g>
</g>
<g>
</g>
<g>
</g>
<g>
</g>
<g>
</g>
</svg>
