<?xml version="1.0" encoding="iso-8859-1"?>
<!-- Generator: Adobe Illustrator 19.0.0, SVG Export Plug-In . SVG Version: 6.00 Build 0)  -->
<svg version="1.1" id="Layer_1" xmlns="http://www.w3.org/2000/svg" xmlns:xlink="http://www.w3.org/1999/xlink" x="0px" y="0px"
	 viewBox="0 0 511.999 511.999" style="enable-background:new 0 0 511.999 511.999;" xml:space="preserve">
<path style="fill:#787680;" d="M511.323,137.215c-0.606-6.495-4.91-12.056-11.046-14.27c-6.139-2.215-13.001-0.682-17.613,3.93
	l-52.066,52.066l-76.944-20.617L333.04,81.381l52.065-52.066c4.613-4.613,6.145-11.476,3.93-17.613
	c-2.214-6.136-7.775-10.442-14.27-11.046C370.093,0.221,365.343,0,360.648,0c-40.423,0-78.426,15.74-107.005,44.32
	c-39.499,39.499-53.832,97.524-37.961,150.51L20.994,389.517c-27.975,27.975-27.975,73.492,0,101.467
	c13.551,13.552,31.57,21.015,50.734,21.015s37.183-7.464,50.734-21.015L317.147,296.3c14.084,4.223,28.673,6.359,43.51,6.359
	c40.42,0,78.421-15.74,107.001-44.32C499.604,226.392,515.52,182.245,511.323,137.215z"/>
<path style="fill:#57565C;" d="M467.659,258.337c31.946-31.944,47.86-76.092,43.665-121.123c-0.606-6.495-4.91-12.056-11.046-14.27
	c-6.139-2.215-13.001-0.682-17.613,3.93L430.6,178.94l-76.944-20.617l-0.633-2.363L19.535,489.448
	c0.485,0.514,0.957,1.033,1.46,1.536c13.551,13.552,31.57,21.015,50.734,21.015s37.183-7.464,50.734-21.015L317.147,296.3
	c14.084,4.223,28.673,6.359,43.51,6.359C401.079,302.657,439.079,286.917,467.659,258.337z"/>
<path style="fill:#3E3D42;" d="M46.106,465.605L46.106,465.605c-15.47-15.47-15.47-40.552,0-56.021l108.496-108.497
	c15.47-15.47,40.552-15.47,56.021,0l0,0c15.47,15.47,15.47,40.552,0,56.021L102.127,465.605
	C86.657,481.074,61.575,481.074,46.106,465.605z"/>
<g>
</g>
<g>
</g>
<g>
</g>
<g>
</g>
<g>
</g>
<g>
</g>
<g>
</g>
<g>
</g>
<g>
</g>
<g>
</g>
<g>
</g>
<g>
</g>
<g>
</g>
<g>
</g>
<g>
</g>
</svg>
